<svg width="90" height="90" viewBox="0 0 90 90" fill="none" xmlns="http://www.w3.org/2000/svg">
<circle cx="45" cy="45" r="44.5" stroke="#D25F15"/>
<path d="M55 51.3948C57.4265 52.6138 59.5069 54.5699 61.0254 57.016C61.3261 57.5005 61.4764 57.7427 61.5284 58.078C61.6341 58.7596 61.168 59.5976 60.5332 59.8673C60.2208 60 59.8694 60 59.1666 60M51.6666 44.2204C54.1362 42.9931 55.8333 40.4448 55.8333 37.5C55.8333 34.5552 54.1362 32.0069 51.6666 30.7796M48.3333 37.5C48.3333 41.6421 44.9754 45 40.8333 45C36.6912 45 33.3333 41.6421 33.3333 37.5C33.3333 33.3579 36.6912 30 40.8333 30C44.9754 30 48.3333 33.3579 48.3333 37.5ZM29.2654 56.5639C31.9225 52.5743 36.1156 50 40.8333 50C45.551 50 49.7441 52.5743 52.4013 56.5639C52.9834 57.4379 53.2744 57.8749 53.2409 58.4332C53.2148 58.8679 52.9299 59.4 52.5826 59.6627C52.1365 60 51.523 60 50.296 60H31.3706C30.1436 60 29.5301 60 29.084 59.6627C28.7367 59.4 28.4518 58.8679 28.4257 58.4332C28.3922 57.8749 28.6832 57.4379 29.2654 56.5639Z" stroke="#261104" stroke-linecap="round" stroke-linejoin="round"/>
</svg>
