<svg width="90" height="90" viewBox="0 0 90 90" fill="none" xmlns="http://www.w3.org/2000/svg">
<circle cx="45" cy="45" r="44.5" stroke="#D25F15"/>
<path d="M44.9999 51.6667V60M54.9999 60L48.4142 54.5119C47.1996 53.4997 46.5923 52.9936 45.9144 52.8002C45.3167 52.6297 44.6832 52.6297 44.0855 52.8002C43.4076 52.9936 42.8002 53.4997 41.5856 54.5119L34.9999 60M38.3333 43.3333V45M44.9999 40V45M51.6666 36.6667V45M61.6666 30H28.3333M29.9999 30H59.9999V43.6667C59.9999 46.4669 59.9999 47.8671 59.455 48.9366C58.9756 49.8774 58.2107 50.6423 57.2699 51.1217C56.2003 51.6667 54.8002 51.6667 51.9999 51.6667H37.9999C35.1997 51.6667 33.7995 51.6667 32.73 51.1217C31.7892 50.6423 31.0243 49.8774 30.5449 48.9366C29.9999 47.8671 29.9999 46.4669 29.9999 43.6667V30Z" stroke="#261104" stroke-linecap="round" stroke-linejoin="round"/>
</svg>
