<svg width="23" height="24" viewBox="0 0 23 24" fill="none" xmlns="http://www.w3.org/2000/svg">
<path fill-rule="evenodd" clip-rule="evenodd" d="M23 12L22.9983 12L22.9931 12L22.9845 12.0003L22.9724 12.0007L22.9569 12.0014L22.938 12.0024L22.9157 12.0039L22.89 12.0058L22.8609 12.0083L22.8285 12.0114L22.7927 12.0152L22.7537 12.0197L22.7113 12.025L22.6657 12.0312L22.6169 12.0383L22.5649 12.0465L22.5098 12.0556L22.4516 12.0659L22.3903 12.0774L22.3259 12.0901L22.2586 12.1041L22.1883 12.1195L22.1152 12.1362L22.0392 12.1544L21.9605 12.1741L21.879 12.1953L21.7948 12.2182L21.7081 12.2427L21.6187 12.2688L21.5269 12.2968L21.4326 12.3264L21.336 12.3579L21.2371 12.3913L21.1359 12.4265L21.0326 12.4636L20.9272 12.5027L20.8197 12.5438L20.7103 12.5868L20.599 12.6319L20.4859 12.6791L20.3711 12.7283L20.2546 12.7796L20.1365 12.8331L20.017 12.8886L19.896 12.9463L19.7737 13.0062L19.6501 13.0682L19.5253 13.1324L19.3994 13.1987L19.2725 13.2672L19.1447 13.3379L19.016 13.4107L18.8865 13.4857L18.7563 13.5629L18.6255 13.6422L18.4942 13.7236L18.3625 13.8071L18.2303 13.8927L18.0979 13.9804L17.9653 14.0702L17.8326 14.162L17.6998 14.2558L17.567 14.3516L17.4344 14.4493L17.3019 14.5489L17.1698 14.6505L17.0379 14.7538L16.9065 14.859L16.7756 14.966L16.6453 15.0746L16.5156 15.185L16.3867 15.2969L16.2585 15.4105L16.1312 15.5256L16.0048 15.6421L15.8794 15.7601L15.7551 15.8795L15.6319 16.0002L15.5098 16.1221L15.3891 16.2452L15.2696 16.3695L15.1515 16.4948L15.0348 16.6211L14.9196 16.7483L14.8059 16.8764L14.6938 17.0053L14.5834 17.135L14.4746 17.2652L14.3675 17.3961L14.2622 17.5275L14.1586 17.6593L14.057 17.7914L13.9572 17.9238L13.8593 18.0564L13.7634 18.1892L13.6694 18.322L13.5774 18.4547L13.4875 18.5874L13.3997 18.7198L13.3139 18.852L13.2302 18.9838L13.1486 19.1151L13.0691 19.2459L12.9918 19.3762L12.9166 19.5057L12.8436 19.6345L12.7728 19.7624L12.7041 19.8893L12.6376 20.0153L12.5732 20.1402L12.5111 20.2639L12.451 20.3863L12.3932 20.5074L12.3374 20.6271L12.2838 20.7453L12.2323 20.8619L12.1829 20.9768L12.1356 21.0901L12.0904 21.2015L12.0471 21.3111L12.0059 21.4187L11.9667 21.5243L11.9294 21.6278L11.894 21.7291L11.8605 21.8282L11.8289 21.925L11.7991 22.0195L11.771 22.1115L11.7447 22.201L11.7201 22.288L11.6971 22.3724L11.6758 22.4541L11.6559 22.5331L11.6376 22.6093L11.6208 22.6826L11.6053 22.7531L11.5912 22.8207L11.5784 22.8852L11.5668 22.9468L11.5564 23.0053L11.5472 23.0607L11.539 23.1129L11.5318 23.162L11.5255 23.2078L11.5201 23.2504L11.5155 23.2898L11.5117 23.3258L11.5086 23.3585L11.506 23.3878L11.504 23.4138L11.5026 23.4364L11.5015 23.4556L11.5008 23.4713L11.5003 23.4837L11.5001 23.4926L11.5 23.498L11.5 23.5L11.5 23.4985L11.4999 23.4937L11.4997 23.4853L11.4993 23.4735L11.4986 23.4583L11.4976 23.4397L11.4962 23.4176L11.4943 23.3922L11.4918 23.3634L11.4888 23.3312L11.4851 23.2957L11.4806 23.2569L11.4754 23.2148L11.4693 23.1695L11.4622 23.1209L11.4542 23.0692L11.4451 23.0143L11.4349 22.9563L11.4235 22.8953L11.4109 22.8312L11.397 22.7641L11.3817 22.694L11.3651 22.6211L11.347 22.5454L11.3275 22.4669L11.3063 22.3856L11.2836 22.3016L11.2593 22.2151L11.2332 22.1259L11.2055 22.0343L11.1759 21.9402L11.1446 21.8438L11.1114 21.7451L11.0763 21.6441L11.0394 21.5409L11.0004 21.4357L10.9595 21.3284L10.9166 21.2191L10.8717 21.108L10.8247 20.995L10.7756 20.8803L10.7245 20.7639L10.6712 20.646L10.6158 20.5266L10.5583 20.4057L10.4986 20.2835L10.4368 20.16L10.3728 20.0353L10.3066 19.9095L10.2383 19.7827L10.1678 19.6549L10.0951 19.5262L10.0203 19.3968L9.9433 19.2667L9.86418 19.136L9.78293 19.0047L9.69957 18.873L9.61411 18.7409L9.52657 18.6085L9.43697 18.4759L9.34534 18.3431L9.25169 18.2103L9.15607 18.0776L9.0585 17.9449L8.959 17.8125L8.85763 17.6803L8.7544 17.5484L8.64937 17.417L8.54257 17.286L8.43404 17.1557L8.32383 17.0259L8.21198 16.8969L8.09855 16.7687L7.98358 16.6413L7.86713 16.5148L7.74925 16.3893L7.63 16.2649L7.50943 16.1416L7.3876 16.0195L7.26458 15.8986L7.14042 15.7791L7.01519 15.6608L6.88896 15.544L6.76179 15.4287L6.63375 15.3149L6.50491 15.2027L6.37534 15.0921L6.24511 14.9831L6.11429 14.8759L5.98297 14.7705L5.85121 14.6668L5.71908 14.565L5.58668 14.465L5.45407 14.367L5.32133 14.2709L5.18854 14.1768L5.05579 14.0847L4.92314 13.9946L4.79069 13.9066L4.65851 13.8206L4.52668 13.7367L4.39529 13.655L4.26442 13.5754L4.13415 13.4979L4.00456 13.4225L3.87573 13.3493L3.74774 13.2783L3.62069 13.2095L3.49464 13.1428L3.36968 13.0783L3.24589 13.0159L3.12336 12.9557L3.00215 12.8977L2.88235 12.8418L2.76405 12.788L2.6473 12.7363L2.53221 12.6868L2.41883 12.6393L2.30724 12.5939L2.19753 12.5505L2.08976 12.5091L1.98401 12.4697L1.88034 12.4323L1.77882 12.3967L1.67954 12.3631L1.58254 12.3313L1.4879 12.3014L1.39569 12.2732L1.30596 12.2467L1.21877 12.222L1.13419 12.1989L1.05228 12.1774L0.973085 12.1574L0.896664 12.139L0.823071 12.122L0.752356 12.1065L0.684567 12.0923L0.619751 12.0794L0.557954 12.0677L0.499217 12.0572L0.443583 12.0479L0.391089 12.0396L0.341772 12.0323L0.295666 12.0259L0.252804 12.0205L0.213215 12.0158L0.176926 12.012L0.143964 12.0088L0.114351 12.0062L0.0881075 12.0042L0.0652523 12.0026L0.0458012 12.0015L0.0297678 12.0008L0.0171634 12.0003L0.00799676 12.0001L0.00227429 12L0 12L0.00117549 11.9999L0.00579992 11.9999L0.0138701 11.9997L0.0253803 11.9993L0.0403225 11.9987L0.0586863 11.9977L0.0804588 11.9963L0.105625 11.9944L0.134167 11.992L0.166065 11.989L0.201296 11.9854L0.239837 11.981L0.28166 11.9758L0.326736 11.9698L0.375034 11.9628L0.426519 11.9548L0.481158 11.9458L0.53891 11.9357L0.599737 11.9244L0.663596 11.9119L0.730443 11.8981L0.800231 11.883L0.872913 11.8665L0.948439 11.8485L1.02676 11.829L1.10781 11.8081L1.19155 11.7855L1.27791 11.7612L1.36683 11.7353L1.45826 11.7077L1.55214 11.6783L1.64839 11.6471L1.74695 11.6141L1.84777 11.5792L1.95075 11.5423L2.05585 11.5036L2.16299 11.4628L2.27209 11.4201L2.38309 11.3753L2.4959 11.3285L2.61046 11.2796L2.72669 11.2286L2.8445 11.1755L2.96383 11.1203L3.0846 11.0629L3.20672 11.0034L3.33012 10.9417L3.45471 10.8779L3.58042 10.8119L3.70717 10.7438L3.83486 10.6734L3.96343 10.6009L4.09279 10.5263L4.22286 10.4495L4.35355 10.3705L4.48478 10.2895L4.61648 10.2063L4.74855 10.121L4.88093 10.0336L5.01352 9.94415L5.14625 9.85268L5.27904 9.75919L5.4118 9.66373L5.54446 9.56631L5.67694 9.46697L5.80916 9.36574L5.94104 9.26266L6.07251 9.15777L6.2035 9.0511L6.33392 8.94271L6.46371 8.83263L6.59279 8.72092L6.72109 8.60761L6.84855 8.49276L6.97509 8.37643L7.10064 8.25866L7.22515 8.13951L7.34854 8.01904L7.47076 7.89731L7.59173 7.77438L7.71141 7.65031L7.82974 7.52517L7.94665 7.39901L8.06209 7.27191L8.17602 7.14394L8.28838 7.01516L8.39911 6.88564L8.50818 6.75546L8.61554 6.62469L8.72114 6.4934L8.82495 6.36167L8.92692 6.22958L9.02701 6.09719L9.1252 5.9646L9.22145 5.83186L9.31572 5.69908L9.408 5.56632L9.49825 5.43366L9.58645 5.30119L9.67257 5.16898L9.7566 5.03712L9.83853 4.9057L9.91832 4.77478L9.99599 4.64445L10.0715 4.51481L10.1448 4.38591L10.216 4.25786L10.2851 4.13073L10.3519 4.00459L10.4166 3.87955L10.4791 3.75566L10.5395 3.63302L10.5977 3.51171L10.6538 3.39179L10.7077 3.27336L10.7596 3.15649L10.8093 3.04126L10.8569 2.92774L10.9025 2.81601L10.9461 2.70615L10.9876 2.59822L11.0272 2.4923L11.0648 2.38847L11.1004 2.28678L11.1342 2.18731L11.1661 2.09013L11.1963 1.9953L11.2246 1.90289L11.2512 1.81296L11.276 1.72557L11.2993 1.64078L11.3209 1.55865L11.341 1.47924L11.3595 1.40259L11.3766 1.32877L11.3923 1.25783L11.4066 1.1898L11.4196 1.12475L11.4314 1.06271L11.4419 1.00373L11.4514 0.947845L11.4598 0.8951L11.4671 0.845528L11.4735 0.799166L11.4791 0.756044L11.4838 0.716193L11.4877 0.67964L11.4909 0.646412L11.4936 0.616531L11.4956 0.590019L11.4972 0.566893L11.4983 0.54717L11.4991 0.530864L11.4996 0.517987L11.4998 0.508546L11.5 0.502549L11.5 0.5L11.5 0.500901L11.5 0.505251L11.5002 0.513047L11.5006 0.524283L11.5012 0.538953L11.5022 0.557044L11.5035 0.578546L11.5053 0.603442L11.5077 0.631716L11.5106 0.663348L11.5142 0.698315L11.5186 0.736593L11.5237 0.778156L11.5297 0.822974L11.5366 0.871017L11.5444 0.92225L11.5534 0.976639L11.5634 1.03414L11.5746 1.09473L11.587 1.15835L11.6007 1.22496L11.6157 1.29451L11.6321 1.36697L11.65 1.44227L11.6693 1.52037L11.6902 1.6012L11.7126 1.68473L11.7367 1.77088L11.7625 1.85961L11.7899 1.95084L11.8192 2.04452L11.8503 2.14059L11.8831 2.23897L11.9179 2.33961L11.9546 2.44243L11.9932 2.54736L12.0338 2.65434L12.0764 2.76328L12.121 2.87413L12.1676 2.9868L12.2164 3.10123L12.2672 3.21732L12.3201 3.33502L12.3752 3.45423L12.4324 3.57489L12.4917 3.6969L12.5532 3.8202L12.6169 3.94471L12.6827 4.07033L12.7507 4.197L12.8208 4.32462L12.8931 4.45312L12.9676 4.58242L13.0443 4.71243L13.123 4.84308L13.2039 4.97427L13.287 5.10593L13.3721 5.23798L13.4593 5.37034L13.5486 5.50291L13.6399 5.63564L13.7332 5.76842L13.8285 5.90119L13.9258 6.03386L14.025 6.16636L14.1261 6.2986L14.229 6.43052L14.3337 6.56202L14.4403 6.69305L14.5485 6.82352L14.6585 6.95336L14.7701 7.0825L14.8832 7.21087L14.998 7.3384L15.1142 7.46501L15.2318 7.59065L15.3509 7.71524L15.4712 7.83872L15.5929 7.96103L15.7157 8.08211L15.8397 8.2019L15.9648 8.32033L16.0908 8.43736L16.2179 8.55292L16.3458 8.66697L16.4745 8.77946L16.6039 8.89032L16.7341 8.99953L16.8648 9.10702L16.996 9.21277L17.1277 9.31672L17.2598 9.41883L17.3922 9.51908L17.5248 9.61742L17.6575 9.71383L17.7903 9.80826L17.923 9.9007L18.0557 9.99111L18.1882 10.0795L18.3204 10.1658L18.4523 10.25L18.5838 10.3321L18.7147 10.412L18.8451 10.4899L18.9748 10.5655L19.1038 10.6391L19.2319 10.7104L19.3591 10.7796L19.4853 10.8467L19.6104 10.9115L19.7344 10.9742L19.8572 11.0347L19.9786 11.0931L20.0986 11.1494L20.2172 11.2035L20.3342 11.2555L20.4495 11.3054L20.5632 11.3532L20.6751 11.3989L20.7851 11.4427L20.8932 11.4844L20.9992 11.5241L21.1033 11.5618L21.2051 11.5976L21.3048 11.6316L21.4021 11.6636L21.4971 11.6939L21.5897 11.7224L21.6799 11.7491L21.7675 11.7741L21.8525 11.7975L21.9348 11.8192L22.0144 11.8394L22.0913 11.8581L22.1654 11.8753L22.2365 11.891L22.3048 11.9055L22.3701 11.9186L22.4324 11.9304L22.4916 11.9411L22.5477 11.9506L22.6007 11.9591L22.6505 11.9665L22.6972 11.973L22.7405 11.9786L22.7807 11.9834L22.8175 11.9874L22.851 11.9907L22.8811 11.9934L22.9079 11.9955L22.9313 11.9971L22.9513 11.9982L22.9679 11.999L22.981 11.9995L22.9907 11.9998L22.997 11.9999L22.9998 12L23 12Z" fill="#FBF6F4"/>
</svg>
