<svg width="31" height="30" viewBox="0 0 31 30" fill="none" xmlns="http://www.w3.org/2000/svg">
<path d="M18.8133 15.0005L14.0566 10.3574L14.0565 10.3575L14.0535 10.3543C13.8488 10.1361 13.8488 9.78458 14.0535 9.56638C14.2611 9.3451 14.6005 9.34454 14.8087 9.5647L19.947 14.58L19.947 14.5799L19.95 14.5831C20.0601 14.7002 20.1054 14.8534 20.0995 15C20.1054 15.1471 20.0601 15.2998 19.95 15.417L19.95 15.417L19.947 15.42L14.8087 20.4353C14.6005 20.6555 14.2611 20.6549 14.0535 20.4336C13.8488 20.2154 13.8488 19.8639 14.0535 19.6457L14.0535 19.6457L14.0566 19.6426L18.8133 15.0005Z" fill="#261104" stroke="#261104" stroke-width="0.2"/>
</svg>
