<svg width="30" height="30" viewBox="0 0 30 30" fill="none" xmlns="http://www.w3.org/2000/svg">
<path d="M11.6867 15.0006L16.4434 10.3575L16.4435 10.3576L16.4465 10.3544C16.6512 10.1362 16.6512 9.7847 16.4465 9.5665C16.2389 9.34522 15.8995 9.34466 15.6913 9.56482L10.553 14.5801L10.553 14.58L10.55 14.5832C10.4399 14.7003 10.3946 14.8535 10.4005 15.0001C10.3946 15.1472 10.4399 15.2999 10.55 15.4171L10.55 15.4171L10.553 15.4201L15.6913 20.4354C15.8995 20.6556 16.2389 20.655 16.4465 20.4337C16.6512 20.2156 16.6512 19.8641 16.4465 19.6459L16.4465 19.6458L16.4434 19.6427L11.6867 15.0006Z" fill="#261104" stroke="#261104" stroke-width="0.2"/>
</svg>
