<?xml version="1.0" encoding="utf-8"?>
<!-- Generator: Adobe Illustrator 23.0.2, SVG Export Plug-In . SVG Version: 6.00 Build 0)  -->
<svg version="1.1" id="Слой_1" xmlns="http://www.w3.org/2000/svg" xmlns:xlink="http://www.w3.org/1999/xlink" x="0px" y="0px"
	 viewBox="0 0 274.7 60" style="enable-background:new 0 0 274.7 60;" xml:space="preserve">
<style type="text/css">
	.st0{fill-rule:evenodd;clip-rule:evenodd;fill:#152C4E;}
	.st1{fill-rule:evenodd;clip-rule:evenodd;fill:#7ABFC8;}
	.st2{enable-background:new    ;}
	.st3{fill:#686869;}
</style>
<title>logo-header</title>
<g>
	<g id="Слой_1-2">
		<path class="st0" d="M25.6,48.4L0,51.6v2.9l25.6-1.8L25.6,48.4L25.6,48.4z M25.6,55.3L0,56.7v2.9h25.6
			C25.6,59.5,25.6,55.3,25.6,55.3z M25.6,0L0,15.9v2.9L25.6,4.2V0z M25.6,6.9v4.2L0,23.9V21L25.6,6.9L25.6,6.9z M25.6,13.8V18L0,29
			v-2.9L25.6,13.8L25.6,13.8z M25.6,20.8L0,31.2v2.9L25.6,25L25.6,20.8L25.6,20.8z M25.6,27.7L0,36.3v2.9l25.6-7.3L25.6,27.7
			L25.6,27.7z M25.6,34.6v4.2L0,44.3v-2.9L25.6,34.6L25.6,34.6z M25.6,41.5v4.2L0,49.3v-2.9L25.6,41.5z"/>
		<path class="st1" d="M25.6,48.4l13.5,3.2v2.9l-13.5-1.8V48.4z M25.6,55.3l13.5,1.3v2.9H25.6V55.3z M25.6,0l13.5,15.9v2.9L25.6,4.2
			V0z M25.6,6.9v4.2l13.5,12.8V21L25.6,6.9z M25.6,13.8V18l13.5,11v-2.9L25.6,13.8L25.6,13.8z M25.6,20.8l13.5,10.5v2.9L25.6,25
			V20.8z M25.6,27.7l13.5,8.6v2.9l-13.5-7.3V27.7L25.6,27.7z M25.6,34.6v4.2l13.5,5.5v-2.9L25.6,34.6L25.6,34.6z M25.6,41.5v4.2
			l13.5,3.7v-2.9L25.6,41.5z"/>
		<path class="st1" d="M122.8,39.2h9.3v2h-9.3V39.2z M122.8,48.4h9.3v2h-9.3V48.4z M132.3,59.5h-9.7v-2h9.7V59.5z"/>
		<path class="st0" d="M274.7,59.5h-2.2V42.5h-5.3c-0.6,4.8-1.1,8.2-1.5,10.2c-0.2,1.5-0.6,3-1.1,4.4c-0.3,0.8-0.8,1.6-1.5,2.1
			c-0.7,0.5-1.4,0.7-2.2,0.7c-0.6,0-1.2-0.1-1.8-0.3v-2.1c0.5,0.3,1,0.4,1.5,0.4c0.6-0.1,1.2-0.4,1.5-1c0.5-0.7,1-2.4,1.5-5.1
			s1.1-6.5,1.7-11.3h9.4L274.7,59.5z"/>
		<path class="st0" d="M258.2,59.7h-2.5l-2-5.3h-8.1l-1.9,5.3h-2.5l7.3-19.1h2.3L258.2,59.7L258.2,59.7z M253,52.3l-3-8.1
			c-0.1-0.4-0.2-0.8-0.3-1.3h-0.1c-0.1,0.4-0.2,0.9-0.3,1.3l-3,8.1H253z"/>
		<polygon class="st0" points="239.4,42.6 233.9,42.6 233.9,59.7 231.6,59.7 231.6,42.6 226.1,42.6 226.1,40.6 239.4,40.6 		"/>
		<path class="st0" d="M214.4,52.5v7.2h-2.2V40.6h5.2c1.7-0.1,3.4,0.4,4.8,1.5c1.2,1.1,1.8,2.6,1.7,4.2c0.1,1.7-0.6,3.3-1.9,4.4
			c-1.4,1.2-3.2,1.8-5,1.7H214.4z M214.4,42.6v7.8h2.3c1.3,0.1,2.5-0.3,3.5-1.1c0.8-0.8,1.3-1.9,1.2-3c0-2.5-1.5-3.8-4.5-3.8
			L214.4,42.6z"/>
		<path class="st0" d="M209,59.7h-2.5l-2-5.3h-8.1l-1.9,5.3H192l7.3-19.1h2.3L209,59.7z M203.8,52.3l-3-8.1
			c-0.1-0.4-0.2-0.8-0.3-1.3h-0.1c-0.1,0.4-0.2,0.9-0.3,1.3l-3,8.1H203.8z"/>
		<path class="st0" d="M177.5,59.7V40.6h5.4c1.4-0.1,2.8,0.4,3.9,1.2c1,0.8,1.5,2,1.5,3.2c0,1-0.3,2-0.9,2.8
			c-0.6,0.8-1.5,1.4-2.4,1.7v0c1.2,0.1,2.3,0.6,3.1,1.4c0.8,0.9,1.2,2,1.2,3.2c0.1,1.5-0.6,3-1.8,4c-1.2,1-2.8,1.6-4.4,1.5
			L177.5,59.7z M179.8,50.8v6.9h3c1.1,0.1,2.2-0.3,3.1-0.9c0.7-0.6,1.1-1.6,1.1-2.6c0-2.3-1.5-3.4-4.6-3.4L179.8,50.8z M179.8,42.6
			v6.2h2.2c1,0.1,2.1-0.3,2.9-0.9c0.7-0.6,1.1-1.6,1-2.5c0-1.9-1.2-2.8-3.7-2.8H179.8z"/>
		<path class="st0" d="M174.8,59.7h-3.1l-7.4-8.7c-0.2-0.2-0.4-0.4-0.5-0.7h-0.1v9.4h-2.2V40.6h2.2v9h0.1c0.1-0.2,0.3-0.4,0.5-0.7
			l7.1-8.3h2.8l-8.2,9.1L174.8,59.7z"/>
		<path class="st0" d="M149.2,58.9c-1.6,0.8-3.4,1.2-5.2,1.1c-2.4,0.1-4.8-0.8-6.5-2.6c-1.7-1.9-2.6-4.4-2.5-6.9
			c-0.1-2.7,0.9-5.4,2.8-7.4c1.8-1.9,4.4-2.9,7-2.8c1.5,0,3.1,0.2,4.5,0.8v2.4c-1.4-0.8-2.9-1.2-4.5-1.2c-2-0.1-4,0.7-5.3,2.2
			c-1.4,1.6-2.1,3.7-2,5.9c-0.1,2,0.6,4,1.9,5.6c1.3,1.4,3.1,2.1,5,2.1c1.8,0,3.5-0.4,5-1.3L149.2,58.9z"/>
		<polygon class="st0" points="116.3,59.7 114.1,59.7 114.1,51 104.2,51 104.2,59.7 101.9,59.7 101.9,40.6 104.2,40.6 104.2,49 
			114.1,49 114.1,40.6 116.3,40.6 		"/>
		<path class="st0" d="M85.7,58.9v-2.4c1.5,1.1,3.2,1.7,5.1,1.6c1.2,0.1,2.3-0.3,3.3-1c0.8-0.7,1.3-1.7,1.2-2.7c0-2.4-1.7-3.7-5-3.7
			h-2v-1.8h1.8c1.2,0.1,2.4-0.2,3.3-0.9c0.8-0.6,1.2-1.6,1.2-2.6c0-0.9-0.3-1.7-1-2.3c-0.7-0.6-1.7-0.9-2.6-0.9
			c-1.7,0-3.3,0.5-4.7,1.5v-2.3c1.5-0.8,3.2-1.2,4.8-1.2c1.5-0.1,3.1,0.4,4.3,1.3c1,0.8,1.6,2.1,1.5,3.4c0.2,2.3-1.4,4.3-3.6,4.7
			v0.1c1.2,0.1,2.3,0.6,3.1,1.5c0.8,0.8,1.2,2,1.2,3.1c0.1,1.6-0.6,3.2-1.9,4.2c-1.5,1.1-3.3,1.6-5.1,1.5
			C89,60.1,87.2,59.7,85.7,58.9z"/>
		<path class="st0" d="M81.4,59.7h-2.2V45.9c0-0.9,0-1.8,0.1-2.6h-0.1c-0.2,0.4-0.4,0.8-0.6,1.2l-9.8,15.2H66V40.6h2.2V54
			c0,0.9,0,1.9-0.1,2.8h0.1c0.2-0.4,0.5-0.8,0.8-1.2l9.6-15h2.9L81.4,59.7z"/>
		<path class="st0" d="M49.9,59.7V40.6h10.2v2h-8v6.1h3.6c1.6-0.1,3.2,0.4,4.4,1.4c1.1,1,1.7,2.5,1.6,4c0.1,1.6-0.5,3.1-1.7,4.2
			c-1.3,1.1-2.9,1.6-4.5,1.5L49.9,59.7z M52.1,50.7v7h3.1c1.1,0.1,2.2-0.3,3.1-0.9c0.7-0.7,1.1-1.6,1.1-2.6c0-2.3-1.4-3.4-4.1-3.4
			L52.1,50.7z"/>
		<g>
			<g class="st2">
				<path class="st3" d="M57.9,19.1h-5v9.6h-1.3V18h7.5v10.8h-1.3V19.1z"/>
				<path class="st3" d="M61.7,21h0.8l0.2,0.9h0.1c0.2-0.4,0.5-0.6,0.9-0.8c0.4-0.2,0.8-0.3,1.3-0.3c1,0,1.8,0.3,2.3,0.9
					c0.5,0.6,0.8,1.6,0.8,3c0,0.6-0.1,1.2-0.3,1.7s-0.4,1-0.7,1.3c-0.3,0.4-0.7,0.6-1.1,0.8c-0.4,0.2-0.9,0.3-1.5,0.3
					c-0.4,0-0.7,0-0.9-0.1c-0.2,0-0.5-0.1-0.7-0.2v3.2h-1.2V21z M64.8,21.9c-0.5,0-0.9,0.1-1.2,0.4c-0.3,0.3-0.5,0.7-0.6,1.2v3.8
					c0.2,0.1,0.4,0.3,0.6,0.3c0.2,0.1,0.5,0.1,0.9,0.1c0.7,0,1.3-0.3,1.7-0.8c0.4-0.5,0.6-1.3,0.6-2.3c0-0.4,0-0.8-0.1-1.1
					c-0.1-0.3-0.2-0.6-0.3-0.9c-0.2-0.2-0.4-0.4-0.6-0.6C65.5,22,65.2,21.9,64.8,21.9z"/>
			</g>
			<g class="st2">
				<path class="st3" d="M69.6,24.9c0-1.3,0.3-2.3,0.9-3c0.6-0.7,1.4-1,2.5-1c0.6,0,1.1,0.1,1.5,0.3c0.4,0.2,0.8,0.5,1.1,0.8
					c0.3,0.4,0.5,0.8,0.6,1.3c0.1,0.5,0.2,1,0.2,1.7c0,1.3-0.3,2.3-0.9,3c-0.6,0.7-1.4,1-2.5,1c-0.6,0-1.1-0.1-1.5-0.3
					c-0.4-0.2-0.8-0.5-1.1-0.8c-0.3-0.4-0.5-0.8-0.6-1.3S69.6,25.5,69.6,24.9z M70.9,24.9c0,0.4,0,0.8,0.1,1.1
					c0.1,0.4,0.2,0.7,0.4,0.9c0.2,0.3,0.4,0.5,0.6,0.6c0.3,0.2,0.6,0.2,1,0.2c1.4,0,2.1-1,2.1-3c0-0.4,0-0.8-0.1-1.1
					c-0.1-0.4-0.2-0.7-0.4-0.9c-0.2-0.3-0.4-0.5-0.6-0.6s-0.6-0.2-1-0.2C71.6,21.9,70.9,22.9,70.9,24.9z"/>
			</g>
			<g class="st2">
				<path class="st3" d="M85,30.7h-0.8l-0.2-2h-5.8l-0.2,2h-0.8v-3H78c0.1-0.1,0.2-0.3,0.3-0.6c0.1-0.3,0.3-0.7,0.4-1.2
					c0.1-0.5,0.2-1.2,0.3-2s0.2-1.7,0.2-2.8h4.7v6.6H85V30.7z M82.6,27.7v-5.5h-2.3c0,0.4-0.1,0.9-0.1,1.4c-0.1,0.5-0.1,1-0.2,1.5
					c-0.1,0.5-0.2,1-0.3,1.4c-0.1,0.5-0.3,0.8-0.5,1.2H82.6z"/>
				<path class="st3" d="M86.4,21.6c0.4-0.2,0.8-0.4,1.4-0.5c0.5-0.1,1.1-0.2,1.6-0.2c0.5,0,1,0.1,1.3,0.2s0.6,0.3,0.7,0.6
					c0.2,0.2,0.3,0.5,0.3,0.8c0.1,0.3,0.1,0.6,0.1,0.8c0,0.6,0,1.2,0,1.8c0,0.6,0,1.1,0,1.7c0,0.4,0,0.7,0,1.1
					c0,0.3,0.1,0.7,0.2,0.9H91l-0.3-1.1h-0.1c-0.1,0.1-0.2,0.3-0.3,0.4c-0.1,0.1-0.3,0.3-0.5,0.4c-0.2,0.1-0.4,0.2-0.7,0.3
					c-0.3,0.1-0.5,0.1-0.9,0.1c-0.3,0-0.6-0.1-0.9-0.2s-0.5-0.2-0.7-0.4c-0.2-0.2-0.4-0.4-0.5-0.7c-0.1-0.3-0.2-0.6-0.2-0.9
					c0-0.5,0.1-0.8,0.3-1.1c0.2-0.3,0.4-0.5,0.8-0.7c0.3-0.2,0.7-0.3,1.2-0.4c0.5-0.1,1-0.1,1.5-0.1c0.1,0,0.3,0,0.4,0
					c0.1,0,0.3,0,0.4,0c0-0.3,0-0.6,0-0.8c0-0.6-0.1-1-0.3-1.2C90.1,22.1,89.6,22,89,22c-0.2,0-0.4,0-0.6,0c-0.2,0-0.4,0.1-0.6,0.1
					c-0.2,0-0.4,0.1-0.6,0.2c-0.2,0.1-0.4,0.1-0.5,0.2L86.4,21.6z M88.6,27.8c0.3,0,0.5,0,0.8-0.1c0.2-0.1,0.4-0.2,0.6-0.3
					c0.2-0.1,0.3-0.2,0.4-0.4c0.1-0.1,0.2-0.3,0.2-0.4v-1.3c-0.1,0-0.3,0-0.4,0c-0.1,0-0.3,0-0.4,0c-0.3,0-0.6,0-0.9,0.1
					c-0.3,0-0.6,0.1-0.8,0.2c-0.2,0.1-0.4,0.2-0.6,0.4c-0.1,0.2-0.2,0.4-0.2,0.6c0,0.4,0.1,0.7,0.4,0.9
					C87.8,27.7,88.2,27.8,88.6,27.8z"/>
				<path class="st3" d="M96.7,25.3l-2.3,3.4H93l2.4-3.5l0.5-0.5l-0.8-0.6l-2-3.1h1.3l2.1,3.3h0.8V21h1.2v3.5l0.7-0.2l2.1-3.3h1.3
					l-2.1,3.1l-0.6,0.5l0.8,0.6l2.3,3.5h-1.5l-2.3-3.5h-0.8v3.5h-1.2v-3.6L96.7,25.3z"/>
				<path class="st3" d="M104.2,21.6c0.4-0.2,0.8-0.4,1.4-0.5c0.5-0.1,1.1-0.2,1.6-0.2c0.5,0,1,0.1,1.3,0.2c0.3,0.1,0.6,0.3,0.7,0.6
					c0.2,0.2,0.3,0.5,0.3,0.8s0.1,0.6,0.1,0.8c0,0.6,0,1.2,0,1.8c0,0.6,0,1.1,0,1.7c0,0.4,0,0.7,0,1.1c0,0.3,0.1,0.7,0.2,0.9h-0.9
					l-0.3-1.1h-0.1c-0.1,0.1-0.2,0.3-0.3,0.4s-0.3,0.3-0.5,0.4c-0.2,0.1-0.4,0.2-0.7,0.3c-0.3,0.1-0.5,0.1-0.9,0.1
					c-0.3,0-0.6-0.1-0.9-0.2s-0.5-0.2-0.7-0.4c-0.2-0.2-0.4-0.4-0.5-0.7c-0.1-0.3-0.2-0.6-0.2-0.9c0-0.5,0.1-0.8,0.3-1.1
					s0.4-0.5,0.8-0.7c0.3-0.2,0.7-0.3,1.2-0.4c0.5-0.1,1-0.1,1.5-0.1c0.1,0,0.3,0,0.4,0s0.3,0,0.4,0c0-0.3,0-0.6,0-0.8
					c0-0.6-0.1-1-0.3-1.2s-0.6-0.3-1.2-0.3c-0.2,0-0.4,0-0.6,0c-0.2,0-0.4,0.1-0.6,0.1s-0.4,0.1-0.6,0.2c-0.2,0.1-0.4,0.1-0.5,0.2
					L104.2,21.6z M106.4,27.8c0.3,0,0.5,0,0.8-0.1s0.4-0.2,0.6-0.3c0.2-0.1,0.3-0.2,0.4-0.4c0.1-0.1,0.2-0.3,0.2-0.4v-1.3
					c-0.1,0-0.3,0-0.4,0c-0.1,0-0.3,0-0.4,0c-0.3,0-0.6,0-0.9,0.1c-0.3,0-0.6,0.1-0.8,0.2c-0.2,0.1-0.4,0.2-0.6,0.4
					c-0.1,0.2-0.2,0.4-0.2,0.6c0,0.4,0.1,0.7,0.4,0.9C105.6,27.7,106,27.8,106.4,27.8z"/>
			</g>
			<g class="st2">
				<path class="st3" d="M120.5,22.1h-3.3v6.6H116V21h4.5V22.1z"/>
				<path class="st3" d="M120.7,24.9c0-1.3,0.3-2.3,0.9-3c0.6-0.7,1.4-1,2.5-1c0.6,0,1.1,0.1,1.5,0.3c0.4,0.2,0.8,0.5,1.1,0.8
					c0.3,0.4,0.5,0.8,0.6,1.3c0.1,0.5,0.2,1,0.2,1.7c0,1.3-0.3,2.3-0.9,3c-0.6,0.7-1.4,1-2.5,1c-0.6,0-1.1-0.1-1.5-0.3
					c-0.4-0.2-0.8-0.5-1.1-0.8c-0.3-0.4-0.5-0.8-0.6-1.3S120.7,25.5,120.7,24.9z M122,24.9c0,0.4,0,0.8,0.1,1.1
					c0.1,0.4,0.2,0.7,0.4,0.9c0.2,0.3,0.4,0.5,0.6,0.6c0.3,0.2,0.6,0.2,1,0.2c1.4,0,2.1-1,2.1-3c0-0.4,0-0.8-0.1-1.1
					c-0.1-0.4-0.2-0.7-0.4-0.9c-0.2-0.3-0.4-0.5-0.6-0.6s-0.6-0.2-1-0.2C122.7,21.9,122,22.9,122,24.9z"/>
				<path class="st3" d="M133.8,22.1h-2.4v6.6h-1.2v-6.6h-2.4V21h6.1V22.1z"/>
			</g>
			<g class="st2">
				<path class="st3" d="M134.9,24.9c0-1.3,0.3-2.3,0.9-3c0.6-0.7,1.4-1,2.5-1c0.6,0,1.1,0.1,1.5,0.3c0.4,0.2,0.8,0.5,1.1,0.8
					c0.3,0.4,0.5,0.8,0.6,1.3c0.1,0.5,0.2,1,0.2,1.7c0,1.3-0.3,2.3-0.9,3c-0.6,0.7-1.4,1-2.5,1c-0.6,0-1.1-0.1-1.5-0.3
					c-0.4-0.2-0.8-0.5-1.1-0.8c-0.3-0.4-0.5-0.8-0.6-1.3S134.9,25.5,134.9,24.9z M136.2,24.9c0,0.4,0,0.8,0.1,1.1
					c0.1,0.4,0.2,0.7,0.4,0.9c0.2,0.3,0.4,0.5,0.6,0.6c0.3,0.2,0.6,0.2,1,0.2c1.4,0,2.1-1,2.1-3c0-0.4,0-0.8-0.1-1.1
					c-0.1-0.4-0.2-0.7-0.4-0.9c-0.2-0.3-0.4-0.5-0.6-0.6c-0.3-0.2-0.6-0.2-1-0.2C136.9,21.9,136.2,22.9,136.2,24.9z"/>
				<path class="st3" d="M143.6,21.1c0.4,0,0.7,0,1.1-0.1c0.4,0,0.9,0,1.5,0c1,0,1.7,0.2,2.2,0.5s0.7,0.8,0.7,1.4
					c0,0.4-0.1,0.7-0.3,1.1c-0.2,0.3-0.6,0.6-1,0.8v0.1c0.6,0.1,1,0.3,1.3,0.6s0.4,0.7,0.4,1.2c0,0.8-0.3,1.4-0.9,1.7
					c-0.6,0.4-1.4,0.5-2.6,0.5c-0.4,0-0.8,0-1.2,0c-0.4,0-0.7-0.1-1.1-0.1V21.1z M146.3,24.3c0.2,0,0.4,0,0.5-0.1
					c0.2-0.1,0.3-0.1,0.5-0.3c0.1-0.1,0.3-0.2,0.3-0.4c0.1-0.1,0.1-0.3,0.1-0.5c0-0.4-0.1-0.7-0.4-0.9s-0.7-0.2-1.3-0.2
					c-0.3,0-0.6,0-0.8,0c-0.2,0-0.4,0-0.5,0v2.2H146.3z M144.8,27.7c0.2,0,0.4,0,0.6,0c0.2,0,0.4,0,0.7,0c0.7,0,1.2-0.1,1.5-0.3
					c0.3-0.2,0.5-0.5,0.5-1c0-0.4-0.1-0.7-0.4-0.9c-0.3-0.2-0.8-0.3-1.5-0.3h-1.4V27.7z"/>
				<path class="st3" d="M150.9,24.9c0-1.3,0.3-2.3,0.9-3c0.6-0.7,1.4-1,2.5-1c0.6,0,1.1,0.1,1.5,0.3c0.4,0.2,0.8,0.5,1.1,0.8
					c0.3,0.4,0.5,0.8,0.6,1.3c0.1,0.5,0.2,1,0.2,1.7c0,1.3-0.3,2.3-0.9,3c-0.6,0.7-1.4,1-2.5,1c-0.6,0-1.1-0.1-1.5-0.3
					c-0.4-0.2-0.8-0.5-1.1-0.8c-0.3-0.4-0.5-0.8-0.6-1.3C150.9,26.1,150.9,25.5,150.9,24.9z M152.1,24.9c0,0.4,0,0.8,0.1,1.1
					s0.2,0.7,0.4,0.9c0.2,0.3,0.4,0.5,0.6,0.6s0.6,0.2,1,0.2c1.4,0,2.1-1,2.1-3c0-0.4,0-0.8-0.1-1.1s-0.2-0.7-0.4-0.9
					c-0.2-0.3-0.4-0.5-0.6-0.6c-0.3-0.2-0.6-0.2-1-0.2C152.8,21.9,152.1,22.9,152.1,24.9z"/>
			</g>
			<g class="st2">
				<path class="st3" d="M164,22.1h-3.3v6.6h-1.2V21h4.5V22.1z"/>
			</g>
			<g class="st2">
				<path class="st3" d="M164.5,24.9c0-1.3,0.3-2.3,0.9-3c0.6-0.7,1.4-1,2.5-1c0.6,0,1.1,0.1,1.5,0.3c0.4,0.2,0.8,0.5,1.1,0.8
					c0.3,0.4,0.5,0.8,0.6,1.3c0.1,0.5,0.2,1,0.2,1.7c0,1.3-0.3,2.3-0.9,3c-0.6,0.7-1.4,1-2.5,1c-0.6,0-1.1-0.1-1.5-0.3
					c-0.4-0.2-0.8-0.5-1.1-0.8c-0.3-0.4-0.5-0.8-0.6-1.3C164.6,26.1,164.5,25.5,164.5,24.9z M165.8,24.9c0,0.4,0,0.8,0.1,1.1
					c0.1,0.4,0.2,0.7,0.4,0.9c0.2,0.3,0.4,0.5,0.6,0.6c0.3,0.2,0.6,0.2,1,0.2c1.4,0,2.1-1,2.1-3c0-0.4,0-0.8-0.1-1.1
					c-0.1-0.4-0.2-0.7-0.4-0.9c-0.2-0.3-0.4-0.5-0.6-0.6c-0.3-0.2-0.6-0.2-1-0.2C166.5,21.9,165.8,22.9,165.8,24.9z"/>
				<path class="st3" d="M178,22.4c0.3-0.5,0.7-0.8,1.1-1c0.4-0.2,0.9-0.3,1.5-0.3c0.9,0,1.7,0.3,2.2,0.9s0.8,1.5,0.8,2.7
					c0,1.4-0.3,2.4-0.9,3.1c-0.6,0.7-1.4,1.1-2.5,1.1c-1.1,0-2-0.4-2.5-1.2c-0.6-0.8-0.8-2-0.8-3.7c0-0.9,0-1.6,0.1-2.3
					c0.1-0.6,0.2-1.2,0.4-1.6c0.2-0.4,0.4-0.8,0.6-1c0.2-0.3,0.5-0.5,0.8-0.6s0.6-0.3,1-0.3s0.7-0.1,1.2-0.2c0.5-0.1,1-0.1,1.3-0.2
					c0.3-0.1,0.5-0.2,0.7-0.4l0.1,1.1c-0.1,0.1-0.2,0.2-0.3,0.2c-0.1,0.1-0.3,0.1-0.4,0.2s-0.4,0.1-0.6,0.1c-0.2,0-0.5,0.1-0.8,0.1
					c-0.4,0-0.8,0.1-1.2,0.2c-0.3,0.1-0.6,0.2-0.9,0.4s-0.4,0.5-0.6,0.9S178,21.8,178,22.4L178,22.4z M178.2,24.9
					c0,0.4,0,0.8,0.1,1.1c0.1,0.4,0.2,0.7,0.4,0.9c0.2,0.3,0.4,0.5,0.7,0.6s0.6,0.2,0.9,0.2c0.7,0,1.2-0.3,1.6-0.8
					c0.3-0.5,0.5-1.3,0.5-2.3c0-0.4,0-0.8-0.1-1.1c-0.1-0.3-0.2-0.6-0.3-0.9c-0.2-0.2-0.3-0.4-0.6-0.6c-0.2-0.1-0.5-0.2-0.8-0.2
					c-0.8,0-1.4,0.2-1.8,0.7C178.4,23.3,178.2,24,178.2,24.9z"/>
				<path class="st3" d="M190.4,24.2l0-1h0l-0.6,1l-3.5,4.5h-0.7V21h1.2v4.7l0,0.9h0.1l0.6-1l3.5-4.7h0.7v7.7h-1.2V24.2z"/>
				<path class="st3" d="M194.7,25.3v-1h1.1c0.2,0,0.4,0,0.5-0.1s0.3-0.1,0.5-0.3c0.1-0.1,0.3-0.2,0.3-0.4c0.1-0.1,0.1-0.3,0.1-0.5
					c0-0.4-0.1-0.7-0.4-0.8s-0.7-0.2-1.2-0.2c-0.4,0-0.8,0.1-1.1,0.2c-0.3,0.1-0.6,0.2-0.8,0.3l-0.4-0.9c0.3-0.2,0.7-0.3,1.1-0.5
					s0.9-0.2,1.5-0.2c1.7,0,2.6,0.6,2.6,1.9c0,0.4-0.1,0.7-0.3,1.1c-0.2,0.3-0.6,0.6-1,0.7v0.1c0.6,0.1,1,0.3,1.3,0.6
					s0.4,0.7,0.4,1.3c0,0.3-0.1,0.6-0.2,0.9c-0.1,0.3-0.3,0.5-0.6,0.7c-0.3,0.2-0.6,0.4-1,0.5c-0.4,0.1-0.9,0.2-1.4,0.2
					c-0.5,0-1,0-1.3-0.1c-0.3-0.1-0.7-0.2-0.9-0.3l0.4-1c0.2,0.1,0.5,0.2,0.9,0.3c0.3,0.1,0.7,0.1,1.1,0.1c0.6,0,1.1-0.1,1.4-0.3
					c0.3-0.2,0.5-0.5,0.5-1c0-0.4-0.2-0.7-0.5-0.9c-0.3-0.2-0.8-0.3-1.5-0.3H194.7z"/>
				<path class="st3" d="M205.5,25.3H202v3.4h-1.2V21h1.2v3.2h3.5V21h1.2v7.7h-1.2V25.3z"/>
			</g>
			<g class="st2">
				<path class="st3" d="M214.7,28.1c-0.3,0.2-0.7,0.4-1.2,0.6c-0.5,0.1-1,0.2-1.5,0.2c-0.6,0-1.1-0.1-1.5-0.3
					c-0.4-0.2-0.8-0.5-1.1-0.8c-0.3-0.4-0.5-0.8-0.6-1.3c-0.1-0.5-0.2-1-0.2-1.7c0-1.3,0.3-2.3,0.9-3c0.6-0.7,1.4-1,2.5-1
					c0.3,0,0.7,0,1,0.1s0.7,0.2,0.9,0.4c0.3,0.2,0.5,0.5,0.7,0.9s0.3,0.9,0.3,1.6c0,0.3,0,0.7-0.1,1.1h-4.9c0,0.5,0,0.9,0.1,1.2
					c0.1,0.3,0.2,0.6,0.4,0.9c0.2,0.2,0.4,0.4,0.8,0.6c0.3,0.1,0.7,0.2,1.1,0.2c0.3,0,0.7-0.1,1-0.2c0.3-0.1,0.6-0.3,0.8-0.4
					L214.7,28.1z M212.1,21.9c-0.6,0-1.1,0.2-1.5,0.5s-0.6,0.9-0.7,1.6h3.8c0-0.8-0.1-1.3-0.4-1.6C213,22.1,212.6,21.9,212.1,21.9z"
					/>
			</g>
			<g class="st2">
				<path class="st3" d="M222,28.2c-0.3,0.2-0.7,0.4-1.1,0.5s-0.9,0.2-1.3,0.2c-0.6,0-1.1-0.1-1.5-0.3c-0.4-0.2-0.7-0.5-1-0.8
					c-0.3-0.4-0.5-0.8-0.6-1.3s-0.2-1-0.2-1.7c0-1.3,0.3-2.3,0.9-3c0.6-0.7,1.4-1,2.5-1c0.5,0,0.9,0,1.3,0.1s0.7,0.2,0.9,0.3
					l-0.4,1.1c-0.2-0.1-0.5-0.2-0.8-0.3s-0.6-0.1-0.9-0.1c-1.5,0-2.2,1-2.2,3c0,0.4,0,0.8,0.1,1.1s0.2,0.7,0.4,0.9s0.4,0.5,0.7,0.7
					c0.3,0.2,0.7,0.2,1.1,0.2c0.4,0,0.7-0.1,1-0.2c0.3-0.1,0.5-0.2,0.7-0.4L222,28.2z"/>
				<path class="st3" d="M223.6,21.6c0.4-0.2,0.8-0.4,1.4-0.5c0.5-0.1,1.1-0.2,1.6-0.2c0.5,0,1,0.1,1.3,0.2c0.3,0.1,0.6,0.3,0.7,0.6
					c0.2,0.2,0.3,0.5,0.3,0.8s0.1,0.6,0.1,0.8c0,0.6,0,1.2,0,1.8c0,0.6,0,1.1,0,1.7c0,0.4,0,0.7,0,1.1c0,0.3,0.1,0.7,0.2,0.9h-0.9
					l-0.3-1.1h-0.1c-0.1,0.1-0.2,0.3-0.3,0.4s-0.3,0.3-0.5,0.4c-0.2,0.1-0.4,0.2-0.7,0.3c-0.3,0.1-0.5,0.1-0.9,0.1
					c-0.3,0-0.6-0.1-0.9-0.2s-0.5-0.2-0.7-0.4c-0.2-0.2-0.4-0.4-0.5-0.7c-0.1-0.3-0.2-0.6-0.2-0.9c0-0.5,0.1-0.8,0.3-1.1
					s0.4-0.5,0.8-0.7c0.3-0.2,0.7-0.3,1.2-0.4c0.5-0.1,1-0.1,1.5-0.1c0.1,0,0.3,0,0.4,0s0.3,0,0.4,0c0-0.3,0-0.6,0-0.8
					c0-0.6-0.1-1-0.3-1.2s-0.6-0.3-1.2-0.3c-0.2,0-0.4,0-0.6,0c-0.2,0-0.4,0.1-0.6,0.1s-0.4,0.1-0.6,0.2c-0.2,0.1-0.4,0.1-0.5,0.2
					L223.6,21.6z M225.7,27.8c0.3,0,0.5,0,0.8-0.1s0.4-0.2,0.6-0.3c0.2-0.1,0.3-0.2,0.4-0.4c0.1-0.1,0.2-0.3,0.2-0.4v-1.3
					c-0.1,0-0.3,0-0.4,0c-0.1,0-0.3,0-0.4,0c-0.3,0-0.6,0-0.9,0.1c-0.3,0-0.6,0.1-0.8,0.2c-0.2,0.1-0.4,0.2-0.6,0.4
					c-0.1,0.2-0.2,0.4-0.2,0.6c0,0.4,0.1,0.7,0.4,0.9C225,27.7,225.3,27.8,225.7,27.8z"/>
			</g>
		</g>
	</g>
</g>
</svg>
