<svg width="48" height="48" viewBox="0 0 48 48" fill="none" xmlns="http://www.w3.org/2000/svg">
<path d="M7.33366 30.6667C7.33366 21.4619 14.7956 14 24.0003 14C33.2051 14 40.667 21.4619 40.667 30.6667C40.667 39.8714 33.2051 47.3334 24.0003 47.3334C14.7956 47.3334 7.33366 39.8714 7.33366 30.6667Z" stroke="#261104"/>
<path d="M0.666992 17.3334C0.666992 8.12861 8.12891 0.666687 17.3337 0.666687C26.5384 0.666687 34.0003 8.12861 34.0003 17.3334C34.0003 26.5381 26.5384 34 17.3337 34C8.12891 34 0.666992 26.5381 0.666992 17.3334Z" stroke="#261104"/>
<path d="M14.0003 17.3334C14.0003 8.12861 21.4622 0.666687 30.667 0.666687C39.8717 0.666687 47.3337 8.12861 47.3337 17.3334C47.3337 26.5381 39.8717 34 30.667 34C21.4622 34 14.0003 26.5381 14.0003 17.3334Z" stroke="#261104"/>
</svg>
