<svg width="43" height="58" viewBox="0 0 43 58" fill="none" xmlns="http://www.w3.org/2000/svg">
<path d="M-7.09999 22.5L12.3667 22.5M24.5333 5.46665L12.3667 22.4777L24.5333 39.5333M41.5667 -1.83969C41.5667 3.5296 37.2061 7.88729 31.8333 7.88729C26.4605 7.88729 22.1 3.5296 22.1 -1.83969C22.1 -7.20899 26.4605 -11.5667 31.8333 -11.5667C37.2061 -11.5667 41.5667 -7.20899 41.5667 -1.83969ZM41.5667 46.7952C41.5667 52.1645 37.2061 56.5222 31.8333 56.5222C26.4605 56.5222 22.1 52.1645 22.1 46.7952C22.1 41.4259 26.4605 37.0682 31.8333 37.0682C37.2061 37.0682 41.5667 41.4259 41.5667 46.7952ZM-7.09999 22.4777C-7.09999 27.847 -11.4605 32.2047 -16.8333 32.2047C-22.2061 32.2047 -26.5667 27.847 -26.5667 22.4777C-26.5667 17.1085 -22.2061 12.7508 -16.8333 12.7508C-11.4605 12.7508 -7.09999 17.1085 -7.09999 22.4777Z" stroke="#D25F15" stroke-linecap="square"/>
</svg>
