<svg width="52" height="64" viewBox="0 0 52 64" fill="none" xmlns="http://www.w3.org/2000/svg">
<path d="M-7.83332 38.2333C-7.83332 24.7944 3.06109 13.9 16.5 13.9C29.9389 13.9 40.8333 24.7944 40.8333 38.2333C40.8333 51.6722 29.9389 62.5666 16.5 62.5666C3.06109 62.5666 -7.83332 51.6722 -7.83332 38.2333Z" stroke="#D25F15"/>
<path d="M-17.5667 18.7666C-17.5667 5.32772 -6.67225 -5.56668 6.76668 -5.56668C20.2056 -5.56668 31.1 5.32772 31.1 18.7666C31.1 32.2056 20.2056 43.1 6.76668 43.1C-6.67225 43.1 -17.5667 32.2056 -17.5667 18.7666Z" stroke="#D25F15"/>
<path d="M1.90001 18.7666C1.90001 5.32772 12.7944 -5.56668 26.2333 -5.56668C39.6723 -5.56668 50.5667 5.32772 50.5667 18.7666C50.5667 32.2056 39.6723 43.1 26.2333 43.1C12.7944 43.1 1.90001 32.2056 1.90001 18.7666Z" stroke="#D25F15"/>
</svg>
