<svg width="50" height="50" viewBox="0 0 50 50" fill="none" xmlns="http://www.w3.org/2000/svg">
<path d="M15.0001 18.3332V17.3332C14.4478 17.3332 14.0001 17.7809 14.0001 18.3332H15.0001ZM15.0001 21.6665L15.7072 22.3736L16.0001 22.0807V21.6665H15.0001ZM9.30973 22.6428L8.60262 23.3499H8.60262L9.30973 22.6428ZM21.6667 43.3332H22.6667V42.919L22.3739 42.6261L21.6667 43.3332ZM18.3334 39.9998H17.3334V40.4141L17.6263 40.7069L18.3334 39.9998ZM18.3334 34.9998H19.3334V34.5856L19.0405 34.2927L18.3334 34.9998ZM15.0001 31.6665H14.0001V32.0807L14.293 32.3736L15.0001 31.6665ZM15.0001 28.3332V27.3332C14.4478 27.3332 14.0001 27.7809 14.0001 28.3332H15.0001ZM30.6667 1.6665V8.33317H32.6667V1.6665H30.6667ZM28.3334 10.6665H25.0001V12.6665H28.3334V10.6665ZM18.3334 17.3332H15.0001V19.3332H18.3334V17.3332ZM14.0001 18.3332V21.6665H16.0001V18.3332H14.0001ZM14.293 20.9594L13.3167 21.9357L14.7309 23.3499L15.7072 22.3736L14.293 20.9594ZM10.0168 21.9357L4.04052 15.9594L2.62631 17.3736L8.60262 23.3499L10.0168 21.9357ZM20.6667 14.9998C20.6667 16.2885 19.6221 17.3332 18.3334 17.3332V19.3332C20.7266 19.3332 22.6667 17.3931 22.6667 14.9998H20.6667ZM25.0001 10.6665C22.6068 10.6665 20.6667 12.6066 20.6667 14.9998H22.6667C22.6667 13.7112 23.7114 12.6665 25.0001 12.6665V10.6665ZM13.3167 21.9357C12.4054 22.8469 10.9281 22.8469 10.0168 21.9357L8.60262 23.3499C10.2949 25.0422 13.0386 25.0422 14.7309 23.3499L13.3167 21.9357ZM30.6667 8.33317C30.6667 9.62183 29.6221 10.6665 28.3334 10.6665V12.6665C30.7266 12.6665 32.6667 10.7264 32.6667 8.33317H30.6667ZM22.6667 48.3332V43.3332H20.6667V48.3332H22.6667ZM22.3739 42.6261L19.0405 39.2927L17.6263 40.7069L20.9596 44.0403L22.3739 42.6261ZM19.3334 39.9998V34.9998H17.3334V39.9998H19.3334ZM19.0405 34.2927L15.7072 30.9594L14.293 32.3736L17.6263 35.7069L19.0405 34.2927ZM16.0001 31.6665V28.3332H14.0001V31.6665H16.0001ZM15.0001 29.3332H28.3334V27.3332H15.0001V29.3332ZM30.6667 31.6665V33.8887H32.6667V31.6665H30.6667ZM36.1112 39.3332H45.0001V37.3332H36.1112V39.3332ZM34.0001 37.2221C34.0001 38.388 34.9453 39.3332 36.1112 39.3332V37.3332C36.0498 37.3332 36.0001 37.2834 36.0001 37.2221H34.0001ZM32.7779 35.9998C33.4529 35.9998 34.0001 36.547 34.0001 37.2221H36.0001C36.0001 35.4425 34.5574 33.9998 32.7779 33.9998V35.9998ZM30.6667 33.8887C30.6667 35.0547 31.6119 35.9998 32.7779 35.9998V33.9998C32.7165 33.9998 32.6667 33.9501 32.6667 33.8887H30.6667ZM28.3334 29.3332C29.6221 29.3332 30.6667 30.3778 30.6667 31.6665H32.6667C32.6667 29.2733 30.7266 27.3332 28.3334 27.3332V29.3332ZM25.0001 47.3332C12.6657 47.3332 2.66675 37.3342 2.66675 24.9998H0.666748C0.666748 38.4388 11.5612 49.3332 25.0001 49.3332V47.3332ZM47.3334 24.9998C47.3334 37.3342 37.3344 47.3332 25.0001 47.3332V49.3332C38.439 49.3332 49.3334 38.4388 49.3334 24.9998H47.3334ZM25.0001 2.6665C37.3344 2.6665 47.3334 12.6655 47.3334 24.9998H49.3334C49.3334 11.5609 38.439 0.666504 25.0001 0.666504V2.6665ZM25.0001 0.666504C11.5612 0.666504 0.666748 11.5609 0.666748 24.9998H2.66675C2.66675 12.6655 12.6657 2.6665 25.0001 2.6665V0.666504Z" fill="#D25F15"/>
</svg>
