<svg width="50" height="50" viewBox="0 0 50 50" fill="none" xmlns="http://www.w3.org/2000/svg">
<path d="M13.3334 48.3332H36.6667M25.0001 48.3332V31.6665M25.0001 31.6665C32.3639 31.6665 38.3334 25.697 38.3334 18.3332V4.99984C38.3334 3.15889 36.841 1.6665 35.0001 1.6665H15.0001C13.1591 1.6665 11.6667 3.15889 11.6667 4.99984V18.3332C11.6667 25.697 17.6363 31.6665 25.0001 31.6665ZM11.6667 8.33317H8.33341C4.65152 8.33317 1.66675 11.3179 1.66675 14.9998C1.66675 18.6817 4.65152 21.6665 8.33341 21.6665H11.6667M38.3334 8.33317H41.6667C45.3486 8.33317 48.3334 11.3179 48.3334 14.9998C48.3334 18.6817 45.3486 21.6665 41.6667 21.6665H38.3334" stroke="#D25F15" stroke-width="2"/>
</svg>
