<svg width="50" height="50" viewBox="0 0 50 50" fill="none" xmlns="http://www.w3.org/2000/svg">
<path fill-rule="evenodd" clip-rule="evenodd" d="M19.8134 1.6665L19.5268 3.12219L18.4301 8.44873C16.6768 9.11829 15.0868 10.0678 13.6501 11.1937L8.29008 9.40149L6.85011 8.95512L6.10344 10.2409L2.41341 16.4102L1.66675 17.6962L2.76009 18.6522L6.90677 22.1798C6.75677 23.1025 6.56345 24.0152 6.56345 24.9846C6.56345 25.9539 6.75677 26.8668 6.90677 27.7896L2.76009 31.3172L1.66675 32.2732L2.41341 33.559L6.10344 39.7284L6.85011 41.0175L8.29008 40.5679L13.6501 38.7757C15.0868 39.9016 16.6768 40.8509 18.4301 41.5204L19.5268 46.847L19.8134 48.3029H30.1834L30.4734 46.847L31.5668 41.5204C33.3201 40.8509 34.9101 39.9016 36.3468 38.7757L41.7068 40.5679L43.1467 41.0175L43.8968 39.7284L47.5834 33.559L48.3334 32.2732L47.2368 31.3172L43.0901 27.7896C43.2434 26.8668 43.4334 25.9539 43.4334 24.9846C43.4334 24.0152 43.2434 23.1025 43.0901 22.1798L47.2368 18.6522L48.3334 17.6962L47.5834 16.4102L43.8968 10.2409L43.1467 8.95512L41.7068 9.40149L36.3468 11.1937C34.9101 10.0678 33.3201 9.11829 31.5668 8.44873L30.4734 3.12219L30.1834 1.6665H19.8134Z" stroke="#D25F15" stroke-width="2" stroke-linecap="square" stroke-linejoin="round"/>
<path fill-rule="evenodd" clip-rule="evenodd" d="M31.6655 24.9846C31.6655 28.6622 28.6789 31.647 24.9989 31.647C21.3189 31.647 18.3322 28.6622 18.3322 24.9846C18.3322 21.307 21.3189 18.3224 24.9989 18.3224C28.6789 18.3224 31.6655 21.307 31.6655 24.9846Z" stroke="#D25F15" stroke-width="2" stroke-linecap="square" stroke-linejoin="round"/>
</svg>
