<svg width="50" height="50" viewBox="0 0 50 50" fill="none" xmlns="http://www.w3.org/2000/svg">
<path d="M25.0001 1.6665L25.5813 0.85277C25.2336 0.604415 24.7665 0.604415 24.4188 0.85277L25.0001 1.6665ZM48.3334 18.3332H49.3334C49.3334 18.0102 49.1774 17.7071 48.9146 17.5194L48.3334 18.3332ZM48.3334 31.6665L48.9146 32.4802C49.1774 32.2925 49.3334 31.9895 49.3334 31.6665H48.3334ZM25.0001 48.3332L24.4188 49.1469C24.7665 49.3953 25.2336 49.3953 25.5813 49.1469L25.0001 48.3332ZM1.66675 31.6665H0.666748C0.666748 31.9895 0.822714 32.2925 1.08551 32.4802L1.66675 31.6665ZM1.66675 18.3332L1.08551 17.5194C0.822714 17.7071 0.666748 18.0102 0.666748 18.3332H1.66675ZM24.4188 2.48024L47.7522 19.1469L48.9146 17.5194L25.5813 0.85277L24.4188 2.48024ZM47.3334 18.3332V31.6665H49.3334V18.3332H47.3334ZM47.7522 30.8528L24.4188 47.5194L25.5813 49.1469L48.9146 32.4802L47.7522 30.8528ZM25.5813 47.5194L2.24799 30.8528L1.08551 32.4802L24.4188 49.1469L25.5813 47.5194ZM2.66675 31.6665V18.3332H0.666748V31.6665H2.66675ZM2.24799 19.1469L25.5813 2.48024L24.4188 0.85277L1.08551 17.5194L2.24799 19.1469ZM2.24799 32.4802L25.5813 15.8136L24.4188 14.1861L1.08551 30.8528L2.24799 32.4802ZM24.4188 15.8136L47.7522 32.4802L48.9146 30.8528L25.5813 14.1861L24.4188 15.8136ZM1.08551 19.1469L24.4188 35.8136L25.5813 34.1861L2.24799 17.5194L1.08551 19.1469ZM25.5813 35.8136L48.9146 19.1469L47.7522 17.5194L24.4188 34.1861L25.5813 35.8136ZM24.0001 1.6665V14.9998H26.0001V1.6665H24.0001ZM24.0001 34.9998V48.3332H26.0001V34.9998H24.0001Z" fill="#D25F15"/>
</svg>
