<svg width="35" height="35" viewBox="0 0 35 35" fill="none" xmlns="http://www.w3.org/2000/svg">
<path d="M17.5001 1.16675L17.7481 0.732626L17.5001 0.590872L17.252 0.732626L17.5001 1.16675ZM1.16675 10.5001L0.918679 10.066L0.666748 10.2099V10.5001H1.16675ZM33.8334 10.5001H34.3334V10.2099L34.0815 10.066L33.8334 10.5001ZM17.5001 33.8334L17.3627 34.3142L17.5001 34.3534L17.6374 34.3142L17.5001 33.8334ZM16.3334 23.3334L16.0133 23.7175L16.4052 24.0441L16.7238 23.6458L16.3334 23.3334ZM17.252 0.732626L0.918679 10.066L1.41482 10.9342L17.7481 1.60087L17.252 0.732626ZM0.666748 10.5001V12.1798H1.66675V10.5001H0.666748ZM34.3334 12.1798V10.5001H33.3334V12.1798H34.3334ZM34.0815 10.066L17.7481 0.732626L17.252 1.60087L33.5853 10.9342L34.0815 10.066ZM17.6374 34.3142C27.52 31.4906 34.3334 22.4578 34.3334 12.1798H33.3334C33.3334 22.0114 26.816 30.6517 17.3627 33.3527L17.6374 34.3142ZM0.666748 12.1798C0.666748 22.4578 7.48017 31.4906 17.3627 34.3142L17.6374 33.3527C8.18419 30.6517 1.66675 22.0114 1.66675 12.1798H0.666748ZM9.01332 17.8842L16.0133 23.7175L16.6535 22.9493L9.65351 17.116L9.01332 17.8842ZM16.7238 23.6458L26.0572 11.9791L25.2763 11.3544L15.943 23.0211L16.7238 23.6458Z" fill="#261104"/>
</svg>
