<svg width="35" height="35" viewBox="0 0 35 35" fill="none" xmlns="http://www.w3.org/2000/svg">
<path d="M15.5202 20.1748L15.8739 19.8214L15.167 19.1141L14.8133 19.4675L15.5202 20.1748ZM21.6667 24.485V24.985H22.6667V24.485H21.6667ZM22.6667 22.1531V21.6531H21.6667V22.1531H22.6667ZM21.6667 3.49866V3.99866H22.6667V3.49866H21.6667ZM22.6667 1.16675V0.666748H21.6667V1.16675H22.6667ZM10.5001 12.326H10.0001V13.326H10.5001V12.326ZM12.8334 13.326H13.3334V12.326H12.8334V13.326ZM31.5001 12.326H31.0001V13.326H31.5001V12.326ZM33.8334 13.326H34.3334V12.326H33.8334V13.326ZM28.8133 5.4769L28.4596 5.83035L29.1665 6.53767L29.5202 6.18423L28.8133 5.4769ZM31.8535 3.85232L32.2072 3.49887L31.5003 2.79155L31.1466 3.145L31.8535 3.85232ZM13.1869 3.145L12.8332 2.79155L12.1263 3.49887L12.48 3.85232L13.1869 3.145ZM14.8133 6.18423L15.167 6.53767L15.8739 5.83035L15.5202 5.4769L14.8133 6.18423ZM29.5202 19.4675L29.1665 19.1141L28.4596 19.8214L28.8133 20.1748L29.5202 19.4675ZM31.1466 22.5067L31.5003 22.8602L32.2072 22.1529L31.8535 21.7994L31.1466 22.5067ZM1.52019 34.1657L15.5202 20.1748L14.8133 19.4675L0.81331 33.4584L1.52019 34.1657ZM22.6667 24.485V22.1531H21.6667V24.485H22.6667ZM22.6667 3.49866V1.16675H21.6667V3.49866H22.6667ZM10.5001 13.326H12.8334V12.326H10.5001V13.326ZM31.5001 13.326H33.8334V12.326H31.5001V13.326ZM29.5202 6.18423L31.8535 3.85232L31.1466 3.145L28.8133 5.4769L29.5202 6.18423ZM12.48 3.85232L14.8133 6.18423L15.5202 5.4769L13.1869 3.145L12.48 3.85232ZM28.8133 20.1748L31.1466 22.5067L31.8535 21.7994L29.5202 19.4675L28.8133 20.1748Z" fill="#261104"/>
</svg>
