<svg width="142" height="69" viewBox="0 0 142 69" fill="none" xmlns="http://www.w3.org/2000/svg">
<path d="M24.9667 29.0992H18.2288V42.5404H15.1968V13.2295H18.2288V26.3775H24.9667L34.9472 13.2295H38.3161L27.3671 27.4662L38.9478 42.5404H35.3683L24.9667 29.0992Z" fill="white"/>
<path d="M18.2257 13.4898V2.68042H15.2114V13.4898H18.2257Z" fill="white"/>
<path d="M62.6953 34.7102H46.2717L42.7343 42.5404H39.4917L52.9675 13.2295H56.0416L69.5174 42.5404H66.2327L62.6953 34.7102ZM61.5583 32.1978L54.4835 16.4537L47.4087 32.1978H61.5583Z" fill="white"/>
<path d="M99.1631 46.1111V51.7011H101.948V46.1111H99.1631Z" fill="white"/>
<path d="M101.945 37.4619V46.1111H99.1582V39.9667H74.4854L74.445 46.1111H71.6587L71.6991 37.4619H73.1124C74.9699 37.3575 76.2621 35.9355 76.989 33.196C77.7159 30.4303 78.1601 26.5166 78.3216 21.4549L78.6446 12.5708H97.7045V37.4619H101.945ZM80.9867 21.7288C80.8521 25.9034 80.5156 29.3475 79.9772 32.061C79.4657 34.7484 78.5908 36.5487 77.3524 37.4619H94.7567V15.0756H81.229L80.9867 21.7288Z" fill="white"/>
<path d="M118.832 13.2295C122.594 13.2295 125.541 14.1228 127.675 15.9093C129.809 17.6959 130.876 20.1524 130.876 23.2789C130.876 26.4054 129.809 28.862 127.675 30.6485C125.541 32.4072 122.594 33.2865 118.832 33.2865H110.915V42.5404H107.798V13.2295H118.832ZM118.747 30.5648C121.667 30.5648 123.899 29.9367 125.443 28.6805C126.987 27.3964 127.759 25.5959 127.759 23.2789C127.759 20.9061 126.987 19.0917 125.443 17.8355C123.899 16.5514 121.667 15.9093 118.747 15.9093H110.915V30.5648H118.747Z" fill="white"/>
<path d="M18.2206 1.82129H1.82031V52.1318H90.1065" stroke="white" stroke-width="2.35077"/>
<path d="M99.16 52.1306H140.179V1.82009H61.9954H34.8597H30.6642" stroke="white" stroke-width="2.35077"/>
<path d="M129.672 67.0749C128.053 67.0749 126.852 65.9041 126.852 64.3404C126.852 62.7768 128.053 61.606 129.672 61.606C131.283 61.606 132.492 62.7691 132.492 64.3404C132.492 65.9118 131.283 67.0749 129.672 67.0749ZM129.672 66.7129C131.051 66.7129 132.089 65.7038 132.089 64.3404C132.089 62.977 131.051 61.968 129.672 61.968C128.285 61.968 127.247 62.977 127.247 64.3404C127.247 65.7038 128.285 66.7129 129.672 66.7129Z" fill="white"/>
<path d="M123.04 64.2637C123.846 64.4023 124.256 64.8568 124.256 65.604C124.256 66.5206 123.613 67.0367 122.32 67.0367H119.988V61.6448H122.172C123.288 61.6448 123.977 62.1146 123.977 63.0159C123.977 63.6629 123.613 64.0788 123.04 64.2637ZM120.383 61.976V64.1405H122.165C123.063 64.1405 123.575 63.7707 123.575 63.0621C123.575 62.3457 123.063 61.976 122.165 61.976H120.383ZM122.327 66.7055C123.327 66.7055 123.861 66.3511 123.861 65.5809C123.861 64.8029 123.327 64.464 122.327 64.464H120.383V66.7055H122.327Z" fill="white"/>
<path d="M117.384 61.6448V61.9991H115.432V67.0367H115.037V61.9991H113.084V61.6448H117.384Z" fill="white"/>
<path d="M109.295 67.0749C107.684 67.0749 106.483 65.9118 106.483 64.3404C106.483 62.7691 107.684 61.606 109.295 61.606C110.062 61.606 110.752 61.8524 111.224 62.3531L110.976 62.6073C110.512 62.1528 109.946 61.968 109.311 61.968C107.924 61.968 106.878 62.9847 106.878 64.3404C106.878 65.6961 107.924 66.7129 109.311 66.7129C109.946 66.7129 110.512 66.5203 110.976 66.0658L111.224 66.32C110.752 66.8207 110.062 67.0749 109.295 67.0749Z" fill="white"/>
<path d="M104.442 61.6448V61.9991H102.49V67.0367H102.095V61.9991H100.143V61.6448H104.442Z" fill="white"/>
<path d="M97.1431 61.6448H97.5382V67.0367H97.1431V64.4717H93.5176V67.0367H93.1226V61.6448H93.5176V64.125H97.1431V61.6448Z" fill="white"/>
<path d="M86.9073 66.6823H90.2539V67.0367H86.5122V61.6448H90.1377V61.9991H86.9073V64.125H89.7968V64.4717H86.9073V66.6823Z" fill="white"/>
<path d="M83.9149 61.6448V61.9991H80.9556V67.0367H80.5605V61.6448H83.9149Z" fill="white"/>
<path d="M77.4584 67.0367L76.7612 65.5192H73.616L72.9266 67.0367H72.5005L74.9949 61.6448H75.39L77.8844 67.0367H77.4584ZM73.7709 65.188H76.614L75.1886 62.0761L73.7709 65.188Z" fill="white"/>
<path d="M62.6651 66.6823H66.0117V67.0367H62.27V61.6448H65.8955V61.9991H62.6651V64.125H65.5546V64.4717H62.6651V66.6823Z" fill="white"/>
<path d="M56.4399 67.0749C54.8209 67.0749 53.6201 65.9041 53.6201 64.3404C53.6201 62.7768 54.8209 61.606 56.4399 61.606C58.0512 61.606 59.2597 62.7691 59.2597 64.3404C59.2597 65.9118 58.0512 67.0749 56.4399 67.0749ZM56.4399 66.7129C57.8188 66.7129 58.8569 65.7038 58.8569 64.3404C58.8569 62.977 57.8188 61.968 56.4399 61.968C55.0533 61.968 54.0152 62.977 54.0152 64.3404C54.0152 65.7038 55.0533 66.7129 56.4399 66.7129Z" fill="white"/>
<path d="M49.809 64.2637C50.6147 64.4023 51.0253 64.8568 51.0253 65.604C51.0253 66.5206 50.3823 67.0367 49.0886 67.0367H46.7568V61.6448H48.9414C50.0569 61.6448 50.7464 62.1146 50.7464 63.0159C50.7464 63.6629 50.3823 64.0788 49.809 64.2637ZM47.1519 61.976V64.1405H48.9337C49.8323 64.1405 50.3436 63.7707 50.3436 63.0621C50.3436 62.3457 49.8323 61.976 48.9337 61.976H47.1519ZM49.0963 66.7055C50.0957 66.7055 50.6302 66.3511 50.6302 65.5809C50.6302 64.8029 50.0957 64.464 49.0963 64.464H47.1519V66.7055H49.0963Z" fill="white"/>
<path d="M40.9267 67.0749C39.3077 67.0749 38.1069 65.9041 38.1069 64.3404C38.1069 62.7768 39.3077 61.606 40.9267 61.606C42.538 61.606 43.7465 62.7691 43.7465 64.3404C43.7465 65.9118 42.538 67.0749 40.9267 67.0749ZM40.9267 66.7129C42.3056 66.7129 43.3437 65.7038 43.3437 64.3404C43.3437 62.977 42.3056 61.968 40.9267 61.968C39.5401 61.968 38.502 62.977 38.502 64.3404C38.502 65.7038 39.5401 66.7129 40.9267 66.7129Z" fill="white"/>
<path d="M33.5284 61.6448C34.8918 61.6448 35.713 62.3226 35.713 63.4626C35.713 64.5949 34.8918 65.2728 33.5284 65.2728H31.9791V67.0367H31.584V61.6448H33.5284ZM33.5284 64.9184C34.6904 64.9184 35.3101 64.3869 35.3101 63.4626C35.3101 62.5306 34.6904 61.9991 33.5284 61.9991H31.9791V64.9184H33.5284Z" fill="white"/>
<path d="M27.9341 66.6823H28.7707V68.2691H28.3911V67.0367H23.4332L23.4255 68.2691H23.0459L23.0536 66.6823H23.348C24.1227 66.6207 24.3009 65.1726 24.3551 63.4164L24.4093 61.6448H27.9341V66.6823ZM24.7192 63.4472C24.665 64.9184 24.5255 66.3049 23.9755 66.6823H27.539V61.9991H24.7657L24.7192 63.4472Z" fill="white"/>
<path d="M20.8353 67.0367L20.1381 65.5192H16.993L16.3035 67.0367H15.8774L18.3719 61.6448H18.767L21.2614 67.0367H20.8353ZM17.1479 65.188H19.9909L18.5655 62.0761L17.1479 65.188Z" fill="white"/>
<path d="M13.7776 67.0367L11.7092 64.4794H10.4078V67.0367H10.0127V61.6448H10.4078V64.125H11.717L13.6614 61.6448H14.1029L12.0268 64.2714L14.2424 67.0367H13.7776Z" fill="white"/>
</svg>
