<svg width="144" height="71" viewBox="0 0 144 71" fill="none" xmlns="http://www.w3.org/2000/svg">
<path d="M25.4209 29.7595H18.6031V43.4377H15.5351V13.6099H18.6031V26.9898H25.4209L35.5198 13.6099H38.9287L27.8498 28.0977L39.5679 43.4377H35.9459L25.4209 29.7595Z" fill="#D25F15"/>
<path d="M18.6 13.8752V2.87524H15.55V13.8752H18.6Z" fill="#D25F15"/>
<path d="M63.5967 35.4694H46.9783L43.399 43.4377H40.1179L53.7535 13.6099H56.8642L70.4997 43.4377H67.1761L63.5967 35.4694ZM62.4462 32.9128L55.2875 16.891L48.1289 32.9128H62.4462Z" fill="#D25F15"/>
<path d="M100.498 47.0718V52.7604H103.315V47.0718H100.498Z" fill="#D25F15"/>
<path d="M103.312 38.2698V47.0716H100.492V40.8188H75.527L75.4861 47.0716H72.6667L72.7076 38.2698H74.1377C76.0173 38.1636 77.3248 36.7166 78.0603 33.9286C78.7958 31.1142 79.2452 27.1315 79.4087 21.9805L79.7355 12.9397H99.0215V38.2698H103.312ZM82.1054 22.2593C81.9692 26.5075 81.6287 30.0123 81.0839 32.7737C80.5664 35.5085 79.6811 37.3405 78.428 38.2698H96.0387V15.4886H82.3506L82.1054 22.2593Z" fill="#D25F15"/>
<path d="M120.4 13.6099C124.206 13.6099 127.189 14.5189 129.348 16.337C131.507 18.1551 132.586 20.6549 132.586 23.8366C132.586 27.0182 131.507 29.5181 129.348 31.3362C127.189 33.1258 124.206 34.0207 120.4 34.0207H112.389V43.4377H109.235V13.6099H120.4ZM120.314 31.2509C123.269 31.2509 125.527 30.6118 127.089 29.3334C128.652 28.0267 129.433 26.1944 129.433 23.8366C129.433 21.422 128.652 19.5755 127.089 18.2971C125.527 16.9904 123.269 16.337 120.314 16.337H112.389V31.2509H120.314Z" fill="#D25F15"/>
<path d="M18.5948 2.00049H2V53.1984H91.3333" stroke="#D25F15" stroke-width="2.58253"/>
<path d="M100.494 53.1978H142V1.99984H62.8889H35.4314H31.1862" stroke="#D25F15" stroke-width="2.58253"/>
<path d="M5.19462 66.76H2.19889L1.54218 68.2136H1.13636L3.51229 63.0486H3.8886L6.26453 68.2136H5.85871L5.19462 66.76ZM5.05443 66.4427L3.69676 63.4618L2.34646 66.4427H5.05443ZM12.6722 63.388H9.8535V68.2136H9.47719V63.0486H12.6722V63.388ZM19.3746 67.8742V68.2136H15.8107V63.0486H19.264V63.388H16.1871V65.4245H18.9393V65.7565H16.1871V67.8742H19.3746ZM26.977 63.0486V68.2136H26.6007V65.7565H23.1475V68.2136H22.7712V63.0486H23.1475V65.4245H26.6007V63.0486H26.977ZM34.2175 63.388H32.358V68.2136H31.9817V63.388H30.1223V63.0486H34.2175V63.388ZM39.5038 68.2505C38.9971 68.2505 38.5396 68.1374 38.1313 67.9111C37.728 67.6848 37.4082 67.3725 37.1721 66.974C36.9409 66.5756 36.8253 66.1279 36.8253 65.6311C36.8253 65.1343 36.9409 64.6866 37.1721 64.2882C37.4082 63.8897 37.728 63.5774 38.1313 63.3511C38.5396 63.1248 38.9971 63.0117 39.5038 63.0117C39.8776 63.0117 40.222 63.0732 40.5368 63.1961C40.8516 63.3142 41.1197 63.4913 41.3411 63.7274L41.1049 63.9709C40.6917 63.5626 40.1629 63.3585 39.5185 63.3585C39.0856 63.3585 38.6921 63.4568 38.3379 63.6536C37.9838 63.8504 37.7058 64.1234 37.5041 64.4726C37.3025 64.817 37.2016 65.2031 37.2016 65.6311C37.2016 66.0591 37.3025 66.4477 37.5041 66.7969C37.7058 67.1413 37.9838 67.4118 38.3379 67.6086C38.6921 67.8053 39.0856 67.9037 39.5185 67.9037C40.158 67.9037 40.6868 67.6971 41.1049 67.2839L41.3411 67.5274C41.1197 67.7635 40.8491 67.9431 40.5294 68.066C40.2146 68.189 39.8727 68.2505 39.5038 68.2505ZM47.8717 63.388H46.0123V68.2136H45.636V63.388H43.7766V63.0486H47.8717V63.388ZM53.9237 65.5573C54.3074 65.6213 54.5952 65.7614 54.787 65.9779C54.9838 66.1943 55.0822 66.4821 55.0822 66.8412C55.0822 67.2839 54.9272 67.6233 54.6173 67.8594C54.3074 68.0956 53.8475 68.2136 53.2375 68.2136H51.0165V63.0486H53.0973C53.6384 63.0486 54.059 63.1617 54.359 63.388C54.664 63.6143 54.8165 63.9389 54.8165 64.362C54.8165 64.662 54.7378 64.9129 54.5804 65.1146C54.423 65.3163 54.2041 65.4638 53.9237 65.5573ZM51.3928 65.4392H53.0899C53.5228 65.4392 53.8548 65.3507 54.086 65.1736C54.3172 64.9965 54.4328 64.7407 54.4328 64.4062C54.4328 64.0668 54.3172 63.8086 54.086 63.6315C53.8548 63.4544 53.5228 63.3658 53.0899 63.3658H51.3928V65.4392ZM53.2449 67.8963C54.2188 67.8963 54.7058 67.5372 54.7058 66.8191C54.7058 66.4501 54.5829 66.1796 54.3369 66.0074C54.0909 65.8352 53.7269 65.7491 53.2449 65.7491H51.3928V67.8963H53.2449ZM60.9039 68.2505C60.3973 68.2505 59.9398 68.1374 59.5315 67.9111C59.1232 67.6799 58.801 67.3651 58.5649 66.9666C58.3337 66.5682 58.2181 66.123 58.2181 65.6311C58.2181 65.1392 58.3337 64.694 58.5649 64.2955C58.801 63.8971 59.1232 63.5847 59.5315 63.3585C59.9398 63.1273 60.3973 63.0117 60.9039 63.0117C61.4106 63.0117 61.8681 63.1248 62.2764 63.3511C62.6846 63.5774 63.0044 63.8897 63.2356 64.2882C63.4717 64.6866 63.5898 65.1343 63.5898 65.6311C63.5898 66.1279 63.4717 66.5756 63.2356 66.974C63.0044 67.3725 62.6846 67.6848 62.2764 67.9111C61.8681 68.1374 61.4106 68.2505 60.9039 68.2505ZM60.9039 67.9037C61.3368 67.9037 61.7279 67.8053 62.0771 67.6086C62.4264 67.4118 62.7019 67.1413 62.9035 66.7969C63.1052 66.4477 63.2061 66.0591 63.2061 65.6311C63.2061 65.2031 63.1052 64.817 62.9035 64.4726C62.7019 64.1234 62.4264 63.8504 62.0771 63.6536C61.7279 63.4568 61.3368 63.3585 60.9039 63.3585C60.471 63.3585 60.0775 63.4568 59.7233 63.6536C59.3741 63.8504 59.0986 64.1234 58.8969 64.4726C58.6952 64.817 58.5944 65.2031 58.5944 65.6311C58.5944 66.0591 58.6952 66.4477 58.8969 66.7969C59.0986 67.1413 59.3741 67.4118 59.7233 67.6086C60.0775 67.8053 60.471 67.9037 60.9039 67.9037ZM77.0426 63.0486C77.6919 63.0486 78.2011 63.2035 78.57 63.5134C78.9389 63.8184 79.1234 64.2439 79.1234 64.7899C79.1234 65.331 78.9389 65.7565 78.57 66.0664C78.2011 66.3714 77.6919 66.5239 77.0426 66.5239H75.5669V68.2136H75.1906V63.0486H77.0426ZM77.0426 66.1845C77.5936 66.1845 78.0141 66.064 78.3044 65.8229C78.5946 65.5819 78.7397 65.2376 78.7397 64.7899C78.7397 64.3423 78.5946 63.9979 78.3044 63.7569C78.0141 63.511 77.5936 63.388 77.0426 63.388H75.5669V66.1845H77.0426ZM86.032 67.8742V68.2136H82.4681V63.0486H85.9213V63.388H82.8444V65.4245H85.5966V65.7565H82.8444V67.8742H86.032ZM91.0445 65.7639H89.8048V68.2136H89.4285V63.0486H89.8048V65.4245H91.0518L92.9039 63.0486H93.3245L91.347 65.5647L93.4573 68.2136H93.0146L91.0445 65.7639ZM98.3707 63.0486C99.02 63.0486 99.5292 63.2035 99.8981 63.5134C100.267 63.8184 100.452 64.2439 100.452 64.7899C100.452 65.331 100.267 65.7565 99.8981 66.0664C99.5292 66.3714 99.02 66.5239 98.3707 66.5239H96.895V68.2136H96.5187V63.0486H98.3707ZM98.3707 66.1845C98.9217 66.1845 99.3422 66.064 99.6325 65.8229C99.9227 65.5819 100.068 65.2376 100.068 64.7899C100.068 64.3423 99.9227 63.9979 99.6325 63.7569C99.3422 63.511 98.9217 63.388 98.3707 63.388H96.895V66.1845H98.3707ZM107.592 63.0486L105.208 67.461C105.056 67.7463 104.874 67.9578 104.662 68.0956C104.456 68.2333 104.234 68.3022 103.998 68.3022C103.816 68.3022 103.619 68.2579 103.408 68.1694L103.526 67.8594C103.693 67.9283 103.851 67.9627 103.998 67.9627C104.347 67.9627 104.638 67.7684 104.869 67.3798L105.046 67.0773L102.928 63.0486H103.341L105.253 66.7231L107.201 63.0486H107.592ZM113.989 63.388H112.129V68.2136H111.753V63.388H109.893V63.0486H113.989V63.388ZM117.133 63.0486H117.51V67.5791L121.029 63.0486H121.361V68.2136H120.985V63.6905L117.465 68.2136H117.133V63.0486ZM129.568 63.0486V68.2136H129.192V65.7565H125.738V68.2136H125.362V63.0486H125.738V65.4245H129.192V63.0486H129.568ZM136.764 63.388H133.945V68.2136H133.569V63.0486H136.764V63.388ZM142.206 66.76H139.21L138.553 68.2136H138.148L140.524 63.0486H140.9L143.276 68.2136H142.87L142.206 66.76ZM142.066 66.4427L140.708 63.4618L139.358 66.4427H142.066Z" fill="#9D9A97"/>
</svg>
