<svg width="142" height="69" viewBox="0 0 142 69" fill="none" xmlns="http://www.w3.org/2000/svg">
<path d="M25.186 29.2095H18.439V42.6127H15.4028V13.3845H18.439V26.4955H25.186L35.18 13.3845H38.5535L27.5896 27.5811L39.186 42.6127H35.6017L25.186 29.2095Z" fill="#D25F15"/>
<path d="M18.4358 13.6441V2.86523H15.4175V13.6441H18.4358Z" fill="#D25F15"/>
<path d="M62.965 34.8046H46.5192L42.977 42.6127H39.73L53.224 13.3845H56.3023L69.7963 42.6127H66.5072L62.965 34.8046ZM61.8264 32.2993L54.7421 16.5996L47.6577 32.2993H61.8264Z" fill="#D25F15"/>
<path d="M99.4829 46.1733V51.7476H102.271V46.1733H99.4829Z" fill="#D25F15"/>
<path d="M102.268 37.5484V46.1733H99.4777V40.0461H74.7714L74.731 46.1733H71.9409L71.9814 37.5484H73.3966C75.2567 37.4444 76.5506 36.0264 77.2784 33.2945C78.0063 30.5367 78.4511 26.634 78.6128 21.5866L78.9363 12.7275H98.022V37.5484H102.268ZM81.2816 21.8598C81.1468 26.0226 80.8098 29.4569 80.2707 32.1628C79.7585 34.8426 78.8824 36.6378 77.6424 37.5484H95.0702V15.2252H81.5242L81.2816 21.8598Z" fill="#D25F15"/>
<path d="M119.178 13.3845C122.945 13.3845 125.897 14.2753 128.034 16.0568C130.17 17.8383 131.238 20.2879 131.238 23.4056C131.238 26.5233 130.17 28.9729 128.034 30.7544C125.897 32.5081 122.945 33.385 119.178 33.385H111.25V42.6127H108.13V13.3845H119.178ZM119.094 30.6709C122.017 30.6709 124.252 30.0446 125.799 28.792C127.345 27.5115 128.118 25.716 128.118 23.4056C128.118 21.0395 127.345 19.2302 125.799 17.9775C124.252 16.6971 122.017 16.0568 119.094 16.0568H111.25V30.6709H119.094Z" fill="#D25F15"/>
<path d="M18.4303 2.00854H2.00781V52.1772H90.4136" stroke="#D25F15" stroke-width="2.59276"/>
<path d="M99.4794 52.176H140.554V2.00739H62.2645H35.0921H30.8909" stroke="#D25F15" stroke-width="2.59276"/>
<path d="M129.953 67.0783C128.331 67.0783 127.129 65.9107 127.129 64.3515C127.129 62.7923 128.331 61.6248 129.953 61.6248C131.566 61.6248 132.776 62.7846 132.776 64.3515C132.776 65.9184 131.566 67.0783 129.953 67.0783ZM129.953 66.7172C131.333 66.7172 132.373 65.711 132.373 64.3515C132.373 62.992 131.333 61.9858 129.953 61.9858C128.564 61.9858 127.525 62.992 127.525 64.3515C127.525 65.711 128.564 66.7172 129.953 66.7172Z" fill="#111111"/>
<path d="M123.313 64.2746C124.12 64.4129 124.531 64.8661 124.531 65.6111C124.531 66.5251 123.887 67.0398 122.592 67.0398H120.257V61.6631H122.444C123.561 61.6631 124.252 62.1316 124.252 63.0303C124.252 63.6755 123.887 64.0903 123.313 64.2746ZM120.652 61.9934V64.1517H122.437C123.336 64.1517 123.848 63.783 123.848 63.0764C123.848 62.3621 123.336 61.9934 122.437 61.9934H120.652ZM122.6 66.7095C123.6 66.7095 124.135 66.3562 124.135 65.5881C124.135 64.8123 123.6 64.4743 122.6 64.4743H120.652V66.7095H122.6Z" fill="#111111"/>
<path d="M117.649 61.6631V62.0164H115.694V67.0398H115.298V62.0164H113.343V61.6631H117.649Z" fill="#111111"/>
<path d="M109.549 67.0783C107.935 67.0783 106.733 65.9184 106.733 64.3515C106.733 62.7846 107.935 61.6248 109.549 61.6248C110.317 61.6248 111.007 61.8705 111.48 62.3698L111.232 62.6233C110.767 62.1701 110.2 61.9858 109.564 61.9858C108.176 61.9858 107.129 62.9997 107.129 64.3515C107.129 65.7034 108.176 66.7172 109.564 66.7172C110.2 66.7172 110.767 66.5252 111.232 66.072L111.48 66.3255C111.007 66.8248 110.317 67.0783 109.549 67.0783Z" fill="#111111"/>
<path d="M104.69 61.6631V62.0164H102.735V67.0398H102.34V62.0164H100.385V61.6631H104.69Z" fill="#111111"/>
<path d="M97.3805 61.6631H97.7761V67.0398H97.3805V64.482H93.7501V67.0398H93.3545V61.6631H93.7501V64.1364H97.3805V61.6631Z" fill="#111111"/>
<path d="M87.1305 66.6864H90.4816V67.0398H86.7349V61.6631H90.3652V62.0164H87.1305V64.1364H90.0239V64.482H87.1305V66.6864Z" fill="#111111"/>
<path d="M84.1338 61.6631V62.0164H81.1705V67.0398H80.7749V61.6631H84.1338Z" fill="#111111"/>
<path d="M77.6687 67.0398L76.9706 65.5266H73.8211L73.1307 67.0398H72.7041L75.2019 61.6631H75.5975L78.0953 67.0398H77.6687ZM73.9763 65.1963H76.8232L75.3958 62.0932L73.9763 65.1963Z" fill="#111111"/>
<path d="M62.7633 66.6864H66.1144V67.0398H62.3677V61.6631H65.998V62.0164H62.7633V64.1364H65.6567V64.482H62.7633V66.6864Z" fill="#111111"/>
<path d="M56.5297 67.0783C54.9084 67.0783 53.7061 65.9107 53.7061 64.3515C53.7061 62.7923 54.9084 61.6248 56.5297 61.6248C58.1432 61.6248 59.3533 62.7846 59.3533 64.3515C59.3533 65.9184 58.1432 67.0783 56.5297 67.0783ZM56.5297 66.7172C57.9104 66.7172 58.9499 65.711 58.9499 64.3515C58.9499 62.992 57.9104 61.9858 56.5297 61.9858C55.1411 61.9858 54.1017 62.992 54.1017 64.3515C54.1017 65.711 55.1411 66.7172 56.5297 66.7172Z" fill="#111111"/>
<path d="M49.8898 64.2746C50.6966 64.4129 51.1077 64.8661 51.1077 65.6111C51.1077 66.5251 50.4639 67.0398 49.1684 67.0398H46.8335V61.6631H49.021C50.1381 61.6631 50.8284 62.1316 50.8284 63.0303C50.8284 63.6755 50.4639 64.0903 49.8898 64.2746ZM47.2291 61.9934V64.1517H49.0133C49.9131 64.1517 50.4251 63.783 50.4251 63.0764C50.4251 62.3621 49.9131 61.9934 49.0133 61.9934H47.2291ZM49.1762 66.7095C50.1768 66.7095 50.7121 66.3562 50.7121 65.5881C50.7121 64.8123 50.1768 64.4743 49.1762 64.4743H47.2291V66.7095H49.1762Z" fill="#111111"/>
<path d="M40.9955 67.0783C39.3742 67.0783 38.1719 65.9107 38.1719 64.3515C38.1719 62.7923 39.3742 61.6248 40.9955 61.6248C42.609 61.6248 43.8191 62.7846 43.8191 64.3515C43.8191 65.9184 42.609 67.0783 40.9955 67.0783ZM40.9955 66.7172C42.3763 66.7172 43.4157 65.711 43.4157 64.3515C43.4157 62.992 42.3763 61.9858 40.9955 61.9858C39.607 61.9858 38.5675 62.992 38.5675 64.3515C38.5675 65.711 39.607 66.7172 40.9955 66.7172Z" fill="#111111"/>
<path d="M33.5867 61.6631C34.952 61.6631 35.7742 62.339 35.7742 63.4758C35.7742 64.6049 34.952 65.2808 33.5867 65.2808H32.0353V67.0398H31.6396V61.6631H33.5867ZM33.5867 64.9275C34.7503 64.9275 35.3709 64.3975 35.3709 63.4758C35.3709 62.5464 34.7503 62.0164 33.5867 62.0164H32.0353V64.9275H33.5867Z" fill="#111111"/>
<path d="M27.9856 66.6865H28.8234V68.2687H28.4433V67.0398H23.4787L23.4709 68.2687H23.0908L23.0986 66.6865H23.3934C24.1691 66.625 24.3475 65.181 24.4018 63.4297L24.4561 61.6631H27.9856V66.6865ZM24.7664 63.4604C24.7121 64.9275 24.5724 66.3101 24.0217 66.6865H27.59V62.0164H24.8129L24.7664 63.4604Z" fill="#111111"/>
<path d="M20.8767 67.0398L20.1786 65.5266H17.0291L16.3388 67.0398H15.9121L18.4099 61.6631H18.8055L21.3034 67.0398H20.8767ZM17.1843 65.1963H20.0312L18.6039 62.0932L17.1843 65.1963Z" fill="#111111"/>
<path d="M13.8091 67.0398L11.7379 64.4897H10.4347V67.0398H10.0391V61.6631H10.4347V64.1364H11.7456L13.6927 61.6631H14.1349L12.0559 64.2823L14.2745 67.0398H13.8091Z" fill="#111111"/>
</svg>
