<?xml version="1.0" encoding="UTF-8"?> <svg xmlns="http://www.w3.org/2000/svg" fill="none" viewBox="0 0 213 62"><path d="M49.38 32.03c-1.36-1.3-3.33-2-5.9-2.12 2.17-.32 3.82-.97 4.95-1.97 1.13-.99 1.7-2.13 1.7-3.42 0-1.56-.72-2.84-2.14-3.82-1.32-.9-3.37-1.4-6.16-1.46V15.9h-3.28v3.37c-.27 0-.54 0-.83.03-.88.04-1.7.06-2.52.07V15.9h-3.28v3.46l-.82-.03a70.34 70.34 0 00-3.43-.09c-.07 0-.13.1-.18.27-.06.16-.09.32-.1.48.01.15.04.3.1.44.05.18.11.28.18.3 1.34.16 2.2.45 2.62.85.41.41.65 1.07.65 2v5.22c-.28 0-.56.06-.81.16a18.25 18.25 0 00-2.29-2.36l-5.24-4.5-1.77-1.54-1.27-1.17-2.1-2.01-.77-.75a.51.51 0 00-.62-.08.31.31 0 00-.1.12.52.52 0 00.1.61l.76.75 2.05 2.08 1.2 1.2 1.59 1.7 4.68 5.12c.61.68 1.28 1.3 2 1.88H26.6l-2.32.17h-.02l-.44.07-1.99.21-.8.04a.18.18 0 01-.16-.1l-.04-.1c-.09-.16-.2-.29-.35-.38h-.02a.92.92 0 00-1.16.2l-.04.04c-.54.26-1.13.39-1.72.37l-.83.07-.8-.03a.48.48 0 00-.4.22c-.06.09-.1.2-.1.31 0 .12.04.23.1.32a.48.48 0 00.4.22l.8-.03.8.04a3.7 3.7 0 011.72.38l.04.04a.92.92 0 001.16.2h.03c.14-.1.26-.23.34-.38l.06-.1a.18.18 0 01.17-.11l.79.04 2 .21.42.07h.02l2.32.18c.83.03 1.63.02 2.33-.03a2.3 2.3 0 002.03 1.24v5.07c0 .93-.21 1.6-.63 2-.42.4-1.3.7-2.62.85-.07.02-.13.12-.19.3-.05.15-.08.3-.08.45 0 .16.03.32.08.47.06.18.12.27.19.27 1.1 0 2.28-.03 3.53-.08.24 0 .48-.02.71-.03v3.51h3.3v-3.56c.89 0 1.87.03 2.96.08h.37v3.47h3.28v-3.4c3.63 0 6.13-.64 7.5-1.91a6.08 6.08 0 002.07-4.64c0-1.5-.68-2.9-2.03-4.2zm-18.56.12a1.21 1.21 0 01-.75-.26l-.04-.02a1 1 0 01-.11-.1l-.03-.04-.03-.04-.05-.05-.03-.05-.09-.16-.03-.08a.44.44 0 01-.03-.07.34.34 0 01-.02-.08.6.6 0 010-.08l-.02-.16v-.06a1.25 1.25 0 011.12-1.25h.23a1.25 1.25 0 010 2.5h-.12zm6.82-9.7c0-.64.15-1.05.44-1.26a2 2 0 011.16-.3h.4c1.22 0 2.1.31 2.65.95.54.63.82 1.67.81 3.13 0 1.5-.28 2.62-.84 3.3-.57.69-1.5 1.04-2.82 1.04h-1.8v-6.86zm5.34 17.45a4.64 4.64 0 01-3.06 1.24c-.6.03-1.19-.15-1.67-.51a2 2 0 01-.6-1.63v-8.07h2.54c1.4 0 2.46.42 3.17 1.27.7.85 1.06 2.09 1.06 3.71 0 1.84-.48 3.17-1.44 3.99z" fill="#982D4E"></path><path d="M26.68 58.6c-4.98.02-9.88-1.33-14.15-3.9a30.05 30.05 0 100-47.3 27.56 27.56 0 1114.15 51.2z" fill="#982D4E"></path><path d="M31.5 51.56a1.12 1.12 0 10-.97-.02v2.51h.07-.82c-4.2.01-8.32-1.14-11.91-3.3l1.25-2.19-.84-.48-1.23 2.16a23.22 23.22 0 01-7.02-7.33l2.15-1.24-.48-.83-2.16 1.24a22.93 22.93 0 01-2.8-10.54h2.53v-.04l.12.19a1.12 1.12 0 10.2-1.6c-.17.12-.3.28-.38.47h-2.5a22.98 22.98 0 012.88-10.7l2.1 1.21.5-.84-2.11-1.2a23.19 23.19 0 017-7.26l1.21 2.13.84-.48-1.23-2.16c3.58-2.17 7.7-3.3 11.88-3.3h.75v2.3a1.12 1.12 0 10.97 0V8.03c3.57.26 7.03 1.36 10.1 3.2a25.14 25.14 0 100 39.57A22.89 22.89 0 0131.5 54v-2.43zM10 30.4a.7.7 0 11.85 1.1.7.7 0 01-.85-1.1zm21.66-18.97a.7.7 0 11-1.4 0 .7.7 0 011.4 0zm-1.27 39a.7.7 0 111.4-.09.7.7 0 01-1.4.1z" fill="#982D4E"></path><path d="M72.9 19.16c.56 0 1.1.08 1.62.24.5.15.96.4 1.36.72a3.47 3.47 0 011.25 2.77 3.6 3.6 0 01-1.24 2.78c-.4.34-.86.6-1.35.75a5.1 5.1 0 01-1.61.25h-4.86V14.32h7.81v2.14H70.4v2.7h2.5zm.1 5.36a1.75 1.75 0 001.31-.48 1.58 1.58 0 00.45-1.15 1.55 1.55 0 00-.45-1.12 1.79 1.79 0 00-1.33-.46h-2.6v3.2H73zM83.64 24.64c-.27.7-.73 1.31-1.33 1.77-.52.35-1.14.54-1.76.53-.55 0-1.1-.12-1.6-.35l.63-1.99c.12.07.24.13.37.18a1.3 1.3 0 001.06-.09c.21-.14.39-.34.49-.57l.43-.88-4.06-8.95h2.5l2.65 6.25h.14l2.67-6.25h2.5l-4.7 10.35zM93.22 20.2l-3.74-5.91h2.88l2.4 4.04h.14l2.4-4.04h2.88l-3.74 5.9 4.06 6.47h-2.9l-2.69-4.46h-.14l-2.7 4.46h-2.9l4.05-6.46zM102.37 14.29h7.57v2.2h-5.25v10.17h-2.33l.01-12.37zM114.43 14.29h2.65l4.65 12.36h-2.57l-1.03-2.96h-4.76l-1.02 2.96h-2.57l4.65-12.36zm2.95 7.27l-1.1-3.1-.45-1.49h-.14l-.45 1.5-1.1 3.1h3.24zM123.3 24.72a1.3 1.3 0 001.03-.4c.24-.31.38-.68.42-1.08.09-.67.13-1.35.11-2.04V14.3h8.78v12.36h-2.33V16.5h-4.12v5.65c.02.83-.07 1.64-.28 2.44a3.37 3.37 0 01-.87 1.5c-.3.3-.68.53-1.1.65-.47.14-.96.2-1.45.2-.14 0-.28-.03-.42-.07a1.43 1.43 0 01-.37-.16v-2.07c.09.03.19.06.28.07l.31.01zM139.1 26.66V16.5h-3.45v-2.21h9.24v2.2h-3.46v10.17h-2.33zM149.33 16.5v2.87h4.95v2.23h-4.95v2.86h5.5v2.21H147V14.32h7.85v2.2l-5.51-.02zM157.33 26.66V14.3h4.35c.57 0 1.12.1 1.65.29a3.82 3.82 0 011.34 6.45c-.39.35-.84.62-1.34.8-.53.2-1.08.3-1.65.29h-2.02v4.53h-2.33zm4.39-6.74a1.76 1.76 0 001.38-.52c.3-.32.47-.75.46-1.2 0-.21-.03-.43-.1-.63-.08-.2-.2-.4-.35-.55a1.73 1.73 0 00-.58-.37c-.26-.1-.53-.14-.81-.14h-2.06v3.4h2.06zM178.54 24.67a6.13 6.13 0 01-4.82 2.27 6.3 6.3 0 01-6.08-3.91 6.76 6.76 0 010-5.1 6.26 6.26 0 013.42-3.42 6.51 6.51 0 012.56-.5c.9-.02 1.8.16 2.63.52a6.1 6.1 0 012.01 1.5l-1.64 1.58a4.45 4.45 0 00-1.27-1.01 4.32 4.32 0 00-3.33-.07 3.88 3.88 0 00-2.2 2.19 4.84 4.84 0 000 3.5 4.04 4.04 0 002.2 2.2 4.32 4.32 0 003.47-.12c.55-.3 1.04-.7 1.42-1.2l1.63 1.57zM190.52 14.43l-4.79 6.1 5.1 5.99v.14h-2.94l-4.66-5.51h-.14v5.51h-2.34V14.3h2.33v5.8h.14l4.42-5.8h2.87v.13zM202.29 26.66h-2.32V20.6l.14-2.39h-.14l-4.92 8.45h-2.62V14.3h2.3v6.21l-.14 2.38h.13l5.03-8.61h2.54v12.38zM207.45 16.5v2.87h4.96v2.23h-4.96v2.86h5.51v2.21h-7.86V14.32h7.86v2.2l-5.5-.02zM81.12 45.34V35.18h-3.45v-2.21h9.22v2.2h-3.45v10.17h-2.32zM91.79 35.18v2.87h4.95v2.2H91.8v2.87h5.5v2.22h-7.86V32.98h7.87v2.2h-5.51zM103.33 38.87l-3.75-5.9h2.9l2.4 4.04h.14l2.4-4.04h2.88l-3.74 5.9 4.06 6.47h-2.9l-2.7-4.46h-.14l-2.7 4.46h-2.9l4.05-6.47zM112.91 32.97h2.34v4.94h5.2v-4.94h2.33v12.36h-2.33v-5.2h-5.2v5.2h-2.34V32.98zM131.75 45.62a6.53 6.53 0 01-4.62-1.88 6.39 6.39 0 01-1.35-2.06 6.78 6.78 0 010-5.06c.31-.77.77-1.46 1.35-2.06a6.3 6.3 0 012.05-1.35 6.81 6.81 0 015.13 0 6.3 6.3 0 013.4 3.42 6.74 6.74 0 010 5.07 6.25 6.25 0 01-5.96 3.91zm0-2.22a4.22 4.22 0 002.93-1.17c.38-.38.68-.84.88-1.34a4.84 4.84 0 000-3.47 3.9 3.9 0 00-2.19-2.2 4.36 4.36 0 00-3.23 0 3.94 3.94 0 00-2.2 2.2 4.89 4.89 0 000 3.47 3.89 3.89 0 002.2 2.2c.5.2 1.05.31 1.6.31zM140.6 43.4a1.3 1.3 0 001.03-.4c.24-.31.38-.69.42-1.08.09-.67.13-1.36.11-2.04v-6.91h8.78v12.36h-2.33V35.18h-4.12v5.65c.02.82-.08 1.64-.28 2.44a3.4 3.4 0 01-.88 1.5c-.3.3-.67.52-1.08.64-.47.14-.96.2-1.46.2-.14 0-.28-.03-.41-.07a1.44 1.44 0 01-.38-.16v-2.06c.1.03.2.06.29.07l.3.01zM159.91 45.62a6.52 6.52 0 01-4.61-1.88 6.24 6.24 0 01-1.36-2.06 6.74 6.74 0 010-5.06 6.22 6.22 0 013.4-3.41 6.8 6.8 0 015.14 0 6.28 6.28 0 013.4 3.42 6.78 6.78 0 010 5.07 6.29 6.29 0 01-5.97 3.92zm0-2.22a4.21 4.21 0 002.93-1.17c.38-.39.68-.84.88-1.34a4.9 4.9 0 000-3.47 4.02 4.02 0 00-2.2-2.2 4.16 4.16 0 00-4.54.87c-.38.37-.68.82-.88 1.33a4.89 4.89 0 000 3.47 3.9 3.9 0 002.2 2.2c.5.21 1.06.32 1.61.31zM169.17 32.97h7.57v2.2h-5.24v10.17h-2.34l.01-12.37zM189.06 45.34h-2.32v-6.07l.14-2.38h-.14l-4.92 8.45h-2.63V32.98h2.3v6.22l-.13 2.38h.14l5.03-8.61h2.53v12.37zM202.21 45.34h-2.31v-6.07l.13-2.38h-.13l-4.91 8.45h-2.63V32.98h2.3v6.22l-.14 2.38h.14l5.03-8.61h2.54l-.02 12.37z" fill="#292C38"></path></svg> 