<svg width="182" height="60" viewBox="0 0 182 60" fill="none" xmlns="http://www.w3.org/2000/svg"><path d="M22.77 26.389c-7.216 0-13.09-5.923-13.09-13.2C9.68 5.915 15.554 0 22.77 0c7.217 0 13.091 5.923 13.091 13.199s-5.874 13.199-13.09 13.199v-.01zm0-19.187c-3.281 0-5.938 2.688-5.938 5.988 0 3.3 2.666 5.987 5.939 5.987 3.272 0 5.938-2.688 5.938-5.987 0-3.3-2.666-5.988-5.938-5.988zM11.197 22.857H0v36.659h11.197V22.857zM33.36 42.47c-1.038-.537-2.38-.76-3.989-.76h-4.605v17.806h3.667v-5.97h.616c1.554 0 2.786-.24 3.779-.62 2.62-1.03 3.511-3.245 3.511-5.32 0-2.457-1.048-4.209-2.978-5.136zm-2.196 7.73c-.478.241-1.131.353-1.903.353h-.828v-5.83h.773c.882 0 1.535.11 2.04.407.883.538 1.287 1.456 1.287 2.484 0 1.242-.422 2.16-1.36 2.596l-.01-.01zm11.371-8.49L35.65 59.516h3.778l1.636-4.347h6.003l1.72 4.347h3.934L45.514 41.71h-2.979zm-.423 10.483l1.067-2.975c.478-1.298.744-2.058.882-2.679h.055c.157.593.377 1.353.8 2.642l1.048 3.003h-3.86l.008.01zm21.108-.704v-.056c1.985-.62 3.428-2.243 3.428-4.57 0-1.89-.772-3.596-2.813-4.486-.938-.435-2.114-.676-3.695-.676h-5.277v17.805h3.668v-6.729h1.342c.432.111 1.048.788 1.93 2.456l2.335 4.264h4.202l-2.86-5.107c-.937-1.65-1.718-2.623-2.252-2.92l-.009.019zm-1.554-2.076c-.45.24-.966.38-1.765.38h-1.37v-5.08h1.388c.809 0 1.315.13 1.719.38.781.408 1.204 1.214 1.204 2.16 0 1.001-.487 1.733-1.176 2.16zm43.629-4.57h5.139v14.673h3.677V44.843h4.633l.965-3.133h-14.414v3.133zm-2.786 0l.966-3.133H93.271v17.806h10.176v-3.133h-6.508v-4.32h5.598V48.95h-5.598v-4.106h5.57zM74.398 41.71H70.73v17.806h3.668V41.71zm2.39 3.133h5.139v14.673h3.677V44.843h4.633l.965-3.133H76.788v3.133zm97.389 5.673l7.345-8.806h-2.353l-6.702 8.166h-.055V41.71h-1.986v17.806h1.986v-8.13h.055l7.042 8.13H182l-7.823-9zm-44.981-.371v-.056c1.453-.62 2.335-2.057 2.335-3.865 0-2.428-1.655-4.514-5.414-4.514h-4.1v17.806h4.614c3.907 0 6.003-2.049 6.003-5.052 0-2.243-1.452-3.893-3.429-4.32h-.009zm-5.194-6.748h2.013c2.519 0 3.531 1.27 3.531 3.05 0 1.974-1.26 3.133-3.613 3.133h-1.931v-6.183zm2.629 14.45h-2.629v-6.59h2.868c2.253 0 3.724 1.27 3.724 3.272 0 2.373-1.582 3.318-3.963 3.318zm37.498-4.819c0 1.4 0 2.187.055 3.132h-.055c-.616-.89-1.443-2.076-2.574-3.596l-8.145-10.863h-1.903v17.805h1.986v-11.67c0-1.399-.028-2.159-.083-3.049h.055c.616.89 1.416 2.03 2.492 3.43l8.457 11.29h1.664V41.7h-1.958v11.317l.009.01zM140.908 41.71l-6.702 17.806h2.087l1.738-4.783h7.096l1.747 4.783h2.151l-6.757-17.806h-1.36zm3.594 11.345h-5.846l1.847-5.135c.561-1.566.855-2.41 1.076-3.077h.055c.212.677.478 1.51 1.039 3.077l1.82 5.135h.009z" fill="#004A98"/></svg>