<svg width="202" height="73" viewBox="0 0 202 73" fill="none" xmlns="http://www.w3.org/2000/svg">
    <g filter="url(#filter0_d)">
        <path fill-rule="evenodd" clip-rule="evenodd" d="M164.779 5C180.333 5 193 17.6702 193 33.244C193 48.8838 180.399 61.5541 164.779 61.5541C149.159 61.5541 136.558 48.8838 136.558 33.244C136.558 17.6702 149.225 5 164.779 5ZM137.608 37.7974C139.642 37.7974 141.218 39.4472 141.218 41.4269C141.218 43.4066 139.577 45.0564 137.608 45.0564C135.639 45.0564 133.933 43.4066 133.933 41.4269C133.933 39.4472 135.573 37.7974 137.608 37.7974ZM148.174 44.3305V19.9799H152.834V28.7567C154.278 27.1069 155.985 26.315 157.953 26.315C160.119 26.315 161.826 27.1069 163.27 28.6247C164.648 30.2085 165.37 32.4521 165.37 35.3557C165.37 38.3913 164.648 40.701 163.27 42.3508C161.826 44.0005 160.119 44.7924 158.085 44.7924C157.1 44.7924 156.116 44.5285 155.131 44.0005C154.147 43.4726 153.294 42.7467 152.572 41.7568V44.3305H148.174ZM152.703 35.1578C152.703 37.0055 152.966 38.3253 153.556 39.2492C154.344 40.503 155.459 41.0969 156.772 41.0969C157.822 41.0969 158.675 40.635 159.397 39.7771C160.119 38.9192 160.447 37.4674 160.447 35.6197C160.447 33.574 160.054 32.1222 159.332 31.2643C158.61 30.3404 157.691 29.9445 156.51 29.9445C155.394 29.9445 154.475 30.4064 153.687 31.2643C153.097 32.0562 152.703 33.376 152.703 35.1578ZM166.814 26.711H171.736L175.936 39.2492L180.071 26.711H184.862L178.693 43.6706L177.577 46.7062C177.183 47.762 176.789 48.4879 176.396 49.0818C176.067 49.6097 175.608 50.0717 175.149 50.4016C174.689 50.7316 174.099 50.9955 173.377 51.1935C172.72 51.3915 171.867 51.4575 171.014 51.4575C170.161 51.4575 169.242 51.3915 168.389 51.1935L167.995 47.564C168.717 47.696 169.373 47.762 169.964 47.762C171.014 47.762 171.867 47.432 172.392 46.7721C172.917 46.1122 173.311 45.3203 173.574 44.3305L166.814 26.711Z" fill="#A70C0D"/>
        <path d="M7.06618 20.6102H13.0225V24.1821C13.8166 22.9914 14.8094 21.9993 16.133 21.2055C17.4566 20.4779 18.9126 20.0811 20.5671 20.0811C23.3467 20.0811 25.7954 21.2055 27.7147 23.3883C29.7001 25.5711 30.6928 28.6799 30.6928 32.5825C30.6928 36.6173 29.7001 39.7923 27.7147 42.0412C25.7292 44.2902 23.3467 45.4146 20.5009 45.4146C19.1773 45.4146 17.9199 45.15 16.861 44.6209C15.8021 44.0917 14.6108 43.1657 13.4196 41.9089V54.0135H7V20.6102H7.06618ZM13.3534 32.384C13.3534 35.096 13.8828 37.1465 14.9417 38.4694C16.0006 39.7923 17.3242 40.3876 18.9126 40.3876C20.3686 40.3876 21.626 39.7923 22.6187 38.6017C23.6114 37.4111 24.0747 35.4267 24.0747 32.7148C24.0747 30.1351 23.5453 28.283 22.5525 27.0263C21.5598 25.7695 20.3024 25.1742 18.7802 25.1742C17.1919 25.1742 15.9344 25.7695 14.8755 26.9601C13.8828 28.2169 13.3534 30.0028 13.3534 32.384ZM42.0759 44.8855H35.6564V20.6102H41.6127V24.0498C42.6054 22.3961 43.5319 21.3378 44.3923 20.8748C45.1864 20.3456 46.113 20.1472 47.1719 20.1472C48.6279 20.1472 50.0177 20.5441 51.4075 21.3378L49.422 26.894C48.3631 26.2326 47.3704 25.8357 46.4439 25.8357C45.5173 25.8357 44.7894 26.1003 44.1275 26.5633C43.5319 27.0924 43.0025 27.9523 42.6716 29.2752C42.2745 30.5981 42.1421 33.2439 42.1421 37.3449V44.8855H42.0759ZM59.0183 28.0846L53.1944 27.0924C53.8562 24.7112 54.9812 22.9914 56.5696 21.867C58.1579 20.7425 60.5404 20.1472 63.6509 20.1472C66.4967 20.1472 68.6145 20.4779 70.0043 21.1394C71.3941 21.8008 72.3868 22.6607 72.9825 23.719C73.5781 24.7774 73.8428 26.6956 73.8428 29.4737L73.7766 36.8819C73.7766 38.9986 73.8428 40.586 74.1076 41.5782C74.3061 42.5704 74.7032 43.6287 75.2326 44.8193H68.8792C68.6807 44.3563 68.4822 43.761 68.2836 42.9673C68.1513 42.5704 68.0851 42.3058 68.0851 42.2397C67.0262 43.298 65.8349 44.0917 64.5775 44.687C63.32 45.2162 61.9964 45.4808 60.6066 45.4808C58.1579 45.4808 56.1725 44.8193 54.7165 43.4303C53.2605 42.1074 52.5987 40.3876 52.5987 38.271C52.5987 36.9481 52.9296 35.6913 53.5914 34.633C54.2532 33.5747 55.1798 32.7809 56.3049 32.1856C57.4961 31.5903 59.1506 31.1273 61.4008 30.7304C64.3789 30.1351 66.4967 29.6721 67.6218 29.1429V28.4815C67.6218 27.2247 67.2909 26.3648 66.6953 25.7695C66.0997 25.2404 64.9084 24.9758 63.2539 24.9758C62.1288 24.9758 61.2023 25.1742 60.6066 25.6372C59.9448 26.1664 59.4154 26.9601 59.0183 28.0846ZM67.6218 33.3101C66.8276 33.5747 65.504 33.9054 63.7171 34.3023C61.9302 34.6991 60.739 35.0298 60.2095 35.4267C59.4154 36.022 58.9521 36.7496 58.9521 37.6757C58.9521 38.6017 59.283 39.3293 59.9448 39.9907C60.6066 40.6522 61.467 40.9829 62.5259 40.9829C63.7171 40.9829 64.776 40.586 65.8349 39.8584C66.6291 39.2631 67.1585 38.6017 67.3571 37.7418C67.4895 37.2126 67.6218 36.1543 67.6218 34.633V33.3101ZM101.44 27.82L95.1531 28.9445C94.9546 27.6877 94.4913 26.7617 93.6971 26.1003C92.9691 25.505 91.9764 25.1742 90.7852 25.1742C89.1968 25.1742 87.9394 25.7034 86.9467 26.8279C86.0201 27.9523 85.4907 29.8044 85.4907 32.384C85.4907 35.2944 85.9539 37.2788 86.9467 38.4694C87.8732 39.66 89.1968 40.2553 90.7852 40.2553C91.9764 40.2553 92.9691 39.9246 93.7633 39.197C94.5575 38.5355 95.0869 37.2788 95.4178 35.6252L101.705 36.6835C101.043 39.5939 99.7858 41.7766 97.9327 43.2318C96.0796 44.687 93.631 45.4146 90.4543 45.4146C86.8805 45.4146 84.1009 44.2902 81.9831 42.0412C79.8653 39.7923 78.8064 36.6835 78.8064 32.7809C78.8064 28.7461 79.8653 25.6372 81.9831 23.4545C84.1009 21.2055 86.9467 20.1472 90.5866 20.1472C93.5648 20.1472 95.8811 20.8087 97.6018 22.0654C99.4549 23.3222 100.712 25.2404 101.44 27.82ZM112.625 28.0846L106.867 27.0924C107.529 24.7112 108.654 22.9914 110.242 21.867C111.831 20.7425 114.213 20.1472 117.324 20.1472C120.17 20.1472 122.287 20.4779 123.677 21.1394C125.067 21.8008 126.06 22.6607 126.655 23.719C127.251 24.7774 127.516 26.6956 127.516 29.4737L127.449 36.9481C127.449 39.0647 127.582 40.6522 127.78 41.6444C127.979 42.6365 128.376 43.6949 128.905 44.8855H122.552C122.354 44.4225 122.155 43.8271 121.956 43.0334C121.89 42.6365 121.758 42.372 121.758 42.3058C120.699 43.3641 119.508 44.1579 118.25 44.7532C116.993 45.2823 115.669 45.5469 114.279 45.5469C111.765 45.5469 109.845 44.8855 108.389 43.4964C106.933 42.1735 106.205 40.4537 106.205 38.3371C106.205 37.0142 106.536 35.7574 107.198 34.6991C107.86 33.6408 108.786 32.8471 109.978 32.2518C111.169 31.6564 112.823 31.1934 115.074 30.7966C118.052 30.2013 120.17 29.7382 121.295 29.2091V28.5476C121.295 27.2909 120.964 26.431 120.368 25.8357C119.772 25.3065 118.581 25.0419 116.927 25.0419C115.802 25.0419 114.875 25.2404 114.213 25.7034C113.551 26.1664 113.022 26.9601 112.625 28.0846ZM121.228 33.3101C120.434 33.5747 119.111 33.9054 117.324 34.3023C115.537 34.6991 114.346 35.0298 113.816 35.4267C112.956 36.022 112.559 36.7496 112.559 37.6757C112.559 38.6017 112.89 39.3293 113.551 39.9907C114.213 40.6522 115.074 40.9829 116.132 40.9829C117.258 40.9829 118.383 40.586 119.442 39.8584C120.236 39.2631 120.699 38.6017 120.964 37.7418C121.162 37.2126 121.228 36.1543 121.228 34.633V33.3101Z" fill="#A70C0D"/>
    </g>
    <defs>
        <filter id="filter0_d" x="0" y="0" width="202" height="72.5541" filterUnits="userSpaceOnUse" color-interpolation-filters="sRGB">
            <feFlood flood-opacity="0" result="BackgroundImageFix"/>
            <feColorMatrix in="SourceAlpha" type="matrix" values="0 0 0 0 0 0 0 0 0 0 0 0 0 0 0 0 0 0 127 0"/>
            <feOffset dx="1" dy="3"/>
            <feGaussianBlur stdDeviation="4"/>
            <feColorMatrix type="matrix" values="0 0 0 0 0 0 0 0 0 0 0 0 0 0 0 0 0 0 0.25 0"/>
            <feBlend mode="normal" in2="BackgroundImageFix" result="effect1_dropShadow"/>
            <feBlend mode="normal" in="SourceGraphic" in2="effect1_dropShadow" result="shape"/>
        </filter>
    </defs>
</svg>
