<svg width="90" height="90" viewBox="0 0 90 90" fill="none" xmlns="http://www.w3.org/2000/svg">
<rect width="90" height="90" fill="#E5E5E5"/>
<g clip-path="url(#clip0_1_2)">
<rect width="1900" height="15005" transform="translate(-812 -2972)" fill="white"/>
<circle cx="45" cy="45" r="44.5" stroke="#F4D7C4"/>
<path d="M33.8334 50.1667C33.8334 43.7234 39.0568 38.5 45.5001 38.5C51.9434 38.5 57.1667 43.7234 57.1667 50.1667C57.1667 56.61 51.9434 61.8334 45.5001 61.8334C39.0568 61.8334 33.8334 56.61 33.8334 50.1667Z" stroke="#261104"/>
<path d="M29.1667 40.8334C29.1667 34.39 34.3901 29.1667 40.8334 29.1667C47.2767 29.1667 52.5001 34.39 52.5001 40.8334C52.5001 47.2767 47.2767 52.5 40.8334 52.5C34.3901 52.5 29.1667 47.2767 29.1667 40.8334Z" stroke="#261104"/>
<path d="M38.5001 40.8334C38.5001 34.39 43.7234 29.1667 50.1667 29.1667C56.6101 29.1667 61.8334 34.39 61.8334 40.8334C61.8334 47.2767 56.6101 52.5 50.1667 52.5C43.7234 52.5 38.5001 47.2767 38.5001 40.8334Z" stroke="#261104"/>
</g>
<defs>
<clipPath id="clip0_1_2">
<rect width="1900" height="15005" fill="white" transform="translate(-812 -2972)"/>
</clipPath>
</defs>
</svg>
