<svg width="136" height="40" viewBox="0 0 136 22" fill="none" xmlns="http://www.w3.org/2000/svg"><path d="M19.14 22H2.86A2.86 2.86 0 010 19.14V2.86A2.86 2.86 0 012.86 0h16.28A2.86 2.86 0 0122 2.86v16.28A2.86 2.86 0 0119.14 22z" fill="#E80200"/><path d="M17.38 9.515a4.564 4.564 0 00-4.565-4.565H5.28v12.1h3.08v-2.97h3.693l2.027 2.97h3.3l-2.404-3.512a4.58 4.58 0 002.404-4.023zM12.815 11H8.36V8.03h4.455c.817 0 1.485.668 1.485 1.485 0 .817-.668 1.485-1.485 1.485z" fill="#fff"/><path d="M106.15 13.53c-1.029 0-1.87.84-1.87 1.87 0 1.03.841 1.87 1.87 1.87 1.029 0 1.87-.84 1.87-1.87 0-1.03-.841-1.87-1.87-1.87zM86.02 1.43h-3.3v3.52h-2.31v3.08h2.31v6.82c0 1.218.982 2.2 2.2 2.2h3.63v-3.08h-2.53V8.03h2.53V4.95h-2.53V1.43zM131.772 4.95l-2.844 7.52-2.868-7.52h-3.528l4.604 12.1h.063l-1.249 3.3h3.52l5.83-15.4h-3.528zM47.52 6.05c-1.053-.801-2.286-1.273-3.52-1.312-3.567-.126-6.482 2.718-6.49 6.27.165 4.046 3.276 6.38 6.49 6.27a6.338 6.338 0 002.97-.872v.652h3.3V4.966h-2.2l-.55 1.084zm-.55 6.576A3.169 3.169 0 0144 14.198a3.204 3.204 0 01-2.97-3.19A3.21 3.21 0 0144 7.818c1.862-.118 3.394 1.32 3.41 3.19a3.3 3.3 0 01-.44 1.618zM99.77 6.05c-1.053-.801-2.286-1.273-3.52-1.312-3.567-.126-6.482 2.718-6.49 6.27.165 4.046 3.276 6.38 6.49 6.27a6.338 6.338 0 002.97-.872v.652h3.3V4.966h-2.2l-.55 1.084zm-.55 6.576a3.169 3.169 0 01-2.97 1.572 3.204 3.204 0 01-2.97-3.19 3.21 3.21 0 012.97-3.19c1.862-.118 3.394 1.32 3.41 3.19a3.302 3.302 0 01-.44 1.618zM73.04 4.51A6.487 6.487 0 0066.55 11c0 3.575 2.9 6.49 6.49 6.49 3.575 0 6.49-2.9 6.49-6.49 0-3.575-2.9-6.49-6.49-6.49zm0 9.68A3.187 3.187 0 0169.85 11c0-1.76 1.422-3.19 3.19-3.19A3.187 3.187 0 0176.23 11a3.187 3.187 0 01-3.19 3.19zM116.05 4.738c-1.021.04-2.051.37-2.97.943V1.438h-3.3V17.05h3.3v-.652a6.339 6.339 0 002.97.872c3.214.11 6.325-2.216 6.49-6.27a6.257 6.257 0 00-6.49-6.262zm0 9.46a3.154 3.154 0 01-2.97-1.572 3.303 3.303 0 01-.44-1.618c.016-1.87 1.548-3.308 3.41-3.19a3.21 3.21 0 012.97 3.19 3.205 3.205 0 01-2.97 3.19zM58.52 4.738c-1.021.04-2.05.37-2.97.943V1.438h-3.3V17.05h3.3v-.652a6.338 6.338 0 002.97.872c3.214.11 6.325-2.216 6.49-6.27a6.257 6.257 0 00-6.49-6.262zm0 9.46a3.154 3.154 0 01-2.97-1.572 3.302 3.302 0 01-.44-1.618c.016-1.87 1.548-3.308 3.41-3.19a3.21 3.21 0 012.97 3.19 3.204 3.204 0 01-2.97 3.19zM31.57 6.404V4.95h-3.3v12.1h3.3v-4.4c.047-2.137 1.131-3.504 2.82-4.101a5.212 5.212 0 011.8-.299h.33v-3.3h-.33c-1.713.024-3.34.55-4.62 1.454z" fill="#000"/></svg>