<svg width="941" height="143" viewBox="0 0 941 143" fill="none" xmlns="http://www.w3.org/2000/svg">
<path d="M72.4 140H0.6V-9.53674e-06H68.4C80.8 -9.53674e-06 91.0667 3.66666 99.2 11C107.467 18.2 111.6 27.2667 111.6 38.2C111.6 49.5333 107.067 58.9333 98 66.4C111.067 74.2667 117.6 85.4667 117.6 100C117.6 111.2 113.267 120.733 104.6 128.6C96.0667 136.2 85.3333 140 72.4 140ZM72.4 80.4H27.4V115.2H72.4C77.3333 115.2 81.4 113.533 84.6 110.2C87.9333 106.867 89.6 102.733 89.6 97.8C89.6 92.8667 87.9333 88.7333 84.6 85.4C81.4 82.0667 77.3333 80.4 72.4 80.4ZM68.4 24.8H27.4V55.8H68.4C72.8 55.8 76.4667 54.3333 79.4 51.4C82.3333 48.4667 83.8 44.7333 83.8 40.2C83.8 35.8 82.3333 32.1333 79.4 29.2C76.4667 26.2667 72.8 24.8 68.4 24.8ZM180.775 33C192.508 33 203.042 36.7333 212.375 44.2V36H237.175V140H212.375V131.8C203.042 139.267 192.508 143 180.775 143C166.508 143 154.442 137.8 144.575 127.4C134.975 116.867 130.175 103.733 130.175 88C130.175 72.2667 134.975 59.2 144.575 48.8C154.308 38.2667 166.375 33 180.775 33ZM203.775 66.6C198.442 60.8667 191.842 58 183.975 58C175.975 58 169.308 60.8667 163.975 66.6C158.642 72.3333 155.975 79.4667 155.975 88C155.975 96.5333 158.642 103.667 163.975 109.4C169.308 115.133 175.975 118 183.975 118C191.842 118 198.442 115.133 203.775 109.4C209.242 103.533 211.975 96.4 211.975 88C211.975 79.6 209.242 72.4667 203.775 66.6ZM283.189 89V140H258.389V36H283.189V83.4L320.189 36H350.389L311.389 86.2L354.789 140H324.189L283.189 89ZM407.728 33C419.461 33 429.995 36.7333 439.328 44.2V36H464.128V140H439.328V131.8C429.995 139.267 419.461 143 407.728 143C393.461 143 381.395 137.8 371.528 127.4C361.928 116.867 357.128 103.733 357.128 88C357.128 72.2667 361.928 59.2 371.528 48.8C381.261 38.2667 393.328 33 407.728 33ZM430.728 66.6C425.395 60.8667 418.795 58 410.928 58C402.928 58 396.261 60.8667 390.928 66.6C385.595 72.3333 382.928 79.4667 382.928 88C382.928 96.5333 385.595 103.667 390.928 109.4C396.261 115.133 402.928 118 410.928 118C418.795 118 425.395 115.133 430.728 109.4C436.195 103.533 438.928 96.4 438.928 88C438.928 79.6 436.195 72.4667 430.728 66.6ZM510.142 99V140H485.342V36H510.142V75.2H558.942V36H583.742V140H558.942V99H510.142ZM707.473 67.4L682.473 74.8C680.207 69.6 676.673 65.5333 671.873 62.6C667.207 59.5333 661.94 58 656.073 58C647.807 58 640.873 60.8667 635.273 66.6C629.673 72.3333 626.873 79.4667 626.873 88C626.873 96.5333 629.673 103.667 635.273 109.4C640.873 115.133 647.807 118 656.073 118C661.94 118 667.207 116.533 671.873 113.6C676.673 110.533 680.207 106.4 682.473 101.2L707.473 108.6C703.473 119.133 696.873 127.533 687.673 133.8C678.473 139.933 667.94 143 656.073 143C640.473 143 627.34 137.8 616.673 127.4C606.273 116.867 601.073 103.733 601.073 88C601.073 72.2667 606.273 59.2 616.673 48.8C627.207 38.2667 640.34 33 656.073 33C667.94 33 678.473 36.1333 687.673 42.4C696.873 48.5333 703.473 56.8667 707.473 67.4ZM796.442 78L743.642 140H722.842V36H747.642V98.6L800.442 36H821.242V140H796.442V78ZM915.973 78L863.173 140H842.373V36H867.173V98.6L919.973 36H940.773V140H915.973V78Z" fill="#FFF4ED"/>
</svg>
