<svg width="40" height="40" viewBox="0 0 40 40" fill="none" xmlns="http://www.w3.org/2000/svg">
<path d="M6.66536 25.334C6.66536 17.9702 12.6349 12.0007 19.9987 12.0007C27.3625 12.0007 33.332 17.9702 33.332 25.334C33.332 32.6978 27.3625 38.6673 19.9987 38.6673C12.6349 38.6673 6.66536 32.6978 6.66536 25.334Z" stroke="#D25F15"/>
<path d="M1.33203 14.6673C1.33203 7.30352 7.30157 1.33398 14.6654 1.33398C22.0292 1.33398 27.9987 7.30352 27.9987 14.6673C27.9987 22.0311 22.0292 28.0006 14.6654 28.0006C7.30157 28.0006 1.33203 22.0311 1.33203 14.6673Z" stroke="#D25F15"/>
<path d="M11.9987 14.6673C11.9987 7.30352 17.9682 1.33398 25.332 1.33398C32.6958 1.33398 38.6654 7.30352 38.6654 14.6673C38.6654 22.0311 32.6958 28.0006 25.332 28.0006C17.9682 28.0006 11.9987 22.0311 11.9987 14.6673Z" stroke="#D25F15"/>
</svg>
