<svg width="35" height="35" viewBox="0 0 35 35" fill="none" xmlns="http://www.w3.org/2000/svg">
<path d="M1.1665 33.8333H0.666504V34.3333H1.1665V33.8333ZM15.1665 12.8333L15.5665 12.5333C15.4691 12.4035 15.3148 12.329 15.1526 12.3335C14.9904 12.338 14.8405 12.421 14.7505 12.556L15.1665 12.8333ZM22.1665 22.1667L21.7665 22.4667C21.8622 22.5942 22.0129 22.6685 22.1723 22.6666C22.3317 22.6648 22.4807 22.587 22.5734 22.4573L22.1665 22.1667ZM0.666504 0V33.8333H1.6665V0H0.666504ZM1.1665 34.3333H34.9998V33.3333H1.1665V34.3333ZM6.2492 27.1107L15.5825 13.1107L14.7505 12.556L5.41715 26.556L6.2492 27.1107ZM14.7665 13.1333L21.7665 22.4667L22.5665 21.8667L15.5665 12.5333L14.7665 13.1333ZM22.5734 22.4573L34.24 6.12395L33.4263 5.54271L21.7596 21.876L22.5734 22.4573Z" fill="#261104"/>
</svg>
