<svg width="35" height="35" viewBox="0 0 35 35" fill="none" xmlns="http://www.w3.org/2000/svg">
<path d="M15.1665 1.16669V0.666687C14.8904 0.666687 14.6665 0.890545 14.6665 1.16669H15.1665ZM33.8332 19.8334V20.3334C34.1093 20.3334 34.3332 20.1095 34.3332 19.8334H33.8332ZM15.1665 19.8334H14.6665V20.3334H15.1665V19.8334ZM15.1665 34.3334C23.1746 34.3334 29.6665 27.8415 29.6665 19.8334H28.6665C28.6665 27.2892 22.6223 33.3334 15.1665 33.3334V34.3334ZM0.666504 19.8334C0.666504 27.8415 7.15838 34.3334 15.1665 34.3334V33.3334C7.71066 33.3334 1.6665 27.2892 1.6665 19.8334H0.666504ZM1.6665 19.8334C1.6665 12.3775 7.71066 6.33335 15.1665 6.33335V5.33335C7.15838 5.33335 0.666504 11.8252 0.666504 19.8334H1.6665ZM15.1665 1.66669C25.1997 1.66669 33.3332 9.80018 33.3332 19.8334H34.3332C34.3332 9.2479 25.752 0.666687 15.1665 0.666687V1.66669ZM14.6665 1.16669V19.8334H15.6665V1.16669H14.6665ZM15.1665 20.3334H33.8332V19.3334H15.1665V20.3334Z" fill="#261104"/>
</svg>
