<svg width="35" height="35" viewBox="0 0 35 35" fill="none" xmlns="http://www.w3.org/2000/svg">
<path d="M1.1665 22.1667L0.812951 21.8131L0.666504 21.9595V22.1667H1.1665ZM22.1665 1.16666L22.5201 0.813103C22.3248 0.617841 22.0082 0.617841 21.813 0.813103L22.1665 1.16666ZM33.8332 12.8333L34.1867 13.1869C34.382 12.9916 34.382 12.675 34.1867 12.4798L33.8332 12.8333ZM12.8332 33.8333V34.3333H13.0403L13.1867 34.1869L12.8332 33.8333ZM1.1665 33.8333H0.666504C0.666504 34.1095 0.890362 34.3333 1.1665 34.3333V33.8333ZM1.52006 22.5202L22.5201 1.52021L21.813 0.813103L0.812951 21.8131L1.52006 22.5202ZM21.813 1.52021L33.4796 13.1869L34.1867 12.4798L22.5201 0.813103L21.813 1.52021ZM33.4796 12.4798L12.4796 33.4798L13.1867 34.1869L34.1867 13.1869L33.4796 12.4798ZM12.8332 33.3333H1.1665V34.3333H12.8332V33.3333ZM1.6665 33.8333V22.1667H0.666504V33.8333H1.6665ZM14.813 8.52021L26.4796 20.1869L27.1867 19.4798L15.5201 7.8131L14.813 8.52021ZM18.6665 34.3333H34.9998V33.3333H18.6665V34.3333Z" fill="#261104"/>
</svg>
