<svg width="35" height="35" viewBox="0 0 35 35" fill="none" xmlns="http://www.w3.org/2000/svg">
<path d="M17.4998 1.16669L17.7479 0.732565L17.4998 0.590811L17.2518 0.732565L17.4998 1.16669ZM1.1665 10.5L0.918434 10.0659L0.666504 10.2099V10.5H1.1665ZM33.8332 10.5H34.3332V10.2099L34.0812 10.0659L33.8332 10.5ZM17.4998 33.8334L17.3625 34.3141L17.4998 34.3534L17.6372 34.3141L17.4998 33.8334ZM16.3332 23.3334L16.0131 23.7175L16.4049 24.044L16.7236 23.6457L16.3332 23.3334ZM17.2518 0.732565L0.918434 10.0659L1.41457 10.9341L17.7479 1.60081L17.2518 0.732565ZM0.666504 10.5V12.1798H1.6665V10.5H0.666504ZM34.3332 12.1798V10.5H33.3332V12.1798H34.3332ZM34.0812 10.0659L17.7479 0.732565L17.2518 1.60081L33.5851 10.9341L34.0812 10.0659ZM17.6372 34.3141C27.5197 31.4905 34.3332 22.4578 34.3332 12.1798H33.3332C33.3332 22.0113 26.8157 30.6517 17.3625 33.3526L17.6372 34.3141ZM0.666504 12.1798C0.666504 22.4578 7.47993 31.4905 17.3625 34.3141L17.6372 33.3526C8.18395 30.6517 1.6665 22.0113 1.6665 12.1798H0.666504ZM9.01308 17.8841L16.0131 23.7175L16.6533 22.9492L9.65326 17.1159L9.01308 17.8841ZM16.7236 23.6457L26.0569 11.979L25.2761 11.3543L15.9427 23.021L16.7236 23.6457Z" fill="#261104"/>
</svg>
