<svg width="35" height="35" viewBox="0 0 35 35" fill="none" xmlns="http://www.w3.org/2000/svg">
<path d="M25.6665 26.8333L9.33317 26.8333M25.6665 19.8333H23.3332M18.6665 19.8333H16.3332M11.6665 19.8333H9.33317M25.6665 15.1667H23.3332M18.6665 15.1667H16.3332M11.6665 15.1667H9.33317M17.4998 10.5V0M31.4998 10.5L3.49984 10.5C2.21117 10.5 1.16651 11.5447 1.16651 12.8333L1.1665 29.1667C1.1665 30.4553 2.21117 31.5 3.49984 31.5L31.4998 31.5C32.7885 31.5 33.8332 30.4553 33.8332 29.1667V12.8333C33.8332 11.5447 32.7885 10.5 31.4998 10.5Z" stroke="#261104"/>
</svg>
