<svg width="35" height="35" viewBox="0 0 35 35" fill="none" xmlns="http://www.w3.org/2000/svg">
<path d="M8.16667 6.33335H26.8333V5.33335H8.16667V6.33335ZM31 10.5V29.1667H32V10.5H31ZM26.8333 33.3334H8.16667V34.3334H26.8333V33.3334ZM4 29.1667V10.5H3V29.1667H4ZM8.16667 33.3334C5.86548 33.3334 4 31.4679 4 29.1667H3C3 32.0202 5.3132 34.3334 8.16667 34.3334V33.3334ZM31 29.1667C31 31.4679 29.1345 33.3334 26.8333 33.3334V34.3334C29.6868 34.3334 32 32.0202 32 29.1667H31ZM26.8333 6.33335C29.1345 6.33335 31 8.19883 31 10.5H32C32 7.64655 29.6868 5.33335 26.8333 5.33335V6.33335ZM8.16667 5.33335C5.3132 5.33335 3 7.64655 3 10.5H4C4 8.19883 5.86548 6.33335 8.16667 6.33335V5.33335ZM11.6667 18H14V17H11.6667V18ZM21 18H23.3333V17H21V18ZM24.1 23.0334C20.8 27.4334 14.2 27.4334 10.9 23.0334L10.1 23.6334C13.8 28.5667 21.2 28.5667 24.9 23.6334L24.1 23.0334ZM11 5.83335V3.50002H10V5.83335H11ZM12.8333 1.66669H22.1667V0.666687H12.8333V1.66669ZM24 3.50002V5.83335H25V3.50002H24ZM22.1667 1.66669C23.1792 1.66669 24 2.4875 24 3.50002H25C25 1.93521 23.7315 0.666687 22.1667 0.666687V1.66669ZM11 3.50002C11 2.4875 11.8208 1.66669 12.8333 1.66669V0.666687C11.2685 0.666687 10 1.93521 10 3.50002H11Z" fill="#261104"/>
</svg>
