<svg width="50" height="51" viewBox="0 0 50 51" fill="none" xmlns="http://www.w3.org/2000/svg">
<path d="M25.0001 25.8115H24.5001C24.5001 25.9444 24.5529 26.0717 24.6469 26.1655L25.0001 25.8115ZM25.0001 48.5918C12.3885 48.5918 2.16675 38.3917 2.16675 25.8115H1.16675C1.16675 38.9461 11.8384 49.5918 25.0001 49.5918V48.5918ZM47.8334 25.8115C47.8334 38.3917 37.6117 48.5918 25.0001 48.5918V49.5918C38.1618 49.5918 48.8334 38.9461 48.8334 25.8115H47.8334ZM25.0001 3.03125C37.6117 3.03125 47.8334 13.2314 47.8334 25.8115H48.8334C48.8334 12.677 38.1618 2.03125 25.0001 2.03125V3.03125ZM25.0001 2.03125C11.8384 2.03125 1.16675 12.677 1.16675 25.8115H2.16675C2.16675 13.2314 12.3885 3.03125 25.0001 3.03125V2.03125ZM24.5001 10.8456V25.8115H25.5001V10.8456H24.5001ZM24.6469 26.1655L34.6469 36.1428L35.3532 35.4349L25.3532 25.4576L24.6469 26.1655Z" fill="#261104"/>
</svg>
