<svg width="18" height="18" viewBox="0 0 18 18" fill="none" xmlns="http://www.w3.org/2000/svg">
<path d="M7.07605 16.6681C10.1671 13.5942 12.5851 11.137 15.2746 8.49917C16.1625 7.5718 16.7249 6.66412 16.9617 5.77619C17.376 4.10059 16.7389 2.64959 15.6298 1.51414C14.5642 0.44863 13.4247 -0.0545302 12.2112 0.00467477C10.9977 0.0638798 9.79906 0.675565 8.61514 1.83973L1.06772 9.41669L2.31083 10.6302L9.85823 3.08281C10.6327 2.3465 11.5543 1.65233 12.6108 1.75091C14.2206 1.9769 15.6422 3.94715 15.2746 5.33222C14.8085 6.56108 14.166 7.12156 13.2768 8.01079C10.5717 10.709 8.46244 12.7955 5.83298 15.425C4.84478 16.328 4.20569 16.5724 3.2876 15.721C2.81404 15.2474 2.60686 14.7837 2.66605 14.3299C2.73173 13.8004 3.03149 13.4341 3.37637 13.0868L10.2726 6.19052C10.5876 5.87492 11.3051 5.26915 11.6045 5.53939C11.8342 6.0722 11.2427 6.58076 10.9534 6.87128L4.61947 13.2052L5.83295 14.4483L12.1964 8.11441C13.2925 6.98393 14.0799 5.60251 12.8476 4.32592C11.4846 3.1561 10.0488 3.93707 9.02948 4.94747L2.13326 11.8437C1.42294 12.554 1.01842 13.3236 0.919776 14.1523C0.841956 15.3141 1.36577 16.2467 2.07407 16.9641C2.73985 17.6262 3.45911 17.993 4.35311 18C5.42795 17.957 6.48479 17.249 7.07605 16.6681V16.6681Z" fill="#D25F15"/>
</svg>
