<svg width="44" height="36" viewBox="0 0 44 36" fill="none" xmlns="http://www.w3.org/2000/svg">
<path d="M1.16699 7.58331L18.1772 19.4905C19.5547 20.4547 20.2434 20.9368 20.9925 21.1235C21.6543 21.2885 22.3464 21.2885 23.0081 21.1235C23.7572 20.9368 24.446 20.4547 25.8234 19.4905L42.8337 7.58331M11.167 34.6666H32.8337C36.334 34.6666 38.0841 34.6666 39.4211 33.9854C40.5971 33.3862 41.5532 32.4301 42.1524 31.2541C42.8337 29.9171 42.8337 28.167 42.8337 24.6666V11.3333C42.8337 7.83299 42.8337 6.08282 42.1524 4.74587C41.5532 3.56986 40.5971 2.61373 39.4211 2.01452C38.0841 1.33331 36.334 1.33331 32.8337 1.33331H11.167C7.66666 1.33331 5.9165 1.33331 4.57955 2.01452C3.40354 2.61373 2.44741 3.56986 1.8482 4.74587C1.16699 6.08282 1.16699 7.83299 1.16699 11.3333V24.6666C1.16699 28.167 1.16699 29.9171 1.8482 31.2541C2.44741 32.4301 3.40354 33.3862 4.57955 33.9854C5.9165 34.6666 7.66666 34.6666 11.167 34.6666Z" stroke="#261104" stroke-linecap="round" stroke-linejoin="round"/>
</svg>
