<svg width="50" height="51" viewBox="0 0 50 51" fill="none" xmlns="http://www.w3.org/2000/svg">
<path d="M25.0001 1.84473L25.3251 1.46473C25.1379 1.30472 24.8622 1.30472 24.6751 1.46473L25.0001 1.84473ZM1.66675 21.7993L1.34178 21.4193L1.16675 21.569V21.7993H1.66675ZM18.3334 48.4053V48.9053C18.6096 48.9053 18.8334 48.6815 18.8334 48.4053H18.3334ZM31.6667 48.4053H31.1667C31.1667 48.6815 31.3906 48.9053 31.6667 48.9053V48.4053ZM48.3334 21.7993H48.8334V21.569L48.6584 21.4193L48.3334 21.7993ZM5.00008 48.9053H18.3334V47.9053H5.00008V48.9053ZM48.6584 21.4193L25.3251 1.46473L24.6751 2.22472L48.0084 22.1793L48.6584 21.4193ZM24.6751 1.46473L1.34178 21.4193L1.99172 22.1793L25.3251 2.22472L24.6751 1.46473ZM18.8334 48.4053V38.428H17.8334V48.4053H18.8334ZM31.1667 38.428V48.4053H32.1667V38.428H31.1667ZM31.6667 48.9053H45.0001V47.9053H31.6667V48.9053ZM48.8334 45.0796V21.7993H47.8334V45.0796H48.8334ZM1.16675 21.7993V45.0796H2.16675V21.7993H1.16675ZM25.0001 32.2765C28.4069 32.2765 31.1667 35.0317 31.1667 38.428H32.1667C32.1667 34.4773 28.957 31.2765 25.0001 31.2765V32.2765ZM25.0001 31.2765C21.0431 31.2765 17.8334 34.4773 17.8334 38.428H18.8334C18.8334 35.0317 21.5933 32.2765 25.0001 32.2765V31.2765ZM45.0001 48.9053C47.1161 48.9053 48.8334 47.1935 48.8334 45.0796H47.8334C47.8334 46.6391 46.566 47.9053 45.0001 47.9053V48.9053ZM5.00008 47.9053C3.4342 47.9053 2.16675 46.6391 2.16675 45.0796H1.16675C1.16675 47.1935 2.88406 48.9053 5.00008 48.9053V47.9053Z" fill="#261104"/>
</svg>
