<svg width="50" height="50" viewBox="0 0 50 50" fill="none" xmlns="http://www.w3.org/2000/svg">
<path d="M17.4589 18.4442C18.9089 21.4643 20.8855 24.2948 23.3888 26.7981C25.8921 29.3014 28.7226 31.278 31.7427 32.728C32.0024 32.8527 32.1323 32.9151 32.2967 32.963C32.8807 33.1333 33.598 33.011 34.0926 32.6568C34.2318 32.5571 34.3509 32.438 34.589 32.1999C35.3174 31.4715 35.6815 31.1074 36.0477 30.8693C37.4288 29.9714 39.2091 29.9714 40.5902 30.8693C40.9564 31.1074 41.3205 31.4715 42.0489 32.1999L42.4549 32.6059C43.562 33.713 44.1156 34.2666 44.4163 34.8611C45.0144 36.0436 45.0144 37.44 44.4163 38.6224C44.1156 39.2169 43.562 39.7705 42.4549 40.8777L42.1265 41.2061C41.0231 42.3095 40.4714 42.8612 39.7213 43.2825C38.889 43.75 37.5963 44.0862 36.6417 44.0834C35.7814 44.0808 35.1934 43.9139 34.0175 43.5802C27.6979 41.7865 21.7347 38.4022 16.7597 33.4272C11.7847 28.4522 8.40043 22.489 6.60674 16.1694C6.27298 14.9935 6.10609 14.4055 6.10353 13.5452C6.10069 12.5906 6.43686 11.2979 6.90441 10.4656C7.32576 9.71552 7.87745 9.16383 8.98083 8.06045L9.30923 7.73204C10.4164 6.62487 10.97 6.07129 11.5645 5.77057C12.747 5.17251 14.1433 5.17251 15.3258 5.77057C15.9203 6.07129 16.4739 6.62487 17.5811 7.73204L17.987 8.13802C18.7154 8.86637 19.0796 9.23054 19.3177 9.59675C20.2156 10.9778 20.2156 12.7581 19.3177 14.1392C19.0796 14.5054 18.7154 14.8695 17.987 15.5979C17.7489 15.836 17.6298 15.9551 17.5301 16.0943C17.176 16.589 17.0537 17.3062 17.2239 17.8902C17.2718 18.0546 17.3342 18.1845 17.4589 18.4442Z" stroke="#261104" stroke-linecap="round" stroke-linejoin="round"/>
</svg>
