<svg width="44" height="51" viewBox="0 0 44 51" fill="none" xmlns="http://www.w3.org/2000/svg">
<path d="M3.4 27.7L3.1 27.3L2.3 27.9L2.6 28.3L3.4 27.7ZM27.4 28.3L27.7 27.9L26.9 27.3L26.6 27.7L27.4 28.3ZM15 49.5C-0.18783 49.5 -12.5 37.1878 -12.5 22H-13.5C-13.5 37.7401 -0.740114 50.5 15 50.5V49.5ZM42.5 22C42.5 37.1878 30.1878 49.5 15 49.5V50.5C30.7401 50.5 43.5 37.7401 43.5 22H42.5ZM15 -5.5C30.1878 -5.5 42.5 6.81217 42.5 22H43.5C43.5 6.25989 30.7401 -6.5 15 -6.5V-5.5ZM15 -6.5C-0.740114 -6.5 -13.5 6.25989 -13.5 22H-12.5C-12.5 6.81217 -0.18783 -5.5 15 -5.5V-6.5ZM1 14.5H5V13.5H1V14.5ZM25 14.5H29V13.5H25V14.5ZM26.6 27.7C20.8 35.4333 9.2 35.4333 3.4 27.7L2.6 28.3C8.8 36.5667 21.2 36.5667 27.4 28.3L26.6 27.7Z" fill="#D25F15"/>
</svg>
