<svg width="45" height="37" viewBox="0 0 45 37" fill="none" xmlns="http://www.w3.org/2000/svg">
<path d="M25.2669 30.5337L24.8197 30.7574L25.2669 30.5337ZM24 28L24.4472 27.7764C24.3625 27.607 24.1894 27.5 24 27.5V28ZM8 28V27.5C7.81061 27.5 7.63748 27.607 7.55279 27.7764L8 28ZM43.5 8V26.1115H44.5V8H43.5ZM25.7141 30.3101L24.4472 27.7764L23.5528 28.2236L24.8197 30.7574L25.7141 30.3101ZM24 27.5H8V28.5H24V27.5ZM7.55279 27.7764L6.28591 30.3101L7.18034 30.7574L8.44721 28.2236L7.55279 27.7764ZM-11.5 26.1115V8H-12.5V26.1115H-11.5ZM0 -3.5H32V-4.5H0V-3.5ZM-2.11146 35.5C-7.29661 35.5 -11.5 31.2966 -11.5 26.1115H-12.5C-12.5 31.8489 -7.84889 36.5 -2.11146 36.5V35.5ZM34.1115 35.5C30.5553 35.5 27.3044 33.4908 25.7141 30.3101L24.8197 30.7574C26.5794 34.2768 30.1766 36.5 34.1115 36.5V35.5ZM43.5 26.1115C43.5 31.2966 39.2966 35.5 34.1115 35.5V36.5C39.8489 36.5 44.5 31.8489 44.5 26.1115H43.5ZM6.28591 30.3101C4.69557 33.4908 1.44466 35.5 -2.11146 35.5V36.5C1.82343 36.5 5.4206 34.2768 7.18034 30.7574L6.28591 30.3101ZM44.5 8C44.5 1.09644 38.9036 -4.5 32 -4.5V-3.5C38.3513 -3.5 43.5 1.64873 43.5 8H44.5ZM-11.5 8C-11.5 1.64873 -6.35127 -3.5 0 -3.5V-4.5C-6.90356 -4.5 -12.5 1.09644 -12.5 8H-11.5ZM-2 12.5H10V11.5H-2V12.5ZM3.5 6V18H4.5V6H3.5ZM30 8.5H34V7.5H30V8.5ZM22 16.5H26V15.5H22V16.5Z" fill="#D25F15"/>
</svg>
