<svg width="44" height="45" viewBox="0 0 44 45" fill="none" xmlns="http://www.w3.org/2000/svg">
<path d="M3 8V7.5C2.72386 7.5 2.5 7.72386 2.5 8H3ZM3 12L3.35355 12.3535L3.5 12.2071V12H3ZM-3.82843 13.1716L-4.18198 13.5251L-3.82843 13.1716ZM11 38H11.5V37.7929L11.3536 37.6464L11 38ZM7 34H6.5V34.2071L6.64645 34.3535L7 34ZM7 28H7.5V27.7929L7.35355 27.6464L7 28ZM3 24H2.5V24.2071L2.64645 24.3535L3 24ZM3 20V19.5C2.72386 19.5 2.5 19.7239 2.5 20H3ZM22.5 -12V-4H23.5V-12H22.5ZM19 -0.500002H15V0.499998H19V-0.500002ZM7 7.5H3V8.5H7V7.5ZM2.5 8V12H3.5V8H2.5ZM2.64645 11.6464L1.47487 12.818L2.18198 13.5251L3.35355 12.3535L2.64645 11.6464ZM-3.47487 12.818L-10.6464 5.64644L-11.3536 6.35355L-4.18198 13.5251L-3.47487 12.818ZM10.5 4C10.5 5.93299 8.93299 7.5 7 7.5V8.5C9.48528 8.5 11.5 6.48528 11.5 4H10.5ZM15 -0.500002C12.5147 -0.500002 10.5 1.51472 10.5 4H11.5C11.5 2.067 13.067 0.499998 15 0.499998V-0.500002ZM1.47487 12.818C0.108037 14.1849 -2.10804 14.1849 -3.47487 12.818L-4.18198 13.5251C-2.42462 15.2825 0.424619 15.2825 2.18198 13.5251L1.47487 12.818ZM22.5 -4C22.5 -2.06701 20.933 -0.500002 19 -0.500002V0.499998C21.4853 0.499998 23.5 -1.51472 23.5 -4H22.5ZM11.5 44V38H10.5V44H11.5ZM11.3536 37.6464L7.35355 33.6464L6.64645 34.3535L10.6464 38.3535L11.3536 37.6464ZM7.5 34V28H6.5V34H7.5ZM7.35355 27.6464L3.35355 23.6464L2.64645 24.3535L6.64645 28.3535L7.35355 27.6464ZM3.5 24V20H2.5V24H3.5ZM3 20.5H19V19.5H3V20.5ZM22.5 24V26.6667H23.5V24H22.5ZM28.3333 32.5H39V31.5H28.3333V32.5ZM26.5 30.6667C26.5 31.6792 27.3208 32.5 28.3333 32.5V31.5C27.8731 31.5 27.5 31.1269 27.5 30.6667H26.5ZM24.3333 28.5C25.5299 28.5 26.5 29.47 26.5 30.6667H27.5C27.5 28.9178 26.0822 27.5 24.3333 27.5V28.5ZM22.5 26.6667C22.5 27.6792 23.3208 28.5 24.3333 28.5V27.5C23.8731 27.5 23.5 27.1269 23.5 26.6667H22.5ZM19 20.5C20.933 20.5 22.5 22.067 22.5 24H23.5C23.5 21.5147 21.4853 19.5 19 19.5V20.5ZM15 43.5C-0.187831 43.5 -12.5 31.1878 -12.5 16H-13.5C-13.5 31.7401 -0.740115 44.5 15 44.5V43.5ZM42.5 16C42.5 31.1878 30.1878 43.5 15 43.5V44.5C30.7401 44.5 43.5 31.7401 43.5 16H42.5ZM15 -11.5C30.1878 -11.5 42.5 0.812169 42.5 16H43.5C43.5 0.259884 30.7401 -12.5 15 -12.5V-11.5ZM15 -12.5C-0.740115 -12.5 -13.5 0.259884 -13.5 16H-12.5C-12.5 0.812169 -0.187831 -11.5 15 -11.5V-12.5Z" fill="#D25F15"/>
</svg>
