<svg width="30" height="30" viewBox="0 0 30 30" fill="none" xmlns="http://www.w3.org/2000/svg">
<g clip-path="url(#clip0_2416_16545)">
<path d="M18.3042 11.6932C17.9488 11.3357 17.5548 11.0189 17.1294 10.7484C16.0027 10.0269 14.6929 9.64357 13.3551 9.64357C11.4982 9.64011 9.71669 10.3779 8.40595 11.6932L2.0471 18.0571C0.73858 19.3681 0.00312624 21.1444 0.00195457 22.9967C-0.000505921 26.862 3.13088 29.9975 6.99621 29.9999C8.85025 30.0064 10.6301 29.2721 11.9403 27.9603L17.1894 22.7112C17.2848 22.6167 17.338 22.4877 17.3373 22.3534C17.3357 22.0773 17.1105 21.8548 16.8344 21.8564H16.6345C15.5378 21.8602 14.4509 21.6496 13.4351 21.2365C13.2479 21.1595 13.0328 21.2029 12.8902 21.3465L9.11586 25.1258C7.94385 26.2978 6.04364 26.2978 4.87163 25.1258C3.69961 23.9538 3.69961 22.0536 4.87163 20.8815L11.2555 14.5027C12.4266 13.3331 14.3237 13.3331 15.4948 14.5027C16.284 15.2455 17.5151 15.2455 18.3042 14.5027C18.6438 14.1629 18.8496 13.7121 18.8841 13.2329C18.9206 12.6603 18.7095 12.0994 18.3042 11.6932Z" fill="#D25F15"/>
<path d="M27.9477 2.04999C25.2144 -0.683329 20.7828 -0.683329 18.0495 2.04999L12.8054 7.28903C12.6614 7.43373 12.6199 7.65137 12.7004 7.83895C12.7801 8.02706 12.9661 8.1478 13.1703 8.14388H13.3553C14.4507 8.14188 15.5358 8.35413 16.5497 8.76878C16.7369 8.84582 16.952 8.80235 17.0946 8.65882L20.8589 4.89948C22.0309 3.72746 23.9311 3.72746 25.1032 4.89948C26.2752 6.07149 26.2752 7.9717 25.1032 9.14371L20.414 13.8279L20.374 13.8728L18.7343 15.5026C17.5632 16.6722 15.6661 16.6722 14.495 15.5026C13.7058 14.7598 12.4747 14.7598 11.6855 15.5026C11.3438 15.845 11.1378 16.2997 11.1056 16.7823C11.0691 17.355 11.2803 17.9158 11.6855 18.3221C12.2642 18.9032 12.9412 19.377 13.6852 19.7218C13.7901 19.7718 13.8951 19.8118 14.0001 19.8568C14.1051 19.9018 14.2151 19.9367 14.32 19.9767C14.425 20.0168 14.535 20.0517 14.64 20.0817L14.9349 20.1617C15.1349 20.2117 15.3349 20.2517 15.5398 20.2867C15.7867 20.3233 16.0353 20.3467 16.2847 20.3567H16.6346H16.6646L16.9645 20.3217C17.0745 20.3167 17.1895 20.2917 17.3195 20.2917H17.4894L17.8344 20.2417L17.9944 20.2117L18.2843 20.1517H18.3393C19.5673 19.8433 20.6886 19.2075 21.5837 18.312L27.9475 11.9482C30.681 9.21489 30.681 4.78331 27.9477 2.04999Z" fill="#D25F15"/>
</g>
<defs>
<clipPath id="clip0_2416_16545">
<rect width="30" height="30" fill="white"/>
</clipPath>
</defs>
</svg>
