<svg width="30" height="31" viewBox="0 0 30 31" fill="none" xmlns="http://www.w3.org/2000/svg">
<g clip-path="url(#clip0_2798_19103)">
<path d="M18.3042 11.8448C17.9488 11.4874 17.5548 11.1705 17.1294 10.9C16.0027 10.1785 14.6929 9.79518 13.3551 9.79518C11.4982 9.79172 9.71669 10.5295 8.40595 11.8448L2.0471 18.2087C0.73858 19.5197 0.00312624 21.296 0.00195457 23.1483C-0.000505921 27.0136 3.13088 30.1491 6.99621 30.1515C8.85025 30.158 10.6301 29.4237 11.9403 28.1119L17.1894 22.8628C17.2848 22.7683 17.338 22.6393 17.3373 22.505C17.3357 22.2289 17.1105 22.0064 16.8344 22.008H16.6345C15.5378 22.0119 14.4509 21.8012 13.4351 21.3881C13.2479 21.3111 13.0328 21.3545 12.8902 21.4981L9.11586 25.2774C7.94385 26.4494 6.04364 26.4494 4.87163 25.2774C3.69961 24.1054 3.69961 22.2052 4.87163 21.0332L11.2555 14.6543C12.4266 13.4847 14.3237 13.4847 15.4948 14.6543C16.284 15.3971 17.5151 15.3971 18.3042 14.6543C18.6438 14.3145 18.8496 13.8637 18.8841 13.3845C18.9206 12.8119 18.7095 12.251 18.3042 11.8448Z" fill="#FBF6F4"/>
<path d="M27.9477 2.2016C25.2144 -0.531718 20.7828 -0.531718 18.0495 2.2016L12.8054 7.44064C12.6614 7.58534 12.6199 7.80298 12.7004 7.99056C12.7801 8.17867 12.9661 8.29941 13.1703 8.29549H13.3553C14.4507 8.2935 15.5358 8.50574 16.5497 8.92039C16.7369 8.99743 16.952 8.95396 17.0946 8.81043L20.8589 5.05109C22.0309 3.87907 23.9311 3.87907 25.1032 5.05109C26.2752 6.2231 26.2752 8.12331 25.1032 9.29533L20.414 13.9795L20.374 14.0245L18.7343 15.6542C17.5632 16.8238 15.6661 16.8238 14.495 15.6542C13.7058 14.9114 12.4747 14.9114 11.6855 15.6542C11.3438 15.9966 11.1378 16.4513 11.1056 16.9339C11.0691 17.5066 11.2803 18.0674 11.6855 18.4737C12.2642 19.0548 12.9412 19.5286 13.6852 19.8734C13.7901 19.9234 13.8951 19.9634 14.0001 20.0084C14.1051 20.0534 14.2151 20.0883 14.32 20.1284C14.425 20.1684 14.535 20.2033 14.64 20.2333L14.9349 20.3133C15.1349 20.3633 15.3349 20.4033 15.5398 20.4383C15.7867 20.4749 16.0353 20.4983 16.2847 20.5083H16.6346H16.6646L16.9645 20.4733C17.0745 20.4683 17.1895 20.4433 17.3195 20.4433H17.4894L17.8344 20.3933L17.9944 20.3633L18.2843 20.3033H18.3393C19.5673 19.9949 20.6886 19.3591 21.5837 18.4637L27.9475 12.0998C30.681 9.3665 30.681 4.93492 27.9477 2.2016Z" fill="#FBF6F4"/>
</g>
<defs>
<clipPath id="clip0_2798_19103">
<rect width="30" height="30" fill="white" transform="translate(0 0.151611)"/>
</clipPath>
</defs>
</svg>
