<svg width="51" height="58" viewBox="0 0 51 58" fill="none" xmlns="http://www.w3.org/2000/svg">
<path d="M30.3163 27.5833C31.1589 27.5833 31.5801 27.5833 31.9216 27.7703C32.2033 27.9247 32.4654 28.2145 32.5909 28.5101C32.7429 28.8685 32.7047 29.2499 32.6281 30.0126C32.2314 33.967 30.8704 37.7772 28.6488 41.1021C25.975 45.1037 22.1746 48.2226 17.7283 50.0643C13.282 51.9061 8.38936 52.3879 3.66915 51.449C-1.05105 50.5101 -5.38684 48.1926 -8.78991 44.7895C-12.193 41.3864 -14.5105 37.0507 -15.4494 32.3305C-16.3883 27.6103 -15.9064 22.7176 -14.0647 18.2713C-12.223 13.825 -9.10412 10.0246 -5.10252 7.35083C-1.77761 5.1292 2.03265 3.76824 5.98699 3.37148C6.74972 3.29496 7.13108 3.25669 7.48949 3.40875C7.78515 3.53419 8.07494 3.79636 8.22927 4.07802C8.41635 4.41946 8.41635 4.84073 8.41635 5.68326V25.1499C8.41635 26.0017 8.41635 26.4276 8.58211 26.7529C8.72792 27.039 8.96058 27.2717 9.24674 27.4175C9.57206 27.5833 9.99794 27.5833 10.8497 27.5833H30.3163Z" stroke="#D25F15" stroke-linecap="round" stroke-linejoin="round"/>
<path d="M20.583 -6.4834C20.583 -7.32596 20.583 -7.74724 20.7701 -8.08867C20.9244 -8.37034 21.2142 -8.6325 21.5098 -8.75794C21.8683 -8.91 22.2496 -8.87175 23.0124 -8.79524C28.5738 -8.2374 33.8021 -5.77682 37.7893 -1.78967C41.7764 2.19748 44.237 7.42583 44.7948 12.9872C44.8714 13.75 44.9096 14.1314 44.7576 14.4898C44.6321 14.7854 44.3699 15.0752 44.0883 15.2295C43.7468 15.4166 43.3256 15.4166 42.483 15.4166L23.0164 15.4166C22.1646 15.4166 21.7387 15.4166 21.4134 15.2508C21.1272 15.105 20.8946 14.8724 20.7488 14.5862C20.583 14.2609 20.583 13.835 20.583 12.9833V-6.4834Z" stroke="#D25F15" stroke-linecap="round" stroke-linejoin="round"/>
</svg>
