<svg width="51" height="58" viewBox="0 0 51 58" fill="none" xmlns="http://www.w3.org/2000/svg">
<path d="M14.4997 47.2693C17.7284 50.1592 21.9922 51.9164 26.6663 51.9164C36.7455 51.9164 44.9163 43.7456 44.9163 33.6664C44.9163 25.2503 39.2195 18.1648 31.4716 16.0556M-2.47228 16.0556C-10.2201 18.1647 -15.917 25.2502 -15.917 33.6663C-15.917 43.7455 -7.74619 51.9163 2.33301 51.9163C12.4122 51.9163 20.583 43.7455 20.583 33.6663C20.583 31.2923 20.1297 29.0242 19.305 26.9438M32.7497 9.33301C32.7497 19.4122 24.5789 27.583 14.4997 27.583C4.42048 27.583 -3.75033 19.4122 -3.75033 9.33301C-3.75033 -0.746189 4.42048 -8.91699 14.4997 -8.91699C24.5789 -8.91699 32.7497 -0.746189 32.7497 9.33301Z" stroke="#D25F15" stroke-linecap="round" stroke-linejoin="round"/>
</svg>
