<svg width="51" height="58" viewBox="0 0 51 58" fill="none" xmlns="http://www.w3.org/2000/svg">
<path d="M32.3789 46.1074C27.1822 49.8829 20.9238 51.9164 14.5004 51.9164C8.07702 51.9164 1.81854 49.8829 -3.37808 46.1074M27.8342 -5.83857C33.6075 -3.02275 38.3411 1.54849 41.3567 7.21998C44.3723 12.8915 45.515 19.3721 44.621 25.7329M-15.62 25.7326C-16.5139 19.3718 -15.3712 12.8912 -12.3556 7.21969C-9.34005 1.54819 -4.60639 -3.02305 1.1669 -5.83887M31.2296 21.4998C31.2296 30.739 23.7397 38.2289 14.5004 38.2289C5.26113 38.2289 -2.22878 30.739 -2.22878 21.4998C-2.22878 12.2605 5.26113 4.77058 14.5004 4.77058C23.7397 4.77058 31.2296 12.2605 31.2296 21.4998Z" stroke="#D25F15" stroke-linecap="round" stroke-linejoin="round"/>
</svg>
