<svg width="51" height="58" viewBox="0 0 51 58" fill="none" xmlns="http://www.w3.org/2000/svg">
<path d="M0.812174 -1.31283C0.812174 -5.51249 4.21668 -8.91699 8.41634 -8.91699C12.616 -8.91699 16.0205 -5.51249 16.0205 -1.31283V3.24967H19.0622C23.3139 3.24967 25.4397 3.24967 27.1167 3.94427C29.3525 4.8704 31.1289 6.64681 32.0551 8.88269C32.7497 10.5596 32.7497 12.6855 32.7497 16.9372H37.3122C41.5118 16.9372 44.9163 20.3417 44.9163 24.5413C44.9163 28.741 41.5118 32.1455 37.3122 32.1455H32.7497V37.3163C32.7497 42.4268 32.7497 44.9821 31.7551 46.934C30.8803 48.651 29.4843 50.0469 27.7673 50.9218C25.8154 51.9163 23.2602 51.9163 18.1497 51.9163H16.0205V46.5934C16.0205 42.8137 12.9565 39.7497 9.17676 39.7497C5.39706 39.7497 2.33301 42.8137 2.33301 46.5934V51.9163H-1.31699C-6.42747 51.9163 -8.98271 51.9163 -10.9347 50.9218C-12.6516 50.0469 -14.0476 48.651 -14.9224 46.934C-15.917 44.9821 -15.917 42.4268 -15.917 37.3163V32.1455H-11.3545C-7.15483 32.1455 -3.75033 28.741 -3.75033 24.5413C-3.75033 20.3417 -7.15483 16.9372 -11.3545 16.9372H-15.917C-15.917 12.6855 -15.917 10.5596 -15.2224 8.88269C-14.2963 6.64681 -12.5199 4.8704 -10.284 3.94427C-8.60707 3.24967 -6.48121 3.24967 -2.22949 3.24967H0.812174V-1.31283Z" stroke="#D25F15" stroke-linecap="round" stroke-linejoin="round"/>
</svg>
