<svg width="90" height="90" viewBox="0 0 90 90" fill="none" xmlns="http://www.w3.org/2000/svg">
<circle cx="45" cy="45" r="44.5" stroke="#D25F15"/>
<path d="M48.3337 43.333H38.3337M41.667 49.9997H38.3337M51.667 36.6663H38.3337M58.3337 42.4997V36.333C58.3337 33.5327 58.3337 32.1326 57.7887 31.0631C57.3093 30.1222 56.5444 29.3573 55.6036 28.878C54.5341 28.333 53.1339 28.333 50.3337 28.333H39.667C36.8667 28.333 35.4666 28.333 34.397 28.878C33.4562 29.3573 32.6913 30.1222 32.212 31.0631C31.667 32.1326 31.667 33.5327 31.667 36.333V53.6663C31.667 56.4666 31.667 57.8667 32.212 58.9363C32.6913 59.8771 33.4562 60.642 34.397 61.1214C35.4666 61.6663 36.8667 61.6663 39.667 61.6663H44.167M61.667 61.6663L59.167 59.1663M60.8337 54.9997C60.8337 58.2213 58.222 60.833 55.0003 60.833C51.7787 60.833 49.167 58.2213 49.167 54.9997C49.167 51.778 51.7787 49.1663 55.0003 49.1663C58.222 49.1663 60.8337 51.778 60.8337 54.9997Z" stroke="#261104" stroke-linecap="round" stroke-linejoin="round"/>
</svg>
