<svg width="90" height="90" viewBox="0 0 90 90" fill="none" xmlns="http://www.w3.org/2000/svg">
<circle cx="45" cy="45" r="44.5" stroke="#D25F15"/>
<path d="M43.333 28.333L48.333 33.333M48.333 33.333L43.333 38.333M48.333 33.333H36.333C33.5327 33.333 32.1326 33.333 31.0631 33.878C30.1222 34.3573 29.3573 35.1222 28.878 36.0631C28.333 37.1326 28.333 38.5327 28.333 41.333V50.833C28.333 51.607 28.333 51.9941 28.3758 52.319C28.6712 54.5626 30.4367 56.3282 32.6804 56.6236C33.0053 56.6663 33.3923 56.6663 34.1663 56.6663M41.6663 56.6663H53.6663C56.4666 56.6663 57.8667 56.6663 58.9363 56.1214C59.8771 55.642 60.642 54.8771 61.1214 53.9363C61.6663 52.8667 61.6663 51.4666 61.6663 48.6663V39.1663C61.6663 38.3923 61.6663 38.0053 61.6236 37.6804C61.3282 35.4367 59.5626 33.6712 57.319 33.3758C56.9941 33.333 56.607 33.333 55.833 33.333M41.6663 56.6663L46.6663 61.6663M41.6663 56.6663L46.6663 51.6663" stroke="#261104" stroke-linecap="round" stroke-linejoin="round"/>
</svg>
