<svg width="90" height="90" viewBox="0 0 90 90" fill="none" xmlns="http://www.w3.org/2000/svg">
<circle cx="45" cy="45" r="44.5" stroke="#D25F15"/>
<path d="M43.333 50H38.333C35.2267 50 33.6736 50 32.4485 50.5075C30.8149 51.1841 29.5171 52.4819 28.8405 54.1154C28.333 55.3406 28.333 56.8937 28.333 60M50.833 30.4846C53.2762 31.4736 54.9997 33.8689 54.9997 36.6667M44.9995 60.8333L48.3746 60.1583C48.6689 60.0995 48.816 60.0701 48.9532 60.0162C49.075 59.9685 49.1908 59.9065 49.2981 59.8317C49.419 59.7474 49.5251 59.6413 49.7373 59.4291L60.8331 48.3334C61.7536 47.4129 61.7536 45.9204 60.833 45C59.9125 44.0795 58.4202 44.0795 57.4997 45L46.4039 56.0958C46.1917 56.308 46.0856 56.4141 46.0013 56.535C45.9265 56.6422 45.8645 56.758 45.8168 56.8797C45.7629 57.0169 45.7335 57.1641 45.6746 57.4583L44.9995 60.8333ZM47.4997 36.6667C47.4997 40.3486 44.5149 43.3333 40.833 43.3333C37.1511 43.3333 34.1663 40.3486 34.1663 36.6667C34.1663 32.9848 37.1511 30 40.833 30C44.5149 30 47.4997 32.9848 47.4997 36.6667Z" stroke="#261104" stroke-linecap="round" stroke-linejoin="round"/>
</svg>
