<svg width="90" height="90" viewBox="0 0 90 90" fill="none" xmlns="http://www.w3.org/2000/svg">
<circle cx="45" cy="45" r="44.5" stroke="#D25F15"/>
<path d="M35.8333 58.333H33.3333C31.4924 58.333 30 56.8406 30 54.9997V31.6663C30 29.8254 31.4924 28.333 33.3333 28.333H56.6667C58.5076 28.333 60 29.8254 60 31.6663V54.9997C60 56.8406 58.5076 58.333 56.6667 58.333H54.1667M45 56.6663C47.7614 56.6663 50 54.4278 50 51.6663C50 48.9049 47.7614 46.6663 45 46.6663C42.2386 46.6663 40 48.9049 40 51.6663C40 54.4278 42.2386 56.6663 45 56.6663ZM45 56.6663L45.0357 56.666L39.7145 61.9873L35.0004 57.2732L40.0328 52.2409M45 56.6663L50.3214 61.9873L55.0354 57.2732L50.0031 52.2409M40 34.9997H50M36.6667 40.833H53.3333" stroke="#261104" stroke-linecap="round" stroke-linejoin="round"/>
</svg>
