<svg width="90" height="90" viewBox="0 0 90 90" fill="none" xmlns="http://www.w3.org/2000/svg">
<circle cx="45" cy="45" r="44.5" stroke="#D25F15"/>
<path d="M53.6663 48.3335C54.128 48.3335 54.3588 48.3335 54.5459 48.436C54.7003 48.5205 54.8439 48.6793 54.9127 48.8413C54.996 49.0377 54.975 49.2467 54.9331 49.6646C54.7157 51.8314 53.9699 53.9192 52.7526 55.7411C51.2875 57.9337 49.2051 59.6427 46.7688 60.6519C44.3324 61.661 41.6516 61.9251 39.0651 61.4106C36.4787 60.8961 34.103 59.6262 32.2383 57.7615C30.3736 55.8968 29.1037 53.5211 28.5892 50.9347C28.0747 48.3482 28.3388 45.6674 29.348 43.231C30.3571 40.7947 32.0661 38.7123 34.2587 37.2472C36.0806 36.0299 38.1684 35.2841 40.3352 35.0667C40.7531 35.0248 40.9621 35.0038 41.1585 35.0871C41.3205 35.1559 41.4793 35.2995 41.5638 35.4539C41.6663 35.641 41.6663 35.8718 41.6663 36.3335V47.0001C41.6663 47.4668 41.6663 47.7002 41.7572 47.8784C41.8371 48.0353 41.9646 48.1627 42.1214 48.2426C42.2996 48.3335 42.533 48.3335 42.9997 48.3335H53.6663Z" stroke="#261104" stroke-linecap="round" stroke-linejoin="round"/>
<path d="M48.333 29.6668C48.333 29.2051 48.333 28.9743 48.4355 28.7872C48.5201 28.6329 48.6789 28.4892 48.8409 28.4205C49.0373 28.3371 49.2462 28.3581 49.6642 28.4C52.7115 28.7057 55.5764 30.054 57.7611 32.2387C59.9458 34.4234 61.2941 37.2883 61.5998 40.3356C61.6417 40.7536 61.6627 40.9625 61.5793 41.1589C61.5106 41.3209 61.367 41.4797 61.2126 41.5643C61.0255 41.6668 60.7947 41.6668 60.333 41.6668L49.6663 41.6668C49.1996 41.6668 48.9663 41.6668 48.788 41.576C48.6312 41.4961 48.5037 41.3686 48.4238 41.2118C48.333 41.0335 48.333 40.8002 48.333 40.3335V29.6668Z" stroke="#261104" stroke-linecap="round" stroke-linejoin="round"/>
</svg>
