<svg width="90" height="90" viewBox="0 0 90 90" fill="none" xmlns="http://www.w3.org/2000/svg">
<circle cx="45" cy="45" r="44.5" stroke="#D25F15"/>
<path d="M38.1144 50.7662L36.6667 61.6663L44.314 57.0779C44.5634 56.9283 44.6881 56.8535 44.8213 56.8242C44.939 56.7984 45.061 56.7984 45.1787 56.8242C45.3119 56.8535 45.4366 56.9283 45.686 57.0779L53.3333 61.6663L51.8865 50.7615M52.3765 32.0811C52.6339 32.7037 53.1279 33.1985 53.7501 33.4568L55.9315 34.3605C56.5541 34.6184 57.0487 35.113 57.3066 35.7356C57.5645 36.3582 57.5645 37.0577 57.3066 37.6803L56.4036 39.8603C56.1457 40.4831 56.1453 41.1834 56.4045 41.8059L57.3058 43.9853C57.4337 44.2936 57.4995 44.6241 57.4996 44.9579C57.4996 45.2918 57.4339 45.6223 57.3062 45.9307C57.1784 46.2391 56.9912 46.5193 56.7551 46.7553C56.519 46.9913 56.2388 47.1785 55.9304 47.3061L53.7504 48.2091C53.1279 48.4665 52.6331 48.9606 52.3748 49.5827L51.4712 51.7643C51.2133 52.3869 50.7187 52.8815 50.0961 53.1394C49.4736 53.3973 48.7741 53.3973 48.1515 53.1394L45.9716 52.2364C45.349 51.9792 44.6498 51.9797 44.0276 52.2379L41.8461 53.1402C41.2239 53.3975 40.525 53.3973 39.903 53.1396C39.2809 52.8819 38.7866 52.3879 38.5285 51.766L37.6246 49.5837C37.3673 48.9612 36.8732 48.4664 36.2511 48.208L34.0696 47.3044C33.4473 47.0466 32.9528 46.5523 32.6949 45.9301C32.4369 45.3079 32.4365 44.6087 32.6939 43.9862L33.5968 41.8062C33.8541 41.1836 33.8535 40.4843 33.5954 39.8621L32.6937 37.679C32.5659 37.3706 32.5001 37.0401 32.5 36.7063C32.4999 36.3725 32.5657 36.0419 32.6934 35.7336C32.8211 35.4252 33.0084 35.1449 33.2445 34.9089C33.4805 34.6729 33.7608 34.4858 34.0692 34.3581L36.2491 33.4552C36.8711 33.198 37.3656 32.7045 37.6241 32.0831L38.5277 29.9015C38.7856 29.2789 39.2802 28.7843 39.9028 28.5264C40.5253 28.2685 41.2248 28.2685 41.8474 28.5264L44.0273 29.4294C44.6499 29.6866 45.3491 29.6861 45.9713 29.4279L48.1537 28.5278C48.7762 28.2701 49.4755 28.2701 50.098 28.528C50.7204 28.7858 51.215 29.2803 51.4729 29.9027L52.3767 32.0849L52.3765 32.0811Z" stroke="#261104" stroke-linecap="round" stroke-linejoin="round"/>
</svg>
