<svg width="90" height="90" viewBox="0 0 90 90" fill="none" xmlns="http://www.w3.org/2000/svg">
<circle cx="45" cy="45" r="44.5" stroke="#D25F15"/>
<path d="M55.0007 51.3948C57.4272 52.6138 59.5076 54.5699 61.0261 57.016C61.3268 57.5005 61.4772 57.7427 61.5292 58.078C61.6348 58.7596 61.1687 59.5976 60.5339 59.8673C60.2216 60 59.8702 60 59.1674 60M51.6674 44.2204C54.1369 42.9931 55.834 40.4448 55.834 37.5C55.834 34.5552 54.1369 32.0069 51.6674 30.7796M48.334 37.5C48.334 41.6421 44.9762 45 40.834 45C36.6919 45 33.334 41.6421 33.334 37.5C33.334 33.3579 36.6919 30 40.834 30C44.9762 30 48.334 33.3579 48.334 37.5ZM29.2661 56.5639C31.9233 52.5743 36.1163 50 40.834 50C45.5518 50 49.7448 52.5743 52.402 56.5639C52.9841 57.4379 53.2752 57.8749 53.2417 58.4332C53.2156 58.8679 52.9306 59.4 52.5833 59.6627C52.1372 60 51.5238 60 50.2968 60H31.3713C30.1443 60 29.5308 60 29.0848 59.6627C28.7375 59.4 28.4525 58.8679 28.4264 58.4332C28.3929 57.8749 28.684 57.4379 29.2661 56.5639Z" stroke="#261104" stroke-linecap="round" stroke-linejoin="round"/>
</svg>
