<svg width="90" height="90" viewBox="0 0 90 90" fill="none" xmlns="http://www.w3.org/2000/svg">
<circle cx="45" cy="45" r="44.5" stroke="#D25F15"/>
<path d="M45.0007 44.9997L28.8869 40.7422C27.8502 44.6661 28.2809 48.8334 30.0981 52.4623C31.9153 56.0913 34.9943 58.9324 38.7572 60.4527L45.0007 44.9997ZM45.0007 44.9997L45.1752 28.3339C41.4766 28.2952 37.8702 29.4879 34.924 31.7242C31.9778 33.9605 29.8592 37.1133 28.9019 40.686L45.0007 44.9997ZM61.6673 44.9997C61.6673 54.2044 54.2054 61.6663 45.0007 61.6663C35.7959 61.6663 28.334 54.2044 28.334 44.9997C28.334 35.7949 35.7959 28.333 45.0007 28.333C54.2054 28.333 61.6673 35.7949 61.6673 44.9997Z" stroke="#261104" stroke-linecap="round" stroke-linejoin="round"/>
</svg>
