<svg width="90" height="90" viewBox="0 0 90 90" fill="none" xmlns="http://www.w3.org/2000/svg">
<circle cx="45" cy="45" r="44.5" stroke="#D25F15"/>
<path d="M55.834 38.333V29.9997M34.1673 59.9997V51.6663M51.6673 34.1663H60.0007M30.0007 55.833H38.334M35.834 28.333L34.5266 30.9479C34.0841 31.8328 33.8628 32.2753 33.5673 32.6588C33.305 32.999 33 33.304 32.6597 33.5663C32.2763 33.8619 31.8338 34.0831 30.9488 34.5256L28.334 35.833L30.9488 37.1404C31.8338 37.5829 32.2763 37.8042 32.6597 38.0997C33 38.362 33.305 38.667 33.5673 39.0073C33.8628 39.3907 34.0841 39.8332 34.5266 40.7181L35.834 43.333L37.1414 40.7181C37.5839 39.8332 37.8051 39.3907 38.1007 39.0073C38.363 38.667 38.668 38.362 39.0082 38.0997C39.3917 37.8042 39.8342 37.5829 40.7191 37.1404L43.334 35.833L40.7191 34.5256C39.8342 34.0831 39.3917 33.8619 39.0082 33.5663C38.668 33.304 38.363 32.999 38.1007 32.6588C37.8051 32.2753 37.5839 31.8328 37.1414 30.9479L35.834 28.333ZM53.334 44.9997L51.7488 48.1701C51.3063 49.0551 51.0851 49.4975 50.7895 49.881C50.5272 50.2212 50.2222 50.5262 49.882 50.7885C49.4985 51.0841 49.056 51.3053 48.1711 51.7478L45.0007 53.333L48.1711 54.9182C49.056 55.3607 49.4985 55.5819 49.882 55.8775C50.2222 56.1398 50.5272 56.4448 50.7895 56.785C51.0851 57.1685 51.3063 57.611 51.7488 58.4959L53.334 61.6663L54.9192 58.4959C55.3617 57.611 55.5829 57.1685 55.8785 56.785C56.1408 56.4448 56.4458 56.1398 56.786 55.8775C57.1695 55.5819 57.6119 55.3607 58.4969 54.9182L61.6673 53.333L58.4969 51.7478C57.6119 51.3053 57.1695 51.0841 56.786 50.7885C56.4458 50.5262 56.1408 50.2212 55.8785 49.881C55.5829 49.4975 55.3617 49.0551 54.9192 48.1701L53.334 44.9997Z" stroke="#261104" stroke-linecap="round" stroke-linejoin="round"/>
</svg>
