<svg width="90" height="90" viewBox="0 0 90 90" fill="none" xmlns="http://www.w3.org/2000/svg">
<circle cx="45" cy="45" r="44.5" stroke="#D25F15"/>
<path d="M44.9991 50C39.7156 50 35.0171 52.5511 32.0258 56.5099C31.3819 57.362 31.06 57.788 31.0706 58.3638C31.0787 58.8086 31.358 59.3698 31.708 59.6445C32.1611 60 32.7889 60 34.0445 60H55.9537C57.2093 60 57.8371 60 58.2902 59.6445C58.6402 59.3698 58.9195 58.8086 58.9276 58.3638C58.9382 57.788 58.6163 57.362 57.9724 56.5099C54.9811 52.5511 50.2826 50 44.9991 50Z" stroke="#261104" stroke-linecap="round" stroke-linejoin="round"/>
<path d="M44.9991 45C49.1412 45 52.4991 41.6421 52.4991 37.5C52.4991 33.3579 49.1412 30 44.9991 30C40.857 30 37.4991 33.3579 37.4991 37.5C37.4991 41.6421 40.857 45 44.9991 45Z" stroke="#261104" stroke-linecap="round" stroke-linejoin="round"/>
</svg>
