<svg width="90" height="90" viewBox="0 0 90 90" fill="none" xmlns="http://www.w3.org/2000/svg">
<circle cx="45" cy="45" r="44.5" stroke="#D25F15"/>
<path d="M44.9987 51.6667V60M54.9987 60L48.413 54.5119C47.1984 53.4997 46.5911 52.9936 45.9131 52.8002C45.3154 52.6297 44.682 52.6297 44.0843 52.8002C43.4063 52.9936 42.799 53.4997 41.5844 54.5119L34.9987 60M38.332 43.3333V45M44.9987 40V45M51.6654 36.6667V45M61.6654 30H28.332M29.9987 30H59.9987V43.6667C59.9987 46.4669 59.9987 47.8671 59.4537 48.9366C58.9744 49.8774 58.2095 50.6423 57.2687 51.1217C56.1991 51.6667 54.799 51.6667 51.9987 51.6667H37.9987C35.1984 51.6667 33.7983 51.6667 32.7287 51.1217C31.7879 50.6423 31.023 49.8774 30.5437 48.9366C29.9987 47.8671 29.9987 46.4669 29.9987 43.6667V30Z" stroke="#261104" stroke-linecap="round" stroke-linejoin="round"/>
</svg>
