<svg width="90" height="90" viewBox="0 0 90 90" fill="none" xmlns="http://www.w3.org/2000/svg">
<circle cx="45" cy="45" r="44.5" stroke="#D25F15"/>
<g clip-path="url(#clip0_4801_27936)">
<path d="M43.6027 62.3416C42.1215 63.2953 40.3586 63.7133 38.6069 63.5262C36.8552 63.339 35.2203 62.5582 33.9741 61.313L32.8884 60.2273C32.4068 59.7404 32.1367 59.0836 32.1367 58.3987C32.1367 57.7142 32.4068 57.057 32.8884 56.5702L37.4598 52.0273C37.9417 51.5475 38.5941 51.2782 39.2741 51.2782C39.9541 51.2782 40.6065 51.5475 41.0884 52.0273C41.5751 52.5089 42.2322 52.779 42.9169 52.779C43.6017 52.779 44.2587 52.5089 44.7455 52.0273L52.0312 44.7416C52.5128 44.2548 52.7829 43.5978 52.7829 42.913C52.7829 42.2283 52.5128 41.5712 52.0312 41.0845C51.5514 40.6026 51.2821 39.9502 51.2821 39.2702C51.2821 38.5902 51.5514 37.9378 52.0312 37.4559L56.4311 32.8845C56.918 32.4029 57.5751 32.1328 58.2597 32.1328C58.9445 32.1328 59.6017 32.4029 60.0883 32.8845L61.174 33.9702C62.4414 35.1989 63.2491 36.825 63.4623 38.5773C63.6757 40.3296 63.2814 42.102 62.3454 43.5988C57.3634 50.9953 50.9992 57.3596 43.6027 62.3416Z" stroke="black" stroke-linecap="round" stroke-linejoin="round"/>
<path d="M45.0011 26.4277C42.5623 26.4277 40.1473 26.9081 37.8941 27.8414C35.6409 28.7747 33.5937 30.1427 31.8691 31.8672C30.1446 33.5917 28.7767 35.639 27.8434 37.8922C26.9101 40.1454 26.4297 42.5603 26.4297 44.9992" stroke="black" stroke-linecap="round" stroke-linejoin="round"/>
<path d="M45.0008 33.5703C41.9698 33.5703 39.0629 34.7744 36.9196 36.9177C34.7764 39.0609 33.5723 41.9678 33.5723 44.9989" stroke="black" stroke-linecap="round" stroke-linejoin="round"/>
</g>
<defs>
<clipPath id="clip0_4801_27936">
<rect width="40" height="40" fill="white" transform="translate(25 25)"/>
</clipPath>
</defs>
</svg>
