<svg width="30" height="31" viewBox="0 0 30 31" fill="none" xmlns="http://www.w3.org/2000/svg">
<g clip-path="url(#clip0_1_254)">
<path d="M21.8792 0.375H8.12071C3.64288 0.375 0 4.01788 0 8.49571V22.2545C0 26.7321 3.64288 30.3749 8.12071 30.3749H21.8795C26.3571 30.3749 29.9999 26.7321 29.9999 22.2545V8.49571C29.9999 4.01788 26.3571 0.375 21.8792 0.375V0.375ZM15 23.5779C10.4768 23.5779 6.79709 19.8981 6.79709 15.375C6.79709 10.8518 10.4768 7.17209 15 7.17209C19.5231 7.17209 23.2029 10.8518 23.2029 15.375C23.2029 19.8981 19.5231 23.5779 15 23.5779ZM23.399 9.1066C22.0623 9.1066 20.9751 8.01941 20.9751 6.68274C20.9751 5.34608 22.0623 4.25866 23.399 4.25866C24.7357 4.25866 25.8231 5.34608 25.8231 6.68274C25.8231 8.01941 24.7357 9.1066 23.399 9.1066Z" fill="#261104"/>
<path d="M15.0001 8.93091C11.4469 8.93091 8.55591 11.8217 8.55591 15.3751C8.55591 18.9282 11.4469 21.8192 15.0001 21.8192C18.5534 21.8192 21.4442 18.9282 21.4442 15.3751C21.4442 11.8217 18.5534 8.93091 15.0001 8.93091Z" fill="#261104"/>
<path d="M23.399 6.01758C23.0323 6.01758 22.7339 6.31604 22.7339 6.68271C22.7339 7.04938 23.0323 7.34784 23.399 7.34784C23.7659 7.34784 24.0644 7.0496 24.0644 6.68271C24.0644 6.31581 23.7659 6.01758 23.399 6.01758Z" fill="#261104"/>
</g>
<defs>
<clipPath id="clip0_1_254">
<rect width="30" height="30" fill="white" transform="translate(0 0.375)"/>
</clipPath>
</defs>
</svg>
