<svg width="30" height="31" viewBox="0 0 30 31" fill="none" xmlns="http://www.w3.org/2000/svg">
<g clip-path="url(#clip0_1_258)">
<path d="M29.7326 22.0839C29.652 21.9489 29.1532 20.8651 26.753 18.6374C24.2403 16.3048 24.5778 16.6835 27.6043 12.6501C29.4476 10.1937 30.1845 8.69358 29.9539 8.05228C29.7345 7.44099 28.3787 7.60225 28.3787 7.60225L23.8709 7.6285C23.8709 7.6285 23.5371 7.5835 23.2877 7.73163C23.0459 7.87789 22.8902 8.21542 22.8902 8.21542C22.8902 8.21542 22.1758 10.1168 21.2232 11.7332C19.215 15.1441 18.4105 15.3241 18.0824 15.1122C17.3192 14.619 17.5105 13.1283 17.5105 12.0707C17.5105 8.76484 18.0111 7.38661 16.5335 7.03033C16.0422 6.9122 15.6822 6.83344 14.4277 6.82032C12.8189 6.80344 11.4556 6.82594 10.6849 7.20284C10.1712 7.45411 9.77551 8.01478 10.0174 8.04666C10.3155 8.08603 10.9906 8.22855 11.3487 8.71608C11.8119 9.34425 11.795 10.7581 11.795 10.7581C11.795 10.7581 12.0613 14.649 11.1744 15.1328C10.5649 15.4647 9.7305 14.7878 7.93975 11.6919C7.02281 10.1074 6.32901 8.35418 6.32901 8.35418C6.32901 8.35418 6.19587 8.02791 5.95773 7.85352C5.66896 7.64163 5.26393 7.57412 5.26393 7.57412L0.977365 7.60037C0.977365 7.60037 0.334193 7.61913 0.0979258 7.89852C-0.11209 8.14791 0.0810495 8.6617 0.0810495 8.6617C0.0810495 8.6617 3.43755 16.5129 7.23657 20.4713C10.7225 24.0997 14.679 23.8616 14.679 23.8616H16.4716C16.4716 23.8616 17.0135 23.8016 17.2892 23.5034C17.5442 23.2297 17.5348 22.7159 17.5348 22.7159C17.5348 22.7159 17.4992 20.3101 18.6168 19.9557C19.7175 19.6069 21.1313 22.2808 22.6296 23.3103C23.7622 24.0885 24.6228 23.9178 24.6228 23.9178L28.63 23.8616C28.63 23.8616 30.7264 23.7322 29.7326 22.0839Z" fill="#261104"/>
</g>
<defs>
<clipPath id="clip0_1_258">
<rect width="30" height="30" fill="white" transform="translate(0 0.375)"/>
</clipPath>
</defs>
</svg>
