<svg xmlns="http://www.w3.org/2000/svg" width="151" height="151" viewBox="0 0 151 151" fill="none">
<path d="M53.7136 40.4707L49.9156 32.9783L56.2199 29.7826L60.0179 37.2749L59.2366 37.671L55.6773 30.6496L55.9891 30.7606L50.8408 33.3704L50.9357 33.0532L54.495 40.0746L53.7136 40.4707Z" fill="#D25F15"/>
<path d="M65.0134 35.8375C64.4871 35.9751 63.9798 35.9796 63.4913 35.851C63.0009 35.7146 62.5682 35.4515 62.1934 35.0616C61.8243 34.662 61.5528 34.1294 61.3787 33.4638C61.2047 32.7981 61.1818 32.2046 61.3101 31.6832C61.4363 31.1541 61.6809 30.7139 62.0438 30.3626C62.4068 30.0114 62.8553 29.7659 63.3893 29.6263C63.9698 29.4745 64.5228 29.4705 65.0483 29.6143C65.5794 29.7482 66.0383 30.0169 66.4249 30.4202C66.8095 30.8158 67.0817 31.3193 67.2416 31.9307C67.4035 32.5499 67.4136 33.1261 67.2719 33.6593C67.1301 34.1925 66.8615 34.6514 66.4659 35.036C66.0781 35.4185 65.5939 35.6857 65.0134 35.8375ZM62.4409 38.8544L60.2583 30.507L61.0478 30.3006L61.5274 32.1349L61.7649 33.3752L62.2027 34.5755L63.2652 38.6388L62.4409 38.8544ZM64.7641 35.1212C65.1976 35.0079 65.5593 34.81 65.8492 34.5274C66.1371 34.2372 66.3352 33.8877 66.4433 33.479C66.5494 33.0627 66.5408 32.6184 66.4173 32.1463C66.2939 31.6741 66.085 31.2864 65.7906 30.983C65.4963 30.6796 65.1526 30.4718 64.7594 30.3596C64.3662 30.2474 63.9529 30.2479 63.5195 30.3613C63.0861 30.4746 62.7215 30.6774 62.4259 30.9697C62.1379 31.26 61.9399 31.6095 61.8317 32.0181C61.7313 32.4248 61.7429 32.8641 61.8663 33.3363C61.9898 33.8084 62.1958 34.201 62.4844 34.5142C62.7787 34.8176 63.1225 35.0254 63.5157 35.1376C63.9145 35.24 64.3307 35.2346 64.7641 35.1212Z" fill="#D25F15"/>
<path d="M72.4803 34.6076C71.8736 34.6475 71.3179 34.5477 70.8131 34.3083C70.3158 34.0604 69.9117 33.7061 69.6008 33.2455C69.2894 32.7769 69.1132 32.2313 69.0723 31.6086C69.0308 30.978 69.1341 30.414 69.382 29.9167C69.6299 29.4194 69.9844 29.0192 70.4455 28.7164C70.9067 28.4135 71.4446 28.2418 72.0592 28.2014C72.6819 28.1605 73.2416 28.26 73.7384 28.4999C74.2432 28.7393 74.6471 29.0896 74.95 29.5507C75.2608 30.0113 75.437 30.5569 75.4785 31.1876C75.5194 31.8102 75.4161 32.3742 75.1688 32.8795C74.9288 33.3763 74.5746 33.7805 74.106 34.0919C73.6369 34.3953 73.095 34.5672 72.4803 34.6076ZM72.4307 33.8532C72.8857 33.8233 73.2823 33.697 73.6204 33.4744C73.958 33.2437 74.2146 32.9382 74.39 32.5579C74.5729 32.1691 74.6483 31.7312 74.6163 31.2443C74.5838 30.7493 74.4517 30.3251 74.22 29.9715C73.9963 29.6174 73.7023 29.3521 73.3379 29.1756C72.973 28.9912 72.567 28.9136 72.12 28.943C71.673 28.9724 71.2807 29.1024 70.9431 29.3331C70.6049 29.5557 70.3442 29.8575 70.1607 30.2383C69.9773 30.6192 69.9019 31.057 69.9344 31.552C69.9664 32.0389 70.0985 32.4632 70.3307 32.8247C70.5624 33.1783 70.8607 33.4473 71.2256 33.6318C71.59 33.8083 71.9917 33.8821 72.4307 33.8532Z" fill="#D25F15"/>
<path d="M80.5807 34.8536C80.5807 34.8536 80.5649 34.8515 80.5332 34.8473C80.5014 34.8431 80.4697 34.8389 80.438 34.8347C80.4142 34.8315 80.3944 34.8289 80.3785 34.8268C79.1424 34.6546 78.2162 34.2452 77.6 33.5985C76.9837 32.9518 76.7435 32.1169 76.8793 31.0939C77.0129 30.0867 77.4611 29.3553 78.2236 28.8997C78.9952 28.4372 80.012 28.2857 81.274 28.4451C81.2819 28.4462 81.2978 28.4483 81.3216 28.4514C81.3533 28.4556 81.381 28.4593 81.4048 28.4625C81.4286 28.4656 81.4445 28.4678 81.4524 28.4688C82.7202 28.6452 83.6702 29.0577 84.3023 29.7065C84.9355 30.3474 85.1853 31.1715 85.0516 32.1786C84.9147 33.2096 84.4526 33.9553 83.6652 34.4157C82.8857 34.8771 81.8575 35.0231 80.5807 34.8536ZM80.6667 34.1145C81.3726 34.2082 81.976 34.1915 82.4771 34.0643C82.9792 33.9292 83.3774 33.6955 83.6717 33.3634C83.966 33.0312 84.1484 32.5994 84.2189 32.0681C84.2873 31.5526 84.2223 31.1001 84.0238 30.7106C83.8264 30.3132 83.5024 29.9877 83.0518 29.7343C82.6013 29.4808 82.0231 29.3072 81.3173 29.2135C81.3093 29.2124 81.2855 29.2093 81.2459 29.204C81.2142 29.1998 81.1943 29.1972 81.1864 29.1961C80.4965 29.1046 79.9044 29.1268 79.4102 29.263C78.917 29.3912 78.5278 29.618 78.2425 29.9433C77.9572 30.2686 77.7804 30.689 77.7119 31.2044C77.6425 31.7278 77.7025 32.1877 77.892 32.5841C78.0894 32.9815 78.4089 33.3104 78.8505 33.5708C79.2931 33.8232 79.8549 33.9987 80.5359 34.0971C80.5517 34.0993 80.5755 34.1024 80.6073 34.1066C80.639 34.1108 80.6588 34.1135 80.6667 34.1145ZM79.82 37.0284L81.2978 25.8941L82.1186 26.003L80.6408 37.1374L79.82 37.0284Z" fill="#D25F15"/>
<path d="M88.723 36.7415C88.1028 36.5277 87.6025 36.2115 87.2223 35.7927C86.8446 35.3663 86.6016 34.8806 86.4933 34.3356C86.3877 33.783 86.4365 33.2117 86.6398 32.6217C86.8432 32.0318 87.1479 31.553 87.5539 31.1852C87.9675 30.8201 88.4379 30.5845 88.9652 30.4786C89.5027 30.3677 90.0475 30.4074 90.5996 30.5977C91.1593 30.7906 91.6104 31.09 91.9529 31.4958C92.3055 31.8966 92.5271 32.3707 92.6176 32.918C92.7108 33.4579 92.6544 34.0265 92.4484 34.624C92.4354 34.6619 92.4173 34.7021 92.3941 34.7449C92.381 34.7827 92.3667 34.8243 92.351 34.8697L87.1664 33.0825L87.3737 32.4812L92.1272 34.1198L91.7274 34.2486C91.876 33.8175 91.9132 33.4029 91.8388 33.005C91.7746 32.6021 91.6163 32.2513 91.3638 31.9527C91.1113 31.6541 90.7771 31.4332 90.3611 31.2898C89.9527 31.149 89.5533 31.1171 89.1629 31.194C88.7725 31.271 88.4279 31.4484 88.129 31.7262C87.8302 32.0039 87.6051 32.3622 87.4539 32.8008L87.4109 32.9256C87.2545 33.3794 87.2146 33.8142 87.2913 34.2299C87.3782 34.6406 87.5655 35.0056 87.8532 35.3247C88.1511 35.639 88.5307 35.8756 88.992 36.0346C89.3551 36.1598 89.7138 36.2115 90.0682 36.1898C90.4302 36.1707 90.7702 36.068 91.0884 35.8815L91.3623 36.5598C90.9881 36.7862 90.5719 36.9135 90.1137 36.9417C89.663 36.9725 89.1994 36.9058 88.723 36.7415Z" fill="#D25F15"/>
<path d="M95.3529 39.695C94.8043 39.3975 94.3769 39.011 94.0706 38.5354C93.7751 38.0566 93.6188 37.5395 93.6015 36.9841C93.588 36.4216 93.7301 35.8661 94.0276 35.3176C94.3289 34.7621 94.717 34.3401 95.192 34.0517C95.667 33.7632 96.1838 33.6158 96.7424 33.6093C97.3081 33.6067 97.8652 33.7542 98.4137 34.0517C98.8849 34.3072 99.2608 34.6294 99.5413 35.0182C99.8219 35.407 99.972 35.8434 99.9917 36.3273L99.2266 36.4038C99.1893 36.0195 99.0663 35.6843 98.8575 35.3981C98.6486 35.1119 98.379 34.8792 98.0485 34.7C97.6547 34.4864 97.2499 34.3852 96.8343 34.3964C96.4225 34.4005 96.0375 34.5148 95.6792 34.7391C95.3209 34.9634 95.0235 35.2936 94.787 35.7296C94.5506 36.1656 94.436 36.5949 94.4434 37.0175C94.4508 37.4402 94.5631 37.8287 94.7804 38.1832C95.0015 38.5307 95.3089 38.8112 95.7027 39.0248C96.0333 39.204 96.3754 39.3031 96.7292 39.3221C97.0829 39.3411 97.4291 39.2649 97.7677 39.0936L98.1208 39.7766C97.7083 40.017 97.2607 40.1291 96.778 40.1131C96.299 40.0899 95.824 39.9506 95.3529 39.695Z" fill="#D25F15"/>
<path d="M100.656 43.2183C100.16 42.839 99.7982 42.3905 99.5698 41.873C99.3525 41.354 99.2787 40.8188 99.3482 40.2675C99.4226 39.7098 99.6495 39.1833 100.029 38.6878C100.413 38.186 100.862 37.8297 101.376 37.6189C101.891 37.408 102.424 37.3429 102.977 37.4237C103.536 37.5093 104.063 37.7417 104.559 38.1211C104.984 38.447 105.305 38.8238 105.522 39.2516C105.738 39.6794 105.819 40.1338 105.763 40.6149L104.995 40.5712C105.018 40.1858 104.949 39.8355 104.787 39.5203C104.626 39.205 104.395 38.9331 104.097 38.7045C103.741 38.4322 103.357 38.2691 102.945 38.2154C102.537 38.1553 102.139 38.2081 101.75 38.3738C101.362 38.5396 101.016 38.8193 100.715 39.2131C100.413 39.6069 100.233 40.0131 100.175 40.4318C100.116 40.8504 100.166 41.2517 100.326 41.6357C100.49 42.0134 100.75 42.3384 101.106 42.6108C101.404 42.8394 101.727 42.9906 102.073 43.0645C102.42 43.1384 102.773 43.1171 103.135 43.0007L103.377 43.7304C102.932 43.9035 102.472 43.9445 101.998 43.8534C101.529 43.7559 101.081 43.5442 100.656 43.2183Z" fill="#D25F15"/>
<path d="M103.547 45.4666L108.204 41.2242L108.778 41.854L105.078 45.2237L111.614 44.9679L112.123 45.5268L107.466 49.7692L106.892 49.1393L110.6 45.7616L104.064 46.0343L103.547 45.4666Z" fill="#D25F15"/>
<path d="M110.322 54.0968C110.006 53.5772 109.837 53.0383 109.816 52.4801C109.806 51.9244 109.933 51.4023 110.198 50.9137C110.47 50.421 110.872 50.0125 111.405 49.6884C111.945 49.3601 112.493 49.1909 113.049 49.1808C113.604 49.1707 114.123 49.3001 114.605 49.5689C115.086 49.8378 115.487 50.2354 115.807 50.7618C116.131 51.295 116.302 51.8373 116.319 52.3887C116.34 52.947 116.216 53.4671 115.947 53.9488C115.683 54.4374 115.28 54.8459 114.74 55.1742C114.207 55.4983 113.659 55.6675 113.097 55.6818C112.545 55.6987 112.023 55.5714 111.53 55.2999C111.044 55.0242 110.642 54.6231 110.322 54.0968ZM110.968 53.7041C111.204 54.0937 111.5 54.387 111.853 54.5839C112.214 54.7766 112.604 54.8628 113.022 54.8425C113.451 54.825 113.874 54.6894 114.291 54.4359C114.715 54.1783 115.03 53.865 115.237 53.4961C115.447 53.134 115.547 52.7506 115.535 52.346C115.529 51.9371 115.411 51.5413 115.178 51.1585C114.945 50.7757 114.648 50.4879 114.288 50.2952C113.934 50.0983 113.546 50.0066 113.123 50.02C112.701 50.0335 112.278 50.169 111.854 50.4267C111.437 50.6802 111.122 50.9934 110.909 51.3665C110.702 51.7354 110.602 52.1243 110.607 52.5331C110.619 52.9378 110.739 53.3281 110.968 53.7041Z" fill="#D25F15"/>
<path d="M112.691 58.1149L118.592 55.9068L118.89 56.7047L116.283 57.6805L117.675 61.4005L120.283 60.4248L120.581 61.2227L114.681 63.4308L114.382 62.6329L116.99 61.6571L115.597 57.9371L112.99 58.9129L112.691 58.1149Z" fill="#D25F15"/>
<path d="M116.051 69.8056L117.42 69.5554L117.638 69.4791L119.928 69.0607C120.456 68.9643 120.833 68.7408 121.062 68.39C121.292 68.047 121.354 67.5844 121.248 67.002C121.174 66.6007 121.038 66.2312 120.838 65.8936C120.638 65.5561 120.405 65.2815 120.138 65.0699L120.695 64.5779C121.02 64.8438 121.294 65.1841 121.516 65.599C121.746 66.0124 121.906 66.463 121.995 66.9509C122.141 67.7536 122.054 68.4081 121.731 68.9142C121.418 69.4268 120.857 69.7572 120.046 69.9053L116.198 70.6083L116.051 69.8056ZM115.602 67.6798C115.517 67.2154 115.518 66.7965 115.604 66.4229C115.699 66.0557 115.864 65.7572 116.099 65.5273C116.341 65.296 116.64 65.148 116.994 65.0833C117.316 65.0244 117.621 65.0459 117.908 65.148C118.205 65.2565 118.463 65.4695 118.684 65.787C118.914 66.111 119.083 66.5681 119.19 67.1583L119.581 69.2949L118.955 69.4092L118.569 67.2962C118.46 66.6981 118.277 66.3004 118.022 66.1032C117.768 65.9138 117.483 65.8478 117.168 65.9053C116.814 65.97 116.556 66.1595 116.394 66.4738C116.232 66.788 116.196 67.193 116.286 67.6888C116.373 68.161 116.553 68.5469 116.827 68.8465C117.111 69.1525 117.472 69.3468 117.91 69.4294L117.366 69.724C116.928 69.6414 116.551 69.4256 116.235 69.0767C115.921 68.7356 115.709 68.27 115.602 67.6798Z" fill="#D25F15"/>
<path d="M116.366 71.0585L117.099 71.1108C117.092 71.1669 117.08 71.219 117.065 71.2672C117.057 71.3233 117.054 71.3713 117.054 71.4113C117.057 71.6673 117.155 71.8703 117.349 72.0203C117.542 72.1783 117.799 72.2956 118.12 72.3722C118.441 72.4489 118.802 72.5011 119.202 72.5289C119.61 72.5567 120.019 72.5804 120.427 72.6001L122.672 72.6847L122.72 77.3044L116.42 77.3703L116.412 76.5183L122.219 76.4576L121.969 76.6763L121.934 73.2444L122.2 73.4457L120.375 73.3687C119.831 73.3504 119.31 73.3119 118.814 73.253C118.317 73.2022 117.88 73.1148 117.503 72.9907C117.126 72.8747 116.828 72.7098 116.61 72.496C116.399 72.2822 116.292 72.0073 116.289 71.6713C116.288 71.5753 116.295 71.4753 116.31 71.3711C116.325 71.2749 116.344 71.1707 116.366 71.0585Z" fill="#D25F15"/>
<path d="M119.866 82.8371C119.737 83.6185 119.471 84.1845 119.069 84.5349C118.665 84.8933 118.143 85.0229 117.503 84.9237C116.839 84.8207 116.363 84.5203 116.076 84.0225C115.788 83.5325 115.712 82.8731 115.849 82.0443L116.25 79.5321L122.476 80.4971L122.345 81.3391L120.175 81.0027L119.866 82.8371ZM116.496 82.0961C116.399 82.672 116.446 83.1245 116.638 83.4538C116.836 83.7922 117.169 83.9976 117.635 84.0699C118.102 84.1422 118.464 84.0486 118.723 83.7892C118.99 83.531 119.173 83.11 119.271 82.5262L119.547 80.9053L116.772 80.4752L116.496 82.0961Z" fill="#D25F15"/>
<path d="M115.21 85.7579L121.166 87.811L120.888 88.6165L118.256 87.7092L116.962 91.4643L119.594 92.3716L119.316 93.1771L113.36 91.124L113.638 90.3185L116.27 91.2258L117.564 87.4706L114.932 86.5633L115.21 85.7579Z" fill="#D25F15"/>
<path d="M109.282 98.6752L114.681 101.922L114.241 102.652L108.843 99.4053L109.282 98.6752ZM114.578 97.7852C114.163 98.4598 113.701 98.8868 113.191 99.066C112.682 99.2452 112.15 99.1678 111.595 98.8339C111.019 98.4876 110.692 98.0297 110.614 97.4602C110.537 96.8908 110.716 96.2516 111.151 95.5427L112.448 93.4099L117.847 96.6566L117.408 97.3868L115.526 96.255L114.578 97.7852ZM111.738 95.8253C111.426 96.3285 111.296 96.7688 111.349 97.1461C111.405 97.5344 111.635 97.8502 112.04 98.0935C112.444 98.3367 112.815 98.3872 113.153 98.2448C113.498 98.1066 113.828 97.7824 114.144 97.2724L114.981 95.9273L112.574 94.4802L111.738 95.8253Z" fill="#D25F15"/>
<path d="M107.515 101.162L112.1 105.482L111.516 106.103L107.874 102.671L108.628 109.168L108.109 109.718L103.524 105.398L104.108 104.778L107.759 108.218L106.988 101.721L107.515 101.162ZM110.806 108.186C111.168 107.802 111.557 107.581 111.974 107.524C112.392 107.477 112.789 107.621 113.167 107.955L112.748 108.4C112.509 108.187 112.249 108.095 111.967 108.126C111.685 108.157 111.426 108.298 111.19 108.549C110.954 108.799 110.829 109.066 110.815 109.349C110.795 109.638 110.899 109.896 111.126 110.121L110.707 110.566C110.345 110.215 110.178 109.827 110.205 109.401C110.238 108.982 110.438 108.577 110.806 108.186Z" fill="#D25F15"/>
<path d="M99.4799 108.791L102.753 114.175L97.9128 117.117L94.6401 111.734L95.3681 111.291L98.3727 116.233L98.0697 116.151L101.823 113.869L101.757 114.176L98.7519 109.234L99.4799 108.791Z" fill="#D25F15"/>
<path d="M89.9026 113.746C90.4721 113.533 91.033 113.468 91.5853 113.552C92.133 113.646 92.6221 113.868 93.0526 114.22C93.4859 114.579 93.8119 115.05 94.0306 115.635C94.2521 116.227 94.3158 116.797 94.2218 117.344C94.1278 117.892 93.9037 118.377 93.5495 118.8C93.1953 119.223 92.7297 119.543 92.1528 119.759C91.5684 119.977 91.0037 120.043 90.4589 119.957C89.9065 119.873 89.4188 119.654 88.9958 119.3C88.5653 118.949 88.2393 118.477 88.0178 117.885C87.7991 117.301 87.7354 116.731 87.8266 116.176C87.9131 115.631 88.1358 115.142 88.4947 114.708C88.8564 114.283 89.3257 113.962 89.9026 113.746ZM90.1676 114.454C89.7405 114.614 89.3972 114.849 89.1376 115.16C88.8809 115.478 88.7233 115.844 88.665 116.259C88.602 116.684 88.656 117.125 88.827 117.582C89.0009 118.047 89.2497 118.415 89.5735 118.687C89.8898 118.961 90.2478 119.13 90.6476 119.194C91.0501 119.266 91.4612 119.223 91.8808 119.066C92.3004 118.909 92.6386 118.671 92.8953 118.353C93.1549 118.042 93.3176 117.678 93.3834 117.261C93.4492 116.843 93.3952 116.402 93.2214 115.938C93.0503 115.481 92.8015 115.112 92.4749 114.833C92.1511 114.561 91.788 114.39 91.3854 114.318C90.9856 114.254 90.5797 114.3 90.1676 114.454Z" fill="#D25F15"/>
<path d="M81.4012 116.46L82.3263 121.524L85.3129 120.979L85.1314 119.585C85.0709 119.165 85.0237 118.75 84.9898 118.342C84.9479 117.935 84.9394 117.554 84.9641 117.2C84.9824 116.855 85.0469 116.563 85.1576 116.323C85.2698 116.091 85.441 115.938 85.6714 115.863L86.5375 115.863C86.2921 115.9 86.1073 116.023 85.9829 116.233C85.86 116.451 85.7848 116.729 85.7572 117.067C85.7295 117.406 85.7334 117.783 85.7689 118.2C85.8057 118.624 85.8519 119.055 85.9073 119.492L86.2021 121.573L81.6219 122.409L80.563 116.613L81.4012 116.46ZM86.3896 113.585L86.7972 115.816L79.6554 117.121L79.2478 114.89L80.0387 114.745L80.3126 116.244L85.8726 115.229L85.5987 113.729L86.3896 113.585Z" fill="#D25F15"/>
<path d="M75.371 116.386C75.883 116.386 76.339 116.47 76.7389 116.638C77.1308 116.807 77.4667 117.063 77.7465 117.407C78.0263 117.751 78.2381 118.175 78.3818 118.679C78.5255 119.191 78.5972 119.784 78.5968 120.456C78.5965 121.056 78.5402 121.579 78.4279 122.027C78.3157 122.483 78.1594 122.875 77.9593 123.203C77.7591 123.531 77.5269 123.807 77.2628 124.031C76.9907 124.263 76.6986 124.446 76.3865 124.582C76.0664 124.726 75.7383 124.834 75.4023 124.906L72.5699 125.564L72.4264 124.772L75.0907 124.174C75.2587 124.134 75.4628 124.078 75.7028 124.006C75.9348 123.934 76.1749 123.826 76.423 123.682C76.6631 123.538 76.8872 123.339 77.0953 123.083C77.3035 122.827 77.4717 122.495 77.5999 122.087C77.7201 121.687 77.7804 121.187 77.7807 120.587C77.7808 120.459 77.7768 120.355 77.7689 120.275C77.7609 120.203 77.753 120.123 77.745 120.035C77.7291 119.955 77.7171 119.835 77.7092 119.675L78.081 119.987C77.9928 120.475 77.8125 120.899 77.5403 121.259C77.2681 121.627 76.928 121.911 76.5199 122.11C76.1037 122.318 75.6437 122.422 75.1397 122.422C74.5557 122.421 74.0358 122.293 73.5799 122.037C73.124 121.788 72.7682 121.44 72.5125 120.992C72.2487 120.544 72.117 120.024 72.1174 119.432C72.1177 118.848 72.254 118.324 72.5262 117.86C72.7905 117.396 73.1667 117.032 73.6548 116.769C74.143 116.513 74.715 116.385 75.371 116.386ZM75.2747 117.094C74.8267 117.093 74.4306 117.193 74.0865 117.393C73.7424 117.601 73.4742 117.881 73.282 118.233C73.0818 118.584 72.9816 118.98 72.9814 119.42C72.9811 119.852 73.0809 120.236 73.2807 120.573C73.4725 120.909 73.7404 121.173 74.0843 121.365C74.4282 121.565 74.8281 121.665 75.2841 121.666C75.7321 121.666 76.1282 121.57 76.4723 121.378C76.8164 121.195 77.0885 120.935 77.2887 120.599C77.4809 120.263 77.5771 119.875 77.5774 119.435C77.5776 118.995 77.4818 118.599 77.29 118.247C77.0902 117.895 76.8184 117.615 76.4745 117.406C76.1226 117.198 75.7227 117.094 75.2747 117.094Z" fill="#D25F15"/>
<path d="M68.5076 115.811C69.1062 115.917 69.6221 116.147 70.055 116.5C70.4787 116.859 70.7865 117.3 70.9784 117.821C71.1688 118.351 71.2095 118.923 71.1005 119.537C70.9901 120.159 70.7551 120.682 70.3956 121.106C70.0361 121.53 69.5962 121.834 69.0761 122.018C68.556 122.201 67.9926 122.24 67.3861 122.132C66.7717 122.023 66.2519 121.793 65.8268 121.441C65.3938 121.088 65.0854 120.651 64.9014 120.131C64.7096 119.61 64.6688 119.038 64.7792 118.416C64.8882 117.801 65.1232 117.278 65.4842 116.847C65.8358 116.421 66.2764 116.114 66.8058 115.923C67.3338 115.741 67.9011 115.703 68.5076 115.811ZM68.3755 116.555C67.9265 116.475 67.5113 116.503 67.1297 116.639C66.7468 116.782 66.4248 117.017 66.1636 117.345C65.8931 117.679 65.7152 118.086 65.63 118.566C65.5433 119.055 65.5702 119.498 65.7108 119.897C65.8434 120.294 66.0655 120.622 66.3772 120.881C66.6875 121.147 67.0631 121.319 67.5042 121.397C67.9454 121.476 68.3574 121.443 68.7403 121.3C69.1218 121.164 69.4471 120.934 69.7162 120.608C69.9853 120.282 70.1632 119.874 70.2498 119.386C70.3351 118.906 70.3081 118.462 70.169 118.056C70.0285 117.657 69.8031 117.324 69.4928 117.058C69.1812 116.8 68.8088 116.632 68.3755 116.555Z" fill="#D25F15"/>
<path d="M60.8118 113.712C61.32 113.906 61.7354 114.197 62.058 114.586C62.3777 114.982 62.5767 115.448 62.6549 115.983C62.7228 116.522 62.6341 117.114 62.3886 117.756C62.1432 118.399 61.8167 118.895 61.4091 119.245C60.9987 119.602 60.5438 119.818 60.0442 119.893C59.5447 119.967 59.0371 119.906 58.5214 119.709C57.9609 119.495 57.5087 119.177 57.1648 118.754C56.8106 118.337 56.5935 117.851 56.5135 117.298C56.4306 116.753 56.5019 116.185 56.7274 115.594C56.9557 114.997 57.2825 114.522 57.7079 114.171C58.1332 113.819 58.6186 113.602 59.1641 113.519C59.7021 113.433 60.2513 113.498 60.8118 113.712ZM64.659 112.753L61.5808 120.813L60.8185 120.522L61.495 118.751L62.0229 117.604L62.3646 116.373L63.863 112.449L64.659 112.753ZM60.5982 114.439C60.1796 114.28 59.7703 114.23 59.3701 114.292C58.9671 114.36 58.6027 114.529 58.2771 114.799C57.9487 115.076 57.6974 115.443 57.5233 115.898C57.3492 116.354 57.2937 116.791 57.3567 117.209C57.4197 117.627 57.5786 117.996 57.8332 118.316C58.0878 118.636 58.4244 118.876 58.8429 119.036C59.2614 119.195 59.676 119.242 60.0865 119.177C60.4895 119.108 60.8538 118.939 61.1794 118.669C61.4976 118.397 61.7437 118.032 61.9178 117.577C62.0919 117.121 62.1526 116.681 62.0999 116.259C62.0368 115.841 61.878 115.472 61.6234 115.152C61.3584 114.837 61.0167 114.599 60.5982 114.439Z" fill="#D25F15"/>
<path d="M53.9098 110.55L50.1933 115.637L45.6199 112.295L49.3364 107.208L50.0244 107.711L46.6122 112.381L46.5723 112.07L50.1187 114.661L49.8098 114.718L53.2219 110.047L53.9098 110.55Z" fill="#D25F15"/>
<path d="M45.612 103.558C46.0593 104.038 46.3526 104.552 46.4918 105.1C46.6252 105.654 46.6118 106.197 46.4516 106.729C46.2855 107.266 45.9743 107.748 45.5178 108.173C45.0614 108.599 44.5676 108.879 44.0365 109.013C43.4999 109.141 42.9739 109.128 42.4586 108.974C41.9319 108.82 41.4695 108.529 41.0713 108.102C40.6676 107.669 40.4098 107.193 40.2979 106.674C40.1746 106.154 40.2015 105.632 40.3784 105.106C40.5495 104.586 40.8663 104.11 41.3286 103.679C41.3578 103.652 41.3927 103.625 41.4333 103.598C41.4626 103.57 41.4947 103.54 41.5299 103.508L45.2691 107.519L44.8039 107.953L41.3756 104.275L41.789 104.349C41.4554 104.66 41.2281 105.008 41.107 105.395C40.9745 105.781 40.9497 106.165 41.0325 106.547C41.1153 106.929 41.3067 107.281 41.6068 107.603C41.9013 107.919 42.239 108.134 42.6199 108.25C43.0007 108.365 43.3883 108.37 43.7825 108.265C44.1768 108.16 44.5436 107.949 44.883 107.633L44.9796 107.543C45.3307 107.216 45.5699 106.851 45.6973 106.447C45.8134 106.044 45.8193 105.634 45.7151 105.217C45.5995 104.8 45.3754 104.413 45.0427 104.056C44.7808 103.775 44.4884 103.561 44.1652 103.413C43.8366 103.26 43.4881 103.192 43.1197 103.207L43.1962 102.479C43.6329 102.455 44.0601 102.538 44.478 102.728C44.8904 102.913 45.2684 103.189 45.612 103.558Z" fill="#D25F15"/>
<path d="M40.6995 97.1903C40.9875 97.6518 41.1427 98.1349 41.1652 98.6394C41.1809 99.1482 41.0584 99.6396 40.7977 100.113C40.526 100.585 40.0982 101.002 39.5145 101.367C38.9308 101.731 38.371 101.929 37.835 101.962C37.2923 101.999 36.7992 101.896 36.3559 101.654C35.9126 101.412 35.5449 101.057 35.2527 100.589C34.9351 100.079 34.7667 99.5528 34.7477 99.0083C34.7176 98.4613 34.8376 97.9433 35.1076 97.4542C35.3709 96.9694 35.7706 96.5597 36.3068 96.2252C36.8498 95.8864 37.3969 95.7053 37.9481 95.682C38.4993 95.6587 39.0174 95.7787 39.5022 96.042C39.9828 96.2984 40.3819 96.6812 40.6995 97.1903ZM44.3451 98.7488L37.025 103.316L36.593 102.624L38.2016 101.62L39.3151 101.024L40.3308 100.249L43.8941 98.0259L44.3451 98.7488ZM40.0899 97.6413C39.8527 97.2612 39.5562 96.9748 39.2002 96.782C38.8374 96.5935 38.4448 96.5084 38.0225 96.5267C37.5934 96.5493 37.1718 96.6897 36.7578 96.948C36.3438 97.2063 36.0357 97.5211 35.8336 97.8924C35.6315 98.2636 35.5353 98.6536 35.5452 99.0624C35.555 99.4711 35.6785 99.8655 35.9157 100.246C36.1528 100.626 36.4549 100.913 36.8219 101.109C37.1847 101.297 37.5773 101.382 37.9996 101.364C38.4177 101.339 38.8337 101.197 39.2478 100.939C39.6618 100.681 39.9754 100.367 40.1885 99.9984C40.3906 99.6272 40.4867 99.2372 40.4769 98.8284C40.456 98.4171 40.327 98.0214 40.0899 97.6413Z" fill="#D25F15"/>
<path d="M37.2571 90.3721C37.4892 90.9514 37.5711 91.5218 37.5031 92.0834C37.4246 92.6405 37.2146 93.1383 36.8732 93.5767C36.5243 94.0181 36.0602 94.3548 35.481 94.5868C34.8943 94.8218 34.3261 94.8986 33.7764 94.8171C33.2267 94.7357 32.7349 94.5191 32.3009 94.1672C31.864 93.8079 31.5295 93.3386 31.2975 92.7594C31.0982 92.2618 31.0147 91.7738 31.0472 91.2955C31.0796 90.8171 31.2428 90.3855 31.5368 90.0006L32.1743 90.4303C31.9576 90.7498 31.8381 91.0864 31.816 91.4399C31.7939 91.7935 31.8528 92.1448 31.9926 92.4939C32.1592 92.9097 32.4059 93.2461 32.7329 93.5029C33.0524 93.7628 33.4216 93.9208 33.8406 93.977C34.2596 94.0333 34.6992 93.9692 35.1597 93.7848C35.6201 93.6003 35.9825 93.3431 36.2467 93.0132C36.511 92.6833 36.6728 92.3126 36.732 91.901C36.7838 91.4925 36.7264 91.0803 36.5598 90.6644C36.42 90.3153 36.22 90.0206 35.9599 89.78C35.6998 89.5395 35.3848 89.377 35.0149 89.2925L35.1794 88.5414C35.6504 88.62 36.0664 88.8196 36.4276 89.1403C36.7813 89.4639 37.0578 89.8746 37.2571 90.3721Z" fill="#D25F15"/>
<path d="M35.4468 84.4821C35.5761 85.0762 35.5598 85.6406 35.3979 86.1753C35.2264 86.7038 34.9359 87.156 34.5265 87.5317C34.1092 87.9091 33.5958 88.1642 32.986 88.2969C32.3685 88.4314 31.7955 88.4129 31.2669 88.2414C30.7383 88.07 30.2901 87.7787 29.9222 87.3675C29.5543 86.9564 29.3048 86.4499 29.1737 85.848C29.041 85.2382 29.0564 84.6699 29.2201 84.1431C29.382 83.6084 29.6686 83.1571 30.0797 82.7892C30.4892 82.4135 31.0026 82.1584 31.6202 82.0239C32.2299 81.8912 32.8029 81.9097 33.3393 82.0794C33.8662 82.2431 34.3184 82.5335 34.6958 82.9508C35.0654 83.3698 35.3157 83.8802 35.4468 84.4821ZM34.7081 84.6429C34.611 84.1974 34.4274 83.8239 34.1571 83.5225C33.8789 83.2228 33.5388 83.0144 33.1367 82.8973C32.7251 82.774 32.2808 82.7643 31.804 82.8681C31.3193 82.9737 30.9194 83.1672 30.604 83.4487C30.287 83.7224 30.0682 84.0525 29.9477 84.439C29.8194 84.8272 29.8028 85.2402 29.8981 85.6779C29.9935 86.1157 30.1802 86.4844 30.4583 86.7841C30.7286 87.0855 31.0657 87.2986 31.4695 87.4236C31.8733 87.5485 32.3176 87.5583 32.8022 87.4527C33.279 87.3489 33.679 87.1554 34.0022 86.8721C34.3175 86.5906 34.5393 86.2557 34.6677 85.8676C34.7882 85.4811 34.8017 85.0729 34.7081 84.6429Z" fill="#D25F15"/>
<path d="M34.4856 79.9363L28.1876 80.0946L28.1662 79.2429L30.9493 79.1729L30.8495 75.2021L28.0664 75.2721L28.045 74.4204L34.343 74.262L34.3644 75.1138L31.5813 75.1838L31.6811 79.1545L34.4642 79.0845L34.4856 79.9363Z" fill="#D25F15"/>
<path d="M35.1148 67.6304L33.7392 67.4171L33.5084 67.4178L31.2079 67.0612C30.6782 66.9791 30.2478 67.0662 29.9166 67.3225C29.5867 67.5709 29.3764 67.9876 29.2857 68.5726C29.2232 68.9758 29.2309 69.3696 29.309 69.7541C29.387 70.1386 29.5171 70.4745 29.6992 70.7618L29.0119 71.0438C28.7921 70.686 28.6454 70.2746 28.5717 69.8099C28.4902 69.3439 28.4873 68.8658 28.5633 68.3756C28.6883 67.5693 28.9861 66.9799 29.4567 66.6076C29.9206 66.2262 30.5597 66.0986 31.3739 66.2248L35.2398 66.824L35.1148 67.6304ZM34.8414 69.7859C34.7691 70.2524 34.6309 70.6479 34.4268 70.9724C34.216 71.2878 33.9621 71.5156 33.6651 71.6558C33.3602 71.7948 33.0299 71.8367 32.6741 71.7815C32.35 71.7313 32.0691 71.6108 31.8315 71.4202C31.5873 71.2204 31.413 70.9343 31.3088 70.562C31.198 70.1805 31.1885 69.6933 31.2804 69.1004L31.6131 66.954L32.2416 67.0514L31.9125 69.1741C31.8194 69.7749 31.8612 70.2104 32.0379 70.4807C32.2158 70.743 32.4629 70.8987 32.7791 70.9477C33.1348 71.0029 33.4409 70.9087 33.6972 70.665C33.9536 70.4214 34.1203 70.0506 34.1975 69.5525C34.2711 69.0782 34.2274 68.6545 34.0667 68.2815C33.8992 67.8993 33.6222 67.5974 33.2357 67.3755L33.8461 67.2759C34.2327 67.4977 34.5179 67.8252 34.7017 68.2585C34.8867 68.6839 34.9333 69.193 34.8414 69.7859Z" fill="#D25F15"/>
<path d="M35.1753 66.4641L34.4986 66.1786C34.5237 66.1279 34.5513 66.0822 34.5815 66.0416C34.6066 65.9909 34.6253 65.9466 34.6378 65.9086C34.7177 65.6654 34.6902 65.4416 34.5552 65.2373C34.4227 65.0253 34.217 64.8314 33.9379 64.6556C33.6589 64.4797 33.3343 64.3141 32.9643 64.1589C32.5866 64.0012 32.2078 63.8472 31.8276 63.6971L29.7294 62.8942L31.1712 58.5049L37.1566 60.471L36.8907 61.2805L31.3727 59.4679L31.6796 59.3414L30.6085 62.602L30.4214 62.3258L32.1243 62.9862C32.6336 63.1788 33.1139 63.3829 33.5652 63.5984C34.0189 63.8064 34.4045 64.0299 34.7217 64.2689C35.0415 64.5002 35.2703 64.7522 35.4081 65.0248C35.5383 65.2949 35.551 65.5896 35.4461 65.9088C35.4162 66 35.3773 66.0925 35.3297 66.1864C35.2845 66.2726 35.2331 66.3651 35.1753 66.4641Z" fill="#D25F15"/>
<path d="M39.8942 54.8566L38.6633 54.2065L38.4449 54.1318L36.3863 53.0447C35.9124 52.7943 35.4771 52.7363 35.0804 52.8707C34.6875 52.9979 34.3528 53.3233 34.0764 53.8467C33.8858 54.2075 33.7648 54.5824 33.7132 54.9713C33.6616 55.3602 33.675 55.7201 33.7535 56.0511L33.0118 56.0937C32.9208 55.6837 32.9162 55.247 32.998 54.7836C33.0729 54.3165 33.2261 53.8636 33.4577 53.425C33.8388 52.7035 34.3125 52.2434 34.8787 52.0449C35.4416 51.8355 36.0874 51.9233 36.816 52.3081L40.2752 54.135L39.8942 54.8566ZM38.9329 56.8052C38.7125 57.2226 38.4528 57.5514 38.1541 57.7916C37.8519 58.0211 37.5376 58.1537 37.2112 58.1894C36.8777 58.2213 36.5517 58.1532 36.2334 57.9851C35.9434 57.8319 35.7171 57.6265 35.5547 57.3688C35.3889 57.1003 35.3174 56.773 35.3403 56.387C35.3599 55.9903 35.5098 55.5266 35.79 54.996L36.8043 53.0754L37.3667 53.3724L36.3636 55.2718C36.0796 55.8095 35.9771 56.2348 36.0561 56.5479C36.1387 56.8539 36.3215 57.0817 36.6045 57.2311C36.9228 57.3992 37.2429 57.4099 37.5646 57.2632C37.8864 57.1165 38.1649 56.8203 38.4003 56.3746C38.6245 55.9502 38.7214 55.5354 38.691 55.1304C38.6573 54.7145 38.4939 54.3387 38.2008 54.003L38.8104 54.1078C39.1035 54.4435 39.2664 54.8462 39.2988 55.3157C39.3351 55.7781 39.2131 56.2746 38.9329 56.8052Z" fill="#D25F15"/>
</svg>