<svg width="95" height="95" viewBox="0 0 95 95" fill="none" xmlns="http://www.w3.org/2000/svg">
<path d="M2.01985 44.309C2.11744 42.8231 2.92752 41.9744 4.16846 42.0559C5.4094 42.1374 6.10151 43.0848 6.00392 44.5707L5.91116 45.983L7.64194 46.0967L7.58832 46.9131L1.87346 46.5378L2.01985 44.309ZM5.29204 44.5485C5.36067 43.5035 4.93125 42.9259 4.11484 42.8723C3.29843 42.8187 2.79715 43.3351 2.72851 44.3801L2.63736 45.768L5.20088 45.9364L5.29204 44.5485Z" fill="#D25F15"/>
<path d="M4.04079 39.209C4.26751 38.0445 4.95789 37.4954 6.12237 37.7221L8.69225 38.2225L8.54996 38.9533L7.9878 38.8438C8.32324 39.1759 8.45586 39.6935 8.32608 40.36C8.13844 41.3237 7.50563 41.834 6.76679 41.6902C6.08417 41.5573 5.608 41.0061 5.85505 39.7372L6.09272 38.5165L5.94014 38.4868C5.28964 38.3602 4.8387 38.6641 4.69015 39.4271C4.59164 39.933 4.66825 40.4814 4.88522 40.8654L4.24446 41.074C3.9771 40.5635 3.90788 39.8916 4.04079 39.209ZM7.75681 40.1158C7.86939 39.5376 7.6935 39.0283 7.24114 38.7401L6.64685 38.6244L6.41544 39.813C6.2669 40.5759 6.52182 40.8506 6.88321 40.921C7.30885 41.0039 7.64266 40.7021 7.75681 40.1158Z" fill="#D25F15"/>
<path d="M5.65885 33.7144C6.0377 32.5471 7.12779 31.9977 8.31067 32.3816C9.52468 32.7756 10.0667 33.9149 9.65756 35.1756C9.20043 36.5842 7.93367 37.0419 6.19826 36.4786C4.49398 35.9255 3.79269 34.9324 3.94359 33.4072L4.13455 31.3876L4.85473 31.5009L4.66506 33.3575C4.54999 34.5072 4.91501 35.1848 5.96369 35.6111C5.54816 35.0892 5.43407 34.4071 5.65885 33.7144ZM9.04005 34.958C9.30018 34.1565 8.90363 33.417 8.0865 33.1518C7.26938 32.8867 6.54784 33.2546 6.28518 34.0639C6.02252 34.8733 6.38795 35.6026 7.20507 35.8678C8.02219 36.133 8.78243 35.7518 9.04005 34.958Z" fill="#D25F15"/>
<path d="M11.4843 30.5401C10.9289 31.7165 9.68415 32.1874 8.5152 31.6354C7.34624 31.0835 6.92632 29.8266 7.48175 28.6503C8.03717 27.4739 9.27102 27.0069 10.44 27.5589C11.6089 28.1108 12.0397 29.3638 11.4843 30.5401ZM10.8628 30.2467C11.2192 29.492 10.9372 28.6713 10.1011 28.2765C9.2651 27.8818 8.45953 28.1891 8.10322 28.9437C7.74691 29.6983 8.01802 30.523 8.85404 30.9178C9.69007 31.3125 10.5065 31.0013 10.8628 30.2467Z" fill="#D25F15"/>
<path d="M10.8133 22.7935L11.3999 23.1518L10.5725 24.5063L13.6867 26.4083L13.2773 27.0786L10.1631 25.1766L9.33581 26.5312L8.74929 26.173L10.8133 22.7935Z" fill="#D25F15"/>
<path d="M12.3193 20.7064C13.0415 19.7652 13.9043 19.5815 14.8455 20.3037L16.9227 21.8974L16.4695 22.4881L16.0151 22.1395C16.1673 22.5862 16.0552 23.1087 15.6419 23.6474C15.0442 24.4264 14.2503 24.601 13.6531 24.1428C13.1013 23.7195 12.9208 23.0138 13.7077 21.9882L14.4647 21.0015L14.3414 20.9069C13.8156 20.5035 13.2765 20.5745 12.8033 21.1912C12.4896 21.6001 12.3136 22.1252 12.3366 22.5656L11.6701 22.4667C11.6584 21.8905 11.896 21.2582 12.3193 20.7064ZM15.2412 23.175C15.5998 22.7077 15.6694 22.1733 15.393 21.7137L14.9126 21.3452L14.1756 22.3059C13.7024 22.9226 13.8081 23.2821 14.1002 23.5062C14.4443 23.7702 14.8776 23.6489 15.2412 23.175Z" fill="#D25F15"/>
<path d="M18.9336 16.6624C18.9804 16.7081 19.0448 16.7827 19.0918 16.84L16.6313 19.3547C17.2439 19.8166 18.0356 19.7328 18.6364 19.1187C18.9911 18.7562 19.1659 18.3319 19.1376 17.8578L19.8034 17.9026C19.8562 18.5037 19.614 19.1023 19.1105 19.6169C18.132 20.6169 16.8189 20.637 15.8949 19.733C14.9768 18.8346 14.9625 17.5272 15.838 16.6325C16.7134 15.7377 17.9804 15.7297 18.9336 16.6624ZM16.3116 17.0959C15.7852 17.634 15.7587 18.3864 16.2278 18.9598L18.1733 16.9715C17.5956 16.5207 16.8438 16.5521 16.3116 17.0959Z" fill="#D25F15"/>
<path d="M21.8555 11.4842L22.4381 11.0339L25.0902 14.4646L24.5271 14.8999L22.5905 12.3949L22.9451 15.5023L22.6733 15.7125L19.7633 14.5701L21.7048 17.0817L21.1352 17.522L18.4831 14.0913L19.1239 13.5959L22.2617 14.8724L21.8555 11.4842Z" fill="#D25F15"/>
<path d="M29.4432 9.44626C30.0199 9.31558 30.4245 9.51243 30.675 10C31.0189 10.6696 30.7259 11.3168 29.6998 11.8439L27.8439 12.7971L25.8626 8.93996L27.653 8.02034C28.5627 7.55306 29.2917 7.62929 29.6169 8.26246C29.83 8.67729 29.7504 9.0953 29.4432 9.44626ZM26.8234 9.12711L27.3991 10.2479L28.4471 9.70957C28.9783 9.43667 29.1612 9.09438 28.9706 8.72322C28.7799 8.35205 28.4027 8.31591 27.8714 8.5888L26.8234 9.12711ZM29.3722 11.3315C29.9471 11.0362 30.1558 10.7082 29.9539 10.3152C29.7483 9.91497 29.3964 9.85659 28.8215 10.1519L27.657 10.75L28.2514 11.9072L29.3722 11.3315Z" fill="#D25F15"/>
<path d="M34.2893 3.87481C35.7124 3.43659 36.7941 3.89111 37.1601 5.07965C37.5261 6.2682 36.8874 7.25244 35.4643 7.69065L34.1116 8.1072L34.622 9.76491L33.8401 10.0057L32.1546 4.53213L34.2893 3.87481ZM35.2314 7.01759C36.2323 6.7094 36.6189 6.10237 36.3781 5.32043C36.1374 4.5385 35.4762 4.25412 34.4753 4.56231L33.146 4.97164L33.9021 7.42692L35.2314 7.01759Z" fill="#D25F15"/>
<path d="M38.9903 8.46179L38.1768 2.79268L42.453 2.17911L42.5517 2.8675L39.0774 3.36603L39.3098 4.98577L41.0753 4.73244C41.7502 4.6356 42.2833 4.70239 42.6745 4.93279C43.0657 5.16318 43.2997 5.54564 43.3764 6.08016C43.4554 6.63087 43.3246 7.08221 42.9838 7.43417C42.6485 7.78535 42.1272 8.01169 41.4199 8.11317L38.9903 8.46179ZM39.7002 7.70695L41.2957 7.47802C41.7654 7.41062 42.1063 7.27079 42.3183 7.05853C42.5357 6.8455 42.6192 6.56351 42.5688 6.21256C42.4712 5.53227 41.9473 5.2603 40.997 5.39665L39.4016 5.62557L39.7002 7.70695Z" fill="#D25F15"/>
<path d="M48.0014 7.60197L48.2689 3.27394L49.0529 3.32239L48.8581 6.47451L51.7069 3.48644L52.4173 3.53035L52.1498 7.85838L51.3659 7.80992L51.5607 4.65781L48.72 7.64639L48.0014 7.60197Z" fill="#D25F15"/>
<path d="M57.1455 8.86469C55.8483 8.55515 55.1317 7.43368 55.4318 6.17628C55.7318 4.91888 56.8756 4.24974 58.1728 4.55928C58.9289 4.73968 59.4835 5.20008 59.6772 5.86875L59.007 6.10416C58.8352 5.62576 58.4669 5.33601 58.0054 5.22587C57.1777 5.02837 56.4183 5.4612 56.2037 6.36048C55.9853 7.27568 56.4694 7.9968 57.297 8.1943C57.7586 8.30444 58.218 8.21219 58.5873 7.86293L59.0809 8.36763C58.6062 8.87679 57.9015 9.04509 57.1455 8.86469Z" fill="#D25F15"/>
<path d="M64.0243 6.44227L63.7974 7.09101L62.2991 6.56704L61.0946 10.0115L60.3531 9.75223L61.5577 6.30776L60.0595 5.78379L60.2863 5.13505L64.0243 6.44227Z" fill="#D25F15"/>
<path d="M67.0358 7.78799C68.1785 8.33795 68.6284 9.53509 68.0536 10.7294C67.4753 11.9311 66.259 12.3264 65.1163 11.7764C64.5634 11.5103 64.1797 11.0623 64.0576 10.486L63.0854 12.506L62.3776 12.1654L64.9465 6.82783L65.6247 7.15426L65.3267 7.77353C65.853 7.49113 66.4608 7.51124 67.0358 7.78799ZM65.3554 11.1287C66.1073 11.4907 66.9376 11.2183 67.3385 10.3852C67.7359 9.55954 67.4308 8.74079 66.6788 8.37888C65.9342 8.02052 65.104 8.29286 64.7066 9.11856C64.3057 9.95163 64.6108 10.7704 65.3554 11.1287Z" fill="#D25F15"/>
<path d="M71.3463 10.2161C72.3449 10.8566 72.6004 11.7009 71.9598 12.6995L70.5463 14.9032L69.9196 14.5012L70.2288 14.0191C69.7964 14.2084 69.2664 14.1406 68.6948 13.7739C67.8684 13.2438 67.6277 12.4674 68.0341 11.8338C68.4096 11.2484 69.0976 11.0093 70.1857 11.7072L71.2325 12.3787L71.3164 12.2478C71.6742 11.69 71.5581 11.1587 70.9039 10.7391C70.47 10.4608 69.9321 10.3296 69.4951 10.3895L69.5377 9.71696C70.1109 9.6569 70.7609 9.84059 71.3463 10.2161ZM69.1319 13.335C69.6277 13.653 70.166 13.6776 70.6008 13.3635L70.9277 12.8539L69.9084 12.2001C69.2542 11.7804 68.9048 11.916 68.706 12.2259C68.4719 12.5909 68.6291 13.0125 69.1319 13.335Z" fill="#D25F15"/>
<path d="M71.5225 15.6031L74.2978 12.2712L74.9013 12.7739L73.7231 14.1884L75.6217 15.7698L76.7998 14.3553L77.4034 14.858L74.6281 18.1899L74.0246 17.6872L75.187 16.2916L73.2885 14.7102L72.126 16.1058L71.5225 15.6031Z" fill="#D25F15"/>
<path d="M79.6717 17.0958C80.4859 17.9587 80.5297 18.8397 79.6668 19.6538L77.7625 21.4505L77.2515 20.909L77.6681 20.516C77.2028 20.595 76.7049 20.4011 76.2389 19.9072C75.5651 19.1931 75.5192 18.3815 76.0667 17.8649C76.5726 17.3877 77.298 17.3219 78.1851 18.2622L79.0385 19.1668L79.1516 19.0601C79.6336 18.6053 79.6494 18.0617 79.116 17.4963C78.7623 17.1214 78.272 16.8641 77.8336 16.8166L78.0374 16.1743C78.6081 16.2546 79.1945 16.5899 79.6717 17.0958ZM76.7691 19.5869C77.1733 20.0154 77.6898 20.1693 78.1875 19.9697L78.6279 19.5542L77.7969 18.6734C77.2635 18.1081 76.8917 18.1551 76.6239 18.4078C76.3085 18.7054 76.3592 19.1525 76.7691 19.5869Z" fill="#D25F15"/>
<path d="M80.7164 25.282L80.1787 24.5705L80.7491 22.5705L78.6594 22.5601L78.1316 21.8616L80.9315 21.8891L81.6405 19.3125L82.1683 20.011L81.6417 21.9061L83.6037 21.9104L84.1217 22.5958L81.4445 22.5679L80.7164 25.282Z" fill="#D25F15"/>
<path d="M83.1266 29.6369C82.3227 28.0999 82.8183 26.3818 84.319 25.5969C85.8197 24.8119 87.5136 25.3848 88.3213 26.929C88.7308 27.712 88.819 28.5338 88.5397 29.2708L87.8365 29.0385C88.045 28.4308 87.9832 27.8537 87.6912 27.2955C87.0921 26.15 85.8219 25.7341 84.6982 26.3219C83.5745 26.9096 83.1917 28.1902 83.7908 29.3356C84.0828 29.8939 84.5288 30.27 85.1468 30.4453L84.9366 31.1555C84.1719 30.9645 83.5399 30.4271 83.1266 29.6369Z" fill="#D25F15"/>
<path d="M91.2068 34.2033L91.4739 34.9767L86.0607 36.8469L85.7936 36.0736L88.2063 35.24L87.1322 32.1313L84.7195 32.9649L84.4523 32.1916L89.8655 30.3213L90.1327 31.0946L87.805 31.8988L88.8791 35.0075L91.2068 34.2033Z" fill="#D25F15"/>
<path d="M92.7087 40.7193L92.0094 40.8526L91.4245 37.9659L86.5106 38.97L86.3498 38.1761L91.9629 37.0387L92.7087 40.7193Z" fill="#D25F15"/>
<path d="M93.0466 50.775C92.949 52.2609 92.1389 53.1096 90.8979 53.0281C89.657 52.9466 88.9649 51.9992 89.0625 50.5133L89.1553 49.1009L87.4245 48.9873L87.4781 48.1709L93.1929 48.5462L93.0466 50.775ZM89.7744 50.5355C89.7057 51.5805 90.1352 52.1581 90.9516 52.2117C91.768 52.2653 92.2693 51.7489 92.3379 50.7039L92.4291 49.316L89.8655 49.1476L89.7744 50.5355Z" fill="#D25F15"/>
<path d="M91.0276 55.866C90.8008 57.0305 90.1105 57.5796 88.946 57.3528L86.3761 56.8525L86.5184 56.1217L87.0806 56.2311C86.7451 55.8991 86.6125 55.3815 86.7423 54.7149C86.9299 53.7512 87.5627 53.2409 88.3016 53.3848C88.9842 53.5177 89.4604 54.0688 89.2133 55.3377L88.9756 56.5584L89.1282 56.5881C89.7787 56.7148 90.2297 56.4108 90.3782 55.6479C90.4767 55.1419 90.4001 54.5936 90.1831 54.2096L90.8239 54.0009C91.0913 54.5114 91.1605 55.1834 91.0276 55.866ZM87.3116 54.9591C87.199 55.5373 87.3749 56.0467 87.8272 56.3348L88.4215 56.4505L88.6529 55.262C88.8015 54.499 88.5465 54.2243 88.1851 54.154C87.7595 54.0711 87.4257 54.3729 87.3116 54.9591Z" fill="#D25F15"/>
<path d="M89.367 61.5061C88.9838 62.672 87.8916 63.2173 86.7102 62.8289C85.4977 62.4304 84.9599 61.289 85.3738 60.0299C85.8363 58.6231 87.1047 58.1702 88.838 58.7399C90.5402 59.2995 91.2377 60.2952 91.0811 61.8198L90.8825 63.8387L90.1628 63.7227L90.3594 61.8668C90.4788 60.7175 90.1164 60.0386 89.0693 59.6083C89.4829 60.1318 89.5944 60.8144 89.367 61.5061ZM85.9905 60.2498C85.7274 61.0504 86.1211 61.7913 86.9372 62.0596C87.7534 62.3278 88.4763 61.9626 88.742 61.1543C89.0077 60.3459 88.645 59.6152 87.8289 59.347C87.0128 59.0787 86.2511 59.457 85.9905 60.2498Z" fill="#D25F15"/>
<path d="M83.6231 64.4716C84.1785 63.2953 85.4233 62.8244 86.5922 63.3763C87.7612 63.9282 88.1811 65.1851 87.6257 66.3614C87.0702 67.5378 85.8364 68.0048 84.6675 67.4528C83.4985 66.9009 83.0677 65.648 83.6231 64.4716ZM84.2446 64.765C83.8883 65.5197 84.1703 66.3405 85.0063 66.7352C85.8423 67.1299 86.6479 66.8227 87.0042 66.068C87.3605 65.3134 87.0894 64.4887 86.2534 64.0939C85.4174 63.6992 84.6009 64.0104 84.2446 64.765Z" fill="#D25F15"/>
<path d="M84.2242 72.3357L83.639 71.9753L84.4713 70.6238L81.3642 68.7104L81.776 68.0416L84.8832 69.955L85.7155 68.6035L86.3006 68.9639L84.2242 72.3357Z" fill="#D25F15"/>
<path d="M82.7033 74.4469C81.9777 75.3855 81.1143 75.566 80.1757 74.8404L78.1043 73.2391L78.5597 72.6501L79.0128 73.0004C78.8622 72.5531 78.9762 72.031 79.3915 71.4938C79.992 70.717 80.7865 70.5453 81.3821 71.0057C81.9323 71.431 82.1102 72.1373 81.3196 73.16L80.559 74.1439L80.6819 74.239C81.2063 74.6443 81.7457 74.5753 82.2211 73.9603C82.5363 73.5525 82.7141 73.0282 82.6928 72.5876L83.359 72.689C83.3686 73.2652 83.1286 73.8967 82.7033 74.4469ZM79.7904 71.9676C79.4302 72.4337 79.3585 72.9678 79.6333 73.4284L80.1123 73.7987L80.8529 72.8407C81.3283 72.2257 81.2239 71.8658 80.9326 71.6406C80.5895 71.3754 80.1557 71.4951 79.7904 71.9676Z" fill="#D25F15"/>
<path d="M76.2129 78.3528C76.1661 78.307 76.1016 78.2325 76.0547 78.1751L78.5152 75.6605C77.9026 75.1985 77.1109 75.2824 76.5101 75.8964C76.1553 76.259 75.9806 76.6832 76.0089 77.1574L75.3431 77.1125C75.2902 76.5114 75.5325 75.9128 76.036 75.3982C77.0145 74.3982 78.3276 74.3781 79.2516 75.2822C80.1697 76.1805 80.184 77.4879 79.3085 78.3827C78.4331 79.2774 77.1661 79.2854 76.2129 78.3528ZM78.8348 77.9192C79.3613 77.3812 79.3878 76.6287 78.9187 76.0553L76.9732 78.0436C77.5509 78.4944 78.3027 78.4631 78.8348 77.9192Z" fill="#D25F15"/>
<path d="M73.3378 83.5141L72.7552 83.9644L70.1032 80.5337L70.6663 80.0984L72.6028 82.6034L72.2482 79.496L72.5201 79.2858L75.4301 80.4282L73.4886 77.9166L74.0582 77.4763L76.7103 80.907L76.0694 81.4024L72.9316 80.1259L73.3378 83.5141Z" fill="#D25F15"/>
<path d="M65.7814 85.5694C65.2047 85.7 64.8001 85.5032 64.5496 85.0156C64.2057 84.346 64.4987 83.6988 65.5249 83.1717L67.3807 82.2185L69.362 86.0757L67.5716 86.9953C66.6619 87.4626 65.9329 87.3863 65.6077 86.7532C65.3946 86.3383 65.4742 85.9203 65.7814 85.5694ZM68.4012 85.8885L67.8255 84.7677L66.7775 85.3061C66.2463 85.579 66.0634 85.9212 66.254 86.2924C66.4447 86.6636 66.822 86.6997 67.3532 86.4268L68.4012 85.8885ZM65.8524 83.6841C65.2775 83.9794 65.0688 84.3074 65.2707 84.7004C65.4763 85.1007 65.8282 85.159 66.4032 84.8637L67.5676 84.2656L66.9732 83.1084L65.8524 83.6841Z" fill="#D25F15"/>
<path d="M60.865 91.1958C59.4419 91.634 58.3602 91.1794 57.9942 89.9909C57.6282 88.8024 58.2669 87.8181 59.69 87.3799L61.0427 86.9634L60.5323 85.3056L61.3142 85.0649L62.9997 90.5384L60.865 91.1958ZM59.9229 88.053C58.922 88.3612 58.5354 88.9682 58.7762 89.7501C59.0169 90.5321 59.6781 90.8164 60.679 90.5082L62.0083 90.0989L61.2522 87.6436L59.9229 88.053Z" fill="#D25F15"/>
<path d="M56.2675 86.608L57.081 92.2771L52.8049 92.8907L52.7061 92.2023L56.1804 91.7038L55.948 90.0841L54.1825 90.3374C53.5076 90.4342 52.9745 90.3674 52.5833 90.137C52.1921 89.9066 51.9581 89.5242 51.8814 88.9897C51.8024 88.439 51.9333 87.9876 52.274 87.6357C52.6093 87.2845 53.1306 87.0581 53.8379 86.9567L56.2675 86.608ZM55.5576 87.3629L53.9621 87.5918C53.4924 87.6592 53.1515 87.799 52.9395 88.0113C52.7221 88.2243 52.6386 88.5063 52.689 88.8573C52.7866 89.5376 53.3105 89.8095 54.2608 89.6732L55.8562 89.4443L55.5576 87.3629Z" fill="#D25F15"/>
<path d="M47.0706 87.5047L46.7864 91.8317L46.0027 91.7802L46.2096 88.6289L43.3493 91.606L42.6391 91.5593L42.9233 87.2323L43.707 87.2838L43.5 90.4351L46.3522 87.4575L47.0706 87.5047Z" fill="#D25F15"/>
<path d="M38.042 86.2623C39.3392 86.5718 40.0558 87.6933 39.7557 88.9507C39.4557 90.2081 38.3119 90.8772 37.0147 90.5677C36.2586 90.3873 35.704 89.9269 35.5103 89.2582L36.1805 89.0228C36.3523 89.5012 36.7206 89.7909 37.1821 89.9011C38.0098 90.0986 38.7692 89.6658 38.9838 88.7665C39.2022 87.8513 38.7181 87.1302 37.8905 86.9327C37.4289 86.8225 36.9695 86.9148 36.6002 87.264L36.1066 86.7593C36.5813 86.2502 37.286 86.0819 38.042 86.2623Z" fill="#D25F15"/>
<path d="M31.2081 88.7135L31.435 88.0648L32.9333 88.5887L34.1379 85.1442L34.8793 85.4035L33.6747 88.848L35.173 89.372L34.9461 90.0207L31.2081 88.7135Z" fill="#D25F15"/>
<path d="M27.9583 87.2754C26.8177 86.7212 26.3723 85.5224 26.9515 84.3302C27.5343 83.1307 28.752 82.7399 29.8927 83.2941C30.4446 83.5623 30.8266 84.0117 30.9466 84.5884L31.9263 82.5721L32.6328 82.9153L30.0441 88.2433L29.3671 87.9143L29.6674 87.2962C29.14 87.5766 28.5324 87.5542 27.9583 87.2754ZM29.6512 83.9409C28.9006 83.5762 28.0694 83.8454 27.6653 84.677C27.2649 85.5012 27.5669 86.3211 28.3176 86.6858C29.0608 87.0469 29.8921 86.7777 30.2925 85.9534C30.6965 85.1219 30.3945 84.302 29.6512 83.9409Z" fill="#D25F15"/>
<path d="M23.7054 84.8736C22.7092 84.2294 22.4568 83.3842 23.101 82.388L24.5226 80.1894L25.1479 80.5937L24.8369 81.0746C25.27 80.887 25.7997 80.9567 26.37 81.3255C27.1944 81.8586 27.4323 82.6359 27.0235 83.268C26.6459 83.852 25.9571 84.0886 24.8715 83.3867L23.8272 82.7114L23.7428 82.8419C23.383 83.3984 23.4971 83.9302 24.1498 84.3522C24.5826 84.6321 25.12 84.7653 25.5572 84.7069L25.5122 85.3793C24.9388 85.4373 24.2894 85.2512 23.7054 84.8736ZM25.9313 81.7628C25.4366 81.4429 24.8984 81.4164 24.4625 81.7289L24.1338 82.2373L25.1506 82.8948C25.8033 83.3169 26.1532 83.1826 26.3531 82.8735C26.5885 82.5093 26.4328 82.0871 25.9313 81.7628Z" fill="#D25F15"/>
<path d="M23.6298 79.5671L20.8545 82.8989L20.251 82.3962L21.4292 80.9818L19.5307 79.4004L18.3525 80.8149L17.749 80.3122L20.5243 76.9803L21.1278 77.483L19.9653 78.8786L21.8638 80.46L23.0263 79.0644L23.6298 79.5671Z" fill="#D25F15"/>
<path d="M15.3487 77.9555C14.5377 77.0896 14.4971 76.2085 15.3629 75.3975L17.2738 73.6077L17.7827 74.1511L17.3648 74.5426C17.8304 74.4652 18.3275 74.6609 18.7918 75.1565C19.4629 75.8731 19.5058 76.6849 18.9565 77.1994C18.4489 77.6749 17.7233 77.7379 16.8396 76.7945L15.9894 75.8868L15.876 75.9931C15.3923 76.4461 15.3745 76.9897 15.9059 77.5569C16.2582 77.9331 16.7476 78.1922 17.1859 78.2413L16.9797 78.8829C16.4093 78.8005 15.8241 78.463 15.3487 77.9555ZM18.2604 75.4749C17.8577 75.0449 17.3418 74.8891 16.8434 75.087L16.4015 75.5009L17.2292 76.3847C17.7606 76.9519 18.1325 76.9062 18.4013 76.6545C18.7177 76.3581 18.6687 75.9108 18.2604 75.4749Z" fill="#D25F15"/>
<path d="M14.4262 69.9221L14.9639 70.6336L14.3935 72.6336L16.4832 72.644L17.011 73.3425L14.2111 73.315L13.5021 75.8916L12.9743 75.1931L13.5008 73.298L11.5388 73.2937L11.0209 72.6083L13.6981 72.6362L14.4262 69.9221Z" fill="#D25F15"/>
<path d="M11.9105 65.4019C12.7087 66.9418 12.2068 68.6581 10.7031 69.4375C9.19953 70.2169 7.50779 69.6377 6.70581 68.0905C6.29917 67.306 6.214 66.4839 6.49602 65.7479L7.19838 65.9829C6.98766 66.5897 7.04731 67.167 7.33723 67.7264C7.93213 68.874 9.20073 69.2947 10.3266 68.7111C11.4525 68.1275 11.8401 66.8484 11.2452 65.7007C10.9552 65.1414 10.5106 64.7636 9.89326 64.586L10.1061 63.8766C10.8701 64.0704 11.5001 64.6101 11.9105 65.4019Z" fill="#D25F15"/>
<path d="M3.87528 60.9414L3.6081 60.1681L9.0213 58.2979L9.28848 59.0712L6.87574 59.9048L7.94979 63.0135L10.3625 62.1799L10.6297 62.9532L5.21651 64.8235L4.94933 64.0502L7.27701 63.246L6.20295 60.1372L3.87528 60.9414Z" fill="#D25F15"/>
<path d="M2.36358 54.4228L3.06283 54.2895L3.6478 57.1762L8.56164 56.1721L8.7225 56.966L3.10942 58.1034L2.36358 54.4228Z" fill="#D25F15"/>
</svg>
