<svg width="231" height="139" viewBox="0 0 231 139" fill="none" xmlns="http://www.w3.org/2000/svg">
<path d="M18.9502 0.598633L21.2939 3.6748C16.46 7.1416 12.8955 10.584 10.6006 14.002C8.35449 17.4199 7.23145 20.374 7.23145 22.8643C7.23145 24.5244 7.81738 25.3545 8.98926 25.3545L9.72168 25.2812C10.8936 24.9883 11.8701 24.8418 12.6514 24.8418C14.7998 24.8418 16.6309 25.6475 18.1445 27.2588C19.707 28.8213 20.4883 30.7744 20.4883 33.1182C20.4883 35.7061 19.6582 37.9277 17.998 39.7832C16.3867 41.5898 14.5068 42.4932 12.3584 42.4932C9.2334 42.4932 6.47461 41.1748 4.08203 38.5381C1.68945 35.8525 0.493164 32.3857 0.493164 28.1377C0.493164 17.9326 6.64551 8.75293 18.9502 0.598633ZM48.9795 0.598633L51.3965 3.6748C46.5625 7.1416 42.998 10.584 40.7031 14.002C38.457 17.4199 37.334 20.374 37.334 22.8643C37.334 24.5244 37.8955 25.3545 39.0186 25.3545L39.751 25.2812C40.9717 24.9883 41.9482 24.8418 42.6807 24.8418C44.8779 24.8418 46.7334 25.6475 48.2471 27.2588C49.8096 28.8213 50.5908 30.7744 50.5908 33.1182C50.5908 35.7061 49.7607 37.9277 48.1006 39.7832C46.4404 41.5898 44.5605 42.4932 42.4609 42.4932C39.2871 42.4932 36.5039 41.1748 34.1113 38.5381C31.7676 35.8525 30.5957 32.3857 30.5957 28.1377C30.5957 17.9326 36.7236 8.75293 48.9795 0.598633ZM181.987 138.074L179.644 134.705C184.478 131.287 188.018 127.869 190.264 124.451C192.559 121.082 193.706 118.177 193.706 115.735C193.706 114.905 193.56 114.271 193.267 113.831C193.022 113.44 192.607 113.245 192.021 113.245L191.289 113.392C190.117 113.831 189.092 114.051 188.213 114.051C186.113 114.051 184.282 113.245 182.72 111.634C181.206 109.974 180.449 107.972 180.449 105.628C180.449 102.991 181.279 100.745 182.939 98.8896C184.6 97.0342 186.479 96.1064 188.579 96.1064C191.704 96.1064 194.463 97.4492 196.855 100.135C199.248 102.771 200.444 106.189 200.444 110.389C200.444 120.643 194.292 129.871 181.987 138.074ZM212.09 138.074L209.746 134.705C214.531 131.336 218.071 127.942 220.366 124.524C222.661 121.106 223.809 118.201 223.809 115.809C223.809 114.93 223.662 114.271 223.369 113.831C223.076 113.44 222.637 113.245 222.051 113.245L221.318 113.392C220.195 113.831 219.17 114.051 218.242 114.051C216.191 114.051 214.385 113.245 212.822 111.634C211.309 109.974 210.552 107.972 210.552 105.628C210.552 103.04 211.357 100.818 212.969 98.9629C214.629 97.1074 216.533 96.1797 218.682 96.1797C221.807 96.1797 224.565 97.498 226.958 100.135C229.351 102.771 230.547 106.189 230.547 110.389C230.547 115.369 229.131 120.105 226.299 124.598C223.516 129.139 218.779 133.631 212.09 138.074Z" fill="white"/>
</svg>
