<svg width="55" height="58" viewBox="0 0 55 58" fill="none" xmlns="http://www.w3.org/2000/svg">
<path d="M36 -5H36C38.6522 -5 41.1957 -4.05179 43.0711 -2.36397C44.9464 -0.676143 46 1.61304 46 3.99998V4C46 6.38695 44.9464 8.67613 43.0711 10.364C41.1957 12.0518 38.6522 13 36 13H26V4C26 1.61305 27.0536 -0.676133 28.9289 -2.36396C30.8043 -4.05179 33.3478 -5 36 -5V-5Z" stroke="#D25F15" stroke-linecap="round" stroke-linejoin="round"/>
<path d="M11 13L1 13C-1.65217 13 -4.1957 12.0518 -6.07107 10.364C-7.94643 8.67613 -9 6.38695 -9 4V3.99998C-9 1.61304 -7.94644 -0.676144 -6.07108 -2.36397C-4.19572 -4.05179 -1.65218 -5 0.999978 -5H1C3.65216 -5 6.1957 -4.05179 8.07107 -2.36396C9.94643 -0.676133 11 1.61305 11 4L11 13Z" stroke="#D25F15" stroke-linecap="round" stroke-linejoin="round"/>
<path d="M26 29H36C38.6522 29 41.1957 30.0009 43.0711 31.7825C44.9464 33.5641 46 35.9804 46 38.5V38.5C46 41.0196 44.9464 43.4359 43.0711 45.2175C41.1957 46.9991 38.6522 48 36 48H36C33.3478 48 30.8043 46.9991 28.9289 45.2175C27.0536 43.4359 26 41.0196 26 38.5V29Z" stroke="#D25F15" stroke-linecap="round" stroke-linejoin="round"/>
<path d="M1 48H0.999978C-1.65218 48 -4.19572 46.9991 -6.07108 45.2175C-7.94644 43.4359 -9 41.0196 -9 38.5V38.5C-9 35.9804 -7.94643 33.5641 -6.07107 31.7825C-4.1957 30.0009 -1.65217 29 1 29H11V38.5C11 41.0196 9.94643 43.4359 8.07107 45.2175C6.1957 46.9991 3.65216 48 1 48V48Z" stroke="#D25F15" stroke-linecap="round" stroke-linejoin="round"/>
<path d="M26 13H11V29H26V13Z" stroke="#D25F15" stroke-linecap="round" stroke-linejoin="round"/>
</svg>
