<svg width="55" height="58" viewBox="0 0 55 58" fill="none" xmlns="http://www.w3.org/2000/svg">
<path d="M19 -11L25.6395 6.26258C26.5701 8.68224 27.0354 9.89207 27.759 10.9097C28.4003 11.8116 29.1884 12.5997 30.0903 13.241C31.1079 13.9646 32.3178 14.4299 34.7374 15.3605L52 22L34.7374 28.6395C32.3178 29.5701 31.1079 30.0354 30.0903 30.759C29.1884 31.4003 28.4003 32.1884 27.759 33.0903C27.0354 34.1079 26.5701 35.3178 25.6395 37.7374L19 55L12.3605 37.7374C11.4299 35.3178 10.9646 34.1079 10.241 33.0903C9.59966 32.1884 8.81165 31.4003 7.90972 30.759C6.89207 30.0354 5.68224 29.5701 3.26258 28.6395L-14 22L3.26258 15.3605C5.68224 14.4299 6.89207 13.9646 7.90971 13.241C8.81164 12.5997 9.59966 11.8116 10.241 10.9097C10.9646 9.89207 11.4299 8.68224 12.3605 6.26258L19 -11Z" stroke="#D25F15" stroke-linecap="round" stroke-linejoin="round"/>
</svg>
