<svg width="31" height="31" viewBox="0 0 31 31" fill="none" xmlns="http://www.w3.org/2000/svg">
<path d="M20.5677 15.5423C23.2027 12.9073 23.2027 8.62364 20.5677 5.98864C19.2901 4.71106 17.5945 4.01122 15.7909 4.01122C13.9872 4.01122 12.2916 4.71576 11.014 5.98864C9.73647 7.26622 9.03662 8.96182 9.03662 10.7655C9.03662 12.5691 9.74117 14.2647 11.014 15.5423C11.6399 16.1715 12.3843 16.6703 13.2043 17.0097C14.0242 17.3492 14.9034 17.5225 15.7909 17.5197C17.5945 17.5197 19.2901 16.8152 20.5677 15.5423ZM15.7909 11.3573C14.6307 11.3573 13.6866 10.4132 13.6866 9.25303C13.6866 8.09288 14.6307 7.14879 15.7909 7.14879C16.951 7.14879 17.8951 8.09288 17.8951 9.25303C17.8904 10.4132 16.9463 11.3573 15.7909 11.3573ZM16.7913 12.1886L15.7862 13.5508L14.781 12.1886H16.7913ZM16.1995 16.6789V14.3774L17.8153 12.1886H18.0736C19.3418 12.1886 20.3751 13.1938 20.4362 14.4479C20.2953 14.6264 20.1497 14.7955 19.9853 14.9599C18.9744 15.9743 17.6285 16.5855 16.1995 16.6789ZM11.5965 6.56637C12.719 5.44379 14.208 4.82849 15.7909 4.82849C17.3784 4.82849 18.8674 5.44379 19.9853 6.56637C21.85 8.43106 22.2069 11.2305 21.0703 13.4615C20.6193 12.2403 19.4498 11.3667 18.0736 11.3667H17.8059C18.0928 11.0946 18.3212 10.7668 18.4771 10.4033C18.6329 10.0399 18.713 9.64848 18.7124 9.25303C18.7124 7.64197 17.4019 6.32682 15.7862 6.32682C14.1751 6.32682 12.86 7.63728 12.86 9.25303C12.86 10.0844 13.2075 10.8312 13.7665 11.3667H13.4987C12.1225 11.3667 10.953 12.2403 10.5021 13.4615C10.0793 12.6349 9.8492 11.7189 9.8492 10.7608C9.85859 9.17788 10.4739 7.68894 11.5965 6.56637ZM11.1409 14.4479C11.2066 13.1938 12.2353 12.1933 13.5034 12.1933H13.7618L15.3775 14.3821V16.6836C13.9497 16.585 12.6157 15.9885 11.5965 14.9645C11.4321 14.7955 11.2818 14.6264 11.1409 14.4479Z" fill="black"/>
<path d="M29.3655 21.6061L26.35 18.5906V2.81818C26.35 1.5547 25.3214 0.526062 24.0579 0.526062H6.10609C4.8426 0.526062 3.81396 1.5547 3.81396 2.81818V17.5995C3.81396 17.825 3.99715 18.0129 4.2273 18.0129C4.45745 18.0129 4.64063 17.8297 4.64063 17.5995V2.81818C4.64063 2.0103 5.29821 1.34803 6.11078 1.34803H24.0626C24.8705 1.34803 25.5328 2.00561 25.5328 2.81818V17.7686L24.8658 17.1017L25.0067 16.9608C25.1993 16.7682 25.3073 16.5145 25.3073 16.2421C25.3073 15.9697 25.1993 15.7161 25.0114 15.5235L23.7103 14.2224C24.18 13.1468 24.4337 11.9773 24.4337 10.7655C24.4337 8.45924 23.5365 6.28924 21.9067 4.6594C20.2768 3.02955 18.1068 2.13243 15.8006 2.13243C13.4944 2.13243 11.3244 3.02955 9.69457 4.6594C8.06472 6.28924 7.1676 8.45924 7.1676 10.7655C7.1676 13.0717 8.06472 15.2417 9.69457 16.8715C11.3244 18.5014 13.4944 19.3985 15.8006 19.3985C17.0125 19.3985 18.1773 19.1448 19.2576 18.6752L20.5587 19.9762C20.7559 20.1735 21.019 20.2721 21.2773 20.2721C21.5403 20.2721 21.7987 20.1735 21.9959 19.9762L22.1368 19.8353L25.5328 23.2312V28.1818C25.5328 28.9897 24.8752 29.652 24.0626 29.652H14.8096C14.5841 29.652 14.3962 29.8352 14.3962 30.0653C14.3962 30.2955 14.5794 30.4786 14.8096 30.4786H24.0626C25.3261 30.4786 26.3547 29.45 26.3547 28.1865V24.0532L26.6412 24.3397C27.017 24.7155 27.5102 24.9033 28.0081 24.9033C28.5012 24.9033 28.9944 24.7155 29.3749 24.3397C29.7325 23.9741 29.932 23.4824 29.9303 22.971C29.9285 22.4595 29.7256 21.9692 29.3655 21.6061ZM10.2676 16.2891C8.79275 14.8142 7.98018 12.8509 7.98018 10.7655C7.98018 8.68 8.79275 6.71667 10.2676 5.24182C11.7425 3.76227 13.7011 2.9497 15.7912 2.9497C17.8814 2.9497 19.84 3.76227 21.3149 5.23712C22.7897 6.71197 23.6023 8.6753 23.6023 10.7608C23.6023 11.9491 23.3299 13.0952 22.8273 14.1379C22.8273 14.1426 22.8226 14.1473 22.8226 14.152C22.4468 14.9317 21.9443 15.655 21.3149 16.2844C20.6855 16.9138 19.9621 17.4164 19.1825 17.7921C19.1778 17.7921 19.1731 17.7968 19.1684 17.7968C18.1155 18.3064 16.961 18.5714 15.7912 18.5718C14.7651 18.5769 13.7483 18.3777 12.7999 17.9858C11.8516 17.5939 10.9907 17.0171 10.2676 16.2891ZM21.127 19.3938L20.0185 18.2853C20.6949 17.9049 21.329 17.4305 21.8926 16.8668C22.4562 16.3032 22.9259 15.6691 23.3111 14.9927L24.4196 16.1012C24.4712 16.1529 24.4759 16.2092 24.4759 16.2421C24.4759 16.2703 24.4665 16.3314 24.4196 16.383L21.4041 19.3985C21.329 19.4689 21.2021 19.4689 21.127 19.3938ZM28.7831 23.7573C28.3509 24.1894 27.6464 24.1894 27.219 23.7573L22.7146 19.2529L24.2834 17.6841L25.6502 19.0509L28.7878 22.1885C29.2152 22.6206 29.2152 23.3252 28.7831 23.7573Z" fill="black"/>
<path d="M13.5647 20.8123H10.5117V19.5535C10.5117 19.1214 10.1594 18.7691 9.72732 18.7691H5.32156C4.88944 18.7691 4.53716 19.1214 4.53716 19.5535V20.8123H1.48413C1.25868 20.8123 1.0708 20.9955 1.0708 21.2256V25.6455C1.0708 25.8709 1.25398 26.0588 1.48413 26.0588H1.70959V30.0606C1.70959 30.2861 1.89277 30.4739 2.12292 30.4739H12.926C13.1514 30.4739 13.3393 30.2908 13.3393 30.0606V26.0541H13.5647C13.7902 26.0541 13.9781 25.8709 13.9781 25.6408V21.2209C13.9761 21.1123 13.9318 21.0088 13.8546 20.9325C13.7773 20.8561 13.6733 20.813 13.5647 20.8123ZM5.35913 19.5958H9.68504V20.8123H5.35913V19.5958ZM1.89277 21.6342H13.1514V25.2321H1.89277V21.6342ZM6.89035 26.0541H8.14913V27.0076H6.89035V26.0541ZM12.5126 29.652H2.53156V26.0541H6.06838V27.4162C6.06838 27.6417 6.25156 27.8296 6.48171 27.8296H8.56247C8.78792 27.8296 8.9758 27.6464 8.9758 27.4162V26.0541H12.5126V29.652ZM19.5393 22.8649H22.9822C23.2076 22.8649 23.3955 22.6817 23.3955 22.4515C23.3955 22.2214 23.2123 22.0382 22.9822 22.0382H19.5393C19.3138 22.0382 19.126 22.2214 19.126 22.4515C19.126 22.6817 19.3138 22.8649 19.5393 22.8649ZM19.5393 24.7061H22.9822C23.2076 24.7061 23.3955 24.5229 23.3955 24.2927C23.3955 24.0626 23.2123 23.8794 22.9822 23.8794H19.5393C19.3138 23.8794 19.126 24.0626 19.126 24.2927C19.126 24.5229 19.3138 24.7061 19.5393 24.7061ZM15.2087 26.5426H22.9775C23.2029 26.5426 23.3908 26.3594 23.3908 26.1292C23.3908 25.8991 23.2076 25.7159 22.9775 25.7159H15.2087C14.9832 25.7159 14.7953 25.8991 14.7953 26.1292C14.7953 26.3594 14.9832 26.5426 15.2087 26.5426ZM15.2087 28.3791H22.9775C23.2029 28.3791 23.3908 28.1959 23.3908 27.9658C23.3908 27.7356 23.2076 27.5524 22.9775 27.5524H15.2087C14.9832 27.5524 14.7953 27.7356 14.7953 27.9658C14.7953 28.1959 14.9832 28.3791 15.2087 28.3791ZM15.2087 25.1194H17.8813C18.1067 25.1194 18.2946 24.9362 18.2946 24.7061V22.0335C18.2946 21.808 18.1114 21.6202 17.8813 21.6202H15.2087C14.9832 21.6202 14.7953 21.8033 14.7953 22.0335V24.7061C14.8 24.9362 14.9832 25.1194 15.2087 25.1194ZM15.622 22.4515H17.4726V24.3021H15.622V22.4515Z" fill="black"/>
</svg>
