<svg width="33" height="33" viewBox="0 0 33 33" fill="none" xmlns="http://www.w3.org/2000/svg">
<g clip-path="url(#clip0_4343_18008)">
<path fill-rule="evenodd" clip-rule="evenodd" d="M4.73499 24.4985H1.25641C1.18376 24.4985 1.11193 24.4832 1.04559 24.4536C0.979242 24.4241 0.919866 24.3808 0.871321 24.3268C0.822775 24.2728 0.786148 24.2091 0.763822 24.14C0.741496 24.0709 0.73397 23.9978 0.741735 23.9256C1.22036 19.4686 4.43469 15.8303 8.67157 14.7259C6.91183 13.7632 5.71419 11.8928 5.71419 9.75221C5.71419 6.63332 8.25661 4.08812 11.3756 4.08812C14.4974 4.08812 17.0396 6.63339 17.0396 9.75221C17.0396 11.8929 15.8419 13.7634 14.0812 14.726C17.9513 15.7347 20.9671 18.8561 21.8245 22.7842H22.7634L23.7628 19.7086C23.8171 19.5415 23.9228 19.396 24.0649 19.2927C24.207 19.1895 24.3781 19.1339 24.5538 19.1339C24.7294 19.1339 24.9005 19.1895 25.0426 19.2927C25.1847 19.396 25.2905 19.5415 25.3447 19.7086L26.344 22.7842H29.578C29.7536 22.7842 29.9247 22.8398 30.0668 22.9431C30.2089 23.0463 30.3146 23.1919 30.3689 23.3589C30.4232 23.5259 30.4232 23.7058 30.3689 23.8729C30.3147 24.0399 30.2089 24.1855 30.0668 24.2887L27.4505 26.1896L28.4499 29.2653C28.5042 29.4323 28.5042 29.6123 28.4499 29.7793C28.3956 29.9464 28.2899 30.0919 28.1478 30.1952C28.0057 30.2984 27.8346 30.354 27.6589 30.354C27.4833 30.354 27.3122 30.2984 27.1701 30.1951L24.5538 28.2943L21.9374 30.1951C21.7954 30.2984 21.6242 30.354 21.4486 30.354C21.273 30.354 21.1018 30.2984 20.9597 30.1952C20.8177 30.0919 20.7119 29.9464 20.6576 29.7793C20.6033 29.6123 20.6033 29.4323 20.6576 29.2653L21.6569 26.1896L19.3293 24.4985H18.0161C18.0702 24.547 18.1135 24.6064 18.1431 24.6728C18.1727 24.7392 18.188 24.8111 18.188 24.8838V26.5871C18.188 26.6917 18.1563 26.7938 18.0971 26.8801C18.0379 26.9663 17.9539 27.0326 17.8563 27.0702L17.0606 27.3764C16.9382 27.7995 16.7689 28.2075 16.556 28.593L16.9018 29.3739C16.9442 29.4694 16.9566 29.5756 16.9375 29.6783C16.9183 29.7811 16.8685 29.8757 16.7946 29.9496L15.5905 31.1536C15.5166 31.2275 15.422 31.2773 15.3193 31.2965C15.2165 31.3156 15.1104 31.3032 15.0148 31.2609L14.2349 30.9154C13.8493 31.1288 13.4408 31.298 13.0173 31.4198L12.7111 32.2153C12.6735 32.313 12.6073 32.3969 12.521 32.4561C12.4348 32.5154 12.3326 32.5471 12.228 32.5471H10.5248C10.4202 32.5471 10.318 32.5154 10.2318 32.4561C10.1456 32.3969 10.0793 32.313 10.0417 32.2153L9.73553 31.4198C9.31182 31.2976 8.90313 31.1282 8.51712 30.915L7.73625 31.2609C7.64068 31.3032 7.53453 31.3156 7.43177 31.2965C7.32902 31.2773 7.23447 31.2275 7.16056 31.1536L5.95651 29.9496C5.88251 29.8756 5.83267 29.7809 5.81356 29.678C5.79445 29.5751 5.80698 29.4689 5.84949 29.3732C5.84949 29.3732 6.19618 28.5935 6.19625 28.5935C5.98298 28.208 5.81354 27.7998 5.69109 27.3766L4.89475 27.0702C4.79713 27.0326 4.71319 26.9663 4.65398 26.8801C4.59477 26.7938 4.56308 26.6917 4.56307 26.5871V24.8838C4.56307 24.7339 4.62765 24.5948 4.73499 24.4985ZM11.3756 15.4162C6.59121 15.4162 2.61911 18.896 1.85002 23.4632H5.91277C5.99636 23.2624 6.09104 23.0663 6.19638 22.876L5.84949 22.096C5.80698 22.0003 5.79445 21.8941 5.81356 21.7912C5.83267 21.6883 5.88251 21.5936 5.95651 21.5196L7.16056 20.3155C7.23456 20.2415 7.32924 20.1917 7.43213 20.1726C7.53502 20.1535 7.64127 20.166 7.73689 20.2086L8.51692 20.5554C8.90244 20.3422 9.31071 20.173 9.73404 20.0511L10.0418 19.2534C10.0795 19.1558 10.1458 19.072 10.232 19.0129C10.3182 18.9537 10.4203 18.9221 10.5248 18.9221H12.228C12.4422 18.9221 12.6344 19.0541 12.7112 19.2541L13.0175 20.0512C13.4407 20.1731 13.8488 20.3422 14.2341 20.5554L15.0142 20.2086C15.1098 20.166 15.216 20.1535 15.3189 20.1726C15.4218 20.1917 15.5165 20.2415 15.5905 20.3155L16.7946 21.5196C16.8685 21.5935 16.9183 21.6881 16.9375 21.7909C16.9566 21.8936 16.9442 21.9998 16.9018 22.0953L16.5562 22.8756C16.6616 23.066 16.7562 23.2622 16.8398 23.4632H18.7119C18.7476 23.2724 18.8488 23.1001 18.9981 22.9761C19.1474 22.8521 19.3354 22.7842 19.5295 22.7842H20.7621C19.734 18.5555 15.9221 15.4162 11.3756 15.4162ZM20.1562 23.8195L22.3852 25.439C22.5273 25.5422 22.6331 25.6878 22.6873 25.8548C22.7416 26.0219 22.7416 26.2018 22.6873 26.3688L21.8359 28.9892L24.0649 27.3697C24.207 27.2665 24.3781 27.2109 24.5538 27.2109C24.7294 27.2109 24.9005 27.2665 25.0426 27.3697L27.2716 28.9892L26.4202 26.3688C26.3659 26.2018 26.3659 26.0219 26.4202 25.8548C26.4745 25.6878 26.5802 25.5422 26.7223 25.439L28.9513 23.8195H26.1961C26.0205 23.8195 25.8494 23.7639 25.7073 23.6607C25.5652 23.5575 25.4594 23.4119 25.4052 23.2449L24.5538 20.6245L23.7024 23.2449C23.6481 23.4119 23.5423 23.5575 23.4002 23.6607C23.2581 23.7639 23.087 23.8195 22.9114 23.8195H20.1562ZM11.3756 14.3809C13.9267 14.3809 16.0043 12.301 16.0043 9.75221C16.0043 7.20345 13.9267 5.12341 11.3756 5.12341C8.82687 5.12341 6.74948 7.20351 6.74948 9.75221C6.74948 12.3008 8.82687 14.3809 11.3756 14.3809ZM12.1461 20.67L11.8724 19.9574H10.8799L10.6047 20.6707C10.5744 20.7491 10.5255 20.8189 10.4622 20.8742C10.3989 20.9295 10.3231 20.9685 10.2414 20.9879C9.73937 21.1072 9.25964 21.306 8.82039 21.5768C8.74875 21.6209 8.66743 21.6469 8.58347 21.6526C8.4995 21.6582 8.41543 21.6433 8.33853 21.6091L7.64119 21.299L6.93998 22.0003L7.25005 22.6976C7.28424 22.7745 7.29917 22.8586 7.29354 22.9425C7.28791 23.0265 7.2619 23.1078 7.21776 23.1795C6.9466 23.6197 6.74717 24.1003 6.62693 24.6032C6.60734 24.6848 6.56821 24.7605 6.51291 24.8236C6.45761 24.8867 6.3878 24.9354 6.30948 24.9656L5.59836 25.2392V26.2316L6.30948 26.5053C6.38774 26.5354 6.45751 26.5841 6.51279 26.6471C6.56806 26.7102 6.60719 26.7857 6.6268 26.8672C6.74774 27.3696 6.94599 27.8503 7.21731 28.289C7.26165 28.3607 7.28781 28.4421 7.29351 28.5262C7.29922 28.6103 7.2843 28.6945 7.25005 28.7715L6.93998 29.4689L7.64158 30.1705L8.33924 29.8615C8.41586 29.8276 8.49958 29.8127 8.5832 29.8183C8.66682 29.8238 8.74784 29.8496 8.81929 29.8934C9.25968 30.1632 9.73877 30.3634 10.2428 30.4829C10.3247 30.5023 10.4006 30.5414 10.464 30.5967C10.5274 30.6521 10.5763 30.7221 10.6065 30.8006L10.8802 31.5118H11.8726L12.1463 30.8006C12.1765 30.7222 12.2254 30.6522 12.2887 30.5968C12.352 30.5415 12.4278 30.5024 12.5097 30.4829C13.0115 30.3641 13.4911 30.1654 13.93 29.8945C14.0016 29.8502 14.0829 29.8241 14.1668 29.8183C14.2508 29.8126 14.3349 29.8274 14.4119 29.8615L15.1095 30.1705L15.8115 29.4685L15.5024 28.7709C15.4685 28.6943 15.4537 28.6106 15.4592 28.5269C15.4648 28.4433 15.4906 28.3623 15.5343 28.2908C15.8042 27.8504 16.0045 27.3712 16.1239 26.8687C16.1433 26.7869 16.1824 26.711 16.2378 26.6477C16.2931 26.5844 16.3631 26.5355 16.4416 26.5053L17.1527 26.2316V25.2392L16.4416 24.9656C16.363 24.9354 16.2931 24.8864 16.2377 24.823C16.1823 24.7596 16.1432 24.6837 16.1238 24.6018C16.0048 24.0993 15.8061 23.6191 15.5351 23.1795C15.491 23.1079 15.465 23.0267 15.4593 22.9429C15.4536 22.859 15.4684 22.7751 15.5024 22.6982L15.8115 22.0006L15.1099 21.299L14.4125 21.6091C14.3356 21.6433 14.2516 21.6582 14.1676 21.6526C14.0836 21.6469 14.0023 21.6209 13.9307 21.5768C13.4914 21.306 13.0117 21.1072 12.5097 20.9879C12.4278 20.9685 12.3519 20.9294 12.2886 20.8739C12.2252 20.8185 12.1763 20.7485 12.1461 20.67ZM11.3756 22.2462C13.303 22.2462 14.8657 23.8072 14.8657 25.7346C14.8657 27.6619 13.3028 29.2247 11.3756 29.2247C9.44817 29.2247 7.88714 27.662 7.88714 25.7346C7.88714 23.8071 9.44804 22.2462 11.3756 22.2462ZM11.3756 23.2815C10.0201 23.2815 8.92244 24.3791 8.92244 25.7346C8.92244 27.0901 10.02 28.1894 11.3756 28.1894C12.7312 28.1894 13.8304 27.0902 13.8304 25.7346C13.8304 24.379 12.7311 23.2815 11.3756 23.2815ZM30.9175 5.05191L28.0152 1.63279L25.1129 5.05191H26.1568C26.2941 5.05191 26.4258 5.10645 26.5229 5.20353C26.62 5.30061 26.6745 5.43227 26.6745 5.56956V14.7025C26.6745 14.9882 26.4426 15.2202 26.1568 15.2202C25.8712 15.2202 25.6392 14.9882 25.6392 14.7025V6.08721H24.5393C24.2289 6.08721 23.9682 5.9193 23.8396 5.63892C23.7116 5.3616 23.7528 5.05042 23.954 4.81735L27.4275 0.725289C27.5763 0.548318 27.7781 0.452942 28.0152 0.452942C28.2459 0.452942 28.4476 0.545018 28.5998 0.721665L28.6021 0.724448L32.0776 4.81878C32.2753 5.05107 32.317 5.36198 32.1892 5.63892C32.0602 5.92027 31.7976 6.08721 31.4911 6.08721H30.3896V11.8355C30.3896 12.1212 30.1576 12.3531 29.8719 12.3531C29.5862 12.3531 29.3543 12.1212 29.3543 11.8355V5.56956C29.3543 5.43227 29.4088 5.30061 29.5059 5.20353C29.603 5.10645 29.7346 5.05191 29.8719 5.05191H30.9175ZM29.3543 13.269C29.3543 12.9833 29.5862 12.7513 29.8719 12.7513C30.1576 12.7513 30.3896 12.9833 30.3896 13.269V14.7025C30.3896 14.9882 30.1576 15.2202 29.8719 15.2202C29.5862 15.2202 29.3543 14.9882 29.3543 14.7025V13.269ZM29.3543 16.136C29.3543 15.8504 29.5862 15.6184 29.8719 15.6184C30.1576 15.6184 30.3896 15.8504 30.3896 16.136V17.5343C30.3896 17.8199 30.1576 18.0519 29.8719 18.0519C29.5862 18.0519 29.3543 17.8199 29.3543 17.5343V16.136ZM26.6745 17.5343C26.6745 17.8199 26.4426 18.0519 26.1568 18.0519C25.8712 18.0519 25.6392 17.8199 25.6392 17.5343V16.136C25.6392 15.8504 25.8712 15.6184 26.1568 15.6184C26.4426 15.6184 26.6745 15.8504 26.6745 16.136V17.5343ZM23.4186 10.6613L21.0842 7.9112L18.7496 10.6613H19.4883C19.6255 10.6613 19.7572 10.7159 19.8543 10.8129C19.9514 10.91 20.0059 11.0417 20.0059 11.179V15.8651C20.0059 16.1508 19.7739 16.3828 19.4883 16.3828C19.2026 16.3828 18.9706 16.1508 18.9706 15.8651V11.6966H18.0992C17.8031 11.6966 17.5545 11.5365 17.4318 11.2691C17.3097 11.0046 17.3491 10.7078 17.5409 10.4855L20.5236 6.97167C20.6656 6.80292 20.858 6.71188 21.0842 6.71188C21.3041 6.71188 21.4965 6.79962 21.6415 6.96805L21.6439 6.97083L24.6285 10.4868C24.817 10.7084 24.857 11.005 24.7351 11.2691C24.612 11.5374 24.3615 11.6966 24.0692 11.6966H23.1963V18.9417C23.1963 19.2274 22.9643 19.4593 22.6786 19.4593C22.393 19.4593 22.161 19.2274 22.161 18.9417V11.179C22.161 11.0417 22.2155 10.91 22.3126 10.8129C22.4097 10.7159 22.5414 10.6613 22.6786 10.6613H23.4186Z" fill="#261104"/>
</g>
<defs>
<clipPath id="clip0_4343_18008">
<rect width="33" height="33" fill="white"/>
</clipPath>
</defs>
</svg>
