<svg width="27" height="27" viewBox="0 0 27 27" fill="none" xmlns="http://www.w3.org/2000/svg">
<g clip-path="url(#clip0_4346_18047)">
<path d="M26.9504 6.40247C26.9043 6.23133 26.8249 6.07094 26.7169 5.93047C26.6088 5.79 26.4741 5.67219 26.3205 5.58378C26.1668 5.49493 25.9971 5.43727 25.8211 5.41409C25.6451 5.39091 25.4662 5.40266 25.2948 5.44869C24.949 5.54175 24.6544 5.76832 24.4757 6.07858L24.2508 6.47001C24.148 6.41101 24.0261 6.39494 23.9115 6.4253C23.797 6.45566 23.699 6.52999 23.6389 6.63215L22.4961 8.5801L22.1047 8.35513C22.0534 8.32542 21.9966 8.30614 21.9378 8.29841C21.879 8.29068 21.8192 8.29465 21.7619 8.31009C21.7046 8.3256 21.651 8.35228 21.604 8.38857C21.557 8.42487 21.5177 8.47008 21.4882 8.52161C21.3663 8.73673 21.4405 9.01 21.6547 9.1335L22.0462 9.35846L18.2219 15.9858L17.277 18.51L16.8271 19.3512C16.6981 19.5755 16.6363 19.8322 16.6491 20.0907C16.6618 20.3492 16.7486 20.5985 16.8991 20.8091L15.8868 22.0507L15.6034 21.34C15.5408 21.1848 15.4361 21.0501 15.3011 20.9511C15.1661 20.852 15.0062 20.7927 14.8393 20.7796C14.6724 20.7665 14.5051 20.8001 14.3563 20.8769C14.2075 20.9536 14.0831 21.0703 13.997 21.2139L13.8351 21.4884L13.6822 19.6887C13.6651 19.4822 13.5773 19.2879 13.4336 19.1386C13.2899 18.9893 13.099 18.8941 12.8933 18.8692C12.6876 18.8444 12.4795 18.8913 12.3044 19.0021C12.1292 19.1129 11.9977 19.2807 11.9319 19.4773L10.8251 22.7977C10.788 22.9105 10.797 23.0334 10.8501 23.1396C10.9032 23.2458 10.9961 23.3267 11.1086 23.3647C11.1524 23.3852 11.1997 23.3973 11.2481 23.4005C11.3424 23.4008 11.4344 23.3714 11.5111 23.3165C11.5878 23.2617 11.6454 23.1841 11.6756 23.0947L12.7777 19.7743L12.9353 21.6009C12.951 21.7908 13.0267 21.9708 13.1513 22.1149C13.2759 22.2591 13.4431 22.3599 13.6287 22.403C13.8144 22.446 14.0089 22.4291 14.1842 22.3545C14.3596 22.2799 14.5067 22.1516 14.6045 21.988L14.771 21.7134L15.05 22.4199C15.1082 22.5662 15.2038 22.6948 15.3272 22.7926C15.4506 22.8904 15.5976 22.9541 15.7534 22.9773C15.9091 23.0005 16.0683 22.9825 16.2149 22.9249C16.3615 22.8673 16.4904 22.7723 16.5887 22.6492L17.637 21.3221C17.7531 21.3524 17.8725 21.3675 17.9925 21.3671C18.2294 21.3689 18.4627 21.3083 18.6689 21.1914C18.875 21.0745 19.0467 20.9054 19.1668 20.701L19.6167 19.9497L21.3309 17.8666L25.1957 11.1581L25.5871 11.3831C25.6388 11.4126 25.684 11.452 25.7203 11.4992C25.7566 11.5463 25.7832 11.6002 25.7985 11.6577C25.8139 11.7148 25.8179 11.7744 25.8102 11.8331C25.8025 11.8917 25.7833 11.9483 25.7537 11.9995L23.954 15.1176C23.9204 15.1682 23.8974 15.2252 23.8864 15.285C23.8754 15.3448 23.8767 15.4062 23.8902 15.4655C23.9036 15.5248 23.929 15.5807 23.9647 15.63C24.0004 15.6792 24.0457 15.7206 24.0979 15.7518C24.1492 15.7816 24.2059 15.801 24.2648 15.8088C24.3236 15.8165 24.3834 15.8126 24.4407 15.7971C24.4981 15.7817 24.5517 15.755 24.5987 15.7187C24.6456 15.6824 24.6849 15.6371 24.7143 15.5855L26.514 12.4675C26.6029 12.3138 26.6606 12.1441 26.6837 11.9681C26.7069 11.792 26.695 11.6132 26.6489 11.4417C26.5559 11.096 26.3293 10.8014 26.019 10.6227L25.6276 10.3978L26.7524 8.44962C26.8752 8.23579 26.8029 7.96297 26.5904 7.83772L26.8154 7.44629C26.9067 7.29022 26.9657 7.1174 26.9889 6.93808C27.012 6.75877 26.999 6.57662 26.9504 6.40247ZM25.2542 6.52845C25.2837 6.47681 25.3231 6.43153 25.3703 6.39525C25.4174 6.35896 25.4713 6.33238 25.5287 6.31704C25.6443 6.28845 25.7664 6.30454 25.8706 6.36209C25.9222 6.39159 25.9675 6.43103 26.0038 6.47813C26.0401 6.52522 26.0667 6.57904 26.0821 6.63648C26.1107 6.75203 26.0946 6.87412 26.0371 6.97831L25.8121 7.3698L25.0291 6.91988L25.2542 6.52845ZM19.1217 19.0904L18.8968 18.9599L18.2309 18.5728L18.8698 16.8632L20.287 17.6819L19.1217 19.0904ZM17.7719 20.3905C17.6802 20.3266 17.6156 20.2308 17.5907 20.1219C17.5657 20.0129 17.5823 19.8986 17.6371 19.8011L17.862 19.4098L18.6448 19.8597L18.4198 20.2466C18.3887 20.3007 18.3466 20.3477 18.2963 20.3846C18.246 20.4216 18.1885 20.4477 18.1276 20.4612C18.0667 20.4747 18.0036 20.4754 17.9424 20.4633C17.8811 20.4511 17.8231 20.4263 17.7719 20.3905ZM20.7999 16.9442L19.2432 16.0444L22.8426 9.80827L24.3993 10.7081L20.7999 16.9442ZM24.8492 9.92981L23.2925 9.02996L24.1923 7.47323L25.7491 8.37308L24.8492 9.92981ZM7.09965 20.1656L5.50715 21.754L4.5532 20.8C4.46889 20.7162 4.35485 20.6692 4.23598 20.6692C4.11711 20.6692 4.00307 20.7162 3.91875 20.8C3.87658 20.8418 3.8431 20.8916 3.82025 20.9464C3.79741 21.0012 3.78564 21.0601 3.78564 21.1195C3.78564 21.1789 3.79741 21.2377 3.82025 21.2925C3.8431 21.3473 3.87658 21.3971 3.91875 21.4389L4.87259 22.3927C5.04131 22.5602 5.26937 22.654 5.5071 22.6537C5.74612 22.655 5.97614 22.5612 6.14599 22.3927L7.7341 20.8C7.80776 20.7139 7.84623 20.6032 7.84183 20.49C7.83743 20.3768 7.79048 20.2694 7.71037 20.1893C7.63026 20.1092 7.52287 20.0622 7.40966 20.0578C7.29645 20.0534 7.18574 20.092 7.09965 20.1656Z" fill="black"/>
<path d="M1.7998 21.3759C1.7998 23.4882 3.51204 25.2003 5.62415 25.2003C7.73626 25.2003 9.4485 23.4882 9.4485 21.3759C9.4485 21.2566 9.4011 21.1421 9.31672 21.0578C9.23234 20.9734 9.1179 20.926 8.99858 20.926C8.87925 20.926 8.76481 20.9734 8.68043 21.0578C8.59605 21.1421 8.54865 21.2566 8.54865 21.3759C8.54865 22.991 7.23932 24.3004 5.62415 24.3004C4.00898 24.3004 2.69965 22.991 2.69965 21.3759C2.69965 19.7608 4.00898 18.4514 5.62415 18.4514C6.25723 18.4496 6.87351 18.655 7.37885 19.0364C7.42611 19.0718 7.47989 19.0976 7.53712 19.1123C7.59435 19.1269 7.65391 19.1302 7.7124 19.1218C7.77088 19.1135 7.82714 19.0937 7.87797 19.0635C7.9288 19.0334 7.9732 18.9936 8.00863 18.9463C8.04411 18.8991 8.06994 18.8453 8.08463 18.7881C8.09931 18.7308 8.10258 18.6713 8.09424 18.6128C8.0859 18.5543 8.06611 18.498 8.03601 18.4471C8.00591 18.3963 7.96609 18.3519 7.91882 18.3164C7.35064 17.8903 6.67502 17.6308 5.96766 17.567C5.26029 17.5032 4.54914 17.6376 3.91389 17.9552C3.27864 18.2729 2.74438 18.7611 2.37098 19.3653C1.99759 19.9694 1.79981 20.6656 1.7998 21.3759V21.3759ZM16.1973 3.60395C16.3167 3.60395 16.4311 3.55655 16.5155 3.47217C16.5999 3.38779 16.6473 3.27335 16.6473 3.15402C16.6473 3.0347 16.5999 2.92026 16.5155 2.83588C16.4311 2.7515 16.3167 2.7041 16.1973 2.7041H4.49934C4.38002 2.7041 4.26558 2.7515 4.1812 2.83588C4.09682 2.92026 4.04942 3.0347 4.04942 3.15402V4.95372C4.04942 5.2023 4.25087 5.40364 4.49934 5.40364H16.1973C16.3167 5.40364 16.4311 5.35624 16.5155 5.27186C16.5999 5.18748 16.6473 5.07304 16.6473 4.95372C16.6473 4.83439 16.5999 4.71995 16.5155 4.63557C16.4311 4.5512 16.3167 4.50379 16.1973 4.50379H4.94927V3.60395H16.1973ZM5.84911 6.30349C5.72979 6.30349 5.61535 6.35089 5.53097 6.43527C5.44659 6.51964 5.39919 6.63408 5.39919 6.75341C5.39919 6.87274 5.44659 6.98718 5.53097 7.07155C5.61535 7.15593 5.72979 7.20333 5.84911 7.20333H14.8476C14.9669 7.20333 15.0813 7.15593 15.1657 7.07155C15.2501 6.98718 15.2975 6.87274 15.2975 6.75341C15.2975 6.63408 15.2501 6.51964 15.1657 6.43527C15.0813 6.35089 14.9669 6.30349 14.8476 6.30349H5.84911ZM17.5471 9.45295H7.64881C7.52948 9.45295 7.41504 9.50035 7.33066 9.58473C7.24628 9.66911 7.19888 9.78354 7.19888 9.90287C7.19888 10.0222 7.24628 10.1366 7.33066 10.221C7.41504 10.3054 7.52948 10.3528 7.64881 10.3528H17.5471C17.6664 10.3528 17.7809 10.3054 17.8653 10.221C17.9496 10.1366 17.997 10.0222 17.997 9.90287C17.997 9.78354 17.9496 9.66911 17.8653 9.58473C17.7809 9.50035 17.6664 9.45295 17.5471 9.45295ZM13.0479 12.6024C13.0479 12.4831 13.0005 12.3686 12.9161 12.2843C12.8317 12.1999 12.7173 12.1525 12.598 12.1525H3.5995C3.48017 12.1525 3.36573 12.1999 3.28135 12.2843C3.19698 12.3686 3.14957 12.4831 3.14957 12.6024C3.14957 12.7217 3.19698 12.8362 3.28135 12.9206C3.36573 13.0049 3.48017 13.0523 3.5995 13.0523H12.598C12.8464 13.0523 13.0479 12.851 13.0479 12.6024ZM17.5471 12.1525H14.3977C14.2783 12.1525 14.1639 12.1999 14.0795 12.2843C13.9951 12.3686 13.9477 12.4831 13.9477 12.6024C13.9477 12.7217 13.9951 12.8362 14.0795 12.9206C14.1639 13.0049 14.2783 13.0523 14.3977 13.0523H17.5471C17.6664 13.0523 17.7809 13.0049 17.8653 12.9206C17.9496 12.8362 17.997 12.7217 17.997 12.6024C17.997 12.4831 17.9496 12.3686 17.8653 12.2843C17.7809 12.1999 17.6664 12.1525 17.5471 12.1525ZM8.09873 15.3019C8.21806 15.3019 8.3325 15.2545 8.41687 15.1702C8.50125 15.0858 8.54865 14.9714 8.54865 14.852C8.54865 14.7327 8.50125 14.6183 8.41687 14.5339C8.3325 14.4495 8.21806 14.4021 8.09873 14.4021H3.5995C3.48017 14.4021 3.36573 14.4495 3.28135 14.5339C3.19698 14.6183 3.14957 14.7327 3.14957 14.852C3.14957 14.9714 3.19698 15.0858 3.28135 15.1702C3.36573 15.2545 3.48017 15.3019 3.5995 15.3019H8.09873ZM9.89842 15.3019H13.0479C13.1672 15.3019 13.2817 15.2545 13.366 15.1702C13.4504 15.0858 13.4978 14.9714 13.4978 14.852C13.4978 14.7327 13.4504 14.6183 13.366 14.5339C13.2817 14.4495 13.1672 14.4021 13.0479 14.4021H9.89842C9.77909 14.4021 9.66465 14.4495 9.58028 14.5339C9.4959 14.6183 9.4485 14.7327 9.4485 14.852C9.4485 14.9714 9.4959 15.0858 9.58028 15.1702C9.66465 15.2545 9.77909 15.3019 9.89842 15.3019Z" fill="black"/>
<path d="M20.2465 20.701C20.1272 20.701 20.0128 20.7484 19.9284 20.8328C19.844 20.9172 19.7966 21.0316 19.7966 21.1509V25.6502C19.7966 25.8988 19.5952 26.1001 19.3467 26.1001H1.34977C1.1013 26.1001 0.899846 25.8988 0.899846 25.6502V1.35433C0.899846 1.235 0.947249 1.12057 1.03163 1.03619C1.116 0.951811 1.23044 0.904409 1.34977 0.904409H19.3467C19.466 0.904409 19.5805 0.951811 19.6648 1.03619C19.7492 1.12057 19.7966 1.235 19.7966 1.35433V9.80389C19.7966 9.92322 19.844 10.0377 19.9284 10.122C20.0128 10.2064 20.1272 10.2538 20.2465 10.2538C20.3659 10.2538 20.4803 10.2064 20.5647 10.122C20.6491 10.0377 20.6965 9.92322 20.6965 9.80389V1.35433C20.6965 0.608922 20.0921 0.00456238 19.3467 0.00456238H1.34977C0.604359 0.00456238 0 0.608922 0 1.35433V25.6502C0 26.3958 0.604359 27 1.34977 27H19.3467C20.0921 27 20.6965 26.3958 20.6965 25.6502V21.1509C20.6965 21.0316 20.6491 20.9172 20.5647 20.8328C20.4803 20.7484 20.3659 20.701 20.2465 20.701Z" fill="black"/>
</g>
<defs>
<clipPath id="clip0_4346_18047">
<rect width="27" height="27" fill="white"/>
</clipPath>
</defs>
</svg>
