<svg width="32" height="32" viewBox="0 0 32 32" fill="none" xmlns="http://www.w3.org/2000/svg">
<path d="M29.3392 16.7282H24.8495V15.0545C24.8495 14.3898 24.3065 13.8516 23.6422 13.8516H21.2815V7.55782C21.2815 7.49619 21.2691 7.43519 21.2451 7.37846C21.221 7.32173 21.1857 7.27044 21.1414 7.22764L14.8287 1.2H14.8243C14.7822 1.16327 14.735 1.13289 14.6842 1.10982C14.6296 1.08795 14.5713 1.07707 14.5125 1.07782H3.05412C2.53006 1.07833 2.02762 1.28677 1.6571 1.65738C1.28658 2.02799 1.07827 2.53049 1.07788 3.05454V24.3661C1.07878 24.8895 1.28752 25.3912 1.6582 25.7608C2.02888 26.1304 2.53116 26.3376 3.05461 26.337H12.8626V29.3391C12.8626 30.2119 13.5724 30.9222 14.4452 30.9222H28.2085C29.0813 30.9222 29.7911 30.2119 29.7911 29.3391V23.4158C30.1173 23.3197 30.4037 23.1207 30.6074 22.8485C30.8112 22.5763 30.9215 22.2455 30.9218 21.9055V18.3108C30.9218 17.4381 30.2124 16.7282 29.3392 16.7282ZM30.018 18.3108V21.9055C30.018 22.2764 29.715 22.5794 29.3392 22.5794H23.0633V21.7925C23.0635 21.6151 23.0243 21.4399 22.9484 21.2795C22.8725 21.1192 22.7619 20.9777 22.6245 20.8655C22.5702 20.8247 22.5159 20.784 22.4573 20.7481L22.3215 20.6802L22.2129 20.6395C22.0975 20.6029 21.9771 20.5846 21.8561 20.5852H20.7933C20.6711 20.5852 20.5538 20.6031 20.4403 20.6395L20.3322 20.6802L20.1964 20.7481C20.1378 20.784 20.0835 20.8247 20.0292 20.8655C19.8918 20.9777 19.7812 21.1192 19.7053 21.2795C19.6294 21.4399 19.5902 21.6151 19.5904 21.7925V22.5794H13.3092C13.1302 22.579 12.9586 22.508 12.8316 22.3818C12.7047 22.2556 12.6327 22.0844 12.6313 21.9055V18.3108C12.6313 18.1207 12.7084 17.9535 12.8301 17.8313C12.9579 17.705 13.13 17.6336 13.3096 17.6325H29.3392C29.715 17.6325 30.018 17.9355 30.018 18.3108ZM20.4946 23.0313V21.7925C20.4946 21.711 20.5266 21.6388 20.5809 21.584C20.6372 21.5273 20.7134 21.495 20.7933 21.4938H21.8561C21.936 21.4951 22.0122 21.5276 22.0684 21.5845C22.0973 21.6108 22.1202 21.643 22.1358 21.6788C22.1513 21.7147 22.1591 21.7534 22.1586 21.7925V24.0485C22.1591 24.0876 22.1513 24.1263 22.1358 24.1621C22.1202 24.198 22.0973 24.2301 22.0684 24.2565C22.0592 24.2701 22.0413 24.2836 22.0233 24.2972C21.9736 24.3297 21.9155 24.3469 21.8561 24.3467H20.7933C20.734 24.3463 20.676 24.3291 20.626 24.2972C20.6076 24.2836 20.5945 24.2701 20.5809 24.2565C20.5533 24.2292 20.5315 24.1968 20.5167 24.161C20.5019 24.1252 20.4944 24.0867 20.4946 24.048V23.0313ZM23.9448 15.055V16.7278H18.7084V15.055C18.7079 14.9755 18.7389 14.8989 18.7947 14.8422C18.8516 14.7869 18.9278 14.7561 19.0071 14.7564H23.6422C23.809 14.7564 23.9448 14.8873 23.9448 15.055ZM19.4279 6.84315L19.7043 7.10545H16.0369C15.7536 7.10392 15.4824 6.99039 15.2825 6.78965C15.0826 6.58891 14.9701 6.31725 14.9698 6.03394V2.58812L19.4279 6.84315ZM3.05461 25.4322C2.77138 25.4319 2.49979 25.3195 2.29906 25.1197C2.09834 24.9199 1.98476 24.6488 1.98309 24.3656V3.05406C1.98309 2.46157 2.46649 1.98254 3.05461 1.98254H14.0655V6.03394C14.0659 6.55707 14.2736 7.05873 14.6431 7.42905C15.0126 7.79936 15.5138 8.00816 16.0369 8.0097H20.3778V13.8473H19.0076C18.3433 13.8473 17.8003 14.3903 17.8003 15.0502V16.7234H13.3092C13.0376 16.7234 12.7802 16.7913 12.5586 16.9178C12.4244 16.9929 12.3011 17.0858 12.1921 17.1942C12.1198 17.2616 12.0519 17.343 11.9981 17.4288C11.821 17.6888 11.7263 17.9962 11.7266 18.3108V21.9147C11.7266 21.9641 11.7315 22.0184 11.7353 22.0684L11.7489 22.177C11.7581 22.2128 11.7625 22.2492 11.7761 22.2851C11.8439 22.5794 12.0025 22.8417 12.2149 23.0448C12.2735 23.0991 12.337 23.1535 12.4049 23.2034C12.4544 23.2349 12.5087 23.2664 12.5673 23.2984C12.6037 23.3164 12.6401 23.3391 12.6808 23.3566C12.7302 23.375 12.7845 23.3978 12.8389 23.4114C12.8481 23.4158 12.8524 23.4158 12.8616 23.4201V25.4322H3.05364H3.05461ZM28.8873 29.3391C28.8861 29.5186 28.8143 29.6904 28.6875 29.8174C28.5607 29.9444 28.389 30.0164 28.2095 30.0179H14.4437C14.264 30.0173 14.0918 29.9455 13.9648 29.8184C13.8378 29.6912 13.7663 29.5189 13.7659 29.3391V23.4836H15.9584V26.5644C15.9584 26.6843 16.006 26.7993 16.0908 26.8841C16.1756 26.9688 16.2906 27.0165 16.4105 27.0165C16.5304 27.0165 16.6454 26.9688 16.7302 26.8841C16.815 26.7993 16.8626 26.6843 16.8626 26.5644V23.4836H19.5899V24.049C19.5899 24.3679 19.7166 24.6737 19.9421 24.8992C20.1676 25.1247 20.4734 25.2514 20.7923 25.2514H21.8556C22.5198 25.2514 23.0629 24.7132 23.0629 24.049V23.4836H25.7877V26.5644C25.7877 26.6843 25.8354 26.7994 25.9202 26.8842C26.005 26.9691 26.1201 27.0167 26.2401 27.0167C26.36 27.0167 26.4751 26.9691 26.5599 26.8842C26.6448 26.7994 26.6924 26.6843 26.6924 26.5644V23.4836H28.8869V29.3391H28.8873Z" fill="black"/>
<path d="M4.59152 10.5018C5.01319 11.0293 5.54866 11.4545 6.15789 11.7458C6.76712 12.037 7.43432 12.1868 8.10958 12.1838C8.89954 12.1861 9.67617 11.9803 10.3612 11.5869C10.5285 11.4919 10.6914 11.3881 10.8451 11.2655H10.8499C11.0032 11.1438 11.1481 11.0167 11.2839 10.8815C11.4061 10.7636 11.519 10.6371 11.6276 10.5013C11.6858 10.4427 11.7314 10.384 11.7634 10.3341C12.3295 9.55999 12.6335 8.62538 12.6313 7.66642C12.6313 5.17042 10.6056 3.14424 8.10958 3.14424C5.61746 3.14424 3.5874 5.17042 3.5874 7.66642C3.5874 8.6337 3.89043 9.55636 4.44655 10.3161C4.49649 10.3888 4.5508 10.4567 4.59152 10.5018ZM8.10958 4.04848C9.06884 4.04913 9.9886 4.43054 10.6668 5.10892C11.345 5.78731 11.7262 6.70717 11.7266 7.66642C11.7266 8.31757 11.5549 8.94157 11.2247 9.50206C10.7419 9.03578 10.1588 8.68617 9.52001 8.48C9.54716 8.45285 9.56074 8.43054 9.56995 8.41697C9.79784 8.108 9.91993 7.73373 9.91807 7.34982C9.91807 6.87018 9.72753 6.41018 9.38838 6.07103C9.04922 5.73187 8.58922 5.54133 8.10958 5.54133C7.62994 5.54133 7.16995 5.73187 6.83079 6.07103C6.49164 6.41018 6.3011 6.87018 6.3011 7.34982C6.3011 7.7343 6.4228 8.10473 6.63564 8.39903C6.66231 8.43491 6.68946 8.46691 6.70352 8.48C6.06279 8.68499 5.47783 9.0347 4.99395 9.50206C4.66303 8.94712 4.48955 8.31253 4.49213 7.66642C4.49264 6.70726 4.87387 5.78751 5.55205 5.10924C6.23024 4.43096 7.14993 4.04961 8.1091 4.04897L8.10958 4.04848ZM7.69795 11.2567C7.61324 11.2471 7.52884 11.235 7.44486 11.2204C7.40413 11.2112 7.3634 11.2024 7.32704 11.1932C7.25209 11.1799 7.17807 11.1618 7.10546 11.1389C7.06474 11.1302 7.02886 11.1166 6.99249 11.103C6.90198 11.0761 6.81297 11.0444 6.72583 11.008C6.72583 11.008 6.72098 11.008 6.71661 11.0032C6.62643 10.9629 6.5314 10.9222 6.4451 10.8771C6.3492 10.8272 6.25568 10.7728 6.16486 10.7142C6.11543 10.6867 6.06854 10.6549 6.02474 10.6192C5.9123 10.5436 5.8064 10.4588 5.70813 10.3656C5.65419 10.3237 5.60435 10.2768 5.55928 10.2255C5.55443 10.2211 5.55443 10.2167 5.55443 10.2167C5.88884 9.87964 6.28697 9.61245 6.72565 9.43074C7.16432 9.24903 7.63477 9.15642 8.10958 9.1583C9.07686 9.1583 9.9908 9.53842 10.6686 10.2211C10.6105 10.2792 10.5502 10.335 10.4878 10.3884C10.447 10.4247 10.4063 10.4611 10.3617 10.497C10.2972 10.5477 10.2307 10.5959 10.1624 10.6415C10.1239 10.6717 10.083 10.6989 10.0403 10.7229C9.97722 10.7636 9.9137 10.8044 9.84583 10.8359C9.80615 10.8629 9.76373 10.8856 9.71928 10.9038C9.63845 10.9445 9.55542 10.9808 9.47055 11.0124C9.39405 11.0473 9.31553 11.0775 9.2354 11.103C9.19468 11.1166 9.15395 11.1302 9.10886 11.1389C9.04476 11.1582 8.9799 11.1749 8.91443 11.1888C8.86672 11.202 8.81832 11.2125 8.76946 11.2204C8.68548 11.235 8.60108 11.2471 8.51637 11.2567C8.49843 11.2567 8.48001 11.2611 8.46207 11.2611C8.34502 11.2738 8.22733 11.2798 8.10958 11.279C7.9874 11.279 7.86958 11.2747 7.75225 11.2611C7.73431 11.2611 7.71589 11.2567 7.69795 11.2567ZM8.81504 7.91515C8.4708 8.34473 7.74789 8.33988 7.40898 7.91515C7.40413 7.9103 7.38571 7.888 7.38134 7.88315C7.26833 7.72813 7.20662 7.54165 7.20486 7.34982C7.20486 6.848 7.61213 6.44557 8.10958 6.44557C8.6114 6.44557 9.01383 6.848 9.01383 7.34982C9.01383 7.53988 8.95516 7.72509 8.81504 7.91515ZM3.58934 14.207C3.58934 14.4567 3.79152 14.6594 4.04122 14.6594H14.9644C15.0238 14.6594 15.0826 14.6477 15.1375 14.625C15.1924 14.6022 15.2422 14.5689 15.2842 14.5269C15.3262 14.4849 15.3596 14.435 15.3823 14.3801C15.405 14.3253 15.4167 14.2664 15.4167 14.207C15.4167 14.1476 15.405 14.0888 15.3823 14.0339C15.3596 13.979 15.3262 13.9292 15.2842 13.8872C15.2422 13.8452 15.1924 13.8118 15.1375 13.7891C15.0826 13.7664 15.0238 13.7547 14.9644 13.7547H4.04122C3.98184 13.7547 3.92304 13.7664 3.86818 13.7891C3.81333 13.8118 3.76349 13.8452 3.72152 13.8872C3.67956 13.9292 3.64628 13.9791 3.6236 14.034C3.60092 14.0888 3.58928 14.1476 3.58934 14.207ZM9.46765 16.7341H4.04122C3.92125 16.7341 3.80619 16.7817 3.72135 16.8666C3.63652 16.9514 3.58886 17.0664 3.58886 17.1864C3.58886 17.3064 3.63652 17.4215 3.72135 17.5063C3.80619 17.5911 3.92125 17.6388 4.04122 17.6388H9.46765C9.58762 17.6388 9.70268 17.5911 9.78751 17.5063C9.87235 17.4215 9.92001 17.3064 9.92001 17.1864C9.92001 17.0664 9.87235 16.9514 9.78751 16.8666C9.70268 16.7817 9.58762 16.7341 9.46765 16.7341ZM9.46765 19.7139H4.04122C3.92131 19.7139 3.80631 19.7616 3.72152 19.8464C3.63673 19.9312 3.5891 20.0461 3.5891 20.1661C3.5891 20.286 3.63673 20.401 3.72152 20.4858C3.80631 20.5705 3.92131 20.6182 4.04122 20.6182H9.46765C9.58762 20.6182 9.70268 20.5705 9.78751 20.4857C9.87235 20.4009 9.92001 20.2858 9.92001 20.1658C9.92001 20.0458 9.87235 19.9308 9.78751 19.8459C9.70268 19.7611 9.58762 19.7139 9.46765 19.7139ZM9.46765 22.6933H4.04122C3.92131 22.6933 3.80631 22.741 3.72152 22.8258C3.63673 22.9105 3.5891 23.0255 3.5891 23.1455C3.5891 23.2654 3.63673 23.3804 3.72152 23.4652C3.80631 23.5499 3.92131 23.5976 4.04122 23.5976H9.46765C9.58755 23.5976 9.70255 23.5499 9.78734 23.4652C9.87213 23.3804 9.91977 23.2654 9.91977 23.1455C9.91977 23.0255 9.87213 22.9105 9.78734 22.8258C9.70255 22.741 9.58755 22.6933 9.46765 22.6933Z" fill="black"/>
</svg>
