<svg width="20" height="24" viewBox="0 0 20 24" fill="none" xmlns="http://www.w3.org/2000/svg">
<path d="M17.6172 18.2734H9.41406L4.72656 21.7891V18.2734H2.38281C2.07202 18.2734 1.77394 18.15 1.55417 17.9302C1.3344 17.7105 1.21094 17.4123 1.21094 17.1016V5.38281C1.21094 5.07202 1.3344 4.77394 1.55417 4.55417C1.77394 4.3344 2.07202 4.21094 2.38281 4.21094H17.6172C17.928 4.21094 18.2261 4.3344 18.4459 4.55417C18.6656 4.77394 18.7891 5.07202 18.7891 5.38281V17.1016C18.7891 17.4123 18.6656 17.7105 18.4459 17.9302C18.2261 18.15 17.928 18.2734 17.6172 18.2734Z" stroke="#D25F15" stroke-linecap="round" stroke-linejoin="round"/>
<path d="M10 11.5391C9.8382 11.5391 9.70703 11.4079 9.70703 11.2461C9.70703 11.0843 9.8382 10.9531 10 10.9531" stroke="#D25F15"/>
<path d="M10 11.5391C10.1618 11.5391 10.293 11.4079 10.293 11.2461C10.293 11.0843 10.1618 10.9531 10 10.9531" stroke="#D25F15"/>
<path d="M6.48438 11.5391C6.32257 11.5391 6.19141 11.4079 6.19141 11.2461C6.19141 11.0843 6.32257 10.9531 6.48438 10.9531" stroke="#D25F15"/>
<path d="M6.48438 11.5391C6.64618 11.5391 6.77734 11.4079 6.77734 11.2461C6.77734 11.0843 6.64618 10.9531 6.48438 10.9531" stroke="#D25F15"/>
<path d="M13.5156 11.5391C13.3538 11.5391 13.2227 11.4079 13.2227 11.2461C13.2227 11.0843 13.3538 10.9531 13.5156 10.9531" stroke="#D25F15"/>
<path d="M13.5156 11.5391C13.6774 11.5391 13.8086 11.4079 13.8086 11.2461C13.8086 11.0843 13.6774 10.9531 13.5156 10.9531" stroke="#D25F15"/>
</svg>
