<svg width="90" height="90" viewBox="0 0 90 90" fill="none" xmlns="http://www.w3.org/2000/svg">
<circle cx="45" cy="45" r="44.5" stroke="#D25F15"/>
<path d="M48.3337 28.7822V35.6665C48.3337 36.5999 48.3337 37.0666 48.5153 37.4231C48.6751 37.7367 48.9301 37.9917 49.2437 38.1515C49.6002 38.3331 50.0669 38.3331 51.0003 38.3331H57.8846M51.667 46.6663H38.3337M51.667 53.333H38.3337M41.667 39.9997H38.3337M48.3337 28.333H39.667C36.8667 28.333 35.4666 28.333 34.397 28.878C33.4562 29.3573 32.6913 30.1222 32.212 31.0631C31.667 32.1326 31.667 33.5327 31.667 36.333V53.6663C31.667 56.4666 31.667 57.8667 32.212 58.9363C32.6913 59.8771 33.4562 60.642 34.397 61.1214C35.4666 61.6663 36.8667 61.6663 39.667 61.6663H50.3337C53.1339 61.6663 54.5341 61.6663 55.6036 61.1214C56.5444 60.642 57.3093 59.8771 57.7887 58.9363C58.3337 57.8667 58.3337 56.4666 58.3337 53.6663V38.333L48.3337 28.333Z" stroke="#261104" stroke-linecap="round" stroke-linejoin="round"/>
</svg>
