<svg width="90" height="90" viewBox="0 0 90 90" fill="none" xmlns="http://www.w3.org/2000/svg">
<circle cx="45" cy="45" r="44.5" stroke="#D25F15"/>
<path d="M43.3333 31.6667H38C35.1997 31.6667 33.7996 31.6667 32.73 32.2116C31.7892 32.691 31.0243 33.4559 30.545 34.3967C30 35.4663 30 36.8664 30 39.6667V52C30 54.8003 30 56.2004 30.545 57.27C31.0243 58.2108 31.7892 58.9757 32.73 59.455C33.7996 60 35.1997 60 38 60H50.3333C53.1336 60 54.5337 60 55.6033 59.455C56.5441 58.9757 57.309 58.2108 57.7884 57.27C58.3333 56.2004 58.3333 54.8003 58.3333 52V46.6667M46.6667 53.3333H36.6667M50 46.6667H36.6667M58.5355 31.4645C60.4882 33.4171 60.4882 36.5829 58.5355 38.5355C56.5829 40.4882 53.4171 40.4882 51.4645 38.5355C49.5118 36.5829 49.5118 33.4171 51.4645 31.4645C53.4171 29.5118 56.5829 29.5118 58.5355 31.4645Z" stroke="#261104" stroke-linecap="round" stroke-linejoin="round"/>
</svg>
