<svg width="90" height="90" viewBox="0 0 90 90" fill="none" xmlns="http://www.w3.org/2000/svg">
<circle cx="45" cy="45" r="44.5" stroke="#D25F15"/>
<path d="M28.738 47.5263H39.0087M50.9913 47.5263H61.262M45 37.4211V61M45 37.4211C47.3635 37.4211 49.2795 35.5359 49.2795 33.2105M45 37.4211C42.6365 37.4211 40.7205 35.5359 40.7205 33.2105M31.3057 61L58.6943 61M31.3057 33.2105L40.7205 33.2105M40.7205 33.2105C40.7205 30.8851 42.6365 29 45 29C47.3635 29 49.2795 30.8851 49.2795 33.2105M49.2795 33.2105L58.6943 33.2105M39.66 49.777C38.9741 52.361 36.6432 54.2632 33.8734 54.2632C31.1035 54.2632 28.7727 52.361 28.0868 49.777C28.0307 49.5659 28.0027 49.4603 28 49.0385C27.9984 48.78 28.096 48.1838 28.1802 47.9388C28.3174 47.5392 28.466 47.3136 28.7632 46.8625L33.8734 39.1053L38.9836 46.8625C39.2807 47.3136 39.4293 47.5392 39.5666 47.9388C39.6507 48.1838 39.7484 48.78 39.7467 49.0385C39.744 49.4603 39.716 49.5659 39.66 49.777ZM61.9132 49.777C61.2273 52.361 58.8965 54.2632 56.1266 54.2632C53.3568 54.2632 51.0259 52.361 50.34 49.777C50.284 49.5659 50.256 49.4603 50.2533 49.0385C50.2516 48.78 50.3493 48.1838 50.4334 47.9388C50.5707 47.5392 50.7193 47.3136 51.0164 46.8625L56.1266 39.1053L61.2368 46.8625C61.534 47.3136 61.6826 47.5392 61.8198 47.9388C61.904 48.1838 62.0016 48.78 62 49.0385C61.9973 49.4603 61.9693 49.5659 61.9132 49.777Z" stroke="#261104" stroke-linecap="round" stroke-linejoin="round"/>
</svg>
