<svg width="90" height="90" viewBox="0 0 90 90" fill="none" xmlns="http://www.w3.org/2000/svg">
<circle cx="45" cy="45" r="44.5" stroke="#D25F15"/>
<path d="M58.3337 45.833V36.333C58.3337 33.5327 58.3337 32.1326 57.7887 31.0631C57.3093 30.1222 56.5444 29.3573 55.6036 28.878C54.5341 28.333 53.1339 28.333 50.3337 28.333H39.667C36.8667 28.333 35.4666 28.333 34.397 28.878C33.4562 29.3573 32.6913 30.1222 32.212 31.0631C31.667 32.1326 31.667 33.5327 31.667 36.333V53.6663C31.667 56.4666 31.667 57.8667 32.212 58.9363C32.6913 59.8771 33.4562 60.642 34.397 61.1214C35.4666 61.6663 36.8667 61.6663 39.667 61.6663H45.0003M48.3337 43.333H38.3337M41.667 49.9997H38.3337M51.667 36.6663H38.3337M49.167 56.6663L52.5003 59.9997L60.0003 52.4997" stroke="#261104" stroke-linecap="round" stroke-linejoin="round"/>
</svg>
