<svg width="49" height="49" viewBox="0 0 49 49" fill="none" xmlns="http://www.w3.org/2000/svg">
<g clip-path="url(#clip0_4346_18084)">
<mask id="mask0_4346_18084" style="mask-type:luminance" maskUnits="userSpaceOnUse" x="0" y="0" width="49" height="49">
<path d="M0 0.000141144H48.9999V49H0V0.000141144Z" fill="white"/>
</mask>
<g mask="url(#mask0_4346_18084)">
<path d="M30.2023 42.0322H24.404C23.1882 42.0322 21.9741 41.9441 20.7711 41.7684L19.5 41.5828" stroke="#D25F15" stroke-width="1.4" stroke-miterlimit="10" stroke-linecap="round" stroke-linejoin="round"/>
<path d="M8.01504 39.0831V45.7045C8.01504 46.4035 7.44839 46.9702 6.74928 46.9702H4.59951C3.9004 46.9702 3.33374 46.4035 3.33374 45.7045V31.9749C3.33374 31.2759 3.9004 30.7092 4.59951 30.7092H6.74928C7.44839 30.7092 8.01504 31.2759 8.01504 31.9749V35.7265" stroke="#D25F15" stroke-width="1.4" stroke-miterlimit="10" stroke-linecap="round" stroke-linejoin="round"/>
<path d="M8.01514 44.7894L16.165 47.8229C16.9812 48.1266 17.8451 48.2822 18.716 48.2822H28.62C30.0059 48.2823 31.3634 47.8884 32.5341 47.1465L44.9349 40.1503C45.7531 39.4239 45.9047 38.2029 45.2892 37.2983C44.6157 36.3086 43.5017 36.1366 42.2757 36.7163L30.2023 42.0322L30.2167 40.8832C30.0567 39.2753 28.8188 37.985 27.2191 37.7586L19.8667 36.9121C18.1706 36.6721 17.3231 36.1038 15.8446 35.2389C13.826 34.058 11.5295 33.4356 9.19085 33.4357H8.01514" stroke="#D25F15" stroke-width="1.4" stroke-miterlimit="10" stroke-linecap="round" stroke-linejoin="round"/>
<path d="M26.3837 1.61992C26.7055 2.01962 27.146 2.30662 27.6417 2.43942C28.1373 2.57221 28.6623 2.54393 29.1408 2.35865C30.5805 1.80118 32.1667 2.71706 32.4037 4.24246C32.4825 4.74951 32.7205 5.21835 33.0834 5.58118C33.4462 5.94402 33.915 6.18204 34.4221 6.26084C35.9475 6.49789 36.8634 8.08407 36.3059 9.52373C36.1206 10.0022 36.0923 10.5273 36.2251 11.0229C36.3579 11.5185 36.6449 11.9591 37.0446 12.2808C38.2472 13.2489 38.2472 15.0804 37.0446 16.0485C36.6449 16.3702 36.3579 16.8108 36.2251 17.3064C36.0923 17.802 36.1206 18.3271 36.3059 18.8056C36.8634 20.2451 35.9475 21.8314 34.4221 22.0685C33.915 22.1472 33.4462 22.3852 33.0833 22.7481C32.7205 23.1109 32.4825 23.5798 32.4037 24.0868C32.1667 25.6122 30.5805 26.5281 29.1408 25.9706C28.6623 25.7853 28.1373 25.757 27.6416 25.8898C27.146 26.0226 26.7055 26.3097 26.3837 26.7094C25.4157 27.912 23.5841 27.912 22.6161 26.7094C22.2943 26.3097 21.8538 26.0226 21.3582 25.8898C20.8625 25.757 20.3375 25.7853 19.859 25.9706C18.4193 26.5281 16.8331 25.6122 16.5961 24.0868C16.5173 23.5798 16.2793 23.1109 15.9165 22.7481C15.5536 22.3852 15.0848 22.1472 14.5777 22.0685C13.0523 21.8314 12.1364 20.2451 12.6939 18.8056C12.8792 18.3271 12.9075 17.802 12.7747 17.3064C12.6419 16.8108 12.3549 16.3702 11.9552 16.0485C10.7526 15.0804 10.7526 13.2489 11.9552 12.2808C12.3549 11.9591 12.6419 11.5185 12.7747 11.0229C12.9075 10.5273 12.8792 10.0022 12.6939 9.52373C12.1364 8.08407 13.0523 6.49789 14.5777 6.26084C15.0848 6.18204 15.5536 5.94402 15.9164 5.58118C16.2793 5.21835 16.5173 4.74951 16.5961 4.24246C16.8331 2.71706 18.4193 1.80118 19.859 2.35865C20.3375 2.54393 20.8625 2.57221 21.3581 2.43942C21.8538 2.30662 22.2943 2.01962 22.6161 1.61992C23.5841 0.417317 25.4157 0.417317 26.3837 1.61992Z" stroke="#D25F15" stroke-width="1.4" stroke-miterlimit="10" stroke-linecap="round" stroke-linejoin="round"/>
<path d="M15.5859 12.4854C16.3733 8.27902 20.0648 5.09547 24.4998 5.09547C29.5085 5.09547 33.5688 9.15585 33.5688 14.1646C33.5688 19.1733 29.5085 23.2336 24.4998 23.2336C20.0643 23.2336 16.3726 20.0494 15.5857 15.8422" stroke="#D25F15" stroke-width="1.4" stroke-miterlimit="10" stroke-linecap="round" stroke-linejoin="round"/>
<path d="M24.6764 17.0525L27.5618 18.9597C27.8085 19.1227 28.1254 18.8926 28.0465 18.6075L27.1243 15.274C27.1076 15.2136 27.109 15.1495 27.1283 15.0899C27.1477 15.0302 27.1842 14.9776 27.2333 14.9385L29.9388 12.7837C30.1701 12.5995 30.049 12.2269 29.7537 12.2138L26.2983 12.0609C26.2356 12.0581 26.1752 12.037 26.1244 12.0001C26.0737 11.9632 26.0349 11.9122 26.0128 11.8535L24.7996 8.61455C24.6959 8.33768 24.3042 8.33768 24.2004 8.61455L22.9872 11.8535C22.9652 11.9122 22.9264 11.9632 22.8756 12.0001C22.8249 12.037 22.7645 12.0581 22.7018 12.0609L19.2464 12.2138C18.951 12.2269 18.83 12.5995 19.0613 12.7837L21.7668 14.9385C21.8158 14.9776 21.8523 15.0302 21.8717 15.0899C21.8911 15.1495 21.8925 15.2136 21.8758 15.274L20.9536 18.6075C20.8747 18.8926 21.1916 19.1227 21.4383 18.9597L24.3236 17.0525C24.3759 17.0179 24.4373 16.9995 24.5 16.9995C24.5627 16.9995 24.6241 17.0179 24.6764 17.0525Z" stroke="#D25F15" stroke-width="1.4" stroke-miterlimit="10" stroke-linecap="round" stroke-linejoin="round"/>
<path d="M16.4302 23.5094L12.8972 30.36C12.7419 30.6612 13.0111 31.0058 13.3408 30.9282L17.274 30.0017C17.366 29.98 17.4628 29.9919 17.5468 30.0352C17.6309 30.0786 17.6967 30.1505 17.7324 30.2381L19.2581 33.9798C19.3861 34.2936 19.8229 34.313 19.9783 34.0118L23.4122 27.3534" stroke="#D25F15" stroke-width="1.4" stroke-miterlimit="10" stroke-linecap="round" stroke-linejoin="round"/>
<path d="M25.5876 27.3535L29.0216 34.0118C29.1768 34.313 29.6137 34.2936 29.7416 33.9798L31.2673 30.2381C31.303 30.1505 31.3689 30.0786 31.4529 30.0352C31.5369 29.9919 31.6337 29.98 31.7257 30.0017L35.6589 30.9282C35.9887 31.0058 36.2578 30.6612 36.1026 30.36L32.5696 23.5094" stroke="#D25F15" stroke-width="1.4" stroke-miterlimit="10" stroke-linecap="round" stroke-linejoin="round"/>
</g>
</g>
<defs>
<clipPath id="clip0_4346_18084">
<rect width="49" height="49" fill="white"/>
</clipPath>
</defs>
</svg>
