<svg width="51" height="51" viewBox="0 0 51 51" fill="none" xmlns="http://www.w3.org/2000/svg">
<path fill-rule="evenodd" clip-rule="evenodd" d="M13.6734 22.9589H8.7547C7.70979 22.9589 6.85913 22.1082 6.85913 21.0633C6.85913 20.0174 7.70979 19.1667 8.7547 19.1667H13.6734C14.7193 19.1667 15.57 20.0174 15.57 21.0633C15.57 22.1082 14.7193 22.9589 13.6734 22.9589ZM8.7547 20.3621C8.36821 20.3621 8.05345 20.6768 8.05345 21.0633C8.05345 21.4498 8.36821 21.7646 8.7547 21.7646H13.6734C14.0609 21.7646 14.3747 21.4498 14.3747 21.0633C14.3747 20.6768 14.0609 20.3621 13.6734 20.3621H8.7547Z" fill="#D25F15"/>
<path fill-rule="evenodd" clip-rule="evenodd" d="M9.39624 20.3621C9.06653 20.3621 8.79858 20.0941 8.79858 19.7644V17.8589C8.79858 17.5292 9.06653 17.2622 9.39624 17.2622C9.72595 17.2622 9.9939 17.5292 9.9939 17.8589V19.7644C9.9939 20.0941 9.72595 20.3621 9.39624 20.3621ZM13.033 20.3621C12.7023 20.3621 12.4353 20.0941 12.4353 19.7644V17.8589C12.4353 17.7804 12.4508 17.7028 12.4808 17.6303C12.5109 17.5578 12.5549 17.492 12.6104 17.4366C12.6659 17.3812 12.7318 17.3373 12.8043 17.3073C12.8768 17.2774 12.9545 17.2621 13.033 17.2622C13.3627 17.2622 13.6296 17.5292 13.6296 17.8589V19.7644C13.6296 20.0941 13.3627 20.3621 13.033 20.3621Z" fill="#D25F15"/>
<path fill-rule="evenodd" clip-rule="evenodd" d="M17.5602 18.4566H3.33298C2.27015 18.4566 1.40454 17.592 1.40454 16.5292V4.85298C1.40454 3.79015 2.27015 2.92554 3.33298 2.92554H19.0952C20.159 2.92554 21.0236 3.79015 21.0236 4.85298V9.56351C21.0236 9.89321 20.7557 10.1612 20.4259 10.1612C20.0962 10.1612 19.8293 9.89321 19.8293 9.56351V4.85298C19.8293 4.44856 19.4996 4.11985 19.0952 4.11985H3.33298C2.92856 4.11985 2.59985 4.44856 2.59985 4.85298V16.5292C2.59985 16.9336 2.92856 17.2623 3.33298 17.2623H17.5602C17.8899 17.2623 18.1578 17.5293 18.1578 17.859C18.1578 18.1897 17.8899 18.4566 17.5602 18.4566ZM48.9979 22.959H33.4399C33.1102 22.959 32.8423 22.692 32.8423 22.3623C32.8423 22.0326 33.1102 21.7647 33.4399 21.7647H48.4002V12.5747H33.4399C33.1102 12.5747 32.8423 12.3077 32.8423 11.978C32.8423 11.6483 33.1102 11.3804 33.4399 11.3804H48.9979C49.3276 11.3804 49.5946 11.6483 49.5946 11.978V22.3623C49.5946 22.692 49.3276 22.959 48.9979 22.959Z" fill="#D25F15"/>
<path fill-rule="evenodd" clip-rule="evenodd" d="M48.8226 19.5583H33.44C33.1103 19.5583 32.8423 19.2903 32.8423 18.9606C32.8423 18.6309 33.1103 18.364 33.44 18.364H48.8226C49.1524 18.364 49.4193 18.6309 49.4193 18.9606C49.4193 19.2903 49.1524 19.5583 48.8226 19.5583ZM48.8226 15.9763H33.44C33.1103 15.9763 32.8423 15.7084 32.8423 15.3787C32.8423 15.049 33.1103 14.781 33.44 14.781H48.8226C49.1524 14.781 49.4193 15.049 49.4193 15.3787C49.4193 15.7084 49.1524 15.9763 48.8226 15.9763ZM27.3867 37.9661H23.6135C23.2838 37.9661 23.0168 37.6981 23.0168 37.3684V33.0265C23.0168 32.6958 23.2838 32.4288 23.6135 32.4288H27.3867C27.4651 32.4288 27.5428 32.4443 27.6153 32.4743C27.6877 32.5044 27.7535 32.5484 27.809 32.6039C27.8644 32.6594 27.9083 32.7253 27.9382 32.7978C27.9682 32.8703 27.9835 32.948 27.9834 33.0265V37.3684C27.9834 37.6981 27.7164 37.9661 27.3867 37.9661ZM24.2112 36.7708H26.7891V33.6231H24.2112V36.7708Z" fill="#D25F15"/>
<path fill-rule="evenodd" clip-rule="evenodd" d="M25.5 41.798C25.1703 41.798 24.9023 41.5311 24.9023 41.2004V37.3684C24.9023 37.0387 25.1703 36.7708 25.5 36.7708C25.8297 36.7708 26.0977 37.0387 26.0977 37.3684V41.2004C26.0977 41.5311 25.8297 41.798 25.5 41.798Z" fill="#D25F15"/>
<path fill-rule="evenodd" clip-rule="evenodd" d="M33.0294 44.5692C32.6997 44.5692 32.4317 44.3023 32.4317 43.9725C32.4317 43.086 29.7313 41.7981 25.4999 41.7981C21.2685 41.7981 18.5671 43.086 18.5671 43.9725C18.5671 44.3023 18.3002 44.5692 17.9705 44.5692C17.6408 44.5692 17.3728 44.3023 17.3728 43.9725C17.3728 43.2584 17.823 42.2413 19.9696 41.4514C21.4558 40.9046 23.4201 40.6038 25.4999 40.6038C27.5798 40.6038 29.5441 40.9046 31.0302 41.4514C33.1768 42.2423 33.6271 43.2584 33.6271 43.9725C33.6271 44.3023 33.3591 44.5692 33.0294 44.5692Z" fill="#D25F15"/>
<path fill-rule="evenodd" clip-rule="evenodd" d="M17.9707 48.0746C16.6747 48.0746 15.6199 47.0207 15.6199 45.7248C15.6199 44.4289 16.6747 43.375 17.9707 43.375C19.2666 43.375 20.3204 44.4289 20.3204 45.7248C20.3204 47.0207 19.2666 48.0746 17.9707 48.0746ZM17.9707 44.5693C17.3332 44.5693 16.8152 45.0873 16.8152 45.7248C16.8152 46.3613 17.3332 46.8803 17.9707 46.8803C18.6072 46.8803 19.1251 46.3613 19.1251 45.7248C19.1251 45.0873 18.6072 44.5693 17.9707 44.5693ZM33.0296 48.0746C31.7337 48.0746 30.6798 47.0207 30.6798 45.7248C30.6798 44.4289 31.7337 43.375 33.0296 43.375C34.3255 43.375 35.3794 44.4289 35.3794 45.7248C35.3794 47.0207 34.3255 48.0746 33.0296 48.0746ZM33.0296 44.5693C32.3931 44.5693 31.8741 45.0873 31.8741 45.7248C31.8741 46.3613 32.3931 46.8803 33.0296 46.8803C33.6671 46.8803 34.1851 46.3613 34.1851 45.7248C34.1851 45.0873 33.6671 44.5693 33.0296 44.5693ZM25.5001 48.0746C24.2042 48.0746 23.1503 47.0207 23.1503 45.7248C23.1503 44.4289 24.2042 43.375 25.5001 43.375C26.796 43.375 27.8499 44.4289 27.8499 45.7248C27.8499 47.0207 26.796 48.0746 25.5001 48.0746ZM25.5001 44.5693C24.8626 44.5693 24.3447 45.0873 24.3447 45.7248C24.3447 46.3613 24.8626 46.8803 25.5001 46.8803C26.1366 46.8803 26.6556 46.3613 26.6556 45.7248C26.6556 45.0873 26.1366 44.5693 25.5001 44.5693Z" fill="#D25F15"/>
<path fill-rule="evenodd" clip-rule="evenodd" d="M25.4999 44.2176C25.1702 44.2176 24.9022 43.9506 24.9022 43.6209V41.2004C24.9022 40.8707 25.1702 40.6038 25.4999 40.6038C25.8296 40.6038 26.0976 40.8707 26.0976 41.2004V43.6209C26.0976 43.9506 25.8296 44.2176 25.4999 44.2176ZM31.4247 29.6129H19.5761C18.1348 29.6129 16.9634 28.4404 16.9634 27.0001V11.5796C16.9634 10.1382 18.1348 8.96582 19.5761 8.96582H31.4247C32.865 8.96582 34.0374 10.1382 34.0374 11.5796V27.0001C34.0374 28.4404 32.865 29.6129 31.4247 29.6129ZM19.5761 10.1611C18.7942 10.1611 18.1577 10.7976 18.1577 11.5796V27.0001C18.1577 27.782 18.7942 28.4175 19.5761 28.4175H31.4247C32.2066 28.4175 32.8421 27.782 32.8421 27.0001V11.5796C32.8421 10.7976 32.2066 10.1611 31.4247 10.1611H19.5761Z" fill="#D25F15"/>
<path fill-rule="evenodd" clip-rule="evenodd" d="M34.926 33.6233H16.0739C15.1685 33.6233 14.4324 32.8871 14.4324 31.9817V27.3479C14.4324 26.4424 15.1685 25.7063 16.0739 25.7063H17.5601C17.8898 25.7063 18.1578 25.9742 18.1578 26.304V26.9992C18.1578 27.7812 18.7943 28.4177 19.5762 28.4177H31.4237C32.2057 28.4177 32.8422 27.7812 32.8422 26.9992V26.304C32.8422 25.9742 33.1101 25.7063 33.4398 25.7063H34.926C35.8315 25.7063 36.5676 26.4424 36.5676 27.3479V31.9817C36.5676 32.8871 35.8315 33.6233 34.926 33.6233ZM16.0739 26.9006C15.8269 26.9006 15.6267 27.1018 15.6267 27.3479V31.9817C15.6267 32.1003 15.6738 32.2141 15.7577 32.2979C15.8416 32.3818 15.9553 32.4289 16.0739 32.4289H34.926C35.0446 32.4289 35.1584 32.3818 35.2423 32.2979C35.3261 32.2141 35.3732 32.1003 35.3732 31.9817V27.3479C35.3732 27.2292 35.3261 27.1155 35.2423 27.0316C35.1584 26.9477 35.0446 26.9006 34.926 26.9006H34.0365V26.9992C34.0365 28.4406 32.8651 29.613 31.4237 29.613H19.5762C18.1349 29.613 16.9634 28.4406 16.9634 26.9992V26.9006H16.0739Z" fill="#D25F15"/>
<path fill-rule="evenodd" clip-rule="evenodd" d="M49.4421 28.1606H35.9709C35.6412 28.1606 35.3733 27.8926 35.3733 27.5629V27.3478C35.3733 27.1017 35.1731 26.9005 34.926 26.9005H33.4399C33.1102 26.9005 32.8422 26.6336 32.8422 26.3038V22.3623C32.8422 22.0326 33.1102 21.7646 33.4399 21.7646H49.4421C50.2948 21.7646 50.9881 22.4579 50.9881 23.3106V26.6146C50.9881 27.4673 50.2948 28.1606 49.4421 28.1606ZM36.5228 26.9662H49.4421C49.6324 26.9662 49.7927 26.8049 49.7927 26.6146V23.3106C49.7927 23.1203 49.6324 22.96 49.4421 22.96H34.0375V25.7062H34.926C35.7 25.7062 36.3505 26.2441 36.5228 26.9662ZM15.0291 28.1606H1.5579C0.705244 28.1606 0.0119629 27.4673 0.0119629 26.6146V23.3096C0.0119629 22.4579 0.705244 21.7646 1.5579 21.7646H17.5601C17.8899 21.7646 18.1578 22.0316 18.1578 22.3623V26.3038C18.1578 26.6336 17.8899 26.9005 17.5601 26.9005H16.074C15.8269 26.9005 15.6267 27.1017 15.6267 27.3478V27.5629C15.6267 27.8926 15.3598 28.1606 15.0291 28.1606ZM1.5579 22.959C1.36765 22.959 1.20728 23.1203 1.20728 23.3096V26.6146C1.20728 26.8049 1.36765 26.9653 1.5579 26.9653H14.4772C14.6496 26.2441 15.3 25.7062 16.074 25.7062H16.9635V22.959H1.5579Z" fill="#D25F15"/>
<path fill-rule="evenodd" clip-rule="evenodd" d="M49.4421 48.0746H45.9976C45.6679 48.0746 45.4009 47.8076 45.4009 47.4779V31.6051H35.9709C35.6412 31.6051 35.3732 31.3372 35.3732 31.0075V27.563C35.3732 27.2333 35.6412 26.9653 35.9709 26.9653H49.4421C49.7718 26.9653 50.0397 27.2333 50.0397 27.563V47.4779C50.0397 47.8076 49.7718 48.0746 49.4421 48.0746ZM46.5952 46.8802H48.8444V28.1606H36.5676V30.4098H45.9976C46.3273 30.4098 46.5952 30.6778 46.5952 31.0075V46.8802ZM5.00235 48.0746H1.55786C1.22815 48.0746 0.960205 47.8076 0.960205 47.4779V27.563C0.960205 27.2333 1.22815 26.9653 1.55786 26.9653H15.029C15.3597 26.9653 15.6267 27.2333 15.6267 27.563V31.0075C15.6267 31.3372 15.3597 31.6051 15.029 31.6051H5.60001V47.4779C5.60001 47.8076 5.33206 48.0746 5.00235 48.0746ZM2.15552 46.8802H4.4047V31.0075C4.4047 30.6778 4.67265 30.4098 5.00235 30.4098H14.4324V28.1606H2.15552V46.8802Z" fill="#D25F15"/>
</svg>
