<svg width="48" height="48" viewBox="0 0 48 48" fill="none" xmlns="http://www.w3.org/2000/svg">
<g clip-path="url(#clip0_4346_18308)">
<path d="M11.3699 35.5082V47.3513C11.3699 47.7097 11.0796 48 10.7213 48C10.3629 48 10.0726 47.7097 10.0726 47.3513V35.5082C10.0726 35.3362 10.1409 35.1712 10.2626 35.0495C10.3842 34.9279 10.5492 34.8595 10.7213 34.8595C10.8933 34.8595 11.0583 34.9279 11.1799 35.0495C11.3016 35.1712 11.3699 35.3362 11.3699 35.5082ZM21.1282 17.0433V29.2464C21.1282 31.6057 19.2948 33.5563 16.9268 33.8627V47.3513C16.9268 47.7097 16.6364 48 16.2781 48C15.9198 48 15.6294 47.7097 15.6294 47.3513V20.1744C15.6294 19.8161 15.9198 19.5258 16.2781 19.5258C16.6364 19.5258 16.9268 19.8161 16.9268 20.1744V32.5533C18.5767 32.2633 19.8308 30.8921 19.8308 29.2464V17.0433C19.8308 14.8988 17.5072 14.0021 16.1218 13.6585C12.3683 12.7269 8.63006 12.7268 5.01159 13.657C3.31716 14.0929 1.29731 15.0341 1.29731 17.0432V29.2463C1.29731 30.8919 2.55141 32.2631 4.20122 32.5532V20.1744C4.20122 19.8161 4.49156 19.5258 4.84987 19.5258C5.20819 19.5258 5.49853 19.8161 5.49853 20.1744V47.3513C5.49853 47.7097 5.20819 48 4.84987 48C4.49156 48 4.20122 47.7097 4.20122 47.3513V33.8627C1.83328 33.5562 0 31.6056 0 29.2464V17.0433C0 14.827 1.66509 13.1784 4.68853 12.4008C6.31434 11.9825 7.96331 11.7528 9.62531 11.6897C7.25475 11.1257 5.45353 8.47378 5.45353 5.29163C5.45353 2.02762 7.41178 0 10.5642 0C13.7167 0 15.6749 2.02762 15.6749 5.29163C15.6749 8.47969 13.8667 11.1352 11.4895 11.6923C13.1574 11.7606 14.8142 11.9974 16.4344 12.3993C19.4172 13.1395 21.1282 14.8321 21.1282 17.0433ZM10.5642 10.5074C12.6668 10.5074 14.3776 8.16769 14.3776 5.29163C14.3776 2.75316 12.9876 1.29731 10.5642 1.29731C8.14087 1.29731 6.75084 2.75316 6.75084 5.29163C6.75084 8.16769 8.46159 10.5074 10.5642 10.5074ZM36.1427 13.012H45.7065C45.7917 13.012 45.876 12.9953 45.9547 12.9627C46.0334 12.9301 46.105 12.8823 46.1652 12.8221C46.2254 12.7618 46.2732 12.6903 46.3058 12.6116C46.3384 12.5329 46.3552 12.4486 46.3552 12.3634V7.4655L47.7872 6.16594C47.8503 6.10871 47.9015 6.03962 47.9379 5.9626C47.9743 5.88558 47.9951 5.80214 47.9993 5.71705C48.0034 5.63197 47.9907 5.5469 47.962 5.46672C47.9332 5.38653 47.889 5.31279 47.8317 5.24972C47.7745 5.18662 47.7054 5.13541 47.6284 5.09902C47.5514 5.06263 47.4679 5.04177 47.3828 5.03763C47.2977 5.0335 47.2127 5.04616 47.1325 5.07491C47.0523 5.10366 46.9786 5.14793 46.9155 5.20519L42.8207 8.92125L41.3832 7.48397C41.323 7.42372 41.2515 7.37592 41.1728 7.34331C41.0941 7.31069 41.0098 7.29391 40.9246 7.29391C40.8394 7.29391 40.7551 7.31069 40.6764 7.34331C40.5977 7.37592 40.5262 7.42372 40.466 7.48397C40.4057 7.54418 40.3579 7.61568 40.3253 7.69437C40.2927 7.77306 40.2759 7.85741 40.2759 7.94259C40.2759 8.02778 40.2927 8.11212 40.3253 8.19082C40.3579 8.26951 40.4057 8.34101 40.466 8.40122L42.3403 10.2756C42.4005 10.3359 42.472 10.3837 42.5507 10.4163C42.6294 10.4489 42.7137 10.4657 42.7989 10.4656C42.9601 10.4657 43.1155 10.4057 43.2348 10.2973L45.0578 8.64281V11.7147H36.7913V4.17019H45.7065C46.0648 4.17019 46.3552 3.87984 46.3552 3.52153C46.3552 3.16322 46.0648 2.87287 45.7065 2.87287H36.1427C36.0575 2.87286 35.9731 2.88963 35.8944 2.92223C35.8157 2.95482 35.7442 3.0026 35.684 3.06283C35.6238 3.12307 35.576 3.19458 35.5434 3.27329C35.5108 3.35199 35.494 3.43635 35.494 3.52153V12.3634C35.494 12.5354 35.5624 12.7004 35.684 12.822C35.8057 12.9437 35.9707 13.012 36.1427 13.012ZM46.9155 21.2627L42.8207 24.9787L41.3832 23.5414C41.323 23.4811 41.2515 23.4333 41.1728 23.4007C41.0941 23.3681 41.0098 23.3513 40.9246 23.3513C40.8394 23.3513 40.7551 23.3681 40.6764 23.4007C40.5977 23.4333 40.5262 23.4811 40.466 23.5414C40.4057 23.6016 40.3579 23.6731 40.3253 23.7518C40.2927 23.8305 40.2759 23.9148 40.2759 24C40.2759 24.0852 40.2927 24.1695 40.3253 24.2482C40.3579 24.3269 40.4057 24.3984 40.466 24.4586L42.3403 26.333C42.4005 26.3933 42.472 26.4411 42.5507 26.4737C42.6294 26.5063 42.7137 26.5231 42.7989 26.523C42.9601 26.5231 43.1155 26.4631 43.2348 26.3547L45.0578 24.7002V27.7721H36.7913V20.2276H45.7065C46.0648 20.2276 46.3552 19.9373 46.3552 19.5789C46.3552 19.2206 46.0648 18.9303 45.7065 18.9303H36.1427C36.0575 18.9303 35.9731 18.947 35.8944 18.9796C35.8157 19.0122 35.7442 19.06 35.684 19.1202C35.6238 19.1805 35.576 19.252 35.5434 19.3307C35.5108 19.4094 35.494 19.4938 35.494 19.5789V28.4208C35.494 28.506 35.5108 28.5903 35.5434 28.669C35.576 28.7477 35.6238 28.8192 35.684 28.8795C35.7442 28.9397 35.8157 28.9875 35.8944 29.0201C35.9731 29.0527 36.0575 29.0695 36.1427 29.0694H45.7065C45.7917 29.0695 45.876 29.0527 45.9547 29.0201C46.0334 28.9875 46.105 28.9397 46.1652 28.8795C46.2254 28.8192 46.2732 28.7477 46.3058 28.669C46.3384 28.5903 46.3552 28.506 46.3552 28.4208V23.5402C46.3552 23.5348 46.3537 23.5297 46.3536 23.5243L47.7872 22.2233C47.8503 22.166 47.9014 22.0969 47.9378 22.0199C47.9742 21.9429 47.995 21.8595 47.9991 21.7744C48.0033 21.6893 47.9906 21.6043 47.9619 21.5241C47.9331 21.4439 47.8889 21.3702 47.8316 21.3071C47.7744 21.2441 47.7053 21.1929 47.6283 21.1565C47.5513 21.1201 47.4678 21.0993 47.3828 21.0952C47.2977 21.091 47.2126 21.1037 47.1325 21.1325C47.0523 21.1612 46.9786 21.2055 46.9155 21.2627ZM46.9155 37.3201L42.8207 41.0363L41.3832 39.5991C41.323 39.5388 41.2515 39.491 41.1728 39.4584C41.0941 39.4258 41.0098 39.409 40.9246 39.409C40.8394 39.409 40.7551 39.4258 40.6764 39.4584C40.5977 39.491 40.5262 39.5388 40.466 39.5991C40.4057 39.6593 40.3579 39.7308 40.3253 39.8095C40.2927 39.8882 40.2759 39.9725 40.2759 40.0577C40.2759 40.1429 40.2927 40.2272 40.3253 40.3059C40.3579 40.3846 40.4057 40.4561 40.466 40.5163L42.3403 42.3907C42.4005 42.451 42.4719 42.4988 42.5507 42.5315C42.6294 42.5641 42.7137 42.5808 42.7989 42.5807C42.9601 42.5808 43.1155 42.5208 43.2348 42.4124L45.0578 40.7579V43.8299H36.7913V36.2852H45.7065C46.0648 36.2852 46.3552 35.9948 46.3552 35.6365C46.3552 35.2782 46.0648 34.9879 45.7065 34.9879H36.1427C36.0575 34.9879 35.9731 35.0046 35.8944 35.0372C35.8157 35.0698 35.7442 35.1176 35.684 35.1778C35.6238 35.2381 35.576 35.3096 35.5434 35.3883C35.5108 35.467 35.494 35.5513 35.494 35.6365V44.4786C35.494 44.5637 35.5108 44.6481 35.5434 44.7268C35.576 44.8055 35.6238 44.877 35.684 44.9373C35.7442 44.9975 35.8157 45.0453 35.8944 45.0779C35.9731 45.1105 36.0575 45.1272 36.1427 45.1272H45.7065C45.7917 45.1272 45.876 45.1105 45.9547 45.0779C46.0334 45.0453 46.105 44.9975 46.1652 44.9373C46.2254 44.877 46.2732 44.8055 46.3058 44.7268C46.3384 44.6481 46.3552 44.5637 46.3552 44.4786V39.5806L47.7872 38.2809C47.9114 38.1645 47.9848 38.004 47.9917 37.8339C47.9986 37.6638 47.9384 37.4978 47.824 37.3717C47.7096 37.2456 47.5503 37.1696 47.3803 37.1599C47.2104 37.1502 47.0434 37.2078 46.9155 37.3201ZM32.6909 8.59144C32.861 8.58854 33.0232 8.51893 33.1425 8.3976C33.2618 8.27627 33.3286 8.11293 33.3286 7.94278C33.3286 7.77263 33.2618 7.60929 33.1425 7.48796C33.0232 7.36663 32.861 7.29702 32.6909 7.29413L28.3113 7.29394C28.2261 7.29393 28.1417 7.31069 28.063 7.34329C27.9843 7.37588 27.9128 7.42366 27.8526 7.4839C27.7923 7.54413 27.7446 7.61564 27.712 7.69435C27.6794 7.77305 27.6626 7.85741 27.6626 7.94259V23.3513H23.9314C23.5731 23.3513 23.2827 23.6417 23.2827 24C23.2827 24.3583 23.5731 24.6487 23.9314 24.6487H27.6626V40.0572C27.6626 40.1424 27.6794 40.2268 27.712 40.3055C27.7446 40.3842 27.7923 40.4557 27.8526 40.5159C27.9128 40.5762 27.9843 40.6239 28.063 40.6565C28.1417 40.6891 28.2261 40.7059 28.3113 40.7059L32.6909 40.7057C32.861 40.7028 33.0232 40.6332 33.1425 40.5118C33.2618 40.3905 33.3286 40.2272 33.3286 40.057C33.3286 39.8869 33.2618 39.7235 33.1425 39.6022C33.0232 39.4809 32.861 39.4113 32.6909 39.4084L28.9599 39.4086V24.6487H32.6909C33.0492 24.6487 33.3396 24.3583 33.3396 24C33.3396 23.6417 33.0492 23.3513 32.6909 23.3513H28.9599V8.59125L32.6909 8.59144Z" fill="#D25F15"/>
</g>
<defs>
<clipPath id="clip0_4346_18308">
<rect width="48" height="48" fill="white"/>
</clipPath>
</defs>
</svg>
