<svg width="46" height="46" viewBox="0 0 46 46" fill="none" xmlns="http://www.w3.org/2000/svg">
<g clip-path="url(#clip0_4346_18064)">
<path d="M25.2981 33.6664C25.9728 33.0452 26.3965 32.1553 26.3965 31.1681C26.3965 29.2953 24.8729 27.7715 23 27.7715C21.1271 27.7715 19.6035 29.2953 19.6035 31.1681C19.6035 32.1554 20.0272 33.0453 20.7019 33.6664C18.4635 34.577 16.8807 36.7747 16.8807 39.3362C16.8807 39.5149 16.9517 39.6863 17.0781 39.8127C17.2045 39.939 17.3759 40.01 17.5546 40.01H28.4453C28.8176 40.01 29.1192 39.7084 29.1192 39.3362C29.1192 36.7747 27.5364 34.577 25.2981 33.6664ZM20.9511 31.1681C20.9511 30.0384 21.8702 29.1192 23 29.1192C24.1297 29.1192 25.0489 30.0383 25.0489 31.1681C25.0489 32.2978 24.1298 33.217 23 33.217C21.8702 33.217 20.9511 32.2978 20.9511 31.1681ZM18.2758 38.6624C18.6042 36.3493 20.5976 34.5647 23 34.5647C25.4023 34.5647 27.3958 36.3493 27.7241 38.6624H18.2758ZM36.4842 31.1681C36.4842 32.1554 36.9079 33.0453 37.5827 33.6664C35.3444 34.577 33.7616 36.7747 33.7616 39.3362C33.7616 39.7084 34.0632 40.01 34.4354 40.01H45.3262C45.6984 40.01 46 39.7084 46 39.3362C46 36.7747 44.4172 34.577 42.1789 33.6664C42.8536 33.0452 43.2773 32.1553 43.2773 31.1681C43.2773 29.2953 41.7536 27.7715 39.8807 27.7715C38.0079 27.7715 36.4842 29.2953 36.4842 31.1681ZM44.6049 38.6624H35.1567C35.485 36.3493 37.4784 34.5647 39.8808 34.5647C42.2832 34.5647 44.2765 36.3493 44.6049 38.6624ZM41.9296 31.1681C41.9296 32.2978 41.0105 33.217 39.8807 33.217C38.751 33.217 37.8318 32.2979 37.8318 31.1681C37.8318 30.0384 38.7509 29.1192 39.8807 29.1192C41.0105 29.1192 41.9296 30.0384 41.9296 31.1681ZM8.41737 33.6664C9.0921 33.0452 9.5158 32.1553 9.5158 31.1681C9.5158 29.2953 7.99214 27.7715 6.11926 27.7715C4.24638 27.7715 2.72271 29.2953 2.72271 31.1681C2.72271 32.1554 3.14642 33.0453 3.82114 33.6664C1.58278 34.5771 0 36.7747 0 39.3362C0 39.5149 0.0709924 39.6863 0.19736 39.8127C0.323727 39.939 0.495118 40.01 0.673828 40.01H11.5647C11.7434 40.01 11.9148 39.939 12.0412 39.8127C12.1675 39.6863 12.2385 39.5149 12.2385 39.3362C12.2385 36.7747 10.6557 34.577 8.41737 33.6664ZM4.07037 31.1681C4.07037 30.0384 4.98947 29.1192 6.11926 29.1192C7.24904 29.1192 8.16814 30.0383 8.16814 31.1681C8.16814 32.2978 7.24904 33.217 6.11926 33.217C4.98947 33.217 4.07037 32.2978 4.07037 31.1681ZM1.39509 38.6624C1.72347 36.3493 3.71684 34.5647 6.11926 34.5647C8.52168 34.5647 10.515 36.3493 10.8434 38.6624H1.39509ZM6.30074 25.9427C6.47945 25.9427 6.65084 25.8717 6.77721 25.7454C6.90358 25.619 6.97457 25.4476 6.97457 25.2689V22.3125H22.3262V25.2689C22.3262 25.4476 22.3972 25.619 22.5235 25.7454C22.6499 25.8717 22.8213 25.9427 23 25.9427C23.3722 25.9427 23.6738 25.6411 23.6738 25.2689V22.3125H39.0254V25.2689C39.0254 25.6411 39.327 25.9427 39.6993 25.9427C40.0715 25.9427 40.3731 25.6411 40.3731 25.2689V21.6387C40.3731 21.2665 40.0715 20.9649 39.6993 20.9649H23.6738V18.2285H28.4453C28.8176 18.2285 29.1192 17.9269 29.1192 17.5547V14.4689C29.1192 14.0967 28.8176 13.7951 28.4453 13.7951H17.5546C17.3759 13.7951 17.2045 13.8661 17.0781 13.9924C16.9517 14.1188 16.8807 14.2902 16.8807 14.4689V17.5547C16.8807 17.7334 16.9517 17.9048 17.0781 18.0311C17.2045 18.1575 17.3759 18.2285 17.5546 18.2285H22.3262V20.9649H6.30074C6.12203 20.9649 5.95064 21.0359 5.82427 21.1622C5.69791 21.2886 5.62691 21.46 5.62691 21.6387V25.2689C5.62691 25.4476 5.69791 25.619 5.82427 25.7454C5.95064 25.8717 6.12203 25.9427 6.30074 25.9427ZM18.2284 15.1427H27.7715V16.8808H18.2284V15.1427ZM28.4453 41.5666H17.5546C17.3759 41.5666 17.2045 41.6376 17.0781 41.7639C16.9517 41.8903 16.8807 42.0617 16.8807 42.2404V45.3262C16.8807 45.5049 16.9517 45.6763 17.0781 45.8026C17.2045 45.929 17.3759 46 17.5546 46H28.4453C28.8176 46 29.1192 45.6984 29.1192 45.3262V42.2404C29.1192 42.0617 29.0482 41.8903 28.9218 41.7639C28.7954 41.6376 28.6241 41.5666 28.4453 41.5666ZM27.7715 44.6523H18.2284V42.9142H27.7715V44.6523ZM17.5546 12.2385H23.4035C23.7757 12.2385 24.0773 11.9369 24.0773 11.5647C24.0773 11.1925 23.7757 10.8909 23.4035 10.8909H18.2758C18.6042 8.57774 20.5976 6.79309 23 6.79309C25.4023 6.79309 27.3958 8.57774 27.7241 10.8909H26.5488C26.1766 10.8909 25.875 11.1925 25.875 11.5647C25.875 11.9369 26.1766 12.2385 26.5488 12.2385H28.4453C28.8176 12.2385 29.1192 11.9369 29.1192 11.5647C29.1192 9.00306 27.5364 6.80548 25.298 5.89483C25.9727 5.27365 26.3965 4.38375 26.3965 3.39654C26.3965 1.52366 24.8729 0 23 0C21.1271 0 19.6035 1.52366 19.6035 3.39654C19.6035 4.38384 20.0272 5.27374 20.7019 5.89483C18.4635 6.80539 16.8807 9.00306 16.8807 11.5647C16.8807 11.7434 16.9517 11.9148 17.0781 12.0412C17.2045 12.1675 17.3759 12.2385 17.5546 12.2385ZM20.9511 3.39654C20.9511 2.26676 21.8702 1.34766 23 1.34766C24.1297 1.34766 25.0489 2.26676 25.0489 3.39654C25.0489 4.52633 24.1297 5.44534 23 5.44534C21.8702 5.44534 20.9511 4.52624 20.9511 3.39654ZM45.3262 41.5666H43.9914C43.6191 41.5666 43.3175 41.8682 43.3175 42.2404C43.3175 42.6126 43.6191 42.9142 43.9914 42.9142H44.6523V44.6523H35.1091V42.9142H40.8431C41.2154 42.9142 41.517 42.6126 41.517 42.2404C41.517 41.8682 41.2154 41.5666 40.8431 41.5666H34.4353C34.3468 41.5666 34.2592 41.584 34.1774 41.6178C34.0957 41.6517 34.0214 41.7013 33.9588 41.7639C33.8962 41.8265 33.8466 41.9008 33.8128 41.9825C33.7789 42.0643 33.7615 42.1519 33.7615 42.2404V45.3262C33.7615 45.6984 34.0631 46 34.4353 46H45.3262C45.6984 46 46 45.6984 46 45.3262V42.2404C46 42.0617 45.929 41.8903 45.8026 41.7639C45.6763 41.6376 45.5049 41.5666 45.3262 41.5666ZM11.5647 41.5666H10.2299C9.85775 41.5666 9.55605 41.8682 9.55605 42.2404C9.55605 42.6126 9.85775 42.9142 10.2299 42.9142H10.8909V44.6523H1.34766V42.9142H7.08166C7.4538 42.9142 7.75549 42.6126 7.75549 42.2404C7.75549 41.8682 7.4538 41.5666 7.08166 41.5666H0.673828C0.495118 41.5666 0.323727 41.6376 0.19736 41.7639C0.0709924 41.8903 0 42.0617 0 42.2404L0 45.3262C0 45.5049 0.0709924 45.6763 0.19736 45.8026C0.323727 45.929 0.495118 46 0.673828 46H11.5647C11.7434 46 11.9148 45.929 12.0412 45.8026C12.1675 45.6763 12.2385 45.5049 12.2385 45.3262V42.2404C12.2385 42.0617 12.1675 41.8903 12.0412 41.7639C11.9148 41.6376 11.7434 41.5666 11.5647 41.5666Z" fill="#D25F15"/>
</g>
<defs>
<clipPath id="clip0_4346_18064">
<rect width="46" height="46" fill="white"/>
</clipPath>
</defs>
</svg>
