<svg width="56" height="56" viewBox="0 0 56 56" fill="none" xmlns="http://www.w3.org/2000/svg">
<path d="M37.7065 45.41H3.52163C1.92874 45.41 0.62207 44.1033 0.62207 42.5104V14.9957C0.62207 13.3904 1.92874 12.0962 3.52163 12.0962H46.8283C48.4336 12.0962 49.7278 13.4029 49.7278 14.9957V31.3851C49.7278 31.7335 49.4541 32.0073 49.1056 32.0073C48.7572 32.0073 48.4834 31.7335 48.4834 31.3851V14.9957C48.4834 14.0749 47.7367 13.3406 46.8283 13.3406H3.52163C2.60074 13.3406 1.86651 14.0873 1.86651 14.9957V42.5104C1.86651 43.4313 2.61318 44.1655 3.52163 44.1655H37.7065C38.055 44.1655 38.3287 44.4393 38.3287 44.7878C38.3287 45.1362 38.055 45.41 37.7065 45.41Z" fill="#D25F15"/>
<path d="M30.2275 28.1991C29.9413 28.1991 29.68 28 29.6177 27.7137C29.5431 27.3777 29.7546 27.0417 30.0906 26.9671L48.9813 22.7982C49.3173 22.7235 49.6533 22.9351 49.728 23.2711C49.8026 23.6071 49.5911 23.9431 49.2551 24.0177L30.3644 28.1866C30.3146 28.1866 30.2648 28.1991 30.2275 28.1991ZM20.1351 28.1991C20.0853 28.1991 20.048 28.1991 19.9982 28.1866L1.10751 24.0177C0.771507 23.9431 0.559951 23.6071 0.634618 23.2711C0.709285 22.9351 1.04528 22.7235 1.38128 22.7982L20.272 26.9671C20.608 27.0417 20.8195 27.3777 20.7448 27.7137C20.6826 28 20.4213 28.1991 20.1351 28.1991Z" fill="#D25F15"/>
<path d="M29.4934 29.817H20.8694C20.1227 29.817 19.5129 29.2072 19.5129 28.4606V26.4446C19.5129 25.6979 20.1227 25.0881 20.8694 25.0881H29.4934C30.2401 25.0881 30.8498 25.6979 30.8498 26.4446V28.4606C30.8498 29.2072 30.2401 29.817 29.4934 29.817ZM20.8694 26.3326C20.8072 26.3326 20.7574 26.3824 20.7574 26.4446V28.4606C20.7574 28.5228 20.8072 28.5726 20.8694 28.5726H29.4934C29.5556 28.5726 29.6054 28.5228 29.6054 28.4606V26.4321C29.6054 26.3699 29.5556 26.3201 29.4934 26.3201L20.8694 26.3326Z" fill="#D25F15"/>
<path d="M25.175 35.2676C23.9555 35.2676 22.9724 34.2845 22.9724 33.065V29.1947C22.9724 28.8463 23.2461 28.5725 23.5946 28.5725C23.943 28.5725 24.2168 28.8463 24.2168 29.1947V33.065C24.2168 33.5876 24.6399 34.0232 25.175 34.0232C25.7101 34.0232 26.1333 33.5876 26.1333 33.065V29.1947C26.1333 28.8463 26.407 28.5725 26.7555 28.5725C27.1039 28.5725 27.3777 28.8463 27.3777 29.1947V33.065C27.3777 34.2845 26.3946 35.2676 25.175 35.2676ZM34.9813 13.3405C34.6328 13.3405 34.359 13.0667 34.359 12.7183V6.49608C34.359 5.42586 33.4879 4.55475 32.4177 4.55475H17.9448C16.8746 4.55475 16.0035 5.42586 16.0035 6.49608V12.7183C16.0035 13.0667 15.7297 13.3405 15.3813 13.3405C15.0328 13.3405 14.759 13.0667 14.759 12.7183V6.49608C14.759 4.74141 16.1901 3.3103 17.9448 3.3103H32.4177C34.1724 3.3103 35.6035 4.74141 35.6035 6.49608V12.7183C35.6035 13.0543 35.3173 13.3405 34.9813 13.3405Z" fill="#D25F15"/>
<path d="M31.7209 13.3406C31.3724 13.3406 31.0986 13.0668 31.0986 12.7183V7.80279H19.2515V12.7183C19.2515 13.0668 18.9777 13.3406 18.6293 13.3406C18.2809 13.3406 18.0071 13.0668 18.0071 12.7183V7.18057C18.0071 6.83213 18.2809 6.55835 18.6293 6.55835H31.7209C32.0693 6.55835 32.3431 6.83213 32.3431 7.18057V12.7183C32.3431 13.0543 32.0693 13.3406 31.7209 13.3406ZM45.6462 52.7023C45.5466 52.7023 45.4471 52.6775 45.36 52.6401L43.4311 51.657C38.7893 49.2801 35.9146 44.5761 35.9146 39.3619V33.5752C35.9146 33.3139 36.0764 33.0899 36.3129 32.9904L45.4222 29.4561C45.5715 29.3939 45.7333 29.3939 45.8702 29.4561L54.9795 32.9904C55.216 33.0899 55.3777 33.3139 55.3777 33.5752V39.3619C55.3777 44.5761 52.5031 49.2801 47.8613 51.657L45.9324 52.6401C45.8453 52.6775 45.7457 52.7023 45.6462 52.7023ZM37.1715 33.9984V39.3495C37.1715 44.0908 39.7973 48.3717 44.016 50.537L45.6586 51.3832L47.3013 50.537C51.52 48.3717 54.1457 44.0908 54.1457 39.3495V33.9984L45.6586 30.7006L37.1715 33.9984Z" fill="#D25F15"/>
<path d="M45.6462 49.417C45.5466 49.417 45.4471 49.3921 45.36 49.3548L44.6009 48.969C41.0169 47.1396 38.7893 43.4934 38.7893 39.4739V35.6285C38.7893 35.3672 38.9511 35.1432 39.1875 35.0436L45.4222 32.617C45.5715 32.5548 45.7333 32.5548 45.8702 32.617L52.1049 35.0436C52.3413 35.1432 52.5031 35.3672 52.5031 35.6285V39.4739C52.5031 43.4934 50.2755 47.1396 46.6915 48.969L45.9324 49.3548C45.8453 49.3921 45.7457 49.417 45.6462 49.417ZM45.1733 47.849L45.6462 48.0979L46.1191 47.849C49.28 46.2312 51.2462 43.0205 51.2462 39.4614V36.0392L45.6338 33.8614L40.0213 36.0392V39.4614C40.0462 43.0081 42.0124 46.2312 45.1733 47.849Z" fill="#D25F15"/>
<path d="M44.2399 43.8916C44.0782 43.8916 43.9164 43.8294 43.8044 43.705L42.0871 41.9876C41.8382 41.7387 41.8382 41.353 42.0871 41.1041C42.3359 40.8552 42.7217 40.8552 42.9706 41.1041L44.2524 42.3859L48.3715 38.2667C48.6204 38.0179 49.0062 38.0179 49.2551 38.2667C49.5039 38.5156 49.5039 38.9014 49.2551 39.1503L44.6755 43.7174C44.5511 43.8294 44.3893 43.8916 44.2399 43.8916Z" fill="#D25F15"/>
</svg>
