<svg width="910" height="522" viewBox="0 0 910 522" fill="none" xmlns="http://www.w3.org/2000/svg">
<g filter="url(#filter0_d_1546_942)">
<rect width="870" height="481" transform="translate(20 5.35156)" fill="white"/>
<path d="M113.088 99.5916C111.808 99.5916 110.616 99.3836 109.512 98.9676C108.424 98.5356 107.472 97.9356 106.656 97.1676C105.856 96.3836 105.232 95.4636 104.784 94.4076C104.336 93.3516 104.112 92.1996 104.112 90.9516C104.112 89.7036 104.336 88.5516 104.784 87.4956C105.232 86.4396 105.864 85.5276 106.68 84.7596C107.496 83.9756 108.448 83.3756 109.536 82.9596C110.624 82.5276 111.816 82.3116 113.112 82.3116C114.488 82.3116 115.744 82.5516 116.88 83.0316C118.016 83.4956 118.976 84.1916 119.76 85.1196L117.744 87.0156C117.136 86.3596 116.456 85.8716 115.704 85.5516C114.952 85.2156 114.136 85.0476 113.256 85.0476C112.376 85.0476 111.568 85.1916 110.832 85.4796C110.112 85.7676 109.48 86.1756 108.936 86.7036C108.408 87.2316 107.992 87.8556 107.688 88.5756C107.4 89.2956 107.256 90.0876 107.256 90.9516C107.256 91.8156 107.4 92.6076 107.688 93.3276C107.992 94.0476 108.408 94.6716 108.936 95.1996C109.48 95.7276 110.112 96.1356 110.832 96.4236C111.568 96.7116 112.376 96.8556 113.256 96.8556C114.136 96.8556 114.952 96.6956 115.704 96.3756C116.456 96.0396 117.136 95.5356 117.744 94.8636L119.76 96.7836C118.976 97.6956 118.016 98.3916 116.88 98.8716C115.744 99.3516 114.48 99.5916 113.088 99.5916ZM124.633 99.3516V88.3596L125.329 89.0796H120.121V86.5356H132.121V89.0796H126.937L127.633 88.3596V99.3516H124.633ZM141.401 99.5196C140.361 99.5196 139.409 99.2796 138.545 98.7996C137.697 98.3196 137.017 97.5996 136.505 96.6396C136.009 95.6636 135.761 94.4316 135.761 92.9436C135.761 91.4396 136.001 90.2076 136.481 89.2476C136.977 88.2876 137.649 87.5756 138.497 87.1116C139.345 86.6316 140.313 86.3916 141.401 86.3916C142.665 86.3916 143.777 86.6636 144.737 87.2076C145.713 87.7516 146.481 88.5116 147.041 89.4876C147.617 90.4636 147.905 91.6156 147.905 92.9436C147.905 94.2716 147.617 95.4316 147.041 96.4236C146.481 97.3996 145.713 98.1596 144.737 98.7036C143.777 99.2476 142.665 99.5196 141.401 99.5196ZM134.297 104.008V86.5356H137.153V89.5596L137.057 92.9676L137.297 96.3756V104.008H134.297ZM141.065 96.9516C141.785 96.9516 142.425 96.7916 142.985 96.4716C143.561 96.1516 144.017 95.6876 144.353 95.0796C144.689 94.4716 144.857 93.7596 144.857 92.9436C144.857 92.1116 144.689 91.3996 144.353 90.8076C144.017 90.1996 143.561 89.7356 142.985 89.4156C142.425 89.0956 141.785 88.9356 141.065 88.9356C140.345 88.9356 139.697 89.0956 139.121 89.4156C138.545 89.7356 138.089 90.1996 137.753 90.8076C137.417 91.3996 137.249 92.1116 137.249 92.9436C137.249 93.7596 137.417 94.4716 137.753 95.0796C138.089 95.6876 138.545 96.1516 139.121 96.4716C139.697 96.7916 140.345 96.9516 141.065 96.9516ZM151.691 104.176C151.067 104.176 150.443 104.072 149.819 103.864C149.195 103.656 148.675 103.368 148.259 103L149.459 100.792C149.763 101.064 150.107 101.28 150.491 101.44C150.875 101.6 151.267 101.68 151.667 101.68C152.211 101.68 152.651 101.544 152.987 101.272C153.323 101 153.635 100.544 153.923 99.9036L154.667 98.2236L154.907 97.8636L159.755 86.5356H162.635L156.635 100.384C156.235 101.344 155.787 102.104 155.291 102.664C154.811 103.224 154.267 103.616 153.659 103.84C153.067 104.064 152.411 104.176 151.691 104.176ZM154.331 99.8076L148.547 86.5356H151.667L156.371 97.5996L154.331 99.8076ZM173.911 99.3516L169.279 93.2076L171.727 91.6956L177.439 99.3516H173.911ZM164.719 99.3516V86.5356H167.719V99.3516H164.719ZM166.831 94.2156V91.7196H171.175V94.2156H166.831ZM172.015 93.3036L169.207 92.9676L173.911 86.5356H177.127L172.015 93.3036ZM182.055 99.3516V88.3596L182.751 89.0796H177.543V86.5356H189.543V89.0796H184.359L185.055 88.3596V99.3516H182.055ZM192.895 104.176C192.271 104.176 191.647 104.072 191.023 103.864C190.399 103.656 189.879 103.368 189.463 103L190.663 100.792C190.967 101.064 191.311 101.28 191.695 101.44C192.079 101.6 192.471 101.68 192.871 101.68C193.415 101.68 193.855 101.544 194.191 101.272C194.527 101 194.839 100.544 195.127 99.9036L195.871 98.2236L196.111 97.8636L200.959 86.5356H203.839L197.839 100.384C197.439 101.344 196.991 102.104 196.495 102.664C196.015 103.224 195.471 103.616 194.863 103.84C194.271 104.064 193.615 104.176 192.895 104.176ZM195.535 99.8076L189.751 86.5356H192.871L197.575 97.5996L195.535 99.8076ZM213.026 99.5196C211.986 99.5196 211.034 99.2796 210.17 98.7996C209.322 98.3196 208.642 97.5996 208.13 96.6396C207.634 95.6636 207.386 94.4316 207.386 92.9436C207.386 91.4396 207.626 90.2076 208.106 89.2476C208.602 88.2876 209.274 87.5756 210.122 87.1116C210.97 86.6316 211.938 86.3916 213.026 86.3916C214.29 86.3916 215.402 86.6636 216.362 87.2076C217.338 87.7516 218.106 88.5116 218.666 89.4876C219.242 90.4636 219.53 91.6156 219.53 92.9436C219.53 94.2716 219.242 95.4316 218.666 96.4236C218.106 97.3996 217.338 98.1596 216.362 98.7036C215.402 99.2476 214.29 99.5196 213.026 99.5196ZM205.922 104.008V86.5356H208.778V89.5596L208.682 92.9676L208.922 96.3756V104.008H205.922ZM212.69 96.9516C213.41 96.9516 214.05 96.7916 214.61 96.4716C215.186 96.1516 215.642 95.6876 215.978 95.0796C216.314 94.4716 216.482 93.7596 216.482 92.9436C216.482 92.1116 216.314 91.3996 215.978 90.8076C215.642 90.1996 215.186 89.7356 214.61 89.4156C214.05 89.0956 213.41 88.9356 212.69 88.9356C211.97 88.9356 211.322 89.0956 210.746 89.4156C210.17 89.7356 209.714 90.1996 209.378 90.8076C209.042 91.3996 208.874 92.1116 208.874 92.9436C208.874 93.7596 209.042 94.4716 209.378 95.0796C209.714 95.6876 210.17 96.1516 210.746 96.4716C211.322 96.7916 211.97 96.9516 212.69 96.9516ZM230.128 99.3516V96.7596L229.96 96.2076V91.6716C229.96 90.7916 229.696 90.1116 229.168 89.6316C228.64 89.1356 227.84 88.8876 226.768 88.8876C226.048 88.8876 225.336 88.9996 224.632 89.2236C223.944 89.4476 223.36 89.7596 222.88 90.1596L221.704 87.9756C222.392 87.4476 223.208 87.0556 224.152 86.7996C225.112 86.5276 226.104 86.3916 227.128 86.3916C228.984 86.3916 230.416 86.8396 231.424 87.7356C232.448 88.6156 232.96 89.9836 232.96 91.8396V99.3516H230.128ZM226.096 99.5196C225.136 99.5196 224.296 99.3596 223.576 99.0396C222.856 98.7036 222.296 98.2476 221.896 97.6716C221.512 97.0796 221.32 96.4156 221.32 95.6796C221.32 94.9596 221.488 94.3116 221.824 93.7356C222.176 93.1596 222.744 92.7036 223.528 92.3676C224.312 92.0316 225.352 91.8636 226.648 91.8636H230.368V93.8556H226.864C225.84 93.8556 225.152 94.0236 224.8 94.3596C224.448 94.6796 224.272 95.0796 224.272 95.5596C224.272 96.1036 224.488 96.5356 224.92 96.8556C225.352 97.1756 225.952 97.3356 226.72 97.3356C227.456 97.3356 228.112 97.1676 228.688 96.8316C229.28 96.4956 229.704 95.9996 229.96 95.3436L230.464 97.1436C230.176 97.8956 229.656 98.4796 228.904 98.8956C228.168 99.3116 227.232 99.5196 226.096 99.5196ZM243.305 99.3516V86.5356H255.593V99.3516H252.617V88.3836L253.313 89.0796H245.609L246.305 88.3836V99.3516H243.305ZM265.353 99.5196C264.041 99.5196 262.873 99.2396 261.849 98.6796C260.825 98.1036 260.017 97.3196 259.425 96.3276C258.833 95.3356 258.537 94.2076 258.537 92.9436C258.537 91.6636 258.833 90.5356 259.425 89.5596C260.017 88.5676 260.825 87.7916 261.849 87.2316C262.873 86.6716 264.041 86.3916 265.353 86.3916C266.681 86.3916 267.857 86.6716 268.881 87.2316C269.921 87.7916 270.729 88.5596 271.305 89.5356C271.897 90.5116 272.193 91.6476 272.193 92.9436C272.193 94.2076 271.897 95.3356 271.305 96.3276C270.729 97.3196 269.921 98.1036 268.881 98.6796C267.857 99.2396 266.681 99.5196 265.353 99.5196ZM265.353 96.9516C266.089 96.9516 266.745 96.7916 267.321 96.4716C267.897 96.1516 268.345 95.6876 268.665 95.0796C269.001 94.4716 269.169 93.7596 269.169 92.9436C269.169 92.1116 269.001 91.3996 268.665 90.8076C268.345 90.1996 267.897 89.7356 267.321 89.4156C266.745 89.0956 266.097 88.9356 265.377 88.9356C264.641 88.9356 263.985 89.0956 263.409 89.4156C262.849 89.7356 262.401 90.1996 262.065 90.8076C261.729 91.3996 261.561 92.1116 261.561 92.9436C261.561 93.7596 261.729 94.4716 262.065 95.0796C262.401 95.6876 262.849 96.1516 263.409 96.4716C263.985 96.7916 264.633 96.9516 265.353 96.9516ZM287.621 99.5196C286.277 99.5196 285.077 99.2396 284.021 98.6796C282.981 98.1036 282.165 97.3196 281.573 96.3276C280.981 95.3356 280.685 94.2076 280.685 92.9436C280.685 91.6636 280.981 90.5356 281.573 89.5596C282.165 88.5676 282.981 87.7916 284.021 87.2316C285.077 86.6716 286.277 86.3916 287.621 86.3916C288.869 86.3916 289.965 86.6476 290.909 87.1596C291.869 87.6556 292.597 88.3916 293.093 89.3676L290.789 90.7116C290.405 90.1036 289.933 89.6556 289.373 89.3676C288.829 89.0796 288.237 88.9356 287.597 88.9356C286.861 88.9356 286.197 89.0956 285.605 89.4156C285.013 89.7356 284.549 90.1996 284.213 90.8076C283.877 91.3996 283.709 92.1116 283.709 92.9436C283.709 93.7756 283.877 94.4956 284.213 95.1036C284.549 95.6956 285.013 96.1516 285.605 96.4716C286.197 96.7916 286.861 96.9516 287.597 96.9516C288.237 96.9516 288.829 96.8076 289.373 96.5196C289.933 96.2316 290.405 95.7836 290.789 95.1756L293.093 96.5196C292.597 97.4796 291.869 98.2236 290.909 98.7516C289.965 99.2636 288.869 99.5196 287.621 99.5196ZM295.735 99.3516V86.5356H308.023V99.3516H305.047V88.3836L305.743 89.0796H298.039L298.735 88.3836V99.3516H295.735ZM319.175 99.5196C318.135 99.5196 317.183 99.2796 316.319 98.7996C315.471 98.3196 314.791 97.5996 314.279 96.6396C313.783 95.6636 313.535 94.4316 313.535 92.9436C313.535 91.4396 313.775 90.2076 314.255 89.2476C314.751 88.2876 315.423 87.5756 316.271 87.1116C317.119 86.6316 318.087 86.3916 319.175 86.3916C320.439 86.3916 321.551 86.6636 322.511 87.2076C323.487 87.7516 324.255 88.5116 324.815 89.4876C325.391 90.4636 325.679 91.6156 325.679 92.9436C325.679 94.2716 325.391 95.4316 324.815 96.4236C324.255 97.3996 323.487 98.1596 322.511 98.7036C321.551 99.2476 320.439 99.5196 319.175 99.5196ZM312.071 104.008V86.5356H314.927V89.5596L314.831 92.9676L315.071 96.3756V104.008H312.071ZM318.839 96.9516C319.559 96.9516 320.199 96.7916 320.759 96.4716C321.335 96.1516 321.791 95.6876 322.127 95.0796C322.463 94.4716 322.631 93.7596 322.631 92.9436C322.631 92.1116 322.463 91.3996 322.127 90.8076C321.791 90.1996 321.335 89.7356 320.759 89.4156C320.199 89.0956 319.559 88.9356 318.839 88.9356C318.119 88.9356 317.471 89.0956 316.895 89.4156C316.319 89.7356 315.863 90.1996 315.527 90.8076C315.191 91.3996 315.023 92.1116 315.023 92.9436C315.023 93.7596 315.191 94.4716 315.527 95.0796C315.863 95.6876 316.319 96.1516 316.895 96.4716C317.471 96.7916 318.119 96.9516 318.839 96.9516ZM334.376 99.5196C333.064 99.5196 331.896 99.2396 330.872 98.6796C329.848 98.1036 329.04 97.3196 328.448 96.3276C327.856 95.3356 327.56 94.2076 327.56 92.9436C327.56 91.6636 327.856 90.5356 328.448 89.5596C329.04 88.5676 329.848 87.7916 330.872 87.2316C331.896 86.6716 333.064 86.3916 334.376 86.3916C335.704 86.3916 336.88 86.6716 337.904 87.2316C338.944 87.7916 339.752 88.5596 340.328 89.5356C340.92 90.5116 341.216 91.6476 341.216 92.9436C341.216 94.2076 340.92 95.3356 340.328 96.3276C339.752 97.3196 338.944 98.1036 337.904 98.6796C336.88 99.2396 335.704 99.5196 334.376 99.5196ZM334.376 96.9516C335.112 96.9516 335.768 96.7916 336.344 96.4716C336.92 96.1516 337.368 95.6876 337.688 95.0796C338.024 94.4716 338.192 93.7596 338.192 92.9436C338.192 92.1116 338.024 91.3996 337.688 90.8076C337.368 90.1996 336.92 89.7356 336.344 89.4156C335.768 89.0956 335.12 88.9356 334.4 88.9356C333.664 88.9356 333.008 89.0956 332.432 89.4156C331.872 89.7356 331.424 90.1996 331.088 90.8076C330.752 91.3996 330.584 92.1116 330.584 92.9436C330.584 93.7596 330.752 94.4716 331.088 95.0796C331.424 95.6876 331.872 96.1516 332.432 96.4716C333.008 96.7916 333.656 96.9516 334.376 96.9516ZM350.012 99.5196C348.668 99.5196 347.468 99.2396 346.412 98.6796C345.372 98.1036 344.556 97.3196 343.964 96.3276C343.372 95.3356 343.076 94.2076 343.076 92.9436C343.076 91.6636 343.372 90.5356 343.964 89.5596C344.556 88.5676 345.372 87.7916 346.412 87.2316C347.468 86.6716 348.668 86.3916 350.012 86.3916C351.26 86.3916 352.356 86.6476 353.3 87.1596C354.26 87.6556 354.988 88.3916 355.484 89.3676L353.18 90.7116C352.796 90.1036 352.324 89.6556 351.764 89.3676C351.22 89.0796 350.628 88.9356 349.988 88.9356C349.252 88.9356 348.588 89.0956 347.996 89.4156C347.404 89.7356 346.94 90.1996 346.604 90.8076C346.268 91.3996 346.1 92.1116 346.1 92.9436C346.1 93.7756 346.268 94.4956 346.604 95.1036C346.94 95.6956 347.404 96.1516 347.996 96.4716C348.588 96.7916 349.252 96.9516 349.988 96.9516C350.628 96.9516 351.22 96.8076 351.764 96.5196C352.324 96.2316 352.796 95.7836 353.18 95.1756L355.484 96.5196C354.988 97.4796 354.26 98.2236 353.3 98.7516C352.356 99.2636 351.26 99.5196 350.012 99.5196ZM359.113 104.176C358.489 104.176 357.865 104.072 357.241 103.864C356.617 103.656 356.097 103.368 355.681 103L356.881 100.792C357.185 101.064 357.529 101.28 357.913 101.44C358.297 101.6 358.689 101.68 359.089 101.68C359.633 101.68 360.073 101.544 360.409 101.272C360.745 101 361.057 100.544 361.345 99.9036L362.089 98.2236L362.329 97.8636L367.177 86.5356H370.057L364.057 100.384C363.657 101.344 363.209 102.104 362.713 102.664C362.233 103.224 361.689 103.616 361.081 103.84C360.489 104.064 359.833 104.176 359.113 104.176ZM361.753 99.8076L355.969 86.5356H359.089L363.793 97.5996L361.753 99.8076ZM384.486 99.5196C383.174 99.5196 382.006 99.2396 380.982 98.6796C379.958 98.1036 379.15 97.3196 378.558 96.3276C377.966 95.3356 377.67 94.2076 377.67 92.9436C377.67 91.6636 377.966 90.5356 378.558 89.5596C379.15 88.5676 379.958 87.7916 380.982 87.2316C382.006 86.6716 383.174 86.3916 384.486 86.3916C385.814 86.3916 386.99 86.6716 388.014 87.2316C389.054 87.7916 389.862 88.5596 390.438 89.5356C391.03 90.5116 391.326 91.6476 391.326 92.9436C391.326 94.2076 391.03 95.3356 390.438 96.3276C389.862 97.3196 389.054 98.1036 388.014 98.6796C386.99 99.2396 385.814 99.5196 384.486 99.5196ZM384.486 96.9516C385.222 96.9516 385.878 96.7916 386.454 96.4716C387.03 96.1516 387.478 95.6876 387.798 95.0796C388.134 94.4716 388.302 93.7596 388.302 92.9436C388.302 92.1116 388.134 91.3996 387.798 90.8076C387.478 90.1996 387.03 89.7356 386.454 89.4156C385.878 89.0956 385.23 88.9356 384.51 88.9356C383.774 88.9356 383.118 89.0956 382.542 89.4156C381.982 89.7356 381.534 90.1996 381.198 90.8076C380.862 91.3996 380.694 92.1116 380.694 92.9436C380.694 93.7596 380.862 94.4716 381.198 95.0796C381.534 95.6876 381.982 96.1516 382.542 96.4716C383.118 96.7916 383.766 96.9516 384.486 96.9516ZM394.289 99.3516V86.5356H406.577V99.3516H403.601V88.3836L404.297 89.0796H396.593L397.289 88.3836V99.3516H394.289ZM423.561 99.3516V86.5356H426.561V99.3516H423.561ZM416.865 90.7596C418.513 90.7596 419.761 91.1276 420.609 91.8636C421.473 92.5996 421.905 93.6396 421.905 94.9836C421.905 96.3756 421.425 97.4636 420.465 98.2476C419.521 99.0156 418.177 99.3916 416.433 99.3756L410.625 99.3516V86.5356H413.625V90.7356L416.865 90.7596ZM416.169 97.1676C417.049 97.1836 417.721 96.9996 418.185 96.6156C418.649 96.2316 418.881 95.6716 418.881 94.9356C418.881 94.1996 418.649 93.6716 418.185 93.3516C417.737 93.0156 417.065 92.8396 416.169 92.8236L413.625 92.7996V97.1436L416.169 97.1676ZM433.258 99.3516V88.3596L433.954 89.0796H428.746V86.5356H440.746V89.0796H435.562L436.258 88.3596V99.3516H433.258ZM450.698 99.3516V96.7596L450.53 96.2076V91.6716C450.53 90.7916 450.266 90.1116 449.738 89.6316C449.21 89.1356 448.41 88.8876 447.338 88.8876C446.618 88.8876 445.906 88.9996 445.202 89.2236C444.514 89.4476 443.93 89.7596 443.45 90.1596L442.274 87.9756C442.962 87.4476 443.778 87.0556 444.722 86.7996C445.682 86.5276 446.674 86.3916 447.698 86.3916C449.554 86.3916 450.986 86.8396 451.994 87.7356C453.018 88.6156 453.53 89.9836 453.53 91.8396V99.3516H450.698ZM446.666 99.5196C445.706 99.5196 444.866 99.3596 444.146 99.0396C443.426 98.7036 442.866 98.2476 442.466 97.6716C442.082 97.0796 441.89 96.4156 441.89 95.6796C441.89 94.9596 442.058 94.3116 442.394 93.7356C442.746 93.1596 443.314 92.7036 444.098 92.3676C444.882 92.0316 445.922 91.8636 447.218 91.8636H450.938V93.8556H447.434C446.41 93.8556 445.722 94.0236 445.37 94.3596C445.018 94.6796 444.842 95.0796 444.842 95.5596C444.842 96.1036 445.058 96.5356 445.49 96.8556C445.922 97.1756 446.522 97.3356 447.29 97.3356C448.026 97.3356 448.682 97.1676 449.258 96.8316C449.85 96.4956 450.274 95.9996 450.53 95.3436L451.034 97.1436C450.746 97.8956 450.226 98.4796 449.474 98.8956C448.738 99.3116 447.802 99.5196 446.666 99.5196ZM470.979 99.5196C469.939 99.5196 468.987 99.2796 468.123 98.7996C467.275 98.3196 466.595 97.5996 466.083 96.6396C465.587 95.6636 465.339 94.4316 465.339 92.9436C465.339 91.4396 465.579 90.2076 466.059 89.2476C466.555 88.2876 467.227 87.5756 468.075 87.1116C468.923 86.6316 469.891 86.3916 470.979 86.3916C472.243 86.3916 473.355 86.6636 474.315 87.2076C475.291 87.7516 476.059 88.5116 476.619 89.4876C477.195 90.4636 477.483 91.6156 477.483 92.9436C477.483 94.2716 477.195 95.4316 476.619 96.4236C476.059 97.3996 475.291 98.1596 474.315 98.7036C473.355 99.2476 472.243 99.5196 470.979 99.5196ZM463.875 104.008V86.5356H466.731V89.5596L466.635 92.9676L466.875 96.3756V104.008H463.875ZM470.643 96.9516C471.363 96.9516 472.003 96.7916 472.563 96.4716C473.139 96.1516 473.595 95.6876 473.931 95.0796C474.267 94.4716 474.435 93.7596 474.435 92.9436C474.435 92.1116 474.267 91.3996 473.931 90.8076C473.595 90.1996 473.139 89.7356 472.563 89.4156C472.003 89.0956 471.363 88.9356 470.643 88.9356C469.923 88.9356 469.275 89.0956 468.699 89.4156C468.123 89.7356 467.667 90.1996 467.331 90.8076C466.995 91.3996 466.827 92.1116 466.827 92.9436C466.827 93.7596 466.995 94.4716 467.331 95.0796C467.667 95.6876 468.123 96.1516 468.699 96.4716C469.275 96.7916 469.923 96.9516 470.643 96.9516ZM488.081 99.3516V96.7596L487.913 96.2076V91.6716C487.913 90.7916 487.649 90.1116 487.121 89.6316C486.593 89.1356 485.793 88.8876 484.721 88.8876C484.001 88.8876 483.289 88.9996 482.585 89.2236C481.897 89.4476 481.313 89.7596 480.833 90.1596L479.657 87.9756C480.345 87.4476 481.161 87.0556 482.105 86.7996C483.065 86.5276 484.057 86.3916 485.081 86.3916C486.937 86.3916 488.369 86.8396 489.377 87.7356C490.401 88.6156 490.913 89.9836 490.913 91.8396V99.3516H488.081ZM484.049 99.5196C483.089 99.5196 482.249 99.3596 481.529 99.0396C480.809 98.7036 480.249 98.2476 479.849 97.6716C479.465 97.0796 479.273 96.4156 479.273 95.6796C479.273 94.9596 479.441 94.3116 479.777 93.7356C480.129 93.1596 480.697 92.7036 481.481 92.3676C482.265 92.0316 483.305 91.8636 484.601 91.8636H488.321V93.8556H484.817C483.793 93.8556 483.105 94.0236 482.753 94.3596C482.401 94.6796 482.225 95.0796 482.225 95.5596C482.225 96.1036 482.441 96.5356 482.873 96.8556C483.305 97.1756 483.905 97.3356 484.673 97.3356C485.409 97.3356 486.065 97.1676 486.641 96.8316C487.233 96.4956 487.657 95.9996 487.913 95.3436L488.417 97.1436C488.129 97.8956 487.609 98.4796 486.857 98.8956C486.121 99.3116 485.185 99.5196 484.049 99.5196ZM500.745 99.5916C499.689 99.5916 498.745 99.4316 497.913 99.1116C497.081 98.7916 496.361 98.3036 495.753 97.6476C495.161 96.9756 494.705 96.1276 494.385 95.1036C494.065 94.0796 493.905 92.8636 493.905 91.4556C493.905 90.4316 493.993 89.4956 494.169 88.6476C494.345 87.7996 494.609 87.0396 494.961 86.3676C495.313 85.6796 495.753 85.0716 496.281 84.5436C496.825 84.0156 497.457 83.5756 498.177 83.2236C498.897 82.8716 499.713 82.5996 500.625 82.4076L506.577 81.1356L507.009 83.8236L501.609 84.9276C501.305 84.9916 500.937 85.0876 500.505 85.2156C500.089 85.3276 499.657 85.5036 499.209 85.7436C498.777 85.9676 498.369 86.2956 497.985 86.7276C497.617 87.1436 497.313 87.6876 497.073 88.3596C496.849 89.0156 496.737 89.8396 496.737 90.8316C496.737 91.1356 496.745 91.3676 496.761 91.5276C496.793 91.6716 496.817 91.8316 496.833 92.0076C496.865 92.1676 496.881 92.4076 496.881 92.7276L495.753 91.5516C496.073 90.7356 496.513 90.0396 497.073 89.4636C497.649 88.8716 498.313 88.4236 499.065 88.1196C499.833 87.7996 500.665 87.6396 501.561 87.6396C502.761 87.6396 503.825 87.8876 504.753 88.3836C505.681 88.8796 506.409 89.5756 506.937 90.4716C507.465 91.3676 507.729 92.3836 507.729 93.5196C507.729 94.7036 507.441 95.7516 506.865 96.6636C506.289 97.5756 505.473 98.2956 504.417 98.8236C503.377 99.3356 502.153 99.5916 500.745 99.5916ZM500.985 97.1676C501.705 97.1676 502.337 97.0156 502.881 96.7116C503.441 96.3916 503.873 95.9596 504.177 95.4156C504.497 94.8716 504.657 94.2636 504.657 93.5916C504.657 92.9196 504.497 92.3356 504.177 91.8396C503.873 91.3276 503.441 90.9196 502.881 90.6156C502.337 90.3116 501.689 90.1596 500.937 90.1596C500.217 90.1596 499.569 90.3036 498.993 90.5916C498.433 90.8796 497.993 91.2796 497.673 91.7916C497.369 92.2876 497.217 92.8636 497.217 93.5196C497.217 94.1916 497.377 94.8076 497.697 95.3676C498.017 95.9276 498.457 96.3676 499.017 96.6876C499.593 97.0076 500.249 97.1676 500.985 97.1676ZM516.345 99.5196C515.033 99.5196 513.865 99.2396 512.841 98.6796C511.817 98.1036 511.009 97.3196 510.417 96.3276C509.825 95.3356 509.529 94.2076 509.529 92.9436C509.529 91.6636 509.825 90.5356 510.417 89.5596C511.009 88.5676 511.817 87.7916 512.841 87.2316C513.865 86.6716 515.033 86.3916 516.345 86.3916C517.673 86.3916 518.849 86.6716 519.873 87.2316C520.913 87.7916 521.721 88.5596 522.297 89.5356C522.889 90.5116 523.185 91.6476 523.185 92.9436C523.185 94.2076 522.889 95.3356 522.297 96.3276C521.721 97.3196 520.913 98.1036 519.873 98.6796C518.849 99.2396 517.673 99.5196 516.345 99.5196ZM516.345 96.9516C517.081 96.9516 517.737 96.7916 518.313 96.4716C518.889 96.1516 519.337 95.6876 519.657 95.0796C519.993 94.4716 520.161 93.7596 520.161 92.9436C520.161 92.1116 519.993 91.3996 519.657 90.8076C519.337 90.1996 518.889 89.7356 518.313 89.4156C517.737 89.0956 517.089 88.9356 516.369 88.9356C515.633 88.9356 514.977 89.0956 514.401 89.4156C513.841 89.7356 513.393 90.1996 513.057 90.8076C512.721 91.3996 512.553 92.1116 512.553 92.9436C512.553 93.7596 512.721 94.4716 513.057 95.0796C513.393 95.6876 513.841 96.1516 514.401 96.4716C514.977 96.7916 515.625 96.9516 516.345 96.9516ZM528.344 99.3516V88.3596L529.04 89.0796H523.832V86.5356H535.832V89.0796H530.648L531.344 88.3596V99.3516H528.344ZM550.944 99.3516V86.5356H553.944V99.3516H550.944ZM544.248 90.7596C545.896 90.7596 547.144 91.1276 547.992 91.8636C548.856 92.5996 549.288 93.6396 549.288 94.9836C549.288 96.3756 548.808 97.4636 547.848 98.2476C546.904 99.0156 545.56 99.3916 543.816 99.3756L538.008 99.3516V86.5356H541.008V90.7356L544.248 90.7596ZM543.552 97.1676C544.432 97.1836 545.104 96.9996 545.568 96.6156C546.032 96.2316 546.264 95.6716 546.264 94.9356C546.264 94.1996 546.032 93.6716 545.568 93.3516C545.12 93.0156 544.448 92.8396 543.552 92.8236L541.008 92.7996V97.1436L543.552 97.1676ZM557.137 102.976L558.529 97.6716L558.937 99.4476C558.377 99.4476 557.905 99.2796 557.521 98.9436C557.153 98.5916 556.969 98.1196 556.969 97.5276C556.969 96.9196 557.153 96.4396 557.521 96.0876C557.905 95.7196 558.369 95.5356 558.913 95.5356C559.473 95.5356 559.937 95.7196 560.305 96.0876C560.673 96.4556 560.857 96.9356 560.857 97.5276C560.857 97.6876 560.841 97.8636 560.809 98.0556C560.777 98.2316 560.721 98.4396 560.641 98.6796C560.577 98.9196 560.465 99.2236 560.305 99.5916L559.081 102.976H557.137ZM569.293 99.3516V97.2636L575.965 90.9276C576.525 90.3996 576.941 89.9356 577.213 89.5356C577.485 89.1356 577.661 88.7676 577.741 88.4316C577.837 88.0796 577.885 87.7516 577.885 87.4476C577.885 86.6796 577.621 86.0876 577.093 85.6716C576.565 85.2396 575.789 85.0236 574.765 85.0236C573.949 85.0236 573.205 85.1676 572.533 85.4556C571.877 85.7436 571.309 86.1836 570.829 86.7756L568.645 85.0956C569.301 84.2156 570.181 83.5356 571.285 83.0556C572.405 82.5596 573.653 82.3116 575.029 82.3116C576.245 82.3116 577.301 82.5116 578.197 82.9116C579.109 83.2956 579.805 83.8476 580.285 84.5676C580.781 85.2876 581.029 86.1436 581.029 87.1356C581.029 87.6796 580.957 88.2236 580.813 88.7676C580.669 89.2956 580.397 89.8556 579.997 90.4476C579.597 91.0396 579.013 91.7036 578.245 92.4396L572.509 97.8876L571.861 96.7116H581.677V99.3516H569.293ZM600.263 99.3516L595.631 93.2076L598.079 91.6956L603.791 99.3516H600.263ZM591.071 99.3516V86.5356H594.071V99.3516H591.071ZM593.183 94.2156V91.7196H597.527V94.2156H593.183ZM598.367 93.3036L595.559 92.9676L600.263 86.5356H603.479L598.367 93.3036ZM605.907 99.3516V86.5356H612.171C613.723 86.5356 614.939 86.8236 615.819 87.3996C616.715 87.9756 617.163 88.7916 617.163 89.8476C617.163 90.8876 616.747 91.7036 615.915 92.2956C615.083 92.8716 613.979 93.1596 612.603 93.1596L612.963 92.4156C614.515 92.4156 615.667 92.7036 616.419 93.2796C617.187 93.8396 617.571 94.6636 617.571 95.7516C617.571 96.8876 617.147 97.7756 616.299 98.4156C615.451 99.0396 614.163 99.3516 612.435 99.3516H605.907ZM608.763 97.1676H612.195C613.011 97.1676 613.627 97.0396 614.043 96.7836C614.459 96.5116 614.667 96.1036 614.667 95.5596C614.667 94.9836 614.475 94.5596 614.091 94.2876C613.707 94.0156 613.107 93.8796 612.291 93.8796H608.763V97.1676ZM608.763 91.8876H611.907C612.675 91.8876 613.251 91.7516 613.635 91.4796C614.035 91.1916 614.235 90.7916 614.235 90.2796C614.235 89.7516 614.035 89.3596 613.635 89.1036C613.251 88.8476 612.675 88.7196 611.907 88.7196H608.763V91.8876ZM628.542 99.3516V96.7596L628.374 96.2076V91.6716C628.374 90.7916 628.11 90.1116 627.582 89.6316C627.054 89.1356 626.254 88.8876 625.182 88.8876C624.462 88.8876 623.75 88.9996 623.046 89.2236C622.358 89.4476 621.774 89.7596 621.294 90.1596L620.118 87.9756C620.806 87.4476 621.622 87.0556 622.566 86.7996C623.526 86.5276 624.518 86.3916 625.542 86.3916C627.398 86.3916 628.83 86.8396 629.838 87.7356C630.862 88.6156 631.374 89.9836 631.374 91.8396V99.3516H628.542ZM624.51 99.5196C623.55 99.5196 622.71 99.3596 621.99 99.0396C621.27 98.7036 620.71 98.2476 620.31 97.6716C619.926 97.0796 619.734 96.4156 619.734 95.6796C619.734 94.9596 619.902 94.3116 620.238 93.7356C620.59 93.1596 621.158 92.7036 621.942 92.3676C622.726 92.0316 623.766 91.8636 625.062 91.8636H628.782V93.8556H625.278C624.254 93.8556 623.566 94.0236 623.214 94.3596C622.862 94.6796 622.686 95.0796 622.686 95.5596C622.686 96.1036 622.902 96.5356 623.334 96.8556C623.766 97.1756 624.366 97.3356 625.134 97.3356C625.87 97.3356 626.526 97.1676 627.102 96.8316C627.694 96.4956 628.118 95.9996 628.374 95.3436L628.878 97.1436C628.59 97.8956 628.07 98.4796 627.318 98.8956C626.582 99.3116 625.646 99.5196 624.51 99.5196ZM642.19 99.5196C641.15 99.5196 640.198 99.2796 639.334 98.7996C638.486 98.3196 637.806 97.5996 637.294 96.6396C636.798 95.6636 636.55 94.4316 636.55 92.9436C636.55 91.4396 636.79 90.2076 637.27 89.2476C637.766 88.2876 638.438 87.5756 639.286 87.1116C640.134 86.6316 641.102 86.3916 642.19 86.3916C643.454 86.3916 644.566 86.6636 645.526 87.2076C646.502 87.7516 647.27 88.5116 647.83 89.4876C648.406 90.4636 648.694 91.6156 648.694 92.9436C648.694 94.2716 648.406 95.4316 647.83 96.4236C647.27 97.3996 646.502 98.1596 645.526 98.7036C644.566 99.2476 643.454 99.5196 642.19 99.5196ZM635.086 104.008V86.5356H637.942V89.5596L637.846 92.9676L638.086 96.3756V104.008H635.086ZM641.854 96.9516C642.574 96.9516 643.214 96.7916 643.774 96.4716C644.35 96.1516 644.806 95.6876 645.142 95.0796C645.478 94.4716 645.646 93.7596 645.646 92.9436C645.646 92.1116 645.478 91.3996 645.142 90.8076C644.806 90.1996 644.35 89.7356 643.774 89.4156C643.214 89.0956 642.574 88.9356 641.854 88.9356C641.134 88.9356 640.486 89.0956 639.91 89.4156C639.334 89.7356 638.878 90.1996 638.542 90.8076C638.206 91.3996 638.038 92.1116 638.038 92.9436C638.038 93.7596 638.206 94.4716 638.542 95.0796C638.878 95.6876 639.334 96.1516 639.91 96.4716C640.486 96.7916 641.134 96.9516 641.854 96.9516ZM653.875 99.3516V88.3596L654.571 89.0796H649.363V86.5356H661.363V89.0796H656.179L656.875 88.3596V99.3516H653.875ZM671.315 99.3516V96.7596L671.147 96.2076V91.6716C671.147 90.7916 670.883 90.1116 670.355 89.6316C669.827 89.1356 669.027 88.8876 667.955 88.8876C667.235 88.8876 666.523 88.9996 665.819 89.2236C665.131 89.4476 664.547 89.7596 664.067 90.1596L662.891 87.9756C663.579 87.4476 664.395 87.0556 665.339 86.7996C666.299 86.5276 667.291 86.3916 668.315 86.3916C670.171 86.3916 671.603 86.8396 672.611 87.7356C673.635 88.6156 674.147 89.9836 674.147 91.8396V99.3516H671.315ZM667.283 99.5196C666.323 99.5196 665.483 99.3596 664.763 99.0396C664.043 98.7036 663.483 98.2476 663.083 97.6716C662.699 97.0796 662.507 96.4156 662.507 95.6796C662.507 94.9596 662.675 94.3116 663.011 93.7356C663.363 93.1596 663.931 92.7036 664.715 92.3676C665.499 92.0316 666.539 91.8636 667.835 91.8636H671.555V93.8556H668.051C667.027 93.8556 666.339 94.0236 665.987 94.3596C665.635 94.6796 665.459 95.0796 665.459 95.5596C665.459 96.1036 665.675 96.5356 666.107 96.8556C666.539 97.1756 667.139 97.3356 667.907 97.3356C668.643 97.3356 669.299 97.1676 669.875 96.8316C670.467 96.4956 670.891 95.9996 671.147 95.3436L671.651 97.1436C671.363 97.8956 670.843 98.4796 670.091 98.8956C669.355 99.3116 668.419 99.5196 667.283 99.5196ZM675.988 99.3276L676.132 96.8076C676.244 96.8236 676.348 96.8396 676.444 96.8556C676.54 96.8716 676.628 96.8796 676.708 96.8796C677.204 96.8796 677.588 96.7276 677.86 96.4236C678.132 96.1196 678.332 95.7116 678.46 95.1996C678.604 94.6716 678.7 94.0876 678.748 93.4476C678.812 92.7916 678.86 92.1356 678.892 91.4796L679.108 86.5356H689.476V99.3516H686.476V88.2636L687.172 89.0796H681.076L681.724 88.2396L681.556 91.6236C681.508 92.7596 681.412 93.8156 681.268 94.7916C681.14 95.7516 680.932 96.5916 680.644 97.3116C680.372 98.0316 679.988 98.5916 679.492 98.9916C679.012 99.3916 678.396 99.5916 677.644 99.5916C677.404 99.5916 677.14 99.5676 676.852 99.5196C676.58 99.4716 676.292 99.4076 675.988 99.3276ZM698.973 99.3516V97.2636L705.645 90.9276C706.205 90.3996 706.621 89.9356 706.893 89.5356C707.165 89.1356 707.341 88.7676 707.421 88.4316C707.517 88.0796 707.565 87.7516 707.565 87.4476C707.565 86.6796 707.301 86.0876 706.773 85.6716C706.245 85.2396 705.469 85.0236 704.445 85.0236C703.629 85.0236 702.885 85.1676 702.213 85.4556C701.557 85.7436 700.989 86.1836 700.509 86.7756L698.325 85.0956C698.981 84.2156 699.861 83.5356 700.965 83.0556C702.085 82.5596 703.333 82.3116 704.709 82.3116C705.925 82.3116 706.981 82.5116 707.877 82.9116C708.789 83.2956 709.485 83.8476 709.965 84.5676C710.461 85.2876 710.709 86.1436 710.709 87.1356C710.709 87.6796 710.637 88.2236 710.493 88.7676C710.349 89.2956 710.077 89.8556 709.677 90.4476C709.277 91.0396 708.693 91.7036 707.925 92.4396L702.189 97.8876L701.541 96.7116H711.357V99.3516H698.973ZM720.166 99.5916C718.838 99.5916 717.638 99.2556 716.566 98.5836C715.51 97.9116 714.678 96.9356 714.07 95.6556C713.462 94.3596 713.158 92.7916 713.158 90.9516C713.158 89.1116 713.462 87.5516 714.07 86.2716C714.678 84.9756 715.51 83.9916 716.566 83.3196C717.638 82.6476 718.838 82.3116 720.166 82.3116C721.51 82.3116 722.71 82.6476 723.766 83.3196C724.822 83.9916 725.654 84.9756 726.262 86.2716C726.886 87.5516 727.198 89.1116 727.198 90.9516C727.198 92.7916 726.886 94.3596 726.262 95.6556C725.654 96.9356 724.822 97.9116 723.766 98.5836C722.71 99.2556 721.51 99.5916 720.166 99.5916ZM720.166 96.8796C720.95 96.8796 721.63 96.6716 722.206 96.2556C722.782 95.8236 723.23 95.1676 723.55 94.2876C723.886 93.4076 724.054 92.2956 724.054 90.9516C724.054 89.5916 723.886 88.4796 723.55 87.6156C723.23 86.7356 722.782 86.0876 722.206 85.6716C721.63 85.2396 720.95 85.0236 720.166 85.0236C719.414 85.0236 718.742 85.2396 718.15 85.6716C717.574 86.0876 717.118 86.7356 716.782 87.6156C716.462 88.4796 716.302 89.5916 716.302 90.9516C716.302 92.2956 716.462 93.4076 716.782 94.2876C717.118 95.1676 717.574 95.8236 718.15 96.2556C718.742 96.6716 719.414 96.8796 720.166 96.8796ZM729.067 99.3516V97.2636L735.739 90.9276C736.299 90.3996 736.715 89.9356 736.987 89.5356C737.259 89.1356 737.435 88.7676 737.515 88.4316C737.611 88.0796 737.659 87.7516 737.659 87.4476C737.659 86.6796 737.395 86.0876 736.867 85.6716C736.339 85.2396 735.563 85.0236 734.539 85.0236C733.723 85.0236 732.979 85.1676 732.307 85.4556C731.651 85.7436 731.083 86.1836 730.603 86.7756L728.419 85.0956C729.075 84.2156 729.955 83.5356 731.059 83.0556C732.179 82.5596 733.427 82.3116 734.803 82.3116C736.019 82.3116 737.075 82.5116 737.971 82.9116C738.883 83.2956 739.579 83.8476 740.059 84.5676C740.555 85.2876 740.803 86.1436 740.803 87.1356C740.803 87.6796 740.731 88.2236 740.587 88.7676C740.443 89.2956 740.171 89.8556 739.771 90.4476C739.371 91.0396 738.787 91.7036 738.019 92.4396L732.283 97.8876L731.635 96.7116H741.451V99.3516H729.067ZM748.531 99.5916C747.347 99.5916 746.187 99.4236 745.051 99.0876C743.931 98.7356 742.987 98.2556 742.219 97.6476L743.563 95.2236C744.171 95.7196 744.907 96.1196 745.771 96.4236C746.635 96.7276 747.539 96.8796 748.483 96.8796C749.603 96.8796 750.475 96.6556 751.099 96.2076C751.723 95.7436 752.035 95.1196 752.035 94.3356C752.035 93.5676 751.747 92.9596 751.171 92.5116C750.595 92.0636 749.667 91.8396 748.387 91.8396H746.851V89.7036L751.651 83.9916L752.059 85.1676H743.035V82.5516H754.483V84.6396L749.683 90.3516L748.051 89.3916H748.987C751.051 89.3916 752.595 89.8556 753.619 90.7836C754.659 91.6956 755.179 92.8716 755.179 94.3116C755.179 95.2556 754.939 96.1276 754.459 96.9276C753.979 97.7276 753.243 98.3756 752.251 98.8716C751.275 99.3516 750.035 99.5916 748.531 99.5916ZM764.813 99.3516V86.5356H774.653V89.0796H767.117L767.813 88.4076V99.3516H764.813ZM781.986 99.5196C780.674 99.5196 779.506 99.2396 778.482 98.6796C777.458 98.1036 776.65 97.3196 776.058 96.3276C775.466 95.3356 775.17 94.2076 775.17 92.9436C775.17 91.6636 775.466 90.5356 776.058 89.5596C776.65 88.5676 777.458 87.7916 778.482 87.2316C779.506 86.6716 780.674 86.3916 781.986 86.3916C783.314 86.3916 784.49 86.6716 785.514 87.2316C786.554 87.7916 787.362 88.5596 787.938 89.5356C788.53 90.5116 788.826 91.6476 788.826 92.9436C788.826 94.2076 788.53 95.3356 787.938 96.3276C787.362 97.3196 786.554 98.1036 785.514 98.6796C784.49 99.2396 783.314 99.5196 781.986 99.5196ZM781.986 96.9516C782.722 96.9516 783.378 96.7916 783.954 96.4716C784.53 96.1516 784.978 95.6876 785.298 95.0796C785.634 94.4716 785.802 93.7596 785.802 92.9436C785.802 92.1116 785.634 91.3996 785.298 90.8076C784.978 90.1996 784.53 89.7356 783.954 89.4156C783.378 89.0956 782.73 88.9356 782.01 88.9356C781.274 88.9356 780.618 89.0956 780.042 89.4156C779.482 89.7356 779.034 90.1996 778.698 90.8076C778.362 91.3996 778.194 92.1116 778.194 92.9436C778.194 93.7596 778.362 94.4716 778.698 95.0796C779.034 95.6876 779.482 96.1516 780.042 96.4716C780.618 96.7916 781.266 96.9516 781.986 96.9516ZM800.433 97.9596V89.0796H795.513L795.441 91.1436C795.409 91.8796 795.361 92.5916 795.297 93.2796C795.233 93.9516 795.129 94.5756 794.985 95.1516C794.841 95.7116 794.633 96.1756 794.361 96.5436C794.089 96.9116 793.729 97.1516 793.281 97.2636L790.305 96.8076C790.785 96.8076 791.169 96.6556 791.457 96.3516C791.761 96.0316 791.993 95.5996 792.153 95.0556C792.329 94.4956 792.457 93.8636 792.537 93.1596C792.617 92.4396 792.673 91.6956 792.705 90.9276L792.873 86.5356H803.433V97.9596H800.433ZM789.849 102.208V96.8076H805.329V102.208H802.521V99.3516H792.633V102.208H789.849Z" fill="#261104"/>
<path d="M309.261 415.818C343.598 412.699 375.289 396.068 397.363 369.582C419.437 343.097 430.086 308.927 426.967 274.59C423.848 240.254 407.216 208.562 380.731 186.488C354.245 164.414 320.076 153.765 285.739 156.885L291.472 219.99C309.072 218.391 326.586 223.849 340.162 235.164C353.738 246.479 362.263 262.723 363.862 280.323C365.46 297.923 360.002 315.438 348.688 329.014C337.373 342.589 321.129 351.114 303.528 352.713L309.261 415.818Z" fill="#261104"/>
<path d="M176.418 239.032C168.211 260.032 165.607 282.806 168.861 305.116C172.116 327.426 181.117 348.507 194.98 366.287C208.844 384.068 227.093 397.937 247.937 406.533C268.781 415.129 291.501 418.156 313.869 415.317L305.89 352.456C294.425 353.911 282.779 352.36 272.095 347.954C261.411 343.547 252.057 336.439 244.951 327.325C237.845 318.211 233.231 307.406 231.563 295.97C229.895 284.534 231.23 272.861 235.436 262.097L176.418 239.032Z" fill="#D25F15"/>
<path d="M279.788 157.564C256.688 160.741 234.869 170.072 216.615 184.579C198.361 199.087 184.345 218.237 176.035 240.023L235.24 262.605C239.499 251.438 246.684 241.622 256.04 234.186C265.397 226.749 276.581 221.966 288.421 220.338L279.788 157.564Z" fill="#ED8F52"/>
<path d="M297.5 156.352C291.202 156.352 284.913 156.809 278.681 157.721L287.854 220.419C291.048 219.951 294.272 219.717 297.5 219.717V156.352Z" fill="#F4D7C4"/>
<rect x="497.5" y="225.352" width="12" height="12" fill="#261104"/>
<path d="M521.924 235.408C521.224 235.408 520.599 235.249 520.048 234.932C519.507 234.614 519.073 234.176 518.746 233.616C518.429 233.056 518.27 232.416 518.27 231.698C518.27 230.97 518.429 230.33 518.746 229.78C519.073 229.22 519.507 228.781 520.048 228.464C520.599 228.146 521.224 227.988 521.924 227.988C522.624 227.988 523.249 228.146 523.8 228.464C524.351 228.781 524.785 229.22 525.102 229.78C525.419 230.33 525.578 230.97 525.578 231.698C525.578 232.416 525.419 233.056 525.102 233.616C524.785 234.176 524.351 234.614 523.8 234.932C523.249 235.249 522.624 235.408 521.924 235.408ZM521.924 234.778C522.484 234.778 522.988 234.652 523.436 234.4C523.884 234.138 524.234 233.774 524.486 233.308C524.738 232.841 524.864 232.304 524.864 231.698C524.864 231.082 524.738 230.545 524.486 230.088C524.234 229.621 523.884 229.262 523.436 229.01C522.988 228.748 522.484 228.618 521.924 228.618C521.364 228.618 520.86 228.748 520.412 229.01C519.973 229.262 519.623 229.621 519.362 230.088C519.11 230.545 518.984 231.082 518.984 231.698C518.984 232.304 519.11 232.841 519.362 233.308C519.623 233.774 519.973 234.138 520.412 234.4C520.86 234.652 521.364 234.778 521.924 234.778ZM528.914 235.352V228.464L529.11 228.674H526.058V228.044H532.47V228.674H529.418L529.614 228.464V235.352H528.914ZM538.573 235.352V225.86L538.895 226.196H536.179V225.552H539.287V235.352H538.573ZM546.096 235.352V228.044H551.094V228.674H546.6L546.796 228.478V235.352H546.096ZM555.16 235.408C554.46 235.408 553.835 235.249 553.284 234.932C552.743 234.614 552.309 234.176 551.982 233.616C551.665 233.056 551.506 232.416 551.506 231.698C551.506 230.97 551.665 230.33 551.982 229.78C552.309 229.22 552.743 228.781 553.284 228.464C553.835 228.146 554.46 227.988 555.16 227.988C555.86 227.988 556.486 228.146 557.036 228.464C557.587 228.781 558.021 229.22 558.338 229.78C558.656 230.33 558.814 230.97 558.814 231.698C558.814 232.416 558.656 233.056 558.338 233.616C558.021 234.176 557.587 234.614 557.036 234.932C556.486 235.249 555.86 235.408 555.16 235.408ZM555.16 234.778C555.72 234.778 556.224 234.652 556.672 234.4C557.12 234.138 557.47 233.774 557.722 233.308C557.974 232.841 558.1 232.304 558.1 231.698C558.1 231.082 557.974 230.545 557.722 230.088C557.47 229.621 557.12 229.262 556.672 229.01C556.224 228.748 555.72 228.618 555.16 228.618C554.6 228.618 554.096 228.748 553.648 229.01C553.21 229.262 552.86 229.621 552.598 230.088C552.346 230.545 552.22 231.082 552.22 231.698C552.22 232.304 552.346 232.841 552.598 233.308C552.86 233.774 553.21 234.138 553.648 234.4C554.096 234.652 554.6 234.778 555.16 234.778ZM566.065 235.016V228.674H562.257L562.173 230.494C562.154 231.007 562.121 231.52 562.075 232.034C562.028 232.538 561.953 233.004 561.851 233.434C561.748 233.854 561.603 234.194 561.417 234.456C561.239 234.717 561.006 234.862 560.717 234.89L560.017 234.736C560.315 234.754 560.558 234.647 560.745 234.414C560.931 234.171 561.076 233.844 561.179 233.434C561.281 233.023 561.356 232.561 561.403 232.048C561.459 231.525 561.501 230.993 561.529 230.452L561.627 228.044H566.765V235.016H566.065ZM559.695 237.172V234.736H567.941V237.172H567.283V235.352H560.367V237.172H559.695ZM574.572 235.352V233.686L574.544 233.434V230.69C574.544 230.008 574.357 229.49 573.984 229.136C573.62 228.781 573.083 228.604 572.374 228.604C571.87 228.604 571.399 228.692 570.96 228.87C570.531 229.038 570.162 229.257 569.854 229.528L569.504 229.024C569.868 228.697 570.307 228.445 570.82 228.268C571.333 228.081 571.87 227.988 572.43 227.988C573.335 227.988 574.031 228.216 574.516 228.674C575.001 229.131 575.244 229.812 575.244 230.718V235.352H574.572ZM571.94 235.408C571.399 235.408 570.927 235.324 570.526 235.156C570.134 234.978 569.831 234.731 569.616 234.414C569.411 234.096 569.308 233.732 569.308 233.322C569.308 232.948 569.392 232.612 569.56 232.314C569.737 232.006 570.027 231.758 570.428 231.572C570.829 231.376 571.366 231.278 572.038 231.278H574.726V231.824H572.052C571.296 231.824 570.764 231.964 570.456 232.244C570.157 232.524 570.008 232.874 570.008 233.294C570.008 233.76 570.185 234.134 570.54 234.414C570.895 234.694 571.394 234.834 572.038 234.834C572.654 234.834 573.172 234.694 573.592 234.414C574.021 234.134 574.339 233.728 574.544 233.196L574.74 233.672C574.544 234.204 574.208 234.628 573.732 234.946C573.265 235.254 572.668 235.408 571.94 235.408ZM586.682 235.016V228.674H582.874L582.79 230.494C582.771 231.007 582.739 231.52 582.692 232.034C582.645 232.538 582.571 233.004 582.468 233.434C582.365 233.854 582.221 234.194 582.034 234.456C581.857 234.717 581.623 234.862 581.334 234.89L580.634 234.736C580.933 234.754 581.175 234.647 581.362 234.414C581.549 234.171 581.693 233.844 581.796 233.434C581.899 233.023 581.973 232.561 582.02 232.048C582.076 231.525 582.118 230.993 582.146 230.452L582.244 228.044H587.382V235.016H586.682ZM580.312 237.172V234.736H588.558V237.172H587.9V235.352H580.984V237.172H580.312ZM593.537 235.408C592.837 235.408 592.212 235.249 591.661 234.932C591.12 234.614 590.686 234.176 590.359 233.616C590.042 233.056 589.883 232.416 589.883 231.698C589.883 230.97 590.042 230.33 590.359 229.78C590.686 229.22 591.12 228.781 591.661 228.464C592.212 228.146 592.837 227.988 593.537 227.988C594.237 227.988 594.863 228.146 595.413 228.464C595.964 228.781 596.398 229.22 596.715 229.78C597.033 230.33 597.191 230.97 597.191 231.698C597.191 232.416 597.033 233.056 596.715 233.616C596.398 234.176 595.964 234.614 595.413 234.932C594.863 235.249 594.237 235.408 593.537 235.408ZM593.537 234.778C594.097 234.778 594.601 234.652 595.049 234.4C595.497 234.138 595.847 233.774 596.099 233.308C596.351 232.841 596.477 232.304 596.477 231.698C596.477 231.082 596.351 230.545 596.099 230.088C595.847 229.621 595.497 229.262 595.049 229.01C594.601 228.748 594.097 228.618 593.537 228.618C592.977 228.618 592.473 228.748 592.025 229.01C591.587 229.262 591.237 229.621 590.975 230.088C590.723 230.545 590.597 231.082 590.597 231.698C590.597 232.304 590.723 232.841 590.975 233.308C591.237 233.774 591.587 234.138 592.025 234.4C592.473 234.652 592.977 234.778 593.537 234.778ZM605.195 235.422C604.476 235.422 603.804 235.3 603.179 235.058C602.563 234.815 602.082 234.498 601.737 234.106L602.101 233.56C602.399 233.905 602.819 234.194 603.361 234.428C603.911 234.652 604.523 234.764 605.195 234.764C606.072 234.764 606.739 234.568 607.197 234.176C607.663 233.784 607.897 233.256 607.897 232.594C607.897 231.94 607.663 231.418 607.197 231.026C606.739 230.624 606.021 230.424 605.041 230.424H604.425V229.906L607.547 225.916L607.645 226.196H602.101V225.552H608.247V226.056L605.139 230.046L604.831 229.822H605.139C606.305 229.822 607.178 230.078 607.757 230.592C608.335 231.105 608.625 231.772 608.625 232.594C608.625 233.135 608.494 233.62 608.233 234.05C607.981 234.479 607.598 234.815 607.085 235.058C606.581 235.3 605.951 235.422 605.195 235.422ZM613.027 235.324L613.097 234.722C613.153 234.731 613.209 234.745 613.265 234.764C613.33 234.773 613.386 234.778 613.433 234.778C613.75 234.778 614.002 234.661 614.189 234.428C614.376 234.185 614.516 233.863 614.609 233.462C614.712 233.06 614.782 232.608 614.819 232.104C614.866 231.6 614.903 231.086 614.931 230.564L615.057 228.044H620.181V235.352H619.481V228.45L619.677 228.674H615.505L615.687 228.436L615.575 230.62C615.538 231.254 615.486 231.861 615.421 232.44C615.356 233.018 615.258 233.532 615.127 233.98C614.996 234.428 614.81 234.782 614.567 235.044C614.324 235.296 614.012 235.422 613.629 235.422C613.536 235.422 613.438 235.412 613.335 235.394C613.242 235.375 613.139 235.352 613.027 235.324ZM626.229 235.408C625.492 235.408 624.839 235.249 624.269 234.932C623.709 234.614 623.266 234.176 622.939 233.616C622.622 233.056 622.463 232.416 622.463 231.698C622.463 230.97 622.613 230.33 622.911 229.78C623.219 229.22 623.639 228.781 624.171 228.464C624.703 228.146 625.301 227.988 625.963 227.988C626.626 227.988 627.219 228.142 627.741 228.45C628.273 228.758 628.689 229.192 628.987 229.752C629.295 230.302 629.449 230.942 629.449 231.67C629.449 231.698 629.445 231.73 629.435 231.768C629.435 231.796 629.435 231.828 629.435 231.866H622.981V231.32H629.057L628.777 231.586C628.787 231.016 628.665 230.508 628.413 230.06C628.171 229.602 627.839 229.248 627.419 228.996C626.999 228.734 626.514 228.604 625.963 228.604C625.422 228.604 624.937 228.734 624.507 228.996C624.087 229.248 623.756 229.602 623.513 230.06C623.271 230.508 623.149 231.021 623.149 231.6V231.726C623.149 232.323 623.28 232.855 623.541 233.322C623.812 233.779 624.181 234.138 624.647 234.4C625.114 234.652 625.646 234.778 626.243 234.778C626.71 234.778 627.144 234.694 627.545 234.526C627.956 234.358 628.301 234.101 628.581 233.756L628.987 234.218C628.67 234.61 628.269 234.908 627.783 235.114C627.307 235.31 626.789 235.408 626.229 235.408ZM632.725 235.352V228.464L632.921 228.674H629.869V228.044H636.281V228.674H633.229L633.425 228.464V235.352H632.725Z" fill="#171717"/>
<rect x="497.5" y="262.352" width="12" height="12" fill="#D25F15"/>
<path d="M526.53 262.552H527.244V272.352H526.53V262.552ZM519.978 272.352H519.264V262.552H519.978V272.352ZM526.614 267.69H519.894V267.06H526.614V267.69ZM533.548 272.408C532.81 272.408 532.157 272.249 531.588 271.932C531.028 271.614 530.584 271.176 530.258 270.616C529.94 270.056 529.782 269.416 529.782 268.698C529.782 267.97 529.931 267.33 530.23 266.78C530.538 266.22 530.958 265.781 531.49 265.464C532.022 265.146 532.619 264.988 533.282 264.988C533.944 264.988 534.537 265.142 535.06 265.45C535.592 265.758 536.007 266.192 536.306 266.752C536.614 267.302 536.768 267.942 536.768 268.67C536.768 268.698 536.763 268.73 536.754 268.768C536.754 268.796 536.754 268.828 536.754 268.866H530.3V268.32H536.376L536.096 268.586C536.105 268.016 535.984 267.508 535.732 267.06C535.489 266.602 535.158 266.248 534.738 265.996C534.318 265.734 533.832 265.604 533.282 265.604C532.74 265.604 532.255 265.734 531.826 265.996C531.406 266.248 531.074 266.602 530.832 267.06C530.589 267.508 530.468 268.021 530.468 268.6V268.726C530.468 269.323 530.598 269.855 530.86 270.322C531.13 270.779 531.499 271.138 531.966 271.4C532.432 271.652 532.964 271.778 533.562 271.778C534.028 271.778 534.462 271.694 534.864 271.526C535.274 271.358 535.62 271.101 535.9 270.756L536.306 271.218C535.988 271.61 535.587 271.908 535.102 272.114C534.626 272.31 534.108 272.408 533.548 272.408ZM540.043 272.352V265.464L540.239 265.674H537.187V265.044H543.599V265.674H540.547L540.743 265.464V272.352H540.043ZM551.606 272.408C550.906 272.408 550.28 272.249 549.73 271.932C549.188 271.614 548.754 271.176 548.428 270.616C548.11 270.056 547.952 269.416 547.952 268.698C547.952 267.97 548.11 267.33 548.428 266.78C548.754 266.22 549.188 265.781 549.73 265.464C550.28 265.146 550.906 264.988 551.606 264.988C552.306 264.988 552.931 265.146 553.482 265.464C554.032 265.781 554.466 266.22 554.784 266.78C555.101 267.33 555.26 267.97 555.26 268.698C555.26 269.416 555.101 270.056 554.784 270.616C554.466 271.176 554.032 271.614 553.482 271.932C552.931 272.249 552.306 272.408 551.606 272.408ZM551.606 271.778C552.166 271.778 552.67 271.652 553.118 271.4C553.566 271.138 553.916 270.774 554.168 270.308C554.42 269.841 554.546 269.304 554.546 268.698C554.546 268.082 554.42 267.545 554.168 267.088C553.916 266.621 553.566 266.262 553.118 266.01C552.67 265.748 552.166 265.618 551.606 265.618C551.046 265.618 550.542 265.748 550.094 266.01C549.655 266.262 549.305 266.621 549.044 267.088C548.792 267.545 548.666 268.082 548.666 268.698C548.666 269.304 548.792 269.841 549.044 270.308C549.305 270.774 549.655 271.138 550.094 271.4C550.542 271.652 551.046 271.778 551.606 271.778ZM557.539 272.352V265.044H563.923V272.352H563.223V265.464L563.419 265.674H558.043L558.239 265.464V272.352H557.539ZM573.96 272.352V265.044H574.66V272.352H573.96ZM569.83 267.704C570.744 267.713 571.435 267.914 571.902 268.306C572.378 268.688 572.616 269.253 572.616 270C572.616 270.774 572.364 271.367 571.86 271.778C571.356 272.188 570.628 272.389 569.676 272.38L566.946 272.352V265.044H567.646V267.676L569.83 267.704ZM569.648 271.82C570.394 271.829 570.959 271.68 571.342 271.372C571.724 271.064 571.916 270.606 571.916 270C571.916 269.412 571.724 268.973 571.342 268.684C570.968 268.394 570.404 268.245 569.648 268.236L567.646 268.222V271.792L569.648 271.82ZM578.994 272.352V265.464L579.19 265.674H576.138V265.044H582.55V265.674H579.498L579.694 265.464V272.352H578.994ZM588.613 272.352V270.686L588.585 270.434V267.69C588.585 267.008 588.398 266.49 588.025 266.136C587.661 265.781 587.124 265.604 586.415 265.604C585.911 265.604 585.44 265.692 585.001 265.87C584.572 266.038 584.203 266.257 583.895 266.528L583.545 266.024C583.909 265.697 584.348 265.445 584.861 265.268C585.374 265.081 585.911 264.988 586.471 264.988C587.376 264.988 588.072 265.216 588.557 265.674C589.042 266.131 589.285 266.812 589.285 267.718V272.352H588.613ZM585.981 272.408C585.44 272.408 584.968 272.324 584.567 272.156C584.175 271.978 583.872 271.731 583.657 271.414C583.452 271.096 583.349 270.732 583.349 270.322C583.349 269.948 583.433 269.612 583.601 269.314C583.778 269.006 584.068 268.758 584.469 268.572C584.87 268.376 585.407 268.278 586.079 268.278H588.767V268.824H586.093C585.337 268.824 584.805 268.964 584.497 269.244C584.198 269.524 584.049 269.874 584.049 270.294C584.049 270.76 584.226 271.134 584.581 271.414C584.936 271.694 585.435 271.834 586.079 271.834C586.695 271.834 587.213 271.694 587.633 271.414C588.062 271.134 588.38 270.728 588.585 270.196L588.781 270.672C588.585 271.204 588.249 271.628 587.773 271.946C587.306 272.254 586.709 272.408 585.981 272.408Z" fill="#171717"/>
<rect x="497.5" y="299.352" width="12" height="12" fill="#ED8F52"/>
<path d="M523.464 309.422C522.736 309.422 522.059 309.3 521.434 309.058C520.818 308.806 520.277 308.456 519.81 308.008C519.353 307.55 518.998 307.023 518.746 306.426C518.494 305.819 518.368 305.161 518.368 304.452C518.368 303.742 518.494 303.089 518.746 302.492C518.998 301.885 519.353 301.358 519.81 300.91C520.277 300.452 520.818 300.102 521.434 299.86C522.059 299.608 522.736 299.482 523.464 299.482C524.192 299.482 524.864 299.608 525.48 299.86C526.105 300.102 526.647 300.448 527.104 300.896C527.561 301.344 527.916 301.871 528.168 302.478C528.429 303.075 528.56 303.733 528.56 304.452C528.56 305.17 528.429 305.833 528.168 306.44C527.916 307.037 527.561 307.56 527.104 308.008C526.647 308.456 526.105 308.806 525.48 309.058C524.864 309.3 524.192 309.422 523.464 309.422ZM523.464 308.764C524.089 308.764 524.668 308.656 525.2 308.442C525.732 308.227 526.194 307.924 526.586 307.532C526.978 307.14 527.281 306.682 527.496 306.16C527.72 305.637 527.832 305.068 527.832 304.452C527.832 303.826 527.72 303.257 527.496 302.744C527.281 302.221 526.978 301.764 526.586 301.372C526.194 300.98 525.732 300.676 525.2 300.462C524.668 300.247 524.089 300.14 523.464 300.14C522.839 300.14 522.26 300.247 521.728 300.462C521.196 300.676 520.729 300.98 520.328 301.372C519.936 301.764 519.628 302.221 519.404 302.744C519.189 303.257 519.082 303.826 519.082 304.452C519.082 305.068 519.189 305.637 519.404 306.16C519.628 306.682 519.936 307.14 520.328 307.532C520.729 307.924 521.196 308.227 521.728 308.442C522.26 308.656 522.839 308.764 523.464 308.764ZM532.045 309.352V302.464L532.241 302.674H529.189V302.044H535.601V302.674H532.549L532.745 302.464V309.352H532.045ZM542.824 309.422C542.105 309.422 541.433 309.3 540.808 309.058C540.192 308.815 539.711 308.498 539.366 308.106L539.73 307.56C540.028 307.905 540.448 308.194 540.99 308.428C541.54 308.652 542.152 308.764 542.824 308.764C543.701 308.764 544.368 308.568 544.826 308.176C545.292 307.784 545.526 307.256 545.526 306.594C545.526 305.94 545.292 305.418 544.826 305.026C544.368 304.624 543.65 304.424 542.67 304.424H542.054V303.906L545.176 299.916L545.274 300.196H539.73V299.552H545.876V300.056L542.768 304.046L542.46 303.822H542.768C543.934 303.822 544.807 304.078 545.386 304.592C545.964 305.105 546.254 305.772 546.254 306.594C546.254 307.135 546.123 307.62 545.862 308.05C545.61 308.479 545.227 308.815 544.714 309.058C544.21 309.3 543.58 309.422 542.824 309.422ZM557.096 309.016V302.674H553.288L553.204 304.494C553.185 305.007 553.153 305.52 553.106 306.034C553.059 306.538 552.985 307.004 552.882 307.434C552.779 307.854 552.635 308.194 552.448 308.456C552.271 308.717 552.037 308.862 551.748 308.89L551.048 308.736C551.347 308.754 551.589 308.647 551.776 308.414C551.963 308.171 552.107 307.844 552.21 307.434C552.313 307.023 552.387 306.561 552.434 306.048C552.49 305.525 552.532 304.993 552.56 304.452L552.658 302.044H557.796V309.016H557.096ZM550.726 311.172V308.736H558.972V311.172H558.314V309.352H551.398V311.172H550.726ZM563.951 309.408C563.251 309.408 562.626 309.249 562.075 308.932C561.534 308.614 561.1 308.176 560.773 307.616C560.456 307.056 560.297 306.416 560.297 305.698C560.297 304.97 560.456 304.33 560.773 303.78C561.1 303.22 561.534 302.781 562.075 302.464C562.626 302.146 563.251 301.988 563.951 301.988C564.651 301.988 565.277 302.146 565.827 302.464C566.378 302.781 566.812 303.22 567.129 303.78C567.447 304.33 567.605 304.97 567.605 305.698C567.605 306.416 567.447 307.056 567.129 307.616C566.812 308.176 566.378 308.614 565.827 308.932C565.277 309.249 564.651 309.408 563.951 309.408ZM563.951 308.778C564.511 308.778 565.015 308.652 565.463 308.4C565.911 308.138 566.261 307.774 566.513 307.308C566.765 306.841 566.891 306.304 566.891 305.698C566.891 305.082 566.765 304.545 566.513 304.088C566.261 303.621 565.911 303.262 565.463 303.01C565.015 302.748 564.511 302.618 563.951 302.618C563.391 302.618 562.887 302.748 562.439 303.01C562.001 303.262 561.651 303.621 561.389 304.088C561.137 304.545 561.011 305.082 561.011 305.698C561.011 306.304 561.137 306.841 561.389 307.308C561.651 307.774 562.001 308.138 562.439 308.4C562.887 308.652 563.391 308.778 563.951 308.778ZM576.673 309.422C575.814 309.422 575.091 309.226 574.503 308.834C573.924 308.442 573.485 307.877 573.187 307.14C572.888 306.402 572.739 305.525 572.739 304.508C572.739 303.397 572.921 302.473 573.285 301.736C573.649 300.989 574.157 300.429 574.811 300.056C575.464 299.673 576.225 299.482 577.093 299.482C577.513 299.482 577.914 299.519 578.297 299.594C578.679 299.668 579.02 299.799 579.319 299.986L579.025 300.56C578.773 300.401 578.479 300.289 578.143 300.224C577.816 300.149 577.466 300.112 577.093 300.112C575.991 300.112 575.109 300.471 574.447 301.19C573.784 301.899 573.453 302.968 573.453 304.396C573.453 304.61 573.467 304.886 573.495 305.222C573.523 305.548 573.583 305.87 573.677 306.188L573.425 306.118C573.49 305.576 573.672 305.114 573.971 304.732C574.269 304.349 574.652 304.06 575.119 303.864C575.585 303.658 576.099 303.556 576.659 303.556C577.312 303.556 577.881 303.677 578.367 303.92C578.861 304.153 579.244 304.489 579.515 304.928C579.795 305.366 579.935 305.88 579.935 306.468C579.935 307.065 579.79 307.588 579.501 308.036C579.221 308.474 578.833 308.815 578.339 309.058C577.853 309.3 577.298 309.422 576.673 309.422ZM576.645 308.806C577.158 308.806 577.606 308.712 577.989 308.526C578.371 308.33 578.67 308.059 578.885 307.714C579.109 307.359 579.221 306.948 579.221 306.482C579.221 305.782 578.983 305.222 578.507 304.802C578.04 304.382 577.391 304.172 576.561 304.172C576.029 304.172 575.557 304.274 575.147 304.48C574.736 304.685 574.414 304.965 574.181 305.32C573.957 305.674 573.845 306.071 573.845 306.51C573.845 306.892 573.952 307.261 574.167 307.616C574.381 307.961 574.694 308.246 575.105 308.47C575.525 308.694 576.038 308.806 576.645 308.806ZM584.056 309.324L584.126 308.722C584.182 308.731 584.238 308.745 584.294 308.764C584.36 308.773 584.416 308.778 584.462 308.778C584.78 308.778 585.032 308.661 585.218 308.428C585.405 308.185 585.545 307.863 585.638 307.462C585.741 307.06 585.811 306.608 585.848 306.104C585.895 305.6 585.932 305.086 585.96 304.564L586.086 302.044H591.21V309.352H590.51V302.45L590.706 302.674H586.534L586.716 302.436L586.604 304.62C586.567 305.254 586.516 305.861 586.45 306.44C586.385 307.018 586.287 307.532 586.156 307.98C586.026 308.428 585.839 308.782 585.596 309.044C585.354 309.296 585.041 309.422 584.658 309.422C584.565 309.422 584.467 309.412 584.364 309.394C584.271 309.375 584.168 309.352 584.056 309.324ZM597.259 309.408C596.521 309.408 595.868 309.249 595.299 308.932C594.739 308.614 594.295 308.176 593.969 307.616C593.651 307.056 593.493 306.416 593.493 305.698C593.493 304.97 593.642 304.33 593.941 303.78C594.249 303.22 594.669 302.781 595.201 302.464C595.733 302.146 596.33 301.988 596.993 301.988C597.655 301.988 598.248 302.142 598.771 302.45C599.303 302.758 599.718 303.192 600.017 303.752C600.325 304.302 600.479 304.942 600.479 305.67C600.479 305.698 600.474 305.73 600.465 305.768C600.465 305.796 600.465 305.828 600.465 305.866H594.011V305.32H600.087L599.807 305.586C599.816 305.016 599.695 304.508 599.443 304.06C599.2 303.602 598.869 303.248 598.449 302.996C598.029 302.734 597.543 302.604 596.993 302.604C596.451 302.604 595.966 302.734 595.537 302.996C595.117 303.248 594.785 303.602 594.543 304.06C594.3 304.508 594.179 305.021 594.179 305.6V305.726C594.179 306.323 594.309 306.855 594.571 307.322C594.841 307.779 595.21 308.138 595.677 308.4C596.143 308.652 596.675 308.778 597.273 308.778C597.739 308.778 598.173 308.694 598.575 308.526C598.985 308.358 599.331 308.101 599.611 307.756L600.017 308.218C599.699 308.61 599.298 308.908 598.813 309.114C598.337 309.31 597.819 309.408 597.259 309.408ZM603.754 309.352V302.464L603.95 302.674H600.898V302.044H607.31V302.674H604.258L604.454 302.464V309.352H603.754Z" fill="#171717"/>
<rect x="497.5" y="336.352" width="12" height="12" fill="#F4D7C4"/>
<path d="M519.264 346.352V336.552H526.25V337.182H519.978V340.71H523.296C524.444 340.71 525.317 340.943 525.914 341.41C526.511 341.876 526.81 342.562 526.81 343.468C526.81 344.41 526.493 345.129 525.858 345.624C525.233 346.109 524.313 346.352 523.1 346.352H519.264ZM519.978 345.75H523.114C524.094 345.75 524.836 345.563 525.34 345.19C525.844 344.807 526.096 344.242 526.096 343.496C526.096 342.03 525.102 341.298 523.114 341.298H519.978V345.75ZM532.041 346.408C531.341 346.408 530.716 346.249 530.165 345.932C529.624 345.614 529.19 345.176 528.863 344.616C528.546 344.056 528.387 343.416 528.387 342.698C528.387 341.97 528.546 341.33 528.863 340.78C529.19 340.22 529.624 339.781 530.165 339.464C530.716 339.146 531.341 338.988 532.041 338.988C532.741 338.988 533.367 339.146 533.917 339.464C534.468 339.781 534.902 340.22 535.219 340.78C535.537 341.33 535.695 341.97 535.695 342.698C535.695 343.416 535.537 344.056 535.219 344.616C534.902 345.176 534.468 345.614 533.917 345.932C533.367 346.249 532.741 346.408 532.041 346.408ZM532.041 345.778C532.601 345.778 533.105 345.652 533.553 345.4C534.001 345.138 534.351 344.774 534.603 344.308C534.855 343.841 534.981 343.304 534.981 342.698C534.981 342.082 534.855 341.545 534.603 341.088C534.351 340.621 534.001 340.262 533.553 340.01C533.105 339.748 532.601 339.618 532.041 339.618C531.481 339.618 530.977 339.748 530.529 340.01C530.091 340.262 529.741 340.621 529.479 341.088C529.227 341.545 529.101 342.082 529.101 342.698C529.101 343.304 529.227 343.841 529.479 344.308C529.741 344.774 530.091 345.138 530.529 345.4C530.977 345.652 531.481 345.778 532.041 345.778ZM536.506 346.324L536.576 345.722C536.632 345.731 536.688 345.745 536.744 345.764C536.809 345.773 536.865 345.778 536.912 345.778C537.229 345.778 537.481 345.661 537.668 345.428C537.854 345.185 537.994 344.863 538.088 344.462C538.19 344.06 538.26 343.608 538.298 343.104C538.344 342.6 538.382 342.086 538.41 341.564L538.536 339.044H543.66V346.352H542.96V339.45L543.156 339.674H538.984L539.166 339.436L539.054 341.62C539.016 342.254 538.965 342.861 538.9 343.44C538.834 344.018 538.736 344.532 538.606 344.98C538.475 345.428 538.288 345.782 538.046 346.044C537.803 346.296 537.49 346.422 537.108 346.422C537.014 346.422 536.916 346.412 536.814 346.394C536.72 346.375 536.618 346.352 536.506 346.324ZM549.708 346.408C548.971 346.408 548.317 346.249 547.748 345.932C547.188 345.614 546.745 345.176 546.418 344.616C546.101 344.056 545.942 343.416 545.942 342.698C545.942 341.97 546.091 341.33 546.39 340.78C546.698 340.22 547.118 339.781 547.65 339.464C548.182 339.146 548.779 338.988 549.442 338.988C550.105 338.988 550.697 339.142 551.22 339.45C551.752 339.758 552.167 340.192 552.466 340.752C552.774 341.302 552.928 341.942 552.928 342.67C552.928 342.698 552.923 342.73 552.914 342.768C552.914 342.796 552.914 342.828 552.914 342.866H546.46V342.32H552.536L552.256 342.586C552.265 342.016 552.144 341.508 551.892 341.06C551.649 340.602 551.318 340.248 550.898 339.996C550.478 339.734 549.993 339.604 549.442 339.604C548.901 339.604 548.415 339.734 547.986 339.996C547.566 340.248 547.235 340.602 546.992 341.06C546.749 341.508 546.628 342.021 546.628 342.6V342.726C546.628 343.323 546.759 343.855 547.02 344.322C547.291 344.779 547.659 345.138 548.126 345.4C548.593 345.652 549.125 345.778 549.722 345.778C550.189 345.778 550.623 345.694 551.024 345.526C551.435 345.358 551.78 345.101 552.06 344.756L552.466 345.218C552.149 345.61 551.747 345.908 551.262 346.114C550.786 346.31 550.268 346.408 549.708 346.408ZM558.239 346.408C557.502 346.408 556.848 346.249 556.279 345.932C555.719 345.614 555.276 345.176 554.949 344.616C554.632 344.056 554.473 343.416 554.473 342.698C554.473 341.97 554.622 341.33 554.921 340.78C555.229 340.22 555.649 339.781 556.181 339.464C556.713 339.146 557.31 338.988 557.973 338.988C558.636 338.988 559.228 339.142 559.751 339.45C560.283 339.758 560.698 340.192 560.997 340.752C561.305 341.302 561.459 341.942 561.459 342.67C561.459 342.698 561.454 342.73 561.445 342.768C561.445 342.796 561.445 342.828 561.445 342.866H554.991V342.32H561.067L560.787 342.586C560.796 342.016 560.675 341.508 560.423 341.06C560.18 340.602 559.849 340.248 559.429 339.996C559.009 339.734 558.524 339.604 557.973 339.604C557.432 339.604 556.946 339.734 556.517 339.996C556.097 340.248 555.766 340.602 555.523 341.06C555.28 341.508 555.159 342.021 555.159 342.6V342.726C555.159 343.323 555.29 343.855 555.551 344.322C555.822 344.779 556.19 345.138 556.657 345.4C557.124 345.652 557.656 345.778 558.253 345.778C558.72 345.778 559.154 345.694 559.555 345.526C559.966 345.358 560.311 345.101 560.591 344.756L560.997 345.218C560.68 345.61 560.278 345.908 559.793 346.114C559.317 346.31 558.799 346.408 558.239 346.408ZM570.534 346.422C569.675 346.422 568.952 346.226 568.364 345.834C567.785 345.442 567.347 344.877 567.048 344.14C566.749 343.402 566.6 342.525 566.6 341.508C566.6 340.397 566.782 339.473 567.146 338.736C567.51 337.989 568.019 337.429 568.672 337.056C569.325 336.673 570.086 336.482 570.954 336.482C571.374 336.482 571.775 336.519 572.158 336.594C572.541 336.668 572.881 336.799 573.18 336.986L572.886 337.56C572.634 337.401 572.34 337.289 572.004 337.224C571.677 337.149 571.327 337.112 570.954 337.112C569.853 337.112 568.971 337.471 568.308 338.19C567.645 338.899 567.314 339.968 567.314 341.396C567.314 341.61 567.328 341.886 567.356 342.222C567.384 342.548 567.445 342.87 567.538 343.188L567.286 343.118C567.351 342.576 567.533 342.114 567.832 341.732C568.131 341.349 568.513 341.06 568.98 340.864C569.447 340.658 569.96 340.556 570.52 340.556C571.173 340.556 571.743 340.677 572.228 340.92C572.723 341.153 573.105 341.489 573.376 341.928C573.656 342.366 573.796 342.88 573.796 343.468C573.796 344.065 573.651 344.588 573.362 345.036C573.082 345.474 572.695 345.815 572.2 346.058C571.715 346.3 571.159 346.422 570.534 346.422ZM570.506 345.806C571.019 345.806 571.467 345.712 571.85 345.526C572.233 345.33 572.531 345.059 572.746 344.714C572.97 344.359 573.082 343.948 573.082 343.482C573.082 342.782 572.844 342.222 572.368 341.802C571.901 341.382 571.253 341.172 570.422 341.172C569.89 341.172 569.419 341.274 569.008 341.48C568.597 341.685 568.275 341.965 568.042 342.32C567.818 342.674 567.706 343.071 567.706 343.51C567.706 343.892 567.813 344.261 568.028 344.616C568.243 344.961 568.555 345.246 568.966 345.47C569.386 345.694 569.899 345.806 570.506 345.806ZM577.918 346.324L577.988 345.722C578.044 345.731 578.1 345.745 578.156 345.764C578.221 345.773 578.277 345.778 578.324 345.778C578.641 345.778 578.893 345.661 579.08 345.428C579.266 345.185 579.406 344.863 579.5 344.462C579.602 344.06 579.672 343.608 579.71 343.104C579.756 342.6 579.794 342.086 579.822 341.564L579.948 339.044H585.072V346.352H584.372V339.45L584.568 339.674H580.396L580.578 339.436L580.466 341.62C580.428 342.254 580.377 342.861 580.312 343.44C580.246 344.018 580.148 344.532 580.018 344.98C579.887 345.428 579.7 345.782 579.458 346.044C579.215 346.296 578.902 346.422 578.52 346.422C578.426 346.422 578.328 346.412 578.226 346.394C578.132 346.375 578.03 346.352 577.918 346.324ZM591.12 346.408C590.383 346.408 589.729 346.249 589.16 345.932C588.6 345.614 588.157 345.176 587.83 344.616C587.513 344.056 587.354 343.416 587.354 342.698C587.354 341.97 587.503 341.33 587.802 340.78C588.11 340.22 588.53 339.781 589.062 339.464C589.594 339.146 590.191 338.988 590.854 338.988C591.517 338.988 592.109 339.142 592.632 339.45C593.164 339.758 593.579 340.192 593.878 340.752C594.186 341.302 594.34 341.942 594.34 342.67C594.34 342.698 594.335 342.73 594.326 342.768C594.326 342.796 594.326 342.828 594.326 342.866H587.872V342.32H593.948L593.668 342.586C593.677 342.016 593.556 341.508 593.304 341.06C593.061 340.602 592.73 340.248 592.31 339.996C591.89 339.734 591.405 339.604 590.854 339.604C590.313 339.604 589.827 339.734 589.398 339.996C588.978 340.248 588.647 340.602 588.404 341.06C588.161 341.508 588.04 342.021 588.04 342.6V342.726C588.04 343.323 588.171 343.855 588.432 344.322C588.703 344.779 589.071 345.138 589.538 345.4C590.005 345.652 590.537 345.778 591.134 345.778C591.601 345.778 592.035 345.694 592.436 345.526C592.847 345.358 593.192 345.101 593.472 344.756L593.878 345.218C593.561 345.61 593.159 345.908 592.674 346.114C592.198 346.31 591.68 346.408 591.12 346.408ZM597.615 346.352V339.464L597.811 339.674H594.759V339.044H601.171V339.674H598.119L598.315 339.464V346.352H597.615Z" fill="#171717"/>
<path d="M405.562 190.776V190.048L410.756 183.552H411.876L406.724 190.048L406.178 189.88H414.06V190.776H405.562ZM411.092 193.352V190.776L411.12 189.88V187.612H412.1V193.352H411.092ZM417.928 183.468C418.796 183.468 419.529 183.664 420.126 184.056C420.724 184.438 421.176 184.994 421.484 185.722C421.792 186.45 421.946 187.332 421.946 188.368C421.946 189.469 421.755 190.398 421.372 191.154C420.999 191.91 420.476 192.479 419.804 192.862C419.132 193.244 418.353 193.436 417.466 193.436C417.028 193.436 416.608 193.394 416.206 193.31C415.814 193.226 415.46 193.09 415.142 192.904L415.548 192.092C415.8 192.26 416.09 192.381 416.416 192.456C416.752 192.521 417.098 192.554 417.452 192.554C418.507 192.554 419.347 192.218 419.972 191.546C420.607 190.874 420.924 189.87 420.924 188.536C420.924 188.321 420.91 188.064 420.882 187.766C420.864 187.467 420.812 187.168 420.728 186.87L421.078 187.136C420.985 187.621 420.784 188.036 420.476 188.382C420.178 188.718 419.804 188.974 419.356 189.152C418.918 189.329 418.428 189.418 417.886 189.418C417.242 189.418 416.668 189.296 416.164 189.054C415.67 188.811 415.282 188.47 415.002 188.032C414.722 187.593 414.582 187.075 414.582 186.478C414.582 185.862 414.727 185.33 415.016 184.882C415.306 184.434 415.702 184.088 416.206 183.846C416.72 183.594 417.294 183.468 417.928 183.468ZM417.97 184.322C417.504 184.322 417.088 184.41 416.724 184.588C416.37 184.756 416.09 184.998 415.884 185.316C415.679 185.633 415.576 186.011 415.576 186.45C415.576 187.094 415.796 187.607 416.234 187.99C416.682 188.372 417.284 188.564 418.04 188.564C418.544 188.564 418.983 188.47 419.356 188.284C419.739 188.097 420.033 187.84 420.238 187.514C420.453 187.187 420.56 186.823 420.56 186.422C420.56 186.058 420.462 185.717 420.266 185.4C420.07 185.082 419.781 184.826 419.398 184.63C419.016 184.424 418.54 184.322 417.97 184.322ZM423.313 195.396L423.929 192.806L424.041 193.408C423.827 193.408 423.645 193.338 423.495 193.198C423.355 193.058 423.285 192.876 423.285 192.652C423.285 192.428 423.355 192.246 423.495 192.106C423.645 191.966 423.822 191.896 424.027 191.896C424.242 191.896 424.415 191.97 424.545 192.12C424.685 192.269 424.755 192.446 424.755 192.652C424.755 192.726 424.751 192.801 424.741 192.876C424.732 192.95 424.713 193.034 424.685 193.128C424.657 193.221 424.62 193.333 424.573 193.464L423.985 195.396H423.313ZM427.768 193.352V183.972L428.216 184.448H425.458V183.552H428.776V193.352H427.768ZM432.435 193.352L439.127 183.552H439.953L433.261 193.352H432.435ZM433.191 188.802C432.752 188.802 432.365 188.694 432.029 188.48C431.693 188.256 431.431 187.943 431.245 187.542C431.067 187.14 430.979 186.674 430.979 186.142C430.979 185.61 431.067 185.143 431.245 184.742C431.431 184.34 431.693 184.032 432.029 183.818C432.365 183.594 432.752 183.482 433.191 183.482C433.629 183.482 434.012 183.594 434.339 183.818C434.675 184.032 434.936 184.34 435.123 184.742C435.309 185.143 435.403 185.61 435.403 186.142C435.403 186.674 435.309 187.14 435.123 187.542C434.936 187.943 434.675 188.256 434.339 188.48C434.012 188.694 433.629 188.802 433.191 188.802ZM433.191 188.172C433.648 188.172 434.012 187.994 434.283 187.64C434.563 187.276 434.703 186.776 434.703 186.142C434.703 185.507 434.563 185.012 434.283 184.658C434.012 184.294 433.648 184.112 433.191 184.112C432.724 184.112 432.355 184.294 432.085 184.658C431.814 185.012 431.679 185.507 431.679 186.142C431.679 186.776 431.814 187.276 432.085 187.64C432.355 187.994 432.724 188.172 433.191 188.172ZM439.197 193.422C438.767 193.422 438.385 193.314 438.049 193.1C437.713 192.876 437.451 192.563 437.265 192.162C437.078 191.76 436.985 191.294 436.985 190.762C436.985 190.23 437.078 189.763 437.265 189.362C437.451 188.96 437.713 188.652 438.049 188.438C438.385 188.214 438.767 188.102 439.197 188.102C439.645 188.102 440.032 188.214 440.359 188.438C440.695 188.652 440.951 188.96 441.129 189.362C441.315 189.763 441.409 190.23 441.409 190.762C441.409 191.294 441.315 191.76 441.129 192.162C440.951 192.563 440.695 192.876 440.359 193.1C440.032 193.314 439.645 193.422 439.197 193.422ZM439.197 192.792C439.654 192.792 440.018 192.614 440.289 192.26C440.569 191.896 440.709 191.396 440.709 190.762C440.709 190.127 440.569 189.632 440.289 189.278C440.018 188.914 439.654 188.732 439.197 188.732C438.739 188.732 438.371 188.914 438.091 189.278C437.82 189.632 437.685 190.127 437.685 190.762C437.685 191.396 437.82 191.896 438.091 192.26C438.371 192.614 438.739 192.792 439.197 192.792Z" fill="#261104"/>
<path d="M275.765 145.352V144.638L279.839 140.648C280.212 140.284 280.492 139.966 280.679 139.696C280.865 139.416 280.991 139.154 281.057 138.912C281.122 138.669 281.155 138.44 281.155 138.226C281.155 137.656 280.959 137.208 280.567 136.882C280.184 136.555 279.615 136.392 278.859 136.392C278.28 136.392 277.767 136.48 277.319 136.658C276.88 136.835 276.502 137.11 276.185 137.484L275.471 136.868C275.853 136.42 276.343 136.074 276.941 135.832C277.538 135.589 278.205 135.468 278.943 135.468C279.605 135.468 280.179 135.575 280.665 135.79C281.15 135.995 281.523 136.298 281.785 136.7C282.055 137.101 282.191 137.572 282.191 138.114C282.191 138.431 282.144 138.744 282.051 139.052C281.967 139.36 281.808 139.686 281.575 140.032C281.351 140.368 281.019 140.75 280.581 141.18L276.843 144.848L276.563 144.456H282.639V145.352H275.765ZM284.097 147.396L284.713 144.806L284.825 145.408C284.61 145.408 284.428 145.338 284.279 145.198C284.139 145.058 284.069 144.876 284.069 144.652C284.069 144.428 284.139 144.246 284.279 144.106C284.428 143.966 284.605 143.896 284.811 143.896C285.025 143.896 285.198 143.97 285.329 144.12C285.469 144.269 285.539 144.446 285.539 144.652C285.539 144.726 285.534 144.801 285.525 144.876C285.515 144.95 285.497 145.034 285.469 145.128C285.441 145.221 285.403 145.333 285.357 145.464L284.769 147.396H284.097ZM288.551 145.352V135.972L288.999 136.448H286.241V135.552H289.559V145.352H288.551ZM293.218 145.352L299.91 135.552H300.736L294.044 145.352H293.218ZM293.974 140.802C293.535 140.802 293.148 140.694 292.812 140.48C292.476 140.256 292.214 139.943 292.028 139.542C291.85 139.14 291.762 138.674 291.762 138.142C291.762 137.61 291.85 137.143 292.028 136.742C292.214 136.34 292.476 136.032 292.812 135.818C293.148 135.594 293.535 135.482 293.974 135.482C294.412 135.482 294.795 135.594 295.122 135.818C295.458 136.032 295.719 136.34 295.906 136.742C296.092 137.143 296.186 137.61 296.186 138.142C296.186 138.674 296.092 139.14 295.906 139.542C295.719 139.943 295.458 140.256 295.122 140.48C294.795 140.694 294.412 140.802 293.974 140.802ZM293.974 140.172C294.431 140.172 294.795 139.994 295.066 139.64C295.346 139.276 295.486 138.776 295.486 138.142C295.486 137.507 295.346 137.012 295.066 136.658C294.795 136.294 294.431 136.112 293.974 136.112C293.507 136.112 293.138 136.294 292.868 136.658C292.597 137.012 292.462 137.507 292.462 138.142C292.462 138.776 292.597 139.276 292.868 139.64C293.138 139.994 293.507 140.172 293.974 140.172ZM299.98 145.422C299.55 145.422 299.168 145.314 298.832 145.1C298.496 144.876 298.234 144.563 298.048 144.162C297.861 143.76 297.768 143.294 297.768 142.762C297.768 142.23 297.861 141.763 298.048 141.362C298.234 140.96 298.496 140.652 298.832 140.438C299.168 140.214 299.55 140.102 299.98 140.102C300.428 140.102 300.815 140.214 301.142 140.438C301.478 140.652 301.734 140.96 301.912 141.362C302.098 141.763 302.192 142.23 302.192 142.762C302.192 143.294 302.098 143.76 301.912 144.162C301.734 144.563 301.478 144.876 301.142 145.1C300.815 145.314 300.428 145.422 299.98 145.422ZM299.98 144.792C300.437 144.792 300.801 144.614 301.072 144.26C301.352 143.896 301.492 143.396 301.492 142.762C301.492 142.127 301.352 141.632 301.072 141.278C300.801 140.914 300.437 140.732 299.98 140.732C299.522 140.732 299.154 140.914 298.874 141.278C298.603 141.632 298.468 142.127 298.468 142.762C298.468 143.396 298.603 143.896 298.874 144.26C299.154 144.614 299.522 144.792 299.98 144.792Z" fill="#261104"/>
<path d="M155.824 390.436C155.115 390.436 154.443 390.324 153.808 390.1C153.183 389.866 152.679 389.558 152.296 389.176L152.786 388.378C153.103 388.704 153.528 388.975 154.06 389.19C154.601 389.404 155.189 389.512 155.824 389.512C156.636 389.512 157.257 389.334 157.686 388.98C158.125 388.625 158.344 388.149 158.344 387.552C158.344 386.954 158.129 386.478 157.7 386.124C157.28 385.769 156.613 385.592 155.698 385.592H154.998V384.85L158.022 381.056L158.162 381.448H152.702V380.552H159.002V381.266L155.978 385.06L155.488 384.738H155.866C157.042 384.738 157.919 384.999 158.498 385.522C159.086 386.044 159.38 386.716 159.38 387.538C159.38 388.088 159.249 388.583 158.988 389.022C158.727 389.46 158.33 389.806 157.798 390.058C157.275 390.31 156.617 390.436 155.824 390.436ZM160.632 387.776V387.048L165.826 380.552H166.946L161.794 387.048L161.248 386.88H169.13V387.776H160.632ZM166.162 390.352V387.776L166.19 386.88V384.612H167.17V390.352H166.162ZM170.386 392.396L171.002 389.806L171.114 390.408C170.899 390.408 170.717 390.338 170.568 390.198C170.428 390.058 170.358 389.876 170.358 389.652C170.358 389.428 170.428 389.246 170.568 389.106C170.717 388.966 170.894 388.896 171.1 388.896C171.314 388.896 171.487 388.97 171.618 389.12C171.758 389.269 171.828 389.446 171.828 389.652C171.828 389.726 171.823 389.801 171.814 389.876C171.804 389.95 171.786 390.034 171.758 390.128C171.73 390.221 171.692 390.333 171.646 390.464L171.058 392.396H170.386ZM172.951 387.776V387.048L178.145 380.552H179.265L174.113 387.048L173.567 386.88H181.449V387.776H172.951ZM178.481 390.352V387.776L178.509 386.88V384.612H179.489V390.352H178.481ZM183.267 390.352L189.959 380.552H190.785L184.093 390.352H183.267ZM184.023 385.802C183.584 385.802 183.197 385.694 182.861 385.48C182.525 385.256 182.263 384.943 182.077 384.542C181.899 384.14 181.811 383.674 181.811 383.142C181.811 382.61 181.899 382.143 182.077 381.742C182.263 381.34 182.525 381.032 182.861 380.818C183.197 380.594 183.584 380.482 184.023 380.482C184.461 380.482 184.844 380.594 185.171 380.818C185.507 381.032 185.768 381.34 185.955 381.742C186.141 382.143 186.235 382.61 186.235 383.142C186.235 383.674 186.141 384.14 185.955 384.542C185.768 384.943 185.507 385.256 185.171 385.48C184.844 385.694 184.461 385.802 184.023 385.802ZM184.023 385.172C184.48 385.172 184.844 384.994 185.115 384.64C185.395 384.276 185.535 383.776 185.535 383.142C185.535 382.507 185.395 382.012 185.115 381.658C184.844 381.294 184.48 381.112 184.023 381.112C183.556 381.112 183.187 381.294 182.917 381.658C182.646 382.012 182.511 382.507 182.511 383.142C182.511 383.776 182.646 384.276 182.917 384.64C183.187 384.994 183.556 385.172 184.023 385.172ZM190.029 390.422C189.599 390.422 189.217 390.314 188.881 390.1C188.545 389.876 188.283 389.563 188.097 389.162C187.91 388.76 187.817 388.294 187.817 387.762C187.817 387.23 187.91 386.763 188.097 386.362C188.283 385.96 188.545 385.652 188.881 385.438C189.217 385.214 189.599 385.102 190.029 385.102C190.477 385.102 190.864 385.214 191.191 385.438C191.527 385.652 191.783 385.96 191.961 386.362C192.147 386.763 192.241 387.23 192.241 387.762C192.241 388.294 192.147 388.76 191.961 389.162C191.783 389.563 191.527 389.876 191.191 390.1C190.864 390.314 190.477 390.422 190.029 390.422ZM190.029 389.792C190.486 389.792 190.85 389.614 191.121 389.26C191.401 388.896 191.541 388.396 191.541 387.762C191.541 387.127 191.401 386.632 191.121 386.278C190.85 385.914 190.486 385.732 190.029 385.732C189.571 385.732 189.203 385.914 188.923 386.278C188.652 386.632 188.517 387.127 188.517 387.762C188.517 388.396 188.652 388.896 188.923 389.26C189.203 389.614 189.571 389.792 190.029 389.792Z" fill="#261104"/>
<path d="M178.458 179.352V169.972L178.906 170.448H176.148V169.552H179.466V179.352H178.458ZM181.641 176.776V176.048L186.835 169.552H187.955L182.803 176.048L182.257 175.88H190.139V176.776H181.641ZM187.171 179.352V176.776L187.199 175.88V173.612H188.179V179.352H187.171ZM191.394 181.396L192.01 178.806L192.122 179.408C191.908 179.408 191.726 179.338 191.576 179.198C191.436 179.058 191.366 178.876 191.366 178.652C191.366 178.428 191.436 178.246 191.576 178.106C191.726 177.966 191.903 177.896 192.108 177.896C192.323 177.896 192.496 177.97 192.626 178.12C192.766 178.269 192.836 178.446 192.836 178.652C192.836 178.726 192.832 178.801 192.822 178.876C192.813 178.95 192.794 179.034 192.766 179.128C192.738 179.221 192.701 179.333 192.654 179.464L192.066 181.396H191.394ZM197.399 179.436C196.699 179.436 196.032 179.324 195.397 179.1C194.762 178.866 194.258 178.558 193.885 178.176L194.375 177.378C194.683 177.704 195.103 177.975 195.635 178.19C196.176 178.404 196.76 178.512 197.385 178.512C198.216 178.512 198.846 178.33 199.275 177.966C199.714 177.592 199.933 177.107 199.933 176.51C199.933 176.09 199.83 175.73 199.625 175.432C199.429 175.124 199.093 174.886 198.617 174.718C198.141 174.55 197.488 174.466 196.657 174.466H194.571L195.075 169.552H200.437V170.448H195.481L195.999 169.958L195.565 174.074L195.047 173.57H196.881C197.87 173.57 198.664 173.691 199.261 173.934C199.858 174.176 200.288 174.517 200.549 174.956C200.82 175.385 200.955 175.889 200.955 176.468C200.955 177.018 200.824 177.522 200.563 177.98C200.302 178.428 199.91 178.782 199.387 179.044C198.864 179.305 198.202 179.436 197.399 179.436ZM203.414 179.352L210.106 169.552H210.932L204.24 179.352H203.414ZM204.17 174.802C203.731 174.802 203.344 174.694 203.008 174.48C202.672 174.256 202.411 173.943 202.224 173.542C202.047 173.14 201.958 172.674 201.958 172.142C201.958 171.61 202.047 171.143 202.224 170.742C202.411 170.34 202.672 170.032 203.008 169.818C203.344 169.594 203.731 169.482 204.17 169.482C204.609 169.482 204.991 169.594 205.318 169.818C205.654 170.032 205.915 170.34 206.102 170.742C206.289 171.143 206.382 171.61 206.382 172.142C206.382 172.674 206.289 173.14 206.102 173.542C205.915 173.943 205.654 174.256 205.318 174.48C204.991 174.694 204.609 174.802 204.17 174.802ZM204.17 174.172C204.627 174.172 204.991 173.994 205.262 173.64C205.542 173.276 205.682 172.776 205.682 172.142C205.682 171.507 205.542 171.012 205.262 170.658C204.991 170.294 204.627 170.112 204.17 170.112C203.703 170.112 203.335 170.294 203.064 170.658C202.793 171.012 202.658 171.507 202.658 172.142C202.658 172.776 202.793 173.276 203.064 173.64C203.335 173.994 203.703 174.172 204.17 174.172ZM210.176 179.422C209.747 179.422 209.364 179.314 209.028 179.1C208.692 178.876 208.431 178.563 208.244 178.162C208.057 177.76 207.964 177.294 207.964 176.762C207.964 176.23 208.057 175.763 208.244 175.362C208.431 174.96 208.692 174.652 209.028 174.438C209.364 174.214 209.747 174.102 210.176 174.102C210.624 174.102 211.011 174.214 211.338 174.438C211.674 174.652 211.931 174.96 212.108 175.362C212.295 175.763 212.388 176.23 212.388 176.762C212.388 177.294 212.295 177.76 212.108 178.162C211.931 178.563 211.674 178.876 211.338 179.1C211.011 179.314 210.624 179.422 210.176 179.422ZM210.176 178.792C210.633 178.792 210.997 178.614 211.268 178.26C211.548 177.896 211.688 177.396 211.688 176.762C211.688 176.127 211.548 175.632 211.268 175.278C210.997 174.914 210.633 174.732 210.176 174.732C209.719 174.732 209.35 174.914 209.07 175.278C208.799 175.632 208.664 176.127 208.664 176.762C208.664 177.396 208.799 177.896 209.07 178.26C209.35 178.614 209.719 178.792 210.176 178.792Z" fill="#261104"/>
</g>
<defs>
<filter id="filter0_d_1546_942" x="0" y="0.351562" width="910" height="521" filterUnits="userSpaceOnUse" color-interpolation-filters="sRGB">
<feFlood flood-opacity="0" result="BackgroundImageFix"/>
<feColorMatrix in="SourceAlpha" type="matrix" values="0 0 0 0 0 0 0 0 0 0 0 0 0 0 0 0 0 0 127 0" result="hardAlpha"/>
<feOffset dy="15"/>
<feGaussianBlur stdDeviation="10"/>
<feColorMatrix type="matrix" values="0 0 0 0 0 0 0 0 0 0 0 0 0 0 0 0 0 0 0.05 0"/>
<feBlend mode="normal" in2="BackgroundImageFix" result="effect1_dropShadow_1546_942"/>
<feBlend mode="normal" in="SourceGraphic" in2="effect1_dropShadow_1546_942" result="shape"/>
</filter>
</defs>
</svg>
