<svg width="910" height="522" viewBox="0 0 910 522" fill="none" xmlns="http://www.w3.org/2000/svg">
<g filter="url(#filter0_d_1546_865)">
<rect width="870" height="481" transform="translate(20 5.35156)" fill="white"/>
<path d="M201.579 99.3516V82.5516H216.435V99.3516H213.363V84.4236L214.083 85.1916H203.931L204.651 84.4236V99.3516H201.579ZM226.548 99.5196C225.236 99.5196 224.068 99.2396 223.044 98.6796C222.02 98.1036 221.212 97.3196 220.62 96.3276C220.028 95.3356 219.732 94.2076 219.732 92.9436C219.732 91.6636 220.028 90.5356 220.62 89.5596C221.212 88.5676 222.02 87.7916 223.044 87.2316C224.068 86.6716 225.236 86.3916 226.548 86.3916C227.876 86.3916 229.052 86.6716 230.076 87.2316C231.116 87.7916 231.924 88.5596 232.5 89.5356C233.092 90.5116 233.388 91.6476 233.388 92.9436C233.388 94.2076 233.092 95.3356 232.5 96.3276C231.924 97.3196 231.116 98.1036 230.076 98.6796C229.052 99.2396 227.876 99.5196 226.548 99.5196ZM226.548 96.9516C227.284 96.9516 227.94 96.7916 228.516 96.4716C229.092 96.1516 229.54 95.6876 229.86 95.0796C230.196 94.4716 230.364 93.7596 230.364 92.9436C230.364 92.1116 230.196 91.3996 229.86 90.8076C229.54 90.1996 229.092 89.7356 228.516 89.4156C227.94 89.0956 227.292 88.9356 226.572 88.9356C225.836 88.9356 225.18 89.0956 224.604 89.4156C224.044 89.7356 223.596 90.1996 223.26 90.8076C222.924 91.3996 222.756 92.1116 222.756 92.9436C222.756 93.7596 222.924 94.4716 223.26 95.0796C223.596 95.6876 224.044 96.1516 224.604 96.4716C225.18 96.7916 225.828 96.9516 226.548 96.9516ZM236.352 99.3516V86.5356H248.64V99.3516H245.664V88.3836L246.36 89.0796H238.656L239.352 88.3836V99.3516H236.352ZM253.84 104.176C253.216 104.176 252.592 104.072 251.968 103.864C251.344 103.656 250.824 103.368 250.408 103L251.608 100.792C251.912 101.064 252.256 101.28 252.64 101.44C253.024 101.6 253.416 101.68 253.816 101.68C254.36 101.68 254.8 101.544 255.136 101.272C255.472 101 255.784 100.544 256.072 99.9036L256.816 98.2236L257.056 97.8636L261.904 86.5356H264.784L258.784 100.384C258.384 101.344 257.936 102.104 257.44 102.664C256.96 103.224 256.416 103.616 255.808 103.84C255.216 104.064 254.56 104.176 253.84 104.176ZM256.48 99.8076L250.696 86.5356H253.816L258.52 97.5996L256.48 99.8076ZM264.222 99.3276L264.366 96.8076C264.478 96.8236 264.582 96.8396 264.678 96.8556C264.774 96.8716 264.862 96.8796 264.942 96.8796C265.438 96.8796 265.822 96.7276 266.094 96.4236C266.366 96.1196 266.566 95.7116 266.694 95.1996C266.838 94.6716 266.934 94.0876 266.982 93.4476C267.046 92.7916 267.094 92.1356 267.126 91.4796L267.342 86.5356H277.71V99.3516H274.71V88.2636L275.406 89.0796H269.31L269.958 88.2396L269.79 91.6236C269.742 92.7596 269.646 93.8156 269.502 94.7916C269.374 95.7516 269.166 96.5916 268.878 97.3116C268.606 98.0316 268.222 98.5916 267.726 98.9916C267.246 99.3916 266.63 99.5916 265.878 99.5916C265.638 99.5916 265.374 99.5676 265.086 99.5196C264.814 99.4716 264.526 99.4076 264.222 99.3276ZM289.886 99.3516V94.9836L290.318 95.4876H286.478C284.718 95.4876 283.334 95.1196 282.326 94.3836C281.334 93.6316 280.838 92.5516 280.838 91.1436C280.838 89.6396 281.366 88.4956 282.422 87.7116C283.494 86.9276 284.918 86.5356 286.694 86.5356H292.574V99.3516H289.886ZM280.67 99.3516L284.126 94.4556H287.198L283.886 99.3516H280.67ZM289.886 94.0236V88.2636L290.318 89.0556H286.79C285.862 89.0556 285.142 89.2316 284.63 89.5836C284.134 89.9196 283.886 90.4716 283.886 91.2396C283.886 92.6796 284.822 93.3996 286.694 93.3996H290.318L289.886 94.0236ZM303.714 99.5196C302.674 99.5196 301.722 99.2796 300.858 98.7996C300.01 98.3196 299.33 97.5996 298.818 96.6396C298.322 95.6636 298.074 94.4316 298.074 92.9436C298.074 91.4396 298.314 90.2076 298.794 89.2476C299.29 88.2876 299.962 87.5756 300.81 87.1116C301.658 86.6316 302.626 86.3916 303.714 86.3916C304.978 86.3916 306.09 86.6636 307.05 87.2076C308.026 87.7516 308.794 88.5116 309.354 89.4876C309.93 90.4636 310.218 91.6156 310.218 92.9436C310.218 94.2716 309.93 95.4316 309.354 96.4236C308.794 97.3996 308.026 98.1596 307.05 98.7036C306.09 99.2476 304.978 99.5196 303.714 99.5196ZM296.61 104.008V86.5356H299.466V89.5596L299.37 92.9676L299.61 96.3756V104.008H296.61ZM303.378 96.9516C304.098 96.9516 304.738 96.7916 305.298 96.4716C305.874 96.1516 306.33 95.6876 306.666 95.0796C307.002 94.4716 307.17 93.7596 307.17 92.9436C307.17 92.1116 307.002 91.3996 306.666 90.8076C306.33 90.1996 305.874 89.7356 305.298 89.4156C304.738 89.0956 304.098 88.9356 303.378 88.9356C302.658 88.9356 302.01 89.0956 301.434 89.4156C300.858 89.7356 300.402 90.1996 300.066 90.8076C299.73 91.3996 299.562 92.1116 299.562 92.9436C299.562 93.7596 299.73 94.4716 300.066 95.0796C300.402 95.6876 300.858 96.1516 301.434 96.4716C302.01 96.7916 302.658 96.9516 303.378 96.9516ZM313.204 99.3516V86.5356H316.204V91.7436H322.66V86.5356H325.66V99.3516H322.66V94.2876H316.204V99.3516H313.204ZM342.616 99.3516V86.5356H345.616V99.3516H342.616ZM335.92 90.7596C337.568 90.7596 338.816 91.1276 339.664 91.8636C340.528 92.5996 340.96 93.6396 340.96 94.9836C340.96 96.3756 340.48 97.4636 339.52 98.2476C338.576 99.0156 337.232 99.3916 335.488 99.3756L329.68 99.3516V86.5356H332.68V90.7356L335.92 90.7596ZM335.224 97.1676C336.104 97.1836 336.776 96.9996 337.24 96.6156C337.704 96.2316 337.936 95.6716 337.936 94.9356C337.936 94.1996 337.704 93.6716 337.24 93.3516C336.792 93.0156 336.12 92.8396 335.224 92.8236L332.68 92.7996V97.1436L335.224 97.1676ZM355.625 99.5196C354.201 99.5196 352.953 99.2396 351.881 98.6796C350.825 98.1036 350.001 97.3196 349.409 96.3276C348.833 95.3356 348.545 94.2076 348.545 92.9436C348.545 91.6636 348.825 90.5356 349.385 89.5596C349.961 88.5676 350.745 87.7916 351.737 87.2316C352.745 86.6716 353.889 86.3916 355.169 86.3916C356.417 86.3916 357.529 86.6636 358.505 87.2076C359.481 87.7516 360.249 88.5196 360.809 89.5116C361.369 90.5036 361.649 91.6716 361.649 93.0156C361.649 93.1436 361.641 93.2876 361.625 93.4476C361.625 93.6076 361.617 93.7596 361.601 93.9036H350.921V91.9116H360.017L358.841 92.5356C358.857 91.7996 358.705 91.1516 358.385 90.5916C358.065 90.0316 357.625 89.5916 357.065 89.2716C356.521 88.9516 355.889 88.7916 355.169 88.7916C354.433 88.7916 353.785 88.9516 353.225 89.2716C352.681 89.5916 352.249 90.0396 351.929 90.6156C351.625 91.1756 351.473 91.8396 351.473 92.6076V93.0876C351.473 93.8556 351.649 94.5356 352.001 95.1276C352.353 95.7196 352.849 96.1756 353.489 96.4956C354.129 96.8156 354.865 96.9756 355.697 96.9756C356.417 96.9756 357.065 96.8636 357.641 96.6396C358.217 96.4156 358.729 96.0636 359.177 95.5836L360.785 97.4316C360.209 98.1036 359.481 98.6236 358.601 98.9916C357.737 99.3436 356.745 99.5196 355.625 99.5196ZM377.395 99.5196C376.051 99.5196 374.851 99.2396 373.795 98.6796C372.755 98.1036 371.939 97.3196 371.347 96.3276C370.755 95.3356 370.459 94.2076 370.459 92.9436C370.459 91.6636 370.755 90.5356 371.347 89.5596C371.939 88.5676 372.755 87.7916 373.795 87.2316C374.851 86.6716 376.051 86.3916 377.395 86.3916C378.643 86.3916 379.739 86.6476 380.683 87.1596C381.643 87.6556 382.371 88.3916 382.867 89.3676L380.563 90.7116C380.179 90.1036 379.707 89.6556 379.147 89.3676C378.603 89.0796 378.011 88.9356 377.371 88.9356C376.635 88.9356 375.971 89.0956 375.379 89.4156C374.787 89.7356 374.323 90.1996 373.987 90.8076C373.651 91.3996 373.483 92.1116 373.483 92.9436C373.483 93.7756 373.651 94.4956 373.987 95.1036C374.323 95.6956 374.787 96.1516 375.379 96.4716C375.971 96.7916 376.635 96.9516 377.371 96.9516C378.011 96.9516 378.603 96.8076 379.147 96.5196C379.707 96.2316 380.179 95.7836 380.563 95.1756L382.867 96.5196C382.371 97.4796 381.643 98.2236 380.683 98.7516C379.739 99.2636 378.643 99.5196 377.395 99.5196ZM393.457 99.5916C393.441 99.5916 393.369 99.5916 393.241 99.5916C393.129 99.5916 393.017 99.5916 392.905 99.5916C392.809 99.5916 392.745 99.5916 392.713 99.5916C390.009 99.5596 387.913 98.9756 386.425 97.8396C384.937 96.6876 384.193 95.0476 384.193 92.9196C384.193 90.8076 384.937 89.1916 386.425 88.0716C387.913 86.9516 390.033 86.3756 392.785 86.3436C392.817 86.3436 392.881 86.3436 392.977 86.3436C393.089 86.3436 393.193 86.3436 393.289 86.3436C393.401 86.3436 393.465 86.3436 393.481 86.3436C396.249 86.3436 398.401 86.9116 399.937 88.0476C401.489 89.1676 402.265 90.7916 402.265 92.9196C402.265 95.0636 401.489 96.7116 399.937 97.8636C398.401 99.0156 396.241 99.5916 393.457 99.5916ZM393.361 97.0956C394.721 97.0956 395.841 96.9436 396.721 96.6396C397.601 96.3196 398.257 95.8556 398.689 95.2476C399.121 94.6236 399.337 93.8476 399.337 92.9196C399.337 92.0076 399.121 91.2556 398.689 90.6636C398.257 90.0556 397.601 89.6076 396.721 89.3196C395.841 89.0156 394.721 88.8636 393.361 88.8636C393.329 88.8636 393.249 88.8636 393.121 88.8636C393.009 88.8636 392.937 88.8636 392.905 88.8636C391.577 88.8636 390.489 89.0236 389.641 89.3436C388.793 89.6476 388.161 90.0956 387.745 90.6876C387.345 91.2796 387.145 92.0236 387.145 92.9196C387.145 93.8316 387.345 94.5916 387.745 95.1996C388.161 95.8076 388.793 96.2716 389.641 96.5916C390.505 96.9116 391.593 97.0796 392.905 97.0956C392.937 97.0956 393.009 97.0956 393.121 97.0956C393.249 97.0956 393.329 97.0956 393.361 97.0956ZM391.801 104.008V81.5436H394.633V104.008H391.801ZM411.148 99.5196C409.724 99.5196 408.476 99.2396 407.404 98.6796C406.348 98.1036 405.524 97.3196 404.932 96.3276C404.356 95.3356 404.068 94.2076 404.068 92.9436C404.068 91.6636 404.348 90.5356 404.908 89.5596C405.484 88.5676 406.268 87.7916 407.26 87.2316C408.268 86.6716 409.412 86.3916 410.692 86.3916C411.94 86.3916 413.052 86.6636 414.028 87.2076C415.004 87.7516 415.772 88.5196 416.332 89.5116C416.892 90.5036 417.172 91.6716 417.172 93.0156C417.172 93.1436 417.164 93.2876 417.148 93.4476C417.148 93.6076 417.14 93.7596 417.124 93.9036H406.444V91.9116H415.54L414.364 92.5356C414.38 91.7996 414.228 91.1516 413.908 90.5916C413.588 90.0316 413.148 89.5916 412.588 89.2716C412.044 88.9516 411.412 88.7916 410.692 88.7916C409.956 88.7916 409.308 88.9516 408.748 89.2716C408.204 89.5916 407.772 90.0396 407.452 90.6156C407.148 91.1756 406.996 91.8396 406.996 92.6076V93.0876C406.996 93.8556 407.172 94.5356 407.524 95.1276C407.876 95.7196 408.372 96.1756 409.012 96.4956C409.652 96.8156 410.388 96.9756 411.22 96.9756C411.94 96.9756 412.588 96.8636 413.164 96.6396C413.74 96.4156 414.252 96.0636 414.7 95.5836L416.308 97.4316C415.732 98.1036 415.004 98.6236 414.124 98.9916C413.26 99.3436 412.268 99.5196 411.148 99.5196ZM427.558 99.5196C426.518 99.5196 425.566 99.2796 424.702 98.7996C423.854 98.3196 423.174 97.5996 422.662 96.6396C422.166 95.6636 421.918 94.4316 421.918 92.9436C421.918 91.4396 422.158 90.2076 422.638 89.2476C423.134 88.2876 423.806 87.5756 424.654 87.1116C425.502 86.6316 426.47 86.3916 427.558 86.3916C428.822 86.3916 429.934 86.6636 430.894 87.2076C431.87 87.7516 432.638 88.5116 433.198 89.4876C433.774 90.4636 434.062 91.6156 434.062 92.9436C434.062 94.2716 433.774 95.4316 433.198 96.4236C432.638 97.3996 431.87 98.1596 430.894 98.7036C429.934 99.2476 428.822 99.5196 427.558 99.5196ZM420.454 104.008V86.5356H423.31V89.5596L423.214 92.9676L423.454 96.3756V104.008H420.454ZM427.222 96.9516C427.942 96.9516 428.582 96.7916 429.142 96.4716C429.718 96.1516 430.174 95.6876 430.51 95.0796C430.846 94.4716 431.014 93.7596 431.014 92.9436C431.014 92.1116 430.846 91.3996 430.51 90.8076C430.174 90.1996 429.718 89.7356 429.142 89.4156C428.582 89.0956 427.942 88.9356 427.222 88.9356C426.502 88.9356 425.854 89.0956 425.278 89.4156C424.702 89.7356 424.246 90.1996 423.91 90.8076C423.574 91.3996 423.406 92.1116 423.406 92.9436C423.406 93.7596 423.574 94.4716 423.91 95.0796C424.246 95.6876 424.702 96.1516 425.278 96.4716C425.854 96.7916 426.502 96.9516 427.222 96.9516ZM449.983 99.3516V86.5356H452.983V99.3516H449.983ZM443.287 90.7596C444.935 90.7596 446.183 91.1276 447.031 91.8636C447.895 92.5996 448.327 93.6396 448.327 94.9836C448.327 96.3756 447.847 97.4636 446.887 98.2476C445.943 99.0156 444.599 99.3916 442.855 99.3756L437.047 99.3516V86.5356H440.047V90.7356L443.287 90.7596ZM442.591 97.1676C443.471 97.1836 444.143 96.9996 444.607 96.6156C445.071 96.2316 445.303 95.6716 445.303 94.9356C445.303 94.1996 445.071 93.6716 444.607 93.3516C444.159 93.0156 443.487 92.8396 442.591 92.8236L440.047 92.7996V97.1436L442.591 97.1676ZM469.481 99.5196C468.137 99.5196 466.937 99.2396 465.881 98.6796C464.841 98.1036 464.025 97.3196 463.433 96.3276C462.841 95.3356 462.545 94.2076 462.545 92.9436C462.545 91.6636 462.841 90.5356 463.433 89.5596C464.025 88.5676 464.841 87.7916 465.881 87.2316C466.937 86.6716 468.137 86.3916 469.481 86.3916C470.729 86.3916 471.825 86.6476 472.769 87.1596C473.729 87.6556 474.457 88.3916 474.953 89.3676L472.649 90.7116C472.265 90.1036 471.793 89.6556 471.233 89.3676C470.689 89.0796 470.097 88.9356 469.457 88.9356C468.721 88.9356 468.057 89.0956 467.465 89.4156C466.873 89.7356 466.409 90.1996 466.073 90.8076C465.737 91.3996 465.569 92.1116 465.569 92.9436C465.569 93.7756 465.737 94.4956 466.073 95.1036C466.409 95.6956 466.873 96.1516 467.465 96.4716C468.057 96.7916 468.721 96.9516 469.457 96.9516C470.097 96.9516 470.689 96.8076 471.233 96.5196C471.793 96.2316 472.265 95.7836 472.649 95.1756L474.953 96.5196C474.457 97.4796 473.729 98.2236 472.769 98.7516C471.825 99.2636 470.729 99.5196 469.481 99.5196ZM484.698 99.5196C483.658 99.5196 482.706 99.2796 481.842 98.7996C480.994 98.3196 480.314 97.5996 479.802 96.6396C479.306 95.6636 479.058 94.4316 479.058 92.9436C479.058 91.4396 479.298 90.2076 479.778 89.2476C480.274 88.2876 480.946 87.5756 481.794 87.1116C482.642 86.6316 483.61 86.3916 484.698 86.3916C485.962 86.3916 487.074 86.6636 488.034 87.2076C489.01 87.7516 489.778 88.5116 490.338 89.4876C490.914 90.4636 491.202 91.6156 491.202 92.9436C491.202 94.2716 490.914 95.4316 490.338 96.4236C489.778 97.3996 489.01 98.1596 488.034 98.7036C487.074 99.2476 485.962 99.5196 484.698 99.5196ZM477.594 104.008V86.5356H480.45V89.5596L480.354 92.9676L480.594 96.3756V104.008H477.594ZM484.362 96.9516C485.082 96.9516 485.722 96.7916 486.282 96.4716C486.858 96.1516 487.314 95.6876 487.65 95.0796C487.986 94.4716 488.154 93.7596 488.154 92.9436C488.154 92.1116 487.986 91.3996 487.65 90.8076C487.314 90.1996 486.858 89.7356 486.282 89.4156C485.722 89.0956 485.082 88.9356 484.362 88.9356C483.642 88.9356 482.994 89.0956 482.418 89.4156C481.842 89.7356 481.386 90.1996 481.05 90.8076C480.714 91.3996 480.546 92.1116 480.546 92.9436C480.546 93.7596 480.714 94.4716 481.05 95.0796C481.386 95.6876 481.842 96.1516 482.418 96.4716C482.994 96.7916 483.642 96.9516 484.362 96.9516ZM500.164 99.5196C498.74 99.5196 497.492 99.2396 496.42 98.6796C495.364 98.1036 494.54 97.3196 493.948 96.3276C493.372 95.3356 493.084 94.2076 493.084 92.9436C493.084 91.6636 493.364 90.5356 493.924 89.5596C494.5 88.5676 495.284 87.7916 496.276 87.2316C497.284 86.6716 498.428 86.3916 499.708 86.3916C500.956 86.3916 502.068 86.6636 503.044 87.2076C504.02 87.7516 504.788 88.5196 505.348 89.5116C505.908 90.5036 506.188 91.6716 506.188 93.0156C506.188 93.1436 506.18 93.2876 506.164 93.4476C506.164 93.6076 506.156 93.7596 506.14 93.9036H495.46V91.9116H504.556L503.38 92.5356C503.396 91.7996 503.244 91.1516 502.924 90.5916C502.604 90.0316 502.164 89.5916 501.604 89.2716C501.06 88.9516 500.428 88.7916 499.708 88.7916C498.972 88.7916 498.324 88.9516 497.764 89.2716C497.22 89.5916 496.788 90.0396 496.468 90.6156C496.164 91.1756 496.012 91.8396 496.012 92.6076V93.0876C496.012 93.8556 496.188 94.5356 496.54 95.1276C496.892 95.7196 497.388 96.1756 498.028 96.4956C498.668 96.8156 499.404 96.9756 500.236 96.9756C500.956 96.9756 501.604 96.8636 502.18 96.6396C502.756 96.4156 503.268 96.0636 503.716 95.5836L505.324 97.4316C504.748 98.1036 504.02 98.6236 503.14 98.9916C502.276 99.3436 501.284 99.5196 500.164 99.5196ZM518.089 97.9596V89.0796H513.169L513.097 91.1436C513.065 91.8796 513.017 92.5916 512.953 93.2796C512.889 93.9516 512.785 94.5756 512.641 95.1516C512.497 95.7116 512.289 96.1756 512.017 96.5436C511.745 96.9116 511.385 97.1516 510.937 97.2636L507.961 96.8076C508.441 96.8076 508.825 96.6556 509.113 96.3516C509.417 96.0316 509.649 95.5996 509.809 95.0556C509.985 94.4956 510.113 93.8636 510.193 93.1596C510.273 92.4396 510.329 91.6956 510.361 90.9276L510.529 86.5356H521.089V97.9596H518.089ZM507.505 102.208V96.8076H522.985V102.208H520.177V99.3516H510.289V102.208H507.505ZM525.664 99.3516V86.5356H528.664V94.9836L535.744 86.5356H538.48V99.3516H535.48V90.9036L528.424 99.3516H525.664ZM554.981 99.5196C553.637 99.5196 552.437 99.2396 551.381 98.6796C550.341 98.1036 549.525 97.3196 548.933 96.3276C548.341 95.3356 548.045 94.2076 548.045 92.9436C548.045 91.6636 548.341 90.5356 548.933 89.5596C549.525 88.5676 550.341 87.7916 551.381 87.2316C552.437 86.6716 553.637 86.3916 554.981 86.3916C556.229 86.3916 557.325 86.6476 558.269 87.1596C559.229 87.6556 559.957 88.3916 560.453 89.3676L558.149 90.7116C557.765 90.1036 557.293 89.6556 556.733 89.3676C556.189 89.0796 555.597 88.9356 554.957 88.9356C554.221 88.9356 553.557 89.0956 552.965 89.4156C552.373 89.7356 551.909 90.1996 551.573 90.8076C551.237 91.3996 551.069 92.1116 551.069 92.9436C551.069 93.7756 551.237 94.4956 551.573 95.1036C551.909 95.6956 552.373 96.1516 552.965 96.4716C553.557 96.7916 554.221 96.9516 554.957 96.9516C555.597 96.9516 556.189 96.8076 556.733 96.5196C557.293 96.2316 557.765 95.7836 558.149 95.1756L560.453 96.5196C559.957 97.4796 559.229 98.2236 558.269 98.7516C557.325 99.2636 556.229 99.5196 554.981 99.5196ZM568.619 99.5196C567.307 99.5196 566.139 99.2396 565.115 98.6796C564.091 98.1036 563.283 97.3196 562.691 96.3276C562.099 95.3356 561.803 94.2076 561.803 92.9436C561.803 91.6636 562.099 90.5356 562.691 89.5596C563.283 88.5676 564.091 87.7916 565.115 87.2316C566.139 86.6716 567.307 86.3916 568.619 86.3916C569.947 86.3916 571.123 86.6716 572.147 87.2316C573.187 87.7916 573.995 88.5596 574.571 89.5356C575.163 90.5116 575.459 91.6476 575.459 92.9436C575.459 94.2076 575.163 95.3356 574.571 96.3276C573.995 97.3196 573.187 98.1036 572.147 98.6796C571.123 99.2396 569.947 99.5196 568.619 99.5196ZM568.619 96.9516C569.355 96.9516 570.011 96.7916 570.587 96.4716C571.163 96.1516 571.611 95.6876 571.931 95.0796C572.267 94.4716 572.435 93.7596 572.435 92.9436C572.435 92.1116 572.267 91.3996 571.931 90.8076C571.611 90.1996 571.163 89.7356 570.587 89.4156C570.011 89.0956 569.363 88.9356 568.643 88.9356C567.907 88.9356 567.251 89.0956 566.675 89.4156C566.115 89.7356 565.667 90.1996 565.331 90.8076C564.995 91.3996 564.827 92.1116 564.827 92.9436C564.827 93.7596 564.995 94.4716 565.331 95.0796C565.667 95.6876 566.115 96.1516 566.675 96.4716C567.251 96.7916 567.899 96.9516 568.619 96.9516ZM578.422 99.3516V86.5356H581.422V94.9836L588.502 86.5356H591.238V99.3516H588.238V90.9036L581.182 99.3516H578.422ZM601.106 99.5196C599.762 99.5196 598.562 99.2396 597.506 98.6796C596.466 98.1036 595.65 97.3196 595.058 96.3276C594.466 95.3356 594.17 94.2076 594.17 92.9436C594.17 91.6636 594.466 90.5356 595.058 89.5596C595.65 88.5676 596.466 87.7916 597.506 87.2316C598.562 86.6716 599.762 86.3916 601.106 86.3916C602.354 86.3916 603.45 86.6476 604.394 87.1596C605.354 87.6556 606.082 88.3916 606.578 89.3676L604.274 90.7116C603.89 90.1036 603.418 89.6556 602.858 89.3676C602.314 89.0796 601.722 88.9356 601.082 88.9356C600.346 88.9356 599.682 89.0956 599.09 89.4156C598.498 89.7356 598.034 90.1996 597.698 90.8076C597.362 91.3996 597.194 92.1116 597.194 92.9436C597.194 93.7756 597.362 94.4956 597.698 95.1036C598.034 95.6956 598.498 96.1516 599.09 96.4716C599.682 96.7916 600.346 96.9516 601.082 96.9516C601.722 96.9516 602.314 96.8076 602.858 96.5196C603.418 96.2316 603.89 95.7836 604.274 95.1756L606.578 96.5196C606.082 97.4796 605.354 98.2236 604.394 98.7516C603.45 99.2636 602.354 99.5196 601.106 99.5196ZM618.411 99.3516L613.779 93.2076L616.227 91.6956L621.939 99.3516H618.411ZM609.219 99.3516V86.5356H612.219V99.3516H609.219ZM611.331 94.2156V91.7196H615.675V94.2156H611.331ZM616.515 93.3036L613.707 92.9676L618.411 86.5356H621.627L616.515 93.3036ZM631.597 99.3516V96.7596L631.429 96.2076V91.6716C631.429 90.7916 631.165 90.1116 630.637 89.6316C630.109 89.1356 629.309 88.8876 628.237 88.8876C627.517 88.8876 626.805 88.9996 626.101 89.2236C625.413 89.4476 624.829 89.7596 624.349 90.1596L623.173 87.9756C623.861 87.4476 624.677 87.0556 625.621 86.7996C626.581 86.5276 627.573 86.3916 628.597 86.3916C630.453 86.3916 631.885 86.8396 632.893 87.7356C633.917 88.6156 634.429 89.9836 634.429 91.8396V99.3516H631.597ZM627.565 99.5196C626.605 99.5196 625.765 99.3596 625.045 99.0396C624.325 98.7036 623.765 98.2476 623.365 97.6716C622.981 97.0796 622.789 96.4156 622.789 95.6796C622.789 94.9596 622.957 94.3116 623.293 93.7356C623.645 93.1596 624.213 92.7036 624.997 92.3676C625.781 92.0316 626.821 91.8636 628.117 91.8636H631.837V93.8556H628.333C627.309 93.8556 626.621 94.0236 626.269 94.3596C625.917 94.6796 625.741 95.0796 625.741 95.5596C625.741 96.1036 625.957 96.5356 626.389 96.8556C626.821 97.1756 627.421 97.3356 628.189 97.3356C628.925 97.3356 629.581 97.1676 630.157 96.8316C630.749 96.4956 631.173 95.9996 631.429 95.3436L631.933 97.1436C631.645 97.8956 631.125 98.4796 630.373 98.8956C629.637 99.3116 628.701 99.5196 627.565 99.5196ZM640.805 99.3516V88.3596L641.501 89.0796H636.293V86.5356H648.293V89.0796H643.109L643.805 88.3596V99.3516H640.805ZM655.883 99.5196C654.459 99.5196 653.211 99.2396 652.139 98.6796C651.083 98.1036 650.259 97.3196 649.667 96.3276C649.091 95.3356 648.803 94.2076 648.803 92.9436C648.803 91.6636 649.083 90.5356 649.643 89.5596C650.219 88.5676 651.003 87.7916 651.995 87.2316C653.003 86.6716 654.147 86.3916 655.427 86.3916C656.675 86.3916 657.787 86.6636 658.763 87.2076C659.739 87.7516 660.507 88.5196 661.067 89.5116C661.627 90.5036 661.907 91.6716 661.907 93.0156C661.907 93.1436 661.899 93.2876 661.883 93.4476C661.883 93.6076 661.875 93.7596 661.859 93.9036H651.179V91.9116H660.275L659.099 92.5356C659.115 91.7996 658.963 91.1516 658.643 90.5916C658.323 90.0316 657.883 89.5916 657.323 89.2716C656.779 88.9516 656.147 88.7916 655.427 88.7916C654.691 88.7916 654.043 88.9516 653.483 89.2716C652.939 89.5916 652.507 90.0396 652.187 90.6156C651.883 91.1756 651.731 91.8396 651.731 92.6076V93.0876C651.731 93.8556 651.907 94.5356 652.259 95.1276C652.611 95.7196 653.107 96.1756 653.747 96.4956C654.387 96.8156 655.123 96.9756 655.955 96.9756C656.675 96.9756 657.323 96.8636 657.899 96.6396C658.475 96.4156 658.987 96.0636 659.435 95.5836L661.043 97.4316C660.467 98.1036 659.739 98.6236 658.859 98.9916C657.995 99.3436 657.003 99.5196 655.883 99.5196ZM663.152 99.3276L663.296 96.8076C663.408 96.8236 663.512 96.8396 663.608 96.8556C663.704 96.8716 663.792 96.8796 663.872 96.8796C664.368 96.8796 664.752 96.7276 665.024 96.4236C665.296 96.1196 665.496 95.7116 665.624 95.1996C665.768 94.6716 665.864 94.0876 665.912 93.4476C665.976 92.7916 666.024 92.1356 666.056 91.4796L666.272 86.5356H676.64V99.3516H673.64V88.2636L674.336 89.0796H668.24L668.888 88.2396L668.72 91.6236C668.672 92.7596 668.576 93.8156 668.432 94.7916C668.304 95.7516 668.096 96.5916 667.808 97.3116C667.536 98.0316 667.152 98.5916 666.656 98.9916C666.176 99.3916 665.56 99.5916 664.808 99.5916C664.568 99.5916 664.304 99.5676 664.016 99.5196C663.744 99.4716 663.456 99.4076 663.152 99.3276ZM686.656 99.5196C685.232 99.5196 683.984 99.2396 682.912 98.6796C681.856 98.1036 681.032 97.3196 680.44 96.3276C679.864 95.3356 679.576 94.2076 679.576 92.9436C679.576 91.6636 679.856 90.5356 680.416 89.5596C680.992 88.5676 681.776 87.7916 682.768 87.2316C683.776 86.6716 684.92 86.3916 686.2 86.3916C687.448 86.3916 688.56 86.6636 689.536 87.2076C690.512 87.7516 691.28 88.5196 691.84 89.5116C692.4 90.5036 692.68 91.6716 692.68 93.0156C692.68 93.1436 692.672 93.2876 692.656 93.4476C692.656 93.6076 692.648 93.7596 692.632 93.9036H681.952V91.9116H691.048L689.872 92.5356C689.888 91.7996 689.736 91.1516 689.416 90.5916C689.096 90.0316 688.656 89.5916 688.096 89.2716C687.552 88.9516 686.92 88.7916 686.2 88.7916C685.464 88.7916 684.816 88.9516 684.256 89.2716C683.712 89.5916 683.28 90.0396 682.96 90.6156C682.656 91.1756 682.504 91.8396 682.504 92.6076V93.0876C682.504 93.8556 682.68 94.5356 683.032 95.1276C683.384 95.7196 683.88 96.1756 684.52 96.4956C685.16 96.8156 685.896 96.9756 686.728 96.9756C687.448 96.9756 688.096 96.8636 688.672 96.6396C689.248 96.4156 689.76 96.0636 690.208 95.5836L691.816 97.4316C691.24 98.1036 690.512 98.6236 689.632 98.9916C688.768 99.3436 687.776 99.5196 686.656 99.5196ZM695.961 99.3516V86.5356H698.961V94.9836L706.041 86.5356H708.777V99.3516H705.777V90.9036L698.721 99.3516H695.961ZM702.177 85.0236C700.897 85.0236 699.913 84.7276 699.225 84.1356C698.537 83.5276 698.185 82.6476 698.169 81.4956H700.161C700.177 82.0716 700.353 82.5276 700.689 82.8636C701.041 83.1996 701.529 83.3676 702.153 83.3676C702.761 83.3676 703.241 83.1996 703.593 82.8636C703.961 82.5276 704.153 82.0716 704.169 81.4956H706.209C706.193 82.6476 705.833 83.5276 705.129 84.1356C704.441 84.7276 703.457 85.0236 702.177 85.0236Z" fill="#261104"/>
<path d="M427.5 286.352C427.5 269.28 424.137 252.375 417.604 236.603C411.071 220.83 401.495 206.499 389.424 194.428C377.352 182.356 363.021 172.78 347.249 166.247C331.477 159.714 314.572 156.352 297.5 156.352V219.717C306.251 219.717 314.916 221.44 323 224.789C331.085 228.138 338.43 233.046 344.618 239.234C350.806 245.421 355.714 252.767 359.063 260.851C362.411 268.936 364.135 277.601 364.135 286.352H427.5Z" fill="#261104"/>
<path d="M329.729 412.293C357.725 405.129 382.536 388.84 400.242 366.001C417.948 343.162 427.539 315.074 427.5 286.176L364.135 286.262C364.155 301.074 359.239 315.471 350.163 327.178C341.088 338.885 328.37 347.234 314.02 350.906L329.729 412.293Z" fill="#D25F15"/>
<path d="M186.648 354.261C201.389 378.325 223.561 396.938 249.813 407.289C276.066 417.641 304.974 419.169 332.172 411.643L315.272 350.573C301.331 354.431 286.513 353.647 273.057 348.341C259.6 343.035 248.236 333.495 240.68 321.161L186.648 354.261Z" fill="#ED8F52"/>
<path d="M200.723 199.552C181.708 220.752 170.181 247.609 167.913 275.997C165.645 304.384 172.76 332.731 188.167 356.682L241.459 322.401C233.562 310.125 229.914 295.595 231.077 281.044C232.24 266.493 238.148 252.727 247.894 241.86L200.723 199.552Z" fill="#F4D7C4"/>
<path d="M297.5 156.352C279.139 156.352 260.987 160.241 244.238 167.764C227.489 175.286 212.523 186.271 200.326 199.996L247.691 242.088C253.943 235.053 261.614 229.422 270.199 225.566C278.784 221.71 288.089 219.717 297.5 219.717V156.352Z" fill="#FBF6F4"/>
<rect x="497.5" y="206.852" width="12" height="12" fill="#261104"/>
<path d="M520.286 215.816L518.242 213.198L520.286 210.566H520.972L518.956 213.198L520.972 215.816H520.286ZM522.624 215.816L520.58 213.198L522.624 210.566H523.31L521.294 213.198L523.31 215.816H522.624ZM525.635 216.852V207.052H533.699V216.852H532.985V207.472L533.195 207.696H526.139L526.349 207.472V216.852H525.635ZM540.659 216.908C540.015 216.908 539.432 216.758 538.909 216.46C538.396 216.161 537.985 215.736 537.677 215.186C537.378 214.626 537.229 213.963 537.229 213.198C537.229 212.432 537.378 211.774 537.677 211.224C537.985 210.664 538.396 210.234 538.909 209.936C539.432 209.637 540.015 209.488 540.659 209.488C541.35 209.488 541.966 209.646 542.507 209.964C543.058 210.272 543.487 210.706 543.795 211.266C544.112 211.826 544.271 212.47 544.271 213.198C544.271 213.926 544.112 214.57 543.795 215.13C543.487 215.69 543.058 216.128 542.507 216.446C541.966 216.754 541.35 216.908 540.659 216.908ZM536.991 219.568V209.544H537.663V211.938L537.551 213.212L537.691 214.486V219.568H536.991ZM540.617 216.278C541.177 216.278 541.681 216.152 542.129 215.9C542.577 215.638 542.927 215.274 543.179 214.808C543.44 214.341 543.571 213.804 543.571 213.198C543.571 212.582 543.44 212.045 543.179 211.588C542.927 211.121 542.577 210.762 542.129 210.51C541.681 210.248 541.177 210.118 540.617 210.118C540.057 210.118 539.553 210.248 539.105 210.51C538.666 210.762 538.316 211.121 538.055 211.588C537.803 212.045 537.677 212.582 537.677 213.198C537.677 213.804 537.803 214.341 538.055 214.808C538.316 215.274 538.666 215.638 539.105 215.9C539.553 216.152 540.057 216.278 540.617 216.278ZM549.459 216.908C548.759 216.908 548.134 216.749 547.583 216.432C547.042 216.114 546.608 215.676 546.281 215.116C545.964 214.556 545.805 213.916 545.805 213.198C545.805 212.47 545.964 211.83 546.281 211.28C546.608 210.72 547.042 210.281 547.583 209.964C548.134 209.646 548.759 209.488 549.459 209.488C550.159 209.488 550.784 209.646 551.335 209.964C551.886 210.281 552.32 210.72 552.637 211.28C552.954 211.83 553.113 212.47 553.113 213.198C553.113 213.916 552.954 214.556 552.637 215.116C552.32 215.676 551.886 216.114 551.335 216.432C550.784 216.749 550.159 216.908 549.459 216.908ZM549.459 216.278C550.019 216.278 550.523 216.152 550.971 215.9C551.419 215.638 551.769 215.274 552.021 214.808C552.273 214.341 552.399 213.804 552.399 213.198C552.399 212.582 552.273 212.045 552.021 211.588C551.769 211.121 551.419 210.762 550.971 210.51C550.523 210.248 550.019 210.118 549.459 210.118C548.899 210.118 548.395 210.248 547.947 210.51C547.508 210.762 547.158 211.121 546.897 211.588C546.645 212.045 546.519 212.582 546.519 213.198C546.519 213.804 546.645 214.341 546.897 214.808C547.158 215.274 547.508 215.638 547.947 215.9C548.395 216.152 548.899 216.278 549.459 216.278ZM560.364 216.516V210.174H556.556L556.472 211.994C556.453 212.507 556.42 213.02 556.374 213.534C556.327 214.038 556.252 214.504 556.15 214.934C556.047 215.354 555.902 215.694 555.716 215.956C555.538 216.217 555.305 216.362 555.016 216.39L554.316 216.236C554.614 216.254 554.857 216.147 555.044 215.914C555.23 215.671 555.375 215.344 555.478 214.934C555.58 214.523 555.655 214.061 555.702 213.548C555.758 213.025 555.8 212.493 555.828 211.952L555.926 209.544H561.064V216.516H560.364ZM553.994 218.672V216.236H562.24V218.672H561.582V216.852H554.666V218.672H553.994ZM568.871 216.852V215.186L568.843 214.934V212.19C568.843 211.508 568.656 210.99 568.283 210.636C567.919 210.281 567.382 210.104 566.673 210.104C566.169 210.104 565.698 210.192 565.259 210.37C564.83 210.538 564.461 210.757 564.153 211.028L563.803 210.524C564.167 210.197 564.606 209.945 565.119 209.768C565.632 209.581 566.169 209.488 566.729 209.488C567.634 209.488 568.33 209.716 568.815 210.174C569.3 210.631 569.543 211.312 569.543 212.218V216.852H568.871ZM566.239 216.908C565.698 216.908 565.226 216.824 564.825 216.656C564.433 216.478 564.13 216.231 563.915 215.914C563.71 215.596 563.607 215.232 563.607 214.822C563.607 214.448 563.691 214.112 563.859 213.814C564.036 213.506 564.326 213.258 564.727 213.072C565.128 212.876 565.665 212.778 566.337 212.778H569.025V213.324H566.351C565.595 213.324 565.063 213.464 564.755 213.744C564.456 214.024 564.307 214.374 564.307 214.794C564.307 215.26 564.484 215.634 564.839 215.914C565.194 216.194 565.693 216.334 566.337 216.334C566.953 216.334 567.471 216.194 567.891 215.914C568.32 215.634 568.638 215.228 568.843 214.696L569.039 215.172C568.843 215.704 568.507 216.128 568.031 216.446C567.564 216.754 566.967 216.908 566.239 216.908ZM581.025 216.852L578.393 213.198L578.981 212.862L581.865 216.852H581.025ZM576.629 213.464V212.862H578.897V213.464H576.629ZM579.037 213.268L578.379 213.156L580.885 209.544H581.655L579.037 213.268ZM572.023 216.852H571.169L574.067 212.862L574.655 213.198L572.023 216.852ZM576.867 216.852H576.167V209.544H576.867V216.852ZM576.391 213.464H574.137V212.862H576.391V213.464ZM574.011 213.268L571.393 209.544H572.163L574.669 213.156L574.011 213.268ZM583.68 216.852V209.544H584.38V215.774L589.588 209.544H590.204V216.852H589.504V210.622L584.296 216.852H583.68ZM592.957 215.816H592.285L594.301 213.198L592.285 210.566H592.957L595.001 213.198L592.957 215.816ZM595.295 215.816H594.623L596.639 213.198L594.623 210.566H595.295L597.339 213.198L595.295 215.816Z" fill="#171717"/>
<rect x="497.5" y="243.852" width="12" height="12" fill="#D25F15"/>
<path d="M520.286 252.816L518.242 250.198L520.286 247.566H520.972L518.956 250.198L520.972 252.816H520.286ZM522.624 252.816L520.58 250.198L522.624 247.566H523.31L521.294 250.198L523.31 252.816H522.624ZM532.901 244.052H533.615V253.852H532.901V244.052ZM526.349 253.852H525.635V244.052H526.349V253.852ZM532.985 249.19H526.265V248.56H532.985V249.19ZM541.459 253.852V252.186L541.431 251.934V249.19C541.431 248.508 541.244 247.99 540.871 247.636C540.507 247.281 539.97 247.104 539.261 247.104C538.757 247.104 538.285 247.192 537.847 247.37C537.417 247.538 537.049 247.757 536.741 248.028L536.391 247.524C536.755 247.197 537.193 246.945 537.707 246.768C538.22 246.581 538.757 246.488 539.317 246.488C540.222 246.488 540.917 246.716 541.403 247.174C541.888 247.631 542.131 248.312 542.131 249.218V253.852H541.459ZM538.827 253.908C538.285 253.908 537.814 253.824 537.413 253.656C537.021 253.478 536.717 253.231 536.503 252.914C536.297 252.596 536.195 252.232 536.195 251.822C536.195 251.448 536.279 251.112 536.447 250.814C536.624 250.506 536.913 250.258 537.315 250.072C537.716 249.876 538.253 249.778 538.925 249.778H541.613V250.324H538.939C538.183 250.324 537.651 250.464 537.343 250.744C537.044 251.024 536.895 251.374 536.895 251.794C536.895 252.26 537.072 252.634 537.427 252.914C537.781 253.194 538.281 253.334 538.925 253.334C539.541 253.334 540.059 253.194 540.479 252.914C540.908 252.634 541.225 252.228 541.431 251.696L541.627 252.172C541.431 252.704 541.095 253.128 540.619 253.446C540.152 253.754 539.555 253.908 538.827 253.908ZM549.595 250.674C549.138 250.879 548.68 251.038 548.223 251.15C547.775 251.252 547.341 251.304 546.921 251.304C546.09 251.304 545.423 251.112 544.919 250.73C544.415 250.338 544.163 249.754 544.163 248.98V246.544H544.863V248.938C544.863 249.526 545.059 249.969 545.451 250.268C545.843 250.566 546.366 250.716 547.019 250.716C547.411 250.716 547.826 250.664 548.265 250.562C548.704 250.459 549.152 250.305 549.609 250.1L549.595 250.674ZM549.525 253.852V246.544H550.225V253.852H549.525ZM557.81 253.852V252.186L557.782 251.934V249.19C557.782 248.508 557.596 247.99 557.222 247.636C556.858 247.281 556.322 247.104 555.612 247.104C555.108 247.104 554.637 247.192 554.198 247.37C553.769 247.538 553.4 247.757 553.092 248.028L552.742 247.524C553.106 247.197 553.545 246.945 554.058 246.768C554.572 246.581 555.108 246.488 555.668 246.488C556.574 246.488 557.269 246.716 557.754 247.174C558.24 247.631 558.482 248.312 558.482 249.218V253.852H557.81ZM555.178 253.908C554.637 253.908 554.166 253.824 553.764 253.656C553.372 253.478 553.069 253.231 552.854 252.914C552.649 252.596 552.546 252.232 552.546 251.822C552.546 251.448 552.63 251.112 552.798 250.814C552.976 250.506 553.265 250.258 553.666 250.072C554.068 249.876 554.604 249.778 555.276 249.778H557.964V250.324H555.29C554.534 250.324 554.002 250.464 553.694 250.744C553.396 251.024 553.246 251.374 553.246 251.794C553.246 252.26 553.424 252.634 553.778 252.914C554.133 253.194 554.632 253.334 555.276 253.334C555.892 253.334 556.41 253.194 556.83 252.914C557.26 252.634 557.577 252.228 557.782 251.696L557.978 252.172C557.782 252.704 557.446 253.128 556.97 253.446C556.504 253.754 555.906 253.908 555.178 253.908ZM559.884 253.824L559.954 253.222C560.01 253.231 560.066 253.245 560.122 253.264C560.188 253.273 560.244 253.278 560.29 253.278C560.608 253.278 560.86 253.161 561.046 252.928C561.233 252.685 561.373 252.363 561.466 251.962C561.569 251.56 561.639 251.108 561.676 250.604C561.723 250.1 561.76 249.586 561.788 249.064L561.914 246.544H567.038V253.852H566.338V246.95L566.534 247.174H562.362L562.544 246.936L562.432 249.12C562.395 249.754 562.344 250.361 562.278 250.94C562.213 251.518 562.115 252.032 561.984 252.48C561.854 252.928 561.667 253.282 561.424 253.544C561.182 253.796 560.869 253.922 560.486 253.922C560.393 253.922 560.295 253.912 560.192 253.894C560.099 253.875 559.996 253.852 559.884 253.824ZM572.975 253.908C572.275 253.908 571.649 253.749 571.099 253.432C570.557 253.114 570.123 252.676 569.797 252.116C569.479 251.556 569.321 250.916 569.321 250.198C569.321 249.47 569.479 248.83 569.797 248.28C570.123 247.72 570.557 247.281 571.099 246.964C571.649 246.646 572.275 246.488 572.975 246.488C573.675 246.488 574.3 246.646 574.851 246.964C575.401 247.281 575.835 247.72 576.153 248.28C576.47 248.83 576.629 249.47 576.629 250.198C576.629 250.916 576.47 251.556 576.153 252.116C575.835 252.676 575.401 253.114 574.851 253.432C574.3 253.749 573.675 253.908 572.975 253.908ZM572.975 253.278C573.535 253.278 574.039 253.152 574.487 252.9C574.935 252.638 575.285 252.274 575.537 251.808C575.789 251.341 575.915 250.804 575.915 250.198C575.915 249.582 575.789 249.045 575.537 248.588C575.285 248.121 574.935 247.762 574.487 247.51C574.039 247.248 573.535 247.118 572.975 247.118C572.415 247.118 571.911 247.248 571.463 247.51C571.024 247.762 570.674 248.121 570.413 248.588C570.161 249.045 570.035 249.582 570.035 250.198C570.035 250.804 570.161 251.341 570.413 251.808C570.674 252.274 571.024 252.638 571.463 252.9C571.911 253.152 572.415 253.278 572.975 253.278ZM587.894 253.852L584.758 250.198L585.346 249.862L588.734 253.852H587.894ZM582.504 253.852V246.544H583.204V253.852H582.504ZM582.98 250.464V249.862H585.276V250.464H582.98ZM585.388 250.268L584.744 250.156L587.74 246.544H588.51L585.388 250.268ZM594.889 253.852V252.186L594.861 251.934V249.19C594.861 248.508 594.674 247.99 594.301 247.636C593.937 247.281 593.4 247.104 592.691 247.104C592.187 247.104 591.715 247.192 591.277 247.37C590.847 247.538 590.479 247.757 590.171 248.028L589.821 247.524C590.185 247.197 590.623 246.945 591.137 246.768C591.65 246.581 592.187 246.488 592.747 246.488C593.652 246.488 594.347 246.716 594.833 247.174C595.318 247.631 595.561 248.312 595.561 249.218V253.852H594.889ZM592.257 253.908C591.715 253.908 591.244 253.824 590.843 253.656C590.451 253.478 590.147 253.231 589.933 252.914C589.727 252.596 589.625 252.232 589.625 251.822C589.625 251.448 589.709 251.112 589.877 250.814C590.054 250.506 590.343 250.258 590.745 250.072C591.146 249.876 591.683 249.778 592.355 249.778H595.043V250.324H592.369C591.613 250.324 591.081 250.464 590.773 250.744C590.474 251.024 590.325 251.374 590.325 251.794C590.325 252.26 590.502 252.634 590.857 252.914C591.211 253.194 591.711 253.334 592.355 253.334C592.971 253.334 593.489 253.194 593.909 252.914C594.338 252.634 594.655 252.228 594.861 251.696L595.057 252.172C594.861 252.704 594.525 253.128 594.049 253.446C593.582 253.754 592.985 253.908 592.257 253.908ZM602.087 253.908C601.443 253.908 600.859 253.758 600.337 253.46C599.823 253.161 599.413 252.736 599.105 252.186C598.806 251.626 598.657 250.963 598.657 250.198C598.657 249.432 598.806 248.774 599.105 248.224C599.413 247.664 599.823 247.234 600.337 246.936C600.859 246.637 601.443 246.488 602.087 246.488C602.777 246.488 603.393 246.646 603.935 246.964C604.485 247.272 604.915 247.706 605.223 248.266C605.54 248.826 605.699 249.47 605.699 250.198C605.699 250.926 605.54 251.57 605.223 252.13C604.915 252.69 604.485 253.128 603.935 253.446C603.393 253.754 602.777 253.908 602.087 253.908ZM598.419 256.568V246.544H599.091V248.938L598.979 250.212L599.119 251.486V256.568H598.419ZM602.045 253.278C602.605 253.278 603.109 253.152 603.557 252.9C604.005 252.638 604.355 252.274 604.607 251.808C604.868 251.341 604.999 250.804 604.999 250.198C604.999 249.582 604.868 249.045 604.607 248.588C604.355 248.121 604.005 247.762 603.557 247.51C603.109 247.248 602.605 247.118 602.045 247.118C601.485 247.118 600.981 247.248 600.533 247.51C600.094 247.762 599.744 248.121 599.483 248.588C599.231 249.045 599.105 249.582 599.105 250.198C599.105 250.804 599.231 251.341 599.483 251.808C599.744 252.274 600.094 252.638 600.533 252.9C600.981 253.152 601.485 253.278 602.045 253.278ZM610.901 249.204C611.806 249.213 612.497 249.414 612.973 249.806C613.449 250.188 613.687 250.753 613.687 251.5C613.687 252.274 613.435 252.867 612.931 253.278C612.427 253.688 611.694 253.889 610.733 253.88L607.975 253.852V246.544H608.675V249.176L610.901 249.204ZM610.719 253.32C611.466 253.329 612.026 253.18 612.399 252.872C612.782 252.564 612.973 252.106 612.973 251.5C612.973 250.912 612.786 250.473 612.413 250.184C612.04 249.894 611.475 249.745 610.719 249.736L608.675 249.722V253.292L610.719 253.32ZM618.737 253.908C618 253.908 617.347 253.749 616.777 253.432C616.217 253.114 615.774 252.676 615.447 252.116C615.13 251.556 614.971 250.916 614.971 250.198C614.971 249.47 615.121 248.83 615.419 248.28C615.727 247.72 616.147 247.281 616.679 246.964C617.211 246.646 617.809 246.488 618.471 246.488C619.134 246.488 619.727 246.642 620.249 246.95C620.781 247.258 621.197 247.692 621.495 248.252C621.803 248.802 621.957 249.442 621.957 250.17C621.957 250.198 621.953 250.23 621.943 250.268C621.943 250.296 621.943 250.328 621.943 250.366H615.489V249.82H621.565L621.285 250.086C621.295 249.516 621.173 249.008 620.921 248.56C620.679 248.102 620.347 247.748 619.927 247.496C619.507 247.234 619.022 247.104 618.471 247.104C617.93 247.104 617.445 247.234 617.015 247.496C616.595 247.748 616.264 248.102 616.021 248.56C615.779 249.008 615.657 249.521 615.657 250.1V250.226C615.657 250.823 615.788 251.355 616.049 251.822C616.32 252.279 616.689 252.638 617.155 252.9C617.622 253.152 618.154 253.278 618.751 253.278C619.218 253.278 619.652 253.194 620.053 253.026C620.464 252.858 620.809 252.601 621.089 252.256L621.495 252.718C621.178 253.11 620.777 253.408 620.291 253.614C619.815 253.81 619.297 253.908 618.737 253.908ZM627.926 253.908C627.282 253.908 626.699 253.758 626.176 253.46C625.663 253.161 625.252 252.736 624.944 252.186C624.646 251.626 624.496 250.963 624.496 250.198C624.496 249.432 624.646 248.774 624.944 248.224C625.252 247.664 625.663 247.234 626.176 246.936C626.699 246.637 627.282 246.488 627.926 246.488C628.617 246.488 629.233 246.646 629.774 246.964C630.325 247.272 630.754 247.706 631.062 248.266C631.38 248.826 631.538 249.47 631.538 250.198C631.538 250.926 631.38 251.57 631.062 252.13C630.754 252.69 630.325 253.128 629.774 253.446C629.233 253.754 628.617 253.908 627.926 253.908ZM624.258 256.568V246.544H624.93V248.938L624.818 250.212L624.958 251.486V256.568H624.258ZM627.884 253.278C628.444 253.278 628.948 253.152 629.396 252.9C629.844 252.638 630.194 252.274 630.446 251.808C630.708 251.341 630.838 250.804 630.838 250.198C630.838 249.582 630.708 249.045 630.446 248.588C630.194 248.121 629.844 247.762 629.396 247.51C628.948 247.248 628.444 247.118 627.884 247.118C627.324 247.118 626.82 247.248 626.372 247.51C625.934 247.762 625.584 248.121 625.322 248.588C625.07 249.045 624.944 249.582 624.944 250.198C624.944 250.804 625.07 251.341 625.322 251.808C625.584 252.274 625.934 252.638 626.372 252.9C626.82 253.152 627.324 253.278 627.884 253.278ZM640.829 253.852V246.544H641.529V253.852H640.829ZM636.699 249.204C637.613 249.213 638.304 249.414 638.771 249.806C639.247 250.188 639.485 250.753 639.485 251.5C639.485 252.274 639.233 252.867 638.729 253.278C638.225 253.688 637.497 253.889 636.545 253.88L633.815 253.852V246.544H634.515V249.176L636.699 249.204ZM636.517 253.32C637.263 253.329 637.828 253.18 638.211 252.872C638.593 252.564 638.785 252.106 638.785 251.5C638.785 250.912 638.593 250.473 638.211 250.184C637.837 249.894 637.273 249.745 636.517 249.736L634.515 249.722V253.292L636.517 253.32ZM643.833 255.854L644.379 253.488L644.449 253.894C644.272 253.894 644.123 253.838 644.001 253.726C643.889 253.614 643.833 253.474 643.833 253.306C643.833 253.138 643.889 252.998 644.001 252.886C644.123 252.774 644.263 252.718 644.421 252.718C644.599 252.718 644.739 252.778 644.841 252.9C644.953 253.012 645.009 253.147 645.009 253.306C645.009 253.371 645.005 253.436 644.995 253.502C644.986 253.567 644.972 253.632 644.953 253.698C644.935 253.763 644.911 253.847 644.883 253.95L644.337 255.854H643.833ZM653.886 253.908C653.177 253.908 652.542 253.749 651.982 253.432C651.431 253.114 650.993 252.676 650.666 252.116C650.349 251.556 650.19 250.916 650.19 250.198C650.19 249.47 650.349 248.826 650.666 248.266C650.993 247.706 651.431 247.272 651.982 246.964C652.542 246.646 653.177 246.488 653.886 246.488C654.474 246.488 655.006 246.6 655.482 246.824C655.967 247.048 656.359 247.384 656.658 247.832L656.14 248.21C655.879 247.836 655.552 247.561 655.16 247.384C654.768 247.206 654.343 247.118 653.886 247.118C653.317 247.118 652.803 247.248 652.346 247.51C651.898 247.762 651.543 248.121 651.282 248.588C651.03 249.045 650.904 249.582 650.904 250.198C650.904 250.814 651.03 251.355 651.282 251.822C651.543 252.279 651.898 252.638 652.346 252.9C652.803 253.152 653.317 253.278 653.886 253.278C654.343 253.278 654.768 253.189 655.16 253.012C655.552 252.834 655.879 252.559 656.14 252.186L656.658 252.564C656.359 253.012 655.967 253.348 655.482 253.572C655.006 253.796 654.474 253.908 653.886 253.908ZM659.891 253.852V246.964L660.087 247.174H657.035V246.544H663.447V247.174H660.395L660.591 246.964V253.852H659.891ZM664.862 256.624C664.526 256.624 664.208 256.568 663.91 256.456C663.62 256.344 663.373 256.18 663.168 255.966L663.518 255.434C663.704 255.63 663.905 255.774 664.12 255.868C664.344 255.961 664.596 256.008 664.876 256.008C665.212 256.008 665.506 255.914 665.758 255.728C666.019 255.541 666.262 255.2 666.486 254.706L666.99 253.586L667.088 253.46L670.182 246.544H670.896L667.144 254.846C666.948 255.294 666.733 255.644 666.5 255.896C666.276 256.157 666.028 256.344 665.758 256.456C665.487 256.568 665.188 256.624 664.862 256.624ZM666.976 254.034L663.588 246.544H664.33L667.41 253.418L666.976 254.034ZM677.326 253.516V247.174H673.518L673.434 248.994C673.416 249.507 673.383 250.02 673.336 250.534C673.29 251.038 673.215 251.504 673.112 251.934C673.01 252.354 672.865 252.694 672.678 252.956C672.501 253.217 672.268 253.362 671.978 253.39L671.278 253.236C671.577 253.254 671.82 253.147 672.006 252.914C672.193 252.671 672.338 252.344 672.44 251.934C672.543 251.523 672.618 251.061 672.664 250.548C672.72 250.025 672.762 249.493 672.79 248.952L672.888 246.544H678.026V253.516H677.326ZM670.956 255.672V253.236H679.202V255.672H678.544V253.852H671.628V255.672H670.956ZM684.294 253.908C683.556 253.908 682.903 253.749 682.334 253.432C681.774 253.114 681.33 252.676 681.004 252.116C680.686 251.556 680.528 250.916 680.528 250.198C680.528 249.47 680.677 248.83 680.976 248.28C681.284 247.72 681.704 247.281 682.236 246.964C682.768 246.646 683.365 246.488 684.028 246.488C684.69 246.488 685.283 246.642 685.806 246.95C686.338 247.258 686.753 247.692 687.052 248.252C687.36 248.802 687.514 249.442 687.514 250.17C687.514 250.198 687.509 250.23 687.5 250.268C687.5 250.296 687.5 250.328 687.5 250.366H681.046V249.82H687.122L686.842 250.086C686.851 249.516 686.73 249.008 686.478 248.56C686.235 248.102 685.904 247.748 685.484 247.496C685.064 247.234 684.578 247.104 684.028 247.104C683.486 247.104 683.001 247.234 682.572 247.496C682.152 247.748 681.82 248.102 681.578 248.56C681.335 249.008 681.214 249.521 681.214 250.1V250.226C681.214 250.823 681.344 251.355 681.606 251.822C681.876 252.279 682.245 252.638 682.712 252.9C683.178 253.152 683.71 253.278 684.308 253.278C684.774 253.278 685.208 253.194 685.61 253.026C686.02 252.858 686.366 252.601 686.646 252.256L687.052 252.718C686.734 253.11 686.333 253.408 685.848 253.614C685.372 253.81 684.854 253.908 684.294 253.908ZM689.801 253.852V246.544H690.501V249.876H695.457V246.544H696.157V253.852H695.457V250.492H690.501V253.852H689.801ZM700.51 253.852V246.964L700.706 247.174H697.654V246.544H704.066V247.174H701.014L701.21 246.964V253.852H700.51ZM712.579 253.852V246.544H713.279V253.852H712.579ZM708.449 249.204C709.363 249.213 710.054 249.414 710.521 249.806C710.997 250.188 711.235 250.753 711.235 251.5C711.235 252.274 710.983 252.867 710.479 253.278C709.975 253.688 709.247 253.889 708.295 253.88L705.565 253.852V246.544H706.265V249.176L708.449 249.204ZM708.267 253.32C709.013 253.329 709.578 253.18 709.961 252.872C710.343 252.564 710.535 252.106 710.535 251.5C710.535 250.912 710.343 250.473 709.961 250.184C709.587 249.894 709.023 249.745 708.267 249.736L706.265 249.722V253.292L708.267 253.32ZM716.017 252.816H715.345L717.361 250.198L715.345 247.566H716.017L718.061 250.198L716.017 252.816ZM718.355 252.816H717.683L719.699 250.198L717.683 247.566H718.355L720.399 250.198L718.355 252.816Z" fill="#171717"/>
<rect x="497.5" y="280.852" width="12" height="12" fill="#ED8F52"/>
<path d="M520.286 289.816L518.242 287.198L520.286 284.566H520.972L518.956 287.198L520.972 289.816H520.286ZM522.624 289.816L520.58 287.198L522.624 284.566H523.31L521.294 287.198L523.31 289.816H522.624ZM525.635 290.852V281.052H529.149C529.97 281.052 530.675 281.182 531.263 281.444C531.851 281.705 532.304 282.083 532.621 282.578C532.938 283.063 533.097 283.656 533.097 284.356C533.097 285.037 532.938 285.625 532.621 286.12C532.304 286.614 531.851 286.992 531.263 287.254C530.675 287.515 529.97 287.646 529.149 287.646H526.027L526.349 287.31V290.852H525.635ZM526.349 287.352L526.027 287.002H529.149C530.204 287.002 531.002 286.773 531.543 286.316C532.094 285.849 532.369 285.196 532.369 284.356C532.369 283.506 532.094 282.853 531.543 282.396C531.002 281.929 530.204 281.696 529.149 281.696H526.027L526.349 281.346V287.352ZM539.627 290.852V289.186L539.599 288.934V286.19C539.599 285.508 539.412 284.99 539.039 284.636C538.675 284.281 538.138 284.104 537.429 284.104C536.925 284.104 536.453 284.192 536.015 284.37C535.585 284.538 535.217 284.757 534.909 285.028L534.559 284.524C534.923 284.197 535.361 283.945 535.875 283.768C536.388 283.581 536.925 283.488 537.485 283.488C538.39 283.488 539.085 283.716 539.571 284.174C540.056 284.631 540.299 285.312 540.299 286.218V290.852H539.627ZM536.995 290.908C536.453 290.908 535.982 290.824 535.581 290.656C535.189 290.478 534.885 290.231 534.671 289.914C534.465 289.596 534.363 289.232 534.363 288.822C534.363 288.448 534.447 288.112 534.615 287.814C534.792 287.506 535.081 287.258 535.483 287.072C535.884 286.876 536.421 286.778 537.093 286.778H539.781V287.324H537.107C536.351 287.324 535.819 287.464 535.511 287.744C535.212 288.024 535.063 288.374 535.063 288.794C535.063 289.26 535.24 289.634 535.595 289.914C535.949 290.194 536.449 290.334 537.093 290.334C537.709 290.334 538.227 290.194 538.647 289.914C539.076 289.634 539.393 289.228 539.599 288.696L539.795 289.172C539.599 289.704 539.263 290.128 538.787 290.446C538.32 290.754 537.723 290.908 536.995 290.908ZM546.335 290.922C545.747 290.922 545.224 290.819 544.767 290.614C544.319 290.408 543.936 290.105 543.619 289.704C543.311 289.302 543.073 288.808 542.905 288.22C542.737 287.622 542.653 286.936 542.653 286.162C542.653 285.406 542.728 284.757 542.877 284.216C543.026 283.665 543.222 283.203 543.465 282.83C543.717 282.447 544.002 282.134 544.319 281.892C544.636 281.649 544.963 281.458 545.299 281.318C545.644 281.168 545.985 281.056 546.321 280.982L549.555 280.212L549.667 280.87L546.587 281.584C546.372 281.64 546.12 281.714 545.831 281.808C545.551 281.892 545.262 282.027 544.963 282.214C544.674 282.391 544.403 282.643 544.151 282.97C543.908 283.287 543.708 283.698 543.549 284.202C543.4 284.706 543.325 285.331 543.325 286.078C543.325 286.218 543.33 286.33 543.339 286.414C543.348 286.498 543.358 286.591 543.367 286.694C543.386 286.787 543.404 286.927 543.423 287.114L543.101 286.946C543.157 286.33 543.339 285.788 543.647 285.322C543.955 284.855 544.356 284.491 544.851 284.23C545.346 283.968 545.906 283.838 546.531 283.838C547.212 283.838 547.814 283.987 548.337 284.286C548.869 284.575 549.284 284.986 549.583 285.518C549.882 286.04 550.031 286.647 550.031 287.338C550.031 288.028 549.877 288.644 549.569 289.186C549.27 289.727 548.841 290.152 548.281 290.46C547.73 290.768 547.082 290.922 546.335 290.922ZM546.447 290.32C547.007 290.32 547.502 290.194 547.931 289.942C548.37 289.68 548.71 289.326 548.953 288.878C549.196 288.43 549.317 287.921 549.317 287.352C549.317 286.782 549.196 286.283 548.953 285.854C548.71 285.424 548.37 285.088 547.931 284.846C547.502 284.594 547.002 284.468 546.433 284.468C545.873 284.468 545.374 284.589 544.935 284.832C544.506 285.074 544.17 285.41 543.927 285.84C543.684 286.269 543.563 286.768 543.563 287.338C543.563 287.907 543.684 288.416 543.927 288.864C544.179 289.312 544.52 289.666 544.949 289.928C545.388 290.189 545.887 290.32 546.447 290.32ZM555.242 290.908C554.542 290.908 553.917 290.749 553.366 290.432C552.825 290.114 552.391 289.676 552.064 289.116C551.747 288.556 551.588 287.916 551.588 287.198C551.588 286.47 551.747 285.83 552.064 285.28C552.391 284.72 552.825 284.281 553.366 283.964C553.917 283.646 554.542 283.488 555.242 283.488C555.942 283.488 556.568 283.646 557.118 283.964C557.669 284.281 558.103 284.72 558.42 285.28C558.738 285.83 558.896 286.47 558.896 287.198C558.896 287.916 558.738 288.556 558.42 289.116C558.103 289.676 557.669 290.114 557.118 290.432C556.568 290.749 555.942 290.908 555.242 290.908ZM555.242 290.278C555.802 290.278 556.306 290.152 556.754 289.9C557.202 289.638 557.552 289.274 557.804 288.808C558.056 288.341 558.182 287.804 558.182 287.198C558.182 286.582 558.056 286.045 557.804 285.588C557.552 285.121 557.202 284.762 556.754 284.51C556.306 284.248 555.802 284.118 555.242 284.118C554.682 284.118 554.178 284.248 553.73 284.51C553.292 284.762 552.942 285.121 552.68 285.588C552.428 286.045 552.302 286.582 552.302 287.198C552.302 287.804 552.428 288.341 552.68 288.808C552.942 289.274 553.292 289.638 553.73 289.9C554.178 290.152 554.682 290.278 555.242 290.278ZM565.796 287.674C565.339 287.879 564.881 288.038 564.424 288.15C563.976 288.252 563.542 288.304 563.122 288.304C562.291 288.304 561.624 288.112 561.12 287.73C560.616 287.338 560.364 286.754 560.364 285.98V283.544H561.064V285.938C561.064 286.526 561.26 286.969 561.652 287.268C562.044 287.566 562.567 287.716 563.22 287.716C563.612 287.716 564.027 287.664 564.466 287.562C564.905 287.459 565.353 287.305 565.81 287.1L565.796 287.674ZM565.726 290.852V283.544H566.426V290.852H565.726ZM569.448 290.852V283.544H570.148V289.774L575.356 283.544H575.972V290.852H575.272V284.622L570.064 290.852H569.448ZM582.015 290.908C581.277 290.908 580.624 290.749 580.055 290.432C579.495 290.114 579.051 289.676 578.725 289.116C578.407 288.556 578.249 287.916 578.249 287.198C578.249 286.47 578.398 285.83 578.697 285.28C579.005 284.72 579.425 284.281 579.957 283.964C580.489 283.646 581.086 283.488 581.749 283.488C582.411 283.488 583.004 283.642 583.527 283.95C584.059 284.258 584.474 284.692 584.773 285.252C585.081 285.802 585.235 286.442 585.235 287.17C585.235 287.198 585.23 287.23 585.221 287.268C585.221 287.296 585.221 287.328 585.221 287.366H578.767V286.82H584.843L584.563 287.086C584.572 286.516 584.451 286.008 584.199 285.56C583.956 285.102 583.625 284.748 583.205 284.496C582.785 284.234 582.299 284.104 581.749 284.104C581.207 284.104 580.722 284.234 580.293 284.496C579.873 284.748 579.541 285.102 579.299 285.56C579.056 286.008 578.935 286.521 578.935 287.1V287.226C578.935 287.823 579.065 288.355 579.327 288.822C579.597 289.279 579.966 289.638 580.433 289.9C580.899 290.152 581.431 290.278 582.029 290.278C582.495 290.278 582.929 290.194 583.331 290.026C583.741 289.858 584.087 289.601 584.367 289.256L584.773 289.718C584.455 290.11 584.054 290.408 583.569 290.614C583.093 290.81 582.575 290.908 582.015 290.908ZM587.256 289.816H586.584L588.6 287.198L586.584 284.566H587.256L589.3 287.198L587.256 289.816ZM589.594 289.816H588.922L590.938 287.198L588.922 284.566H589.594L591.638 287.198L589.594 289.816Z" fill="#171717"/>
<rect x="497.5" y="317.852" width="12" height="12" fill="#F4D7C4"/>
<path d="M520.286 326.816L518.242 324.198L520.286 321.566H520.972L518.956 324.198L520.972 326.816H520.286ZM522.624 326.816L520.58 324.198L522.624 321.566H523.31L521.294 324.198L523.31 326.816H522.624ZM527.389 327.852V318.472L527.599 318.696H523.861V318.052H531.631V318.696H527.893L528.103 318.472V327.852H527.389ZM536.776 327.908C536.132 327.908 535.549 327.758 535.026 327.46C534.513 327.161 534.102 326.736 533.794 326.186C533.495 325.626 533.346 324.963 533.346 324.198C533.346 323.432 533.495 322.774 533.794 322.224C534.102 321.664 534.513 321.234 535.026 320.936C535.549 320.637 536.132 320.488 536.776 320.488C537.467 320.488 538.083 320.646 538.624 320.964C539.175 321.272 539.604 321.706 539.912 322.266C540.229 322.826 540.388 323.47 540.388 324.198C540.388 324.926 540.229 325.57 539.912 326.13C539.604 326.69 539.175 327.128 538.624 327.446C538.083 327.754 537.467 327.908 536.776 327.908ZM533.108 330.568V320.544H533.78V322.938L533.668 324.212L533.808 325.486V330.568H533.108ZM536.734 327.278C537.294 327.278 537.798 327.152 538.246 326.9C538.694 326.638 539.044 326.274 539.296 325.808C539.557 325.341 539.688 324.804 539.688 324.198C539.688 323.582 539.557 323.045 539.296 322.588C539.044 322.121 538.694 321.762 538.246 321.51C537.798 321.248 537.294 321.118 536.734 321.118C536.174 321.118 535.67 321.248 535.222 321.51C534.783 321.762 534.433 322.121 534.172 322.588C533.92 323.045 533.794 323.582 533.794 324.198C533.794 324.804 533.92 325.341 534.172 325.808C534.433 326.274 534.783 326.638 535.222 326.9C535.67 327.152 536.174 327.278 536.734 327.278ZM547.201 327.852V326.186L547.173 325.934V323.19C547.173 322.508 546.986 321.99 546.613 321.636C546.249 321.281 545.712 321.104 545.003 321.104C544.499 321.104 544.028 321.192 543.589 321.37C543.16 321.538 542.791 321.757 542.483 322.028L542.133 321.524C542.497 321.197 542.936 320.945 543.449 320.768C543.962 320.581 544.499 320.488 545.059 320.488C545.964 320.488 546.66 320.716 547.145 321.174C547.63 321.631 547.873 322.312 547.873 323.218V327.852H547.201ZM544.569 327.908C544.028 327.908 543.556 327.824 543.155 327.656C542.763 327.478 542.46 327.231 542.245 326.914C542.04 326.596 541.937 326.232 541.937 325.822C541.937 325.448 542.021 325.112 542.189 324.814C542.366 324.506 542.656 324.258 543.057 324.072C543.458 323.876 543.995 323.778 544.667 323.778H547.355V324.324H544.681C543.925 324.324 543.393 324.464 543.085 324.744C542.786 325.024 542.637 325.374 542.637 325.794C542.637 326.26 542.814 326.634 543.169 326.914C543.524 327.194 544.023 327.334 544.667 327.334C545.283 327.334 545.801 327.194 546.221 326.914C546.65 326.634 546.968 326.228 547.173 325.696L547.369 326.172C547.173 326.704 546.837 327.128 546.361 327.446C545.894 327.754 545.297 327.908 544.569 327.908ZM550.717 327.852V320.544H551.417V323.876H556.373V320.544H557.073V327.852H556.373V324.492H551.417V327.852H550.717ZM563.05 327.908C562.341 327.908 561.706 327.749 561.146 327.432C560.595 327.114 560.157 326.676 559.83 326.116C559.513 325.556 559.354 324.916 559.354 324.198C559.354 323.47 559.513 322.826 559.83 322.266C560.157 321.706 560.595 321.272 561.146 320.964C561.706 320.646 562.341 320.488 563.05 320.488C563.638 320.488 564.17 320.6 564.646 320.824C565.131 321.048 565.523 321.384 565.822 321.832L565.304 322.21C565.043 321.836 564.716 321.561 564.324 321.384C563.932 321.206 563.507 321.118 563.05 321.118C562.481 321.118 561.967 321.248 561.51 321.51C561.062 321.762 560.707 322.121 560.446 322.588C560.194 323.045 560.068 323.582 560.068 324.198C560.068 324.814 560.194 325.355 560.446 325.822C560.707 326.279 561.062 326.638 561.51 326.9C561.967 327.152 562.481 327.278 563.05 327.278C563.507 327.278 563.932 327.189 564.324 327.012C564.716 326.834 565.043 326.559 565.304 326.186L565.822 326.564C565.523 327.012 565.131 327.348 564.646 327.572C564.17 327.796 563.638 327.908 563.05 327.908ZM567.889 327.852V320.544H574.273V327.852H573.573V320.964L573.769 321.174H568.393L568.589 320.964V327.852H567.889ZM580.207 327.908C579.507 327.908 578.882 327.749 578.331 327.432C577.79 327.114 577.356 326.676 577.029 326.116C576.712 325.556 576.553 324.916 576.553 324.198C576.553 323.47 576.712 322.83 577.029 322.28C577.356 321.72 577.79 321.281 578.331 320.964C578.882 320.646 579.507 320.488 580.207 320.488C580.907 320.488 581.533 320.646 582.083 320.964C582.634 321.281 583.068 321.72 583.385 322.28C583.703 322.83 583.861 323.47 583.861 324.198C583.861 324.916 583.703 325.556 583.385 326.116C583.068 326.676 582.634 327.114 582.083 327.432C581.533 327.749 580.907 327.908 580.207 327.908ZM580.207 327.278C580.767 327.278 581.271 327.152 581.719 326.9C582.167 326.638 582.517 326.274 582.769 325.808C583.021 325.341 583.147 324.804 583.147 324.198C583.147 323.582 583.021 323.045 582.769 322.588C582.517 322.121 582.167 321.762 581.719 321.51C581.271 321.248 580.767 321.118 580.207 321.118C579.647 321.118 579.143 321.248 578.695 321.51C578.257 321.762 577.907 322.121 577.645 322.588C577.393 323.045 577.267 323.582 577.267 324.198C577.267 324.804 577.393 325.341 577.645 325.808C577.907 326.274 578.257 326.638 578.695 326.9C579.143 327.152 579.647 327.278 580.207 327.278ZM589.823 327.908C589.179 327.908 588.596 327.758 588.073 327.46C587.56 327.161 587.149 326.736 586.841 326.186C586.542 325.626 586.393 324.963 586.393 324.198C586.393 323.432 586.542 322.774 586.841 322.224C587.149 321.664 587.56 321.234 588.073 320.936C588.596 320.637 589.179 320.488 589.823 320.488C590.514 320.488 591.13 320.646 591.671 320.964C592.222 321.272 592.651 321.706 592.959 322.266C593.276 322.826 593.435 323.47 593.435 324.198C593.435 324.926 593.276 325.57 592.959 326.13C592.651 326.69 592.222 327.128 591.671 327.446C591.13 327.754 590.514 327.908 589.823 327.908ZM586.155 330.568V320.544H586.827V322.938L586.715 324.212L586.855 325.486V330.568H586.155ZM589.781 327.278C590.341 327.278 590.845 327.152 591.293 326.9C591.741 326.638 592.091 326.274 592.343 325.808C592.604 325.341 592.735 324.804 592.735 324.198C592.735 323.582 592.604 323.045 592.343 322.588C592.091 322.121 591.741 321.762 591.293 321.51C590.845 321.248 590.341 321.118 589.781 321.118C589.221 321.118 588.717 321.248 588.269 321.51C587.83 321.762 587.48 322.121 587.219 322.588C586.967 323.045 586.841 323.582 586.841 324.198C586.841 324.804 586.967 325.341 587.219 325.808C587.48 326.274 587.83 326.638 588.269 326.9C588.717 327.152 589.221 327.278 589.781 327.278ZM596.768 327.852V320.964L596.964 321.174H593.912V320.544H600.324V321.174H597.272L597.468 320.964V327.852H596.768ZM600.521 329.854L601.067 327.488L601.137 327.894C600.96 327.894 600.81 327.838 600.689 327.726C600.577 327.614 600.521 327.474 600.521 327.306C600.521 327.138 600.577 326.998 600.689 326.886C600.81 326.774 600.95 326.718 601.109 326.718C601.286 326.718 601.426 326.778 601.529 326.9C601.641 327.012 601.697 327.147 601.697 327.306C601.697 327.371 601.692 327.436 601.683 327.502C601.674 327.567 601.66 327.632 601.641 327.698C601.622 327.763 601.599 327.847 601.571 327.95L601.025 329.854H600.521ZM606.177 327.824L606.247 327.222C606.303 327.231 606.359 327.245 606.415 327.264C606.481 327.273 606.537 327.278 606.583 327.278C606.901 327.278 607.153 327.161 607.339 326.928C607.526 326.685 607.666 326.363 607.759 325.962C607.862 325.56 607.932 325.108 607.969 324.604C608.016 324.1 608.053 323.586 608.081 323.064L608.207 320.544H613.331V327.852H612.631V320.95L612.827 321.174H608.655L608.837 320.936L608.725 323.12C608.688 323.754 608.637 324.361 608.571 324.94C608.506 325.518 608.408 326.032 608.277 326.48C608.147 326.928 607.96 327.282 607.717 327.544C607.475 327.796 607.162 327.922 606.779 327.922C606.686 327.922 606.588 327.912 606.485 327.894C606.392 327.875 606.289 327.852 606.177 327.824ZM619.268 327.908C618.568 327.908 617.942 327.749 617.392 327.432C616.85 327.114 616.416 326.676 616.09 326.116C615.772 325.556 615.614 324.916 615.614 324.198C615.614 323.47 615.772 322.83 616.09 322.28C616.416 321.72 616.85 321.281 617.392 320.964C617.942 320.646 618.568 320.488 619.268 320.488C619.968 320.488 620.593 320.646 621.144 320.964C621.694 321.281 622.128 321.72 622.446 322.28C622.763 322.83 622.922 323.47 622.922 324.198C622.922 324.916 622.763 325.556 622.446 326.116C622.128 326.676 621.694 327.114 621.144 327.432C620.593 327.749 619.968 327.908 619.268 327.908ZM619.268 327.278C619.828 327.278 620.332 327.152 620.78 326.9C621.228 326.638 621.578 326.274 621.83 325.808C622.082 325.341 622.208 324.804 622.208 324.198C622.208 323.582 622.082 323.045 621.83 322.588C621.578 322.121 621.228 321.762 620.78 321.51C620.332 321.248 619.828 321.118 619.268 321.118C618.708 321.118 618.204 321.248 617.756 321.51C617.317 321.762 616.967 322.121 616.706 322.588C616.454 323.045 616.328 323.582 616.328 324.198C616.328 324.804 616.454 325.341 616.706 325.808C616.967 326.274 617.317 326.638 617.756 326.9C618.204 327.152 618.708 327.278 619.268 327.278ZM625.201 327.852V320.544H630.199V321.174H625.705L625.901 320.978V327.852H625.201ZM631.696 327.852V320.544H632.396V326.774L637.604 320.544H638.22V327.852H637.52V321.622L632.312 327.852H631.696ZM644.193 327.908C643.483 327.908 642.849 327.749 642.289 327.432C641.738 327.114 641.299 326.676 640.973 326.116C640.655 325.556 640.497 324.916 640.497 324.198C640.497 323.47 640.655 322.826 640.973 322.266C641.299 321.706 641.738 321.272 642.289 320.964C642.849 320.646 643.483 320.488 644.193 320.488C644.781 320.488 645.313 320.6 645.789 320.824C646.274 321.048 646.666 321.384 646.965 321.832L646.447 322.21C646.185 321.836 645.859 321.561 645.467 321.384C645.075 321.206 644.65 321.118 644.193 321.118C643.623 321.118 643.11 321.248 642.653 321.51C642.205 321.762 641.85 322.121 641.589 322.588C641.337 323.045 641.211 323.582 641.211 324.198C641.211 324.814 641.337 325.355 641.589 325.822C641.85 326.279 642.205 326.638 642.653 326.9C643.11 327.152 643.623 327.278 644.193 327.278C644.65 327.278 645.075 327.189 645.467 327.012C645.859 326.834 646.185 326.559 646.447 326.186L646.965 326.564C646.666 327.012 646.274 327.348 645.789 327.572C645.313 327.796 644.781 327.908 644.193 327.908ZM650.197 327.852V320.964L650.393 321.174H647.341V320.544H653.753V321.174H650.701L650.897 320.964V327.852H650.197ZM655.252 327.852V320.544H655.952V326.774L661.16 320.544H661.776V327.852H661.076V321.622L655.868 327.852H655.252ZM670.185 327.852L667.049 324.198L667.637 323.862L671.025 327.852H670.185ZM664.795 327.852V320.544H665.495V327.852H664.795ZM665.271 324.464V323.862H667.567V324.464H665.271ZM667.679 324.268L667.035 324.156L670.031 320.544H670.801L667.679 324.268ZM677.18 327.852V326.186L677.152 325.934V323.19C677.152 322.508 676.965 321.99 676.592 321.636C676.228 321.281 675.691 321.104 674.982 321.104C674.478 321.104 674.006 321.192 673.568 321.37C673.138 321.538 672.77 321.757 672.462 322.028L672.112 321.524C672.476 321.197 672.914 320.945 673.428 320.768C673.941 320.581 674.478 320.488 675.038 320.488C675.943 320.488 676.638 320.716 677.124 321.174C677.609 321.631 677.852 322.312 677.852 323.218V327.852H677.18ZM674.548 327.908C674.006 327.908 673.535 327.824 673.134 327.656C672.742 327.478 672.438 327.231 672.224 326.914C672.018 326.596 671.916 326.232 671.916 325.822C671.916 325.448 672 325.112 672.168 324.814C672.345 324.506 672.634 324.258 673.036 324.072C673.437 323.876 673.974 323.778 674.646 323.778H677.334V324.324H674.66C673.904 324.324 673.372 324.464 673.064 324.744C672.765 325.024 672.616 325.374 672.616 325.794C672.616 326.26 672.793 326.634 673.148 326.914C673.502 327.194 674.002 327.334 674.646 327.334C675.262 327.334 675.78 327.194 676.2 326.914C676.629 326.634 676.946 326.228 677.152 325.696L677.348 326.172C677.152 326.704 676.816 327.128 676.34 327.446C675.873 327.754 675.276 327.908 674.548 327.908ZM680.43 326.816H679.758L681.774 324.198L679.758 321.566H680.43L682.474 324.198L680.43 326.816ZM682.768 326.816H682.096L684.112 324.198L682.096 321.566H682.768L684.812 324.198L682.768 326.816Z" fill="#171717"/>
<rect x="497.5" y="354.852" width="12" height="12" fill="#FBF6F4"/>
<path d="M519.264 364.852V355.052H527.328V364.852H526.614V355.472L526.824 355.696H519.768L519.978 355.472V364.852H519.264ZM534.288 364.908C533.644 364.908 533.06 364.758 532.538 364.46C532.024 364.161 531.614 363.736 531.306 363.186C531.007 362.626 530.858 361.963 530.858 361.198C530.858 360.432 531.007 359.774 531.306 359.224C531.614 358.664 532.024 358.234 532.538 357.936C533.06 357.637 533.644 357.488 534.288 357.488C534.978 357.488 535.594 357.646 536.136 357.964C536.686 358.272 537.116 358.706 537.424 359.266C537.741 359.826 537.9 360.47 537.9 361.198C537.9 361.926 537.741 362.57 537.424 363.13C537.116 363.69 536.686 364.128 536.136 364.446C535.594 364.754 534.978 364.908 534.288 364.908ZM530.62 367.568V357.544H531.292V359.938L531.18 361.212L531.32 362.486V367.568H530.62ZM534.246 364.278C534.806 364.278 535.31 364.152 535.758 363.9C536.206 363.638 536.556 363.274 536.808 362.808C537.069 362.341 537.2 361.804 537.2 361.198C537.2 360.582 537.069 360.045 536.808 359.588C536.556 359.121 536.206 358.762 535.758 358.51C535.31 358.248 534.806 358.118 534.246 358.118C533.686 358.118 533.182 358.248 532.734 358.51C532.295 358.762 531.945 359.121 531.684 359.588C531.432 360.045 531.306 360.582 531.306 361.198C531.306 361.804 531.432 362.341 531.684 362.808C531.945 363.274 532.295 363.638 532.734 363.9C533.182 364.152 533.686 364.278 534.246 364.278ZM543.088 364.908C542.388 364.908 541.763 364.749 541.212 364.432C540.671 364.114 540.237 363.676 539.91 363.116C539.593 362.556 539.434 361.916 539.434 361.198C539.434 360.47 539.593 359.83 539.91 359.28C540.237 358.72 540.671 358.281 541.212 357.964C541.763 357.646 542.388 357.488 543.088 357.488C543.788 357.488 544.413 357.646 544.964 357.964C545.515 358.281 545.949 358.72 546.266 359.28C546.583 359.83 546.742 360.47 546.742 361.198C546.742 361.916 546.583 362.556 546.266 363.116C545.949 363.676 545.515 364.114 544.964 364.432C544.413 364.749 543.788 364.908 543.088 364.908ZM543.088 364.278C543.648 364.278 544.152 364.152 544.6 363.9C545.048 363.638 545.398 363.274 545.65 362.808C545.902 362.341 546.028 361.804 546.028 361.198C546.028 360.582 545.902 360.045 545.65 359.588C545.398 359.121 545.048 358.762 544.6 358.51C544.152 358.248 543.648 358.118 543.088 358.118C542.528 358.118 542.024 358.248 541.576 358.51C541.137 358.762 540.787 359.121 540.526 359.588C540.274 360.045 540.148 360.582 540.148 361.198C540.148 361.804 540.274 362.341 540.526 362.808C540.787 363.274 541.137 363.638 541.576 363.9C542.024 364.152 542.528 364.278 543.088 364.278ZM553.642 361.674C553.184 361.879 552.727 362.038 552.27 362.15C551.822 362.252 551.388 362.304 550.968 362.304C550.137 362.304 549.47 362.112 548.966 361.73C548.462 361.338 548.21 360.754 548.21 359.98V357.544H548.91V359.938C548.91 360.526 549.106 360.969 549.498 361.268C549.89 361.566 550.412 361.716 551.066 361.716C551.458 361.716 551.873 361.664 552.312 361.562C552.75 361.459 553.198 361.305 553.656 361.1L553.642 361.674ZM553.572 364.852V357.544H554.272V364.852H553.572ZM557.293 364.852V357.544H557.993V363.774L563.201 357.544H563.817V364.852H563.117V358.622L557.909 364.852H557.293ZM569.86 364.908C569.123 364.908 568.47 364.749 567.9 364.432C567.34 364.114 566.897 363.676 566.57 363.116C566.253 362.556 566.094 361.916 566.094 361.198C566.094 360.47 566.244 359.83 566.542 359.28C566.85 358.72 567.27 358.281 567.802 357.964C568.334 357.646 568.932 357.488 569.594 357.488C570.257 357.488 570.85 357.642 571.372 357.95C571.904 358.258 572.32 358.692 572.618 359.252C572.926 359.802 573.08 360.442 573.08 361.17C573.08 361.198 573.076 361.23 573.066 361.268C573.066 361.296 573.066 361.328 573.066 361.366H566.612V360.82H572.688L572.408 361.086C572.418 360.516 572.296 360.008 572.044 359.56C571.802 359.102 571.47 358.748 571.05 358.496C570.63 358.234 570.145 358.104 569.594 358.104C569.053 358.104 568.568 358.234 568.138 358.496C567.718 358.748 567.387 359.102 567.144 359.56C566.902 360.008 566.78 360.521 566.78 361.1V361.226C566.78 361.823 566.911 362.355 567.172 362.822C567.443 363.279 567.812 363.638 568.278 363.9C568.745 364.152 569.277 364.278 569.874 364.278C570.341 364.278 570.775 364.194 571.176 364.026C571.587 363.858 571.932 363.601 572.212 363.256L572.618 363.718C572.301 364.11 571.9 364.408 571.414 364.614C570.938 364.81 570.42 364.908 569.86 364.908Z" fill="#171717"/>
<path d="M397.185 183.436C396.476 183.436 395.804 183.324 395.169 183.1C394.544 182.866 394.04 182.558 393.657 182.176L394.147 181.378C394.465 181.704 394.889 181.975 395.421 182.19C395.963 182.404 396.551 182.512 397.185 182.512C397.997 182.512 398.618 182.334 399.047 181.98C399.486 181.625 399.705 181.149 399.705 180.552C399.705 179.954 399.491 179.478 399.061 179.124C398.641 178.769 397.974 178.592 397.059 178.592H396.359V177.85L399.383 174.056L399.523 174.448H394.063V173.552H400.363V174.266L397.339 178.06L396.849 177.738H397.227C398.403 177.738 399.281 177.999 399.859 178.522C400.447 179.044 400.741 179.716 400.741 180.538C400.741 181.088 400.611 181.583 400.349 182.022C400.088 182.46 399.691 182.806 399.159 183.058C398.637 183.31 397.979 183.436 397.185 183.436ZM406.18 183.436C405.312 183.436 404.579 183.244 403.982 182.862C403.384 182.47 402.932 181.91 402.624 181.182C402.316 180.444 402.162 179.562 402.162 178.536C402.162 177.425 402.348 176.496 402.722 175.75C403.104 174.994 403.632 174.424 404.304 174.042C404.976 173.659 405.755 173.468 406.642 173.468C407.08 173.468 407.5 173.51 407.902 173.594C408.303 173.678 408.658 173.813 408.966 174L408.56 174.812C408.308 174.644 408.018 174.527 407.692 174.462C407.365 174.387 407.02 174.35 406.656 174.35C405.601 174.35 404.756 174.686 404.122 175.358C403.496 176.03 403.184 177.033 403.184 178.368C403.184 178.573 403.193 178.83 403.212 179.138C403.24 179.436 403.296 179.735 403.38 180.034L403.03 179.768C403.132 179.282 403.333 178.872 403.632 178.536C403.93 178.19 404.304 177.929 404.752 177.752C405.2 177.574 405.69 177.486 406.222 177.486C406.875 177.486 407.449 177.607 407.944 177.85C408.438 178.092 408.826 178.433 409.106 178.872C409.386 179.31 409.526 179.828 409.526 180.426C409.526 181.032 409.381 181.564 409.092 182.022C408.802 182.47 408.401 182.82 407.888 183.072C407.384 183.314 406.814 183.436 406.18 183.436ZM406.138 182.582C406.604 182.582 407.015 182.498 407.37 182.33C407.734 182.152 408.018 181.905 408.224 181.588C408.429 181.261 408.532 180.883 408.532 180.454C408.532 179.81 408.308 179.296 407.86 178.914C407.421 178.531 406.824 178.34 406.068 178.34C405.564 178.34 405.125 178.433 404.752 178.62C404.378 178.806 404.084 179.063 403.87 179.39C403.655 179.707 403.548 180.071 403.548 180.482C403.548 180.836 403.646 181.177 403.842 181.504C404.038 181.821 404.327 182.082 404.71 182.288C405.102 182.484 405.578 182.582 406.138 182.582ZM410.886 185.396L411.502 182.806L411.614 183.408C411.399 183.408 411.217 183.338 411.068 183.198C410.928 183.058 410.858 182.876 410.858 182.652C410.858 182.428 410.928 182.246 411.068 182.106C411.217 181.966 411.394 181.896 411.6 181.896C411.814 181.896 411.987 181.97 412.118 182.12C412.258 182.269 412.328 182.446 412.328 182.652C412.328 182.726 412.323 182.801 412.314 182.876C412.304 182.95 412.286 183.034 412.258 183.128C412.23 183.221 412.192 183.333 412.146 183.464L411.558 185.396H410.886ZM416.89 183.436C416.19 183.436 415.523 183.324 414.888 183.1C414.254 182.866 413.75 182.558 413.376 182.176L413.866 181.378C414.174 181.704 414.594 181.975 415.126 182.19C415.668 182.404 416.251 182.512 416.876 182.512C417.707 182.512 418.337 182.33 418.766 181.966C419.205 181.592 419.424 181.107 419.424 180.51C419.424 180.09 419.322 179.73 419.116 179.432C418.92 179.124 418.584 178.886 418.108 178.718C417.632 178.55 416.979 178.466 416.148 178.466H414.062L414.566 173.552H419.928V174.448H414.972L415.49 173.958L415.056 178.074L414.538 177.57H416.372C417.362 177.57 418.155 177.691 418.752 177.934C419.35 178.176 419.779 178.517 420.04 178.956C420.311 179.385 420.446 179.889 420.446 180.468C420.446 181.018 420.316 181.522 420.054 181.98C419.793 182.428 419.401 182.782 418.878 183.044C418.356 183.305 417.693 183.436 416.89 183.436ZM422.905 183.352L429.597 173.552H430.423L423.731 183.352H422.905ZM423.661 178.802C423.223 178.802 422.835 178.694 422.499 178.48C422.163 178.256 421.902 177.943 421.715 177.542C421.538 177.14 421.449 176.674 421.449 176.142C421.449 175.61 421.538 175.143 421.715 174.742C421.902 174.34 422.163 174.032 422.499 173.818C422.835 173.594 423.223 173.482 423.661 173.482C424.1 173.482 424.483 173.594 424.809 173.818C425.145 174.032 425.407 174.34 425.593 174.742C425.78 175.143 425.873 175.61 425.873 176.142C425.873 176.674 425.78 177.14 425.593 177.542C425.407 177.943 425.145 178.256 424.809 178.48C424.483 178.694 424.1 178.802 423.661 178.802ZM423.661 178.172C424.119 178.172 424.483 177.994 424.753 177.64C425.033 177.276 425.173 176.776 425.173 176.142C425.173 175.507 425.033 175.012 424.753 174.658C424.483 174.294 424.119 174.112 423.661 174.112C423.195 174.112 422.826 174.294 422.555 174.658C422.285 175.012 422.149 175.507 422.149 176.142C422.149 176.776 422.285 177.276 422.555 177.64C422.826 177.994 423.195 178.172 423.661 178.172ZM429.667 183.422C429.238 183.422 428.855 183.314 428.519 183.1C428.183 182.876 427.922 182.563 427.735 182.162C427.549 181.76 427.455 181.294 427.455 180.762C427.455 180.23 427.549 179.763 427.735 179.362C427.922 178.96 428.183 178.652 428.519 178.438C428.855 178.214 429.238 178.102 429.667 178.102C430.115 178.102 430.503 178.214 430.829 178.438C431.165 178.652 431.422 178.96 431.599 179.362C431.786 179.763 431.879 180.23 431.879 180.762C431.879 181.294 431.786 181.76 431.599 182.162C431.422 182.563 431.165 182.876 430.829 183.1C430.503 183.314 430.115 183.422 429.667 183.422ZM429.667 182.792C430.125 182.792 430.489 182.614 430.759 182.26C431.039 181.896 431.179 181.396 431.179 180.762C431.179 180.127 431.039 179.632 430.759 179.278C430.489 178.914 430.125 178.732 429.667 178.732C429.21 178.732 428.841 178.914 428.561 179.278C428.291 179.632 428.155 180.127 428.155 180.762C428.155 181.396 428.291 181.896 428.561 182.26C428.841 182.614 429.21 182.792 429.667 182.792Z" fill="#261104"/>
<path d="M408.982 385.352V375.972L409.43 376.448H406.672V375.552H409.99V385.352H408.982ZM415.384 375.468C416.252 375.468 416.985 375.664 417.582 376.056C418.18 376.438 418.632 376.994 418.94 377.722C419.248 378.45 419.402 379.332 419.402 380.368C419.402 381.469 419.211 382.398 418.828 383.154C418.455 383.91 417.932 384.479 417.26 384.862C416.588 385.244 415.809 385.436 414.922 385.436C414.484 385.436 414.064 385.394 413.662 385.31C413.27 385.226 412.916 385.09 412.598 384.904L413.004 384.092C413.256 384.26 413.546 384.381 413.872 384.456C414.208 384.521 414.554 384.554 414.908 384.554C415.963 384.554 416.803 384.218 417.428 383.546C418.063 382.874 418.38 381.87 418.38 380.536C418.38 380.321 418.366 380.064 418.338 379.766C418.32 379.467 418.268 379.168 418.184 378.87L418.534 379.136C418.441 379.621 418.24 380.036 417.932 380.382C417.634 380.718 417.26 380.974 416.812 381.152C416.374 381.329 415.884 381.418 415.342 381.418C414.698 381.418 414.124 381.296 413.62 381.054C413.126 380.811 412.738 380.47 412.458 380.032C412.178 379.593 412.038 379.075 412.038 378.478C412.038 377.862 412.183 377.33 412.472 376.882C412.762 376.434 413.158 376.088 413.662 375.846C414.176 375.594 414.75 375.468 415.384 375.468ZM415.426 376.322C414.96 376.322 414.544 376.41 414.18 376.588C413.826 376.756 413.546 376.998 413.34 377.316C413.135 377.633 413.032 378.011 413.032 378.45C413.032 379.094 413.252 379.607 413.69 379.99C414.138 380.372 414.74 380.564 415.496 380.564C416 380.564 416.439 380.47 416.812 380.284C417.195 380.097 417.489 379.84 417.694 379.514C417.909 379.187 418.016 378.823 418.016 378.422C418.016 378.058 417.918 377.717 417.722 377.4C417.526 377.082 417.237 376.826 416.854 376.63C416.472 376.424 415.996 376.322 415.426 376.322ZM420.769 387.396L421.385 384.806L421.497 385.408C421.283 385.408 421.101 385.338 420.951 385.198C420.811 385.058 420.741 384.876 420.741 384.652C420.741 384.428 420.811 384.246 420.951 384.106C421.101 383.966 421.278 383.896 421.483 383.896C421.698 383.896 421.871 383.97 422.001 384.12C422.141 384.269 422.211 384.446 422.211 384.652C422.211 384.726 422.207 384.801 422.197 384.876C422.188 384.95 422.169 385.034 422.141 385.128C422.113 385.221 422.076 385.333 422.029 385.464L421.441 387.396H420.769ZM425.224 385.352V375.972L425.672 376.448H422.914V375.552H426.232V385.352H425.224ZM429.891 385.352L436.583 375.552H437.409L430.717 385.352H429.891ZM430.647 380.802C430.208 380.802 429.821 380.694 429.485 380.48C429.149 380.256 428.887 379.943 428.701 379.542C428.523 379.14 428.435 378.674 428.435 378.142C428.435 377.61 428.523 377.143 428.701 376.742C428.887 376.34 429.149 376.032 429.485 375.818C429.821 375.594 430.208 375.482 430.647 375.482C431.085 375.482 431.468 375.594 431.795 375.818C432.131 376.032 432.392 376.34 432.579 376.742C432.765 377.143 432.859 377.61 432.859 378.142C432.859 378.674 432.765 379.14 432.579 379.542C432.392 379.943 432.131 380.256 431.795 380.48C431.468 380.694 431.085 380.802 430.647 380.802ZM430.647 380.172C431.104 380.172 431.468 379.994 431.739 379.64C432.019 379.276 432.159 378.776 432.159 378.142C432.159 377.507 432.019 377.012 431.739 376.658C431.468 376.294 431.104 376.112 430.647 376.112C430.18 376.112 429.811 376.294 429.541 376.658C429.27 377.012 429.135 377.507 429.135 378.142C429.135 378.776 429.27 379.276 429.541 379.64C429.811 379.994 430.18 380.172 430.647 380.172ZM436.653 385.422C436.223 385.422 435.841 385.314 435.505 385.1C435.169 384.876 434.907 384.563 434.721 384.162C434.534 383.76 434.441 383.294 434.441 382.762C434.441 382.23 434.534 381.763 434.721 381.362C434.907 380.96 435.169 380.652 435.505 380.438C435.841 380.214 436.223 380.102 436.653 380.102C437.101 380.102 437.488 380.214 437.815 380.438C438.151 380.652 438.407 380.96 438.585 381.362C438.771 381.763 438.865 382.23 438.865 382.762C438.865 383.294 438.771 383.76 438.585 384.162C438.407 384.563 438.151 384.876 437.815 385.1C437.488 385.314 437.101 385.422 436.653 385.422ZM436.653 384.792C437.11 384.792 437.474 384.614 437.745 384.26C438.025 383.896 438.165 383.396 438.165 382.762C438.165 382.127 438.025 381.632 437.745 381.278C437.474 380.914 437.11 380.732 436.653 380.732C436.195 380.732 435.827 380.914 435.547 381.278C435.276 381.632 435.141 382.127 435.141 382.762C435.141 383.396 435.276 383.896 435.547 384.26C435.827 384.614 436.195 384.792 436.653 384.792Z" fill="#261104"/>
<path d="M205.164 158.352V148.972L205.612 149.448H202.854V148.552H206.172V158.352H205.164ZM212.42 158.436C211.664 158.436 210.992 158.24 210.404 157.848C209.816 157.446 209.354 156.877 209.018 156.14C208.682 155.393 208.514 154.497 208.514 153.452C208.514 152.406 208.682 151.515 209.018 150.778C209.354 150.031 209.816 149.462 210.404 149.07C210.992 148.668 211.664 148.468 212.42 148.468C213.176 148.468 213.848 148.668 214.436 149.07C215.024 149.462 215.486 150.031 215.822 150.778C216.167 151.515 216.34 152.406 216.34 153.452C216.34 154.497 216.167 155.393 215.822 156.14C215.486 156.877 215.024 157.446 214.436 157.848C213.848 158.24 213.176 158.436 212.42 158.436ZM212.42 157.512C212.999 157.512 213.503 157.358 213.932 157.05C214.361 156.732 214.697 156.275 214.94 155.678C215.183 155.071 215.304 154.329 215.304 153.452C215.304 152.574 215.183 151.837 214.94 151.24C214.697 150.633 214.361 150.176 213.932 149.868C213.503 149.55 212.999 149.392 212.42 149.392C211.86 149.392 211.361 149.55 210.922 149.868C210.483 150.176 210.143 150.633 209.9 151.24C209.657 151.837 209.536 152.574 209.536 153.452C209.536 154.329 209.657 155.071 209.9 155.678C210.143 156.275 210.483 156.732 210.922 157.05C211.361 157.358 211.86 157.512 212.42 157.512ZM217.689 160.396L218.305 157.806L218.417 158.408C218.203 158.408 218.021 158.338 217.871 158.198C217.731 158.058 217.661 157.876 217.661 157.652C217.661 157.428 217.731 157.246 217.871 157.106C218.021 156.966 218.198 156.896 218.403 156.896C218.618 156.896 218.791 156.97 218.921 157.12C219.061 157.269 219.131 157.446 219.131 157.652C219.131 157.726 219.127 157.801 219.117 157.876C219.108 157.95 219.089 158.034 219.061 158.128C219.033 158.221 218.996 158.333 218.949 158.464L218.361 160.396H217.689ZM223.694 158.436C222.994 158.436 222.327 158.324 221.692 158.1C221.057 157.866 220.553 157.558 220.18 157.176L220.67 156.378C220.978 156.704 221.398 156.975 221.93 157.19C222.471 157.404 223.055 157.512 223.68 157.512C224.511 157.512 225.141 157.33 225.57 156.966C226.009 156.592 226.228 156.107 226.228 155.51C226.228 155.09 226.125 154.73 225.92 154.432C225.724 154.124 225.388 153.886 224.912 153.718C224.436 153.55 223.783 153.466 222.952 153.466H220.866L221.37 148.552H226.732V149.448H221.776L222.294 148.958L221.86 153.074L221.342 152.57H223.176C224.165 152.57 224.959 152.691 225.556 152.934C226.153 153.176 226.583 153.517 226.844 153.956C227.115 154.385 227.25 154.889 227.25 155.468C227.25 156.018 227.119 156.522 226.858 156.98C226.597 157.428 226.205 157.782 225.682 158.044C225.159 158.305 224.497 158.436 223.694 158.436ZM229.709 158.352L236.401 148.552H237.227L230.535 158.352H229.709ZM230.465 153.802C230.026 153.802 229.639 153.694 229.303 153.48C228.967 153.256 228.706 152.943 228.519 152.542C228.342 152.14 228.253 151.674 228.253 151.142C228.253 150.61 228.342 150.143 228.519 149.742C228.706 149.34 228.967 149.032 229.303 148.818C229.639 148.594 230.026 148.482 230.465 148.482C230.904 148.482 231.286 148.594 231.613 148.818C231.949 149.032 232.21 149.34 232.397 149.742C232.584 150.143 232.677 150.61 232.677 151.142C232.677 151.674 232.584 152.14 232.397 152.542C232.21 152.943 231.949 153.256 231.613 153.48C231.286 153.694 230.904 153.802 230.465 153.802ZM230.465 153.172C230.922 153.172 231.286 152.994 231.557 152.64C231.837 152.276 231.977 151.776 231.977 151.142C231.977 150.507 231.837 150.012 231.557 149.658C231.286 149.294 230.922 149.112 230.465 149.112C229.998 149.112 229.63 149.294 229.359 149.658C229.088 150.012 228.953 150.507 228.953 151.142C228.953 151.776 229.088 152.276 229.359 152.64C229.63 152.994 229.998 153.172 230.465 153.172ZM236.471 158.422C236.042 158.422 235.659 158.314 235.323 158.1C234.987 157.876 234.726 157.563 234.539 157.162C234.352 156.76 234.259 156.294 234.259 155.762C234.259 155.23 234.352 154.763 234.539 154.362C234.726 153.96 234.987 153.652 235.323 153.438C235.659 153.214 236.042 153.102 236.471 153.102C236.919 153.102 237.306 153.214 237.633 153.438C237.969 153.652 238.226 153.96 238.403 154.362C238.59 154.763 238.683 155.23 238.683 155.762C238.683 156.294 238.59 156.76 238.403 157.162C238.226 157.563 237.969 157.876 237.633 158.1C237.306 158.314 236.919 158.422 236.471 158.422ZM236.471 157.792C236.928 157.792 237.292 157.614 237.563 157.26C237.843 156.896 237.983 156.396 237.983 155.762C237.983 155.127 237.843 154.632 237.563 154.278C237.292 153.914 236.928 153.732 236.471 153.732C236.014 153.732 235.645 153.914 235.365 154.278C235.094 154.632 234.959 155.127 234.959 155.762C234.959 156.396 235.094 156.896 235.365 157.26C235.645 157.614 236.014 157.792 236.471 157.792Z" fill="#261104"/>
<path d="M179.601 408.352V398.972L180.049 399.448H177.291V398.552H180.609V408.352H179.601ZM184.674 408.352L188.902 399L189.21 399.448H183.148L183.666 398.958V401.282H182.672V398.552H189.868V399.266L185.766 408.352H184.674ZM190.513 410.396L191.129 407.806L191.241 408.408C191.027 408.408 190.845 408.338 190.695 408.198C190.555 408.058 190.485 407.876 190.485 407.652C190.485 407.428 190.555 407.246 190.695 407.106C190.845 406.966 191.022 406.896 191.227 406.896C191.442 406.896 191.615 406.97 191.745 407.12C191.885 407.269 191.955 407.446 191.955 407.652C191.955 407.726 191.951 407.801 191.941 407.876C191.932 407.95 191.913 408.034 191.885 408.128C191.857 408.221 191.82 408.333 191.773 408.464L191.185 410.396H190.513ZM196.476 398.468C197.344 398.468 198.077 398.664 198.674 399.056C199.272 399.438 199.724 399.994 200.032 400.722C200.34 401.45 200.494 402.332 200.494 403.368C200.494 404.469 200.303 405.398 199.92 406.154C199.547 406.91 199.024 407.479 198.352 407.862C197.68 408.244 196.901 408.436 196.014 408.436C195.576 408.436 195.156 408.394 194.754 408.31C194.362 408.226 194.008 408.09 193.69 407.904L194.096 407.092C194.348 407.26 194.638 407.381 194.964 407.456C195.3 407.521 195.646 407.554 196 407.554C197.055 407.554 197.895 407.218 198.52 406.546C199.155 405.874 199.472 404.87 199.472 403.536C199.472 403.321 199.458 403.064 199.43 402.766C199.412 402.467 199.36 402.168 199.276 401.87L199.626 402.136C199.533 402.621 199.332 403.036 199.024 403.382C198.726 403.718 198.352 403.974 197.904 404.152C197.466 404.329 196.976 404.418 196.434 404.418C195.79 404.418 195.216 404.296 194.712 404.054C194.218 403.811 193.83 403.47 193.55 403.032C193.27 402.593 193.13 402.075 193.13 401.478C193.13 400.862 193.275 400.33 193.564 399.882C193.854 399.434 194.25 399.088 194.754 398.846C195.268 398.594 195.842 398.468 196.476 398.468ZM196.518 399.322C196.052 399.322 195.636 399.41 195.272 399.588C194.918 399.756 194.638 399.998 194.432 400.316C194.227 400.633 194.124 401.011 194.124 401.45C194.124 402.094 194.344 402.607 194.782 402.99C195.23 403.372 195.832 403.564 196.588 403.564C197.092 403.564 197.531 403.47 197.904 403.284C198.287 403.097 198.581 402.84 198.786 402.514C199.001 402.187 199.108 401.823 199.108 401.422C199.108 401.058 199.01 400.717 198.814 400.4C198.618 400.082 198.329 399.826 197.946 399.63C197.564 399.424 197.088 399.322 196.518 399.322ZM203.272 408.352L209.964 398.552H210.79L204.098 408.352H203.272ZM204.028 403.802C203.589 403.802 203.202 403.694 202.866 403.48C202.53 403.256 202.268 402.943 202.082 402.542C201.904 402.14 201.816 401.674 201.816 401.142C201.816 400.61 201.904 400.143 202.082 399.742C202.268 399.34 202.53 399.032 202.866 398.818C203.202 398.594 203.589 398.482 204.028 398.482C204.466 398.482 204.849 398.594 205.176 398.818C205.512 399.032 205.773 399.34 205.96 399.742C206.146 400.143 206.24 400.61 206.24 401.142C206.24 401.674 206.146 402.14 205.96 402.542C205.773 402.943 205.512 403.256 205.176 403.48C204.849 403.694 204.466 403.802 204.028 403.802ZM204.028 403.172C204.485 403.172 204.849 402.994 205.12 402.64C205.4 402.276 205.54 401.776 205.54 401.142C205.54 400.507 205.4 400.012 205.12 399.658C204.849 399.294 204.485 399.112 204.028 399.112C203.561 399.112 203.192 399.294 202.922 399.658C202.651 400.012 202.516 400.507 202.516 401.142C202.516 401.776 202.651 402.276 202.922 402.64C203.192 402.994 203.561 403.172 204.028 403.172ZM210.034 408.422C209.604 408.422 209.222 408.314 208.886 408.1C208.55 407.876 208.288 407.563 208.102 407.162C207.915 406.76 207.822 406.294 207.822 405.762C207.822 405.23 207.915 404.763 208.102 404.362C208.288 403.96 208.55 403.652 208.886 403.438C209.222 403.214 209.604 403.102 210.034 403.102C210.482 403.102 210.869 403.214 211.196 403.438C211.532 403.652 211.788 403.96 211.966 404.362C212.152 404.763 212.246 405.23 212.246 405.762C212.246 406.294 212.152 406.76 211.966 407.162C211.788 407.563 211.532 407.876 211.196 408.1C210.869 408.314 210.482 408.422 210.034 408.422ZM210.034 407.792C210.491 407.792 210.855 407.614 211.126 407.26C211.406 406.896 211.546 406.396 211.546 405.762C211.546 405.127 211.406 404.632 211.126 404.278C210.855 403.914 210.491 403.732 210.034 403.732C209.576 403.732 209.208 403.914 208.928 404.278C208.657 404.632 208.522 405.127 208.522 405.762C208.522 406.396 208.657 406.896 208.928 407.26C209.208 407.614 209.576 407.792 210.034 407.792Z" fill="#261104"/>
<path d="M118.726 291V281.62L119.174 282.096H116.416V281.2H119.734V291H118.726ZM126.095 291.084C125.227 291.084 124.494 290.893 123.897 290.51C123.299 290.118 122.847 289.558 122.539 288.83C122.231 288.093 122.077 287.211 122.077 286.184C122.077 285.073 122.263 284.145 122.637 283.398C123.019 282.642 123.547 282.073 124.219 281.69C124.891 281.307 125.67 281.116 126.557 281.116C126.995 281.116 127.415 281.158 127.817 281.242C128.218 281.326 128.573 281.461 128.881 281.648L128.475 282.46C128.223 282.292 127.933 282.175 127.607 282.11C127.28 282.035 126.935 281.998 126.571 281.998C125.516 281.998 124.671 282.334 124.037 283.006C123.411 283.678 123.099 284.681 123.099 286.016C123.099 286.221 123.108 286.478 123.127 286.786C123.155 287.085 123.211 287.383 123.295 287.682L122.945 287.416C123.047 286.931 123.248 286.52 123.547 286.184C123.845 285.839 124.219 285.577 124.667 285.4C125.115 285.223 125.605 285.134 126.137 285.134C126.79 285.134 127.364 285.255 127.859 285.498C128.353 285.741 128.741 286.081 129.021 286.52C129.301 286.959 129.441 287.477 129.441 288.074C129.441 288.681 129.296 289.213 129.007 289.67C128.717 290.118 128.316 290.468 127.803 290.72C127.299 290.963 126.729 291.084 126.095 291.084ZM126.053 290.23C126.519 290.23 126.93 290.146 127.285 289.978C127.649 289.801 127.933 289.553 128.139 289.236C128.344 288.909 128.447 288.531 128.447 288.102C128.447 287.458 128.223 286.945 127.775 286.562C127.336 286.179 126.739 285.988 125.983 285.988C125.479 285.988 125.04 286.081 124.667 286.268C124.293 286.455 123.999 286.711 123.785 287.038C123.57 287.355 123.463 287.719 123.463 288.13C123.463 288.485 123.561 288.825 123.757 289.152C123.953 289.469 124.242 289.731 124.625 289.936C125.017 290.132 125.493 290.23 126.053 290.23ZM130.801 293.044L131.417 290.454L131.529 291.056C131.314 291.056 131.132 290.986 130.983 290.846C130.843 290.706 130.773 290.524 130.773 290.3C130.773 290.076 130.843 289.894 130.983 289.754C131.132 289.614 131.309 289.544 131.515 289.544C131.729 289.544 131.902 289.619 132.033 289.768C132.173 289.917 132.243 290.095 132.243 290.3C132.243 290.375 132.238 290.449 132.229 290.524C132.219 290.599 132.201 290.683 132.173 290.776C132.145 290.869 132.107 290.981 132.061 291.112L131.473 293.044H130.801ZM137.467 291.084C136.711 291.084 136.039 290.888 135.451 290.496C134.863 290.095 134.401 289.525 134.065 288.788C133.729 288.041 133.561 287.145 133.561 286.1C133.561 285.055 133.729 284.163 134.065 283.426C134.401 282.679 134.863 282.11 135.451 281.718C136.039 281.317 136.711 281.116 137.467 281.116C138.223 281.116 138.895 281.317 139.483 281.718C140.071 282.11 140.533 282.679 140.869 283.426C141.214 284.163 141.387 285.055 141.387 286.1C141.387 287.145 141.214 288.041 140.869 288.788C140.533 289.525 140.071 290.095 139.483 290.496C138.895 290.888 138.223 291.084 137.467 291.084ZM137.467 290.16C138.046 290.16 138.55 290.006 138.979 289.698C139.408 289.381 139.744 288.923 139.987 288.326C140.23 287.719 140.351 286.977 140.351 286.1C140.351 285.223 140.23 284.485 139.987 283.888C139.744 283.281 139.408 282.824 138.979 282.516C138.55 282.199 138.046 282.04 137.467 282.04C136.907 282.04 136.408 282.199 135.969 282.516C135.53 282.824 135.19 283.281 134.947 283.888C134.704 284.485 134.583 285.223 134.583 286.1C134.583 286.977 134.704 287.719 134.947 288.326C135.19 288.923 135.53 289.381 135.969 289.698C136.408 290.006 136.907 290.16 137.467 290.16ZM144.147 291L150.839 281.2H151.665L144.973 291H144.147ZM144.903 286.45C144.464 286.45 144.077 286.343 143.741 286.128C143.405 285.904 143.143 285.591 142.957 285.19C142.779 284.789 142.691 284.322 142.691 283.79C142.691 283.258 142.779 282.791 142.957 282.39C143.143 281.989 143.405 281.681 143.741 281.466C144.077 281.242 144.464 281.13 144.903 281.13C145.341 281.13 145.724 281.242 146.051 281.466C146.387 281.681 146.648 281.989 146.835 282.39C147.021 282.791 147.115 283.258 147.115 283.79C147.115 284.322 147.021 284.789 146.835 285.19C146.648 285.591 146.387 285.904 146.051 286.128C145.724 286.343 145.341 286.45 144.903 286.45ZM144.903 285.82C145.36 285.82 145.724 285.643 145.995 285.288C146.275 284.924 146.415 284.425 146.415 283.79C146.415 283.155 146.275 282.661 145.995 282.306C145.724 281.942 145.36 281.76 144.903 281.76C144.436 281.76 144.067 281.942 143.797 282.306C143.526 282.661 143.391 283.155 143.391 283.79C143.391 284.425 143.526 284.924 143.797 285.288C144.067 285.643 144.436 285.82 144.903 285.82ZM150.909 291.07C150.479 291.07 150.097 290.963 149.761 290.748C149.425 290.524 149.163 290.211 148.977 289.81C148.79 289.409 148.697 288.942 148.697 288.41C148.697 287.878 148.79 287.411 148.977 287.01C149.163 286.609 149.425 286.301 149.761 286.086C150.097 285.862 150.479 285.75 150.909 285.75C151.357 285.75 151.744 285.862 152.071 286.086C152.407 286.301 152.663 286.609 152.841 287.01C153.027 287.411 153.121 287.878 153.121 288.41C153.121 288.942 153.027 289.409 152.841 289.81C152.663 290.211 152.407 290.524 152.071 290.748C151.744 290.963 151.357 291.07 150.909 291.07ZM150.909 290.44C151.366 290.44 151.73 290.263 152.001 289.908C152.281 289.544 152.421 289.045 152.421 288.41C152.421 287.775 152.281 287.281 152.001 286.926C151.73 286.562 151.366 286.38 150.909 286.38C150.451 286.38 150.083 286.562 149.803 286.926C149.532 287.281 149.397 287.775 149.397 288.41C149.397 289.045 149.532 289.544 149.803 289.908C150.083 290.263 150.451 290.44 150.909 290.44Z" fill="#261104"/>
</g>
<defs>
<filter id="filter0_d_1546_865" x="0" y="0.351562" width="910" height="521" filterUnits="userSpaceOnUse" color-interpolation-filters="sRGB">
<feFlood flood-opacity="0" result="BackgroundImageFix"/>
<feColorMatrix in="SourceAlpha" type="matrix" values="0 0 0 0 0 0 0 0 0 0 0 0 0 0 0 0 0 0 127 0" result="hardAlpha"/>
<feOffset dy="15"/>
<feGaussianBlur stdDeviation="10"/>
<feColorMatrix type="matrix" values="0 0 0 0 0 0 0 0 0 0 0 0 0 0 0 0 0 0 0.05 0"/>
<feBlend mode="normal" in2="BackgroundImageFix" result="effect1_dropShadow_1546_865"/>
<feBlend mode="normal" in="SourceGraphic" in2="effect1_dropShadow_1546_865" result="shape"/>
</filter>
</defs>
</svg>
